<svg width="361" height="345" viewBox="0 0 361 345" fill="none" xmlns="http://www.w3.org/2000/svg">
<g clip-path="url(#clip0_3963_54284)">
<path d="M79.5381 262.999L76.9553 257.13L76.9541 257.128C74.7285 252.038 79.1191 250.501 81.201 251.323C141.993 275.333 198.039 218.494 253.012 242.651C266.201 248.447 276.38 255.034 270.73 267.965L270.728 267.969C260.464 305.483 240.043 323.849 210.685 331.433C205.159 332.861 200.578 328.358 202.946 322.797C202.946 322.797 193.254 335.63 157.716 346.65C155.666 347.286 153.53 347.916 151.305 348.537L151.131 348.585C144.319 350.481 139.811 341.604 144.718 336.165L144.72 336.163L145.201 335.63C106.808 346.229 29.9888 329.449 23.2728 278.054C23.1229 276.907 22.9905 275.74 22.8761 274.554L22.8666 274.455L22.8655 274.444L22.8541 274.324L22.8534 274.317C22.3818 269.266 27.3114 266.033 31.429 268.473L31.4337 268.476L37.0337 271.801C37.0337 271.801 34.8331 266.879 36.1473 256.754L36.1527 256.712L36.1534 256.706C36.4612 254.379 38.9631 253.261 40.9172 254.311C47.0543 257.608 60.2353 263.126 79.5381 262.999Z" fill="#C0EAEB"/>
<path d="M88.6884 274.417L86.3826 269.178L86.3816 269.176C85.104 265.84 88.4438 263.288 91.0375 264.313C150.434 287.771 195.949 217.487 254.797 243.347C265.332 247.976 275.08 253.527 273.402 262.913C272.984 265.253 272.572 267.658 272.819 270.023C278.444 323.828 200.969 351.539 147.446 349.482C140.604 349.219 136.123 342.98 139.776 337.539C88.6943 344.01 41.1117 310.594 34.5373 289.425C34.231 288.439 34.2853 287.36 34.1831 286.302L34.1746 286.213L34.1737 286.203L34.1635 286.096L34.1629 286.09C33.7419 281.58 38.1425 278.694 41.8184 280.873L41.8226 280.875L46.8218 283.843C46.8218 283.843 44.8573 279.45 46.0305 270.41L46.0353 270.373L46.036 270.368C46.3107 268.291 48.5442 267.293 50.2887 268.23C56.7121 271.681 74.4301 280.812 88.6884 274.417Z" fill="white"/>
<path d="M360.739 274.048C356.952 216.94 304.466 168.858 281.072 156.161L292.29 155.34C296.733 155.015 299.348 150.49 296.788 146.844C285.114 130.221 254.619 102.171 204.72 98.485C148.756 94.3505 120.946 133.33 114.356 162.371C112.46 170.726 110.678 179.241 106.635 186.795L94.4507 209.557C74.9883 241.809 81.4311 323.714 102.568 380.653C112.61 407.706 130.396 418.205 149.942 427.668C160.845 436.572 169.674 440.87 176.679 442.968C185.897 445.728 193.995 452.14 195.079 461.701L198.87 495.13C199.223 498.236 201.013 501.045 203.917 502.201C222.582 509.634 255.226 507.755 272.797 501.974C275.925 500.946 277.998 498.112 278.482 494.856L285.351 448.675C285.925 444.814 287.29 441.119 289.221 437.726C319.577 384.409 326.83 317.44 339.947 280.551H354.451C358.043 280.551 360.976 277.632 360.739 274.048Z" fill="#C0EAEB"/>
<path d="M344.323 262.579C339.312 206.685 284.547 164.279 261.393 151.712L275.714 147.434C279.427 146.325 281.198 142.285 278.695 139.328C266.765 125.236 234.044 104.371 204.717 98.485C152.998 88.1052 121.912 131.984 114.513 162.396C112.487 170.721 110.675 179.241 106.632 186.795L94.4476 209.557C74.9853 241.809 81.428 323.714 102.564 380.653C112.607 407.706 130.393 418.205 149.939 427.668C160.842 436.572 169.671 440.87 176.676 442.968C185.894 445.728 193.992 452.14 195.076 461.701L199.054 496.778C199.289 498.849 200.486 500.712 202.39 501.559C213.746 506.616 231.078 507.849 246.922 506.649C305.54 506.649 303.055 305.96 318.888 274.024C324.598 270.409 329.328 268.751 336.598 269.4C340.777 269.773 344.697 266.758 344.323 262.579Z" fill="white"/>
<path d="M211.767 153.035C207.985 153.72 204.261 150.635 203.448 146.146C202.636 141.657 205.043 137.463 208.826 136.778C212.608 136.094 216.332 139.178 217.145 143.668C217.957 148.157 215.55 152.351 211.767 153.035Z" fill="#2B2940"/>
<path d="M203.284 165.196C204.466 163.532 206.634 163.392 208.125 164.883C209.615 166.374 209.866 168.931 208.683 170.594C201.42 180.814 189.317 188.46 174.952 191.06C160.587 193.659 146.572 190.739 136.188 183.713C134.497 182.569 133.836 180.087 134.71 178.168C135.584 176.249 137.662 175.621 139.352 176.764C148.089 182.675 160.43 185.429 173.505 183.063C186.58 180.697 197.173 173.793 203.284 165.196Z" fill="#2B2940"/>
<path fill-rule="evenodd" clip-rule="evenodd" d="M68.7321 161.87L128.22 196.12V264.62L68.7321 298.87L9.24414 264.62V196.12L68.7321 161.87ZM121.798 199.817L68.7321 169.265L15.666 199.817V260.923L68.7321 291.475L121.798 260.923V199.817Z" fill="#160C56"/>
<path fill-rule="evenodd" clip-rule="evenodd" d="M68.7321 291.475V260.923V230.37L42.199 215.094L15.666 199.817V230.37V260.923L68.7321 291.475Z" fill="white"/>
<path d="M95.2651 276.199L121.798 260.923L95.2651 245.646L68.7321 260.923V291.475L95.2651 276.199Z" fill="#87E0E1"/>
<path d="M68.7321 230.37V260.923L95.2651 245.646L68.7321 230.37Z" fill="#4F2FD0"/>
<path d="M95.2651 215.094L68.7321 230.37L95.2651 245.646L121.798 230.37L95.2651 215.094Z" fill="#7B5AFF"/>
<path d="M95.2651 184.541L68.7321 169.265L42.199 184.541L15.666 199.817L42.199 215.094L68.7321 199.817L95.2651 215.094L121.798 199.817L95.2651 184.541Z" fill="#F9DB4E"/>
<path d="M68.7321 230.37L95.2651 215.094L68.7321 199.817L42.199 215.094L68.7321 230.37Z" fill="#E94A5D"/>
<path d="M279.803 292.706C295.496 289.308 305.352 284.823 316.436 275.386C318.963 273.234 323.649 274.75 323.403 278.458C321.696 304.21 302.452 321.998 280.029 338.893C274.774 342.852 270.742 338.849 270.724 335.161C270.076 328.734 262.565 325.236 257.016 328.777L227.277 345.904C222.584 348.899 216.661 345.24 218.79 341.239C220.919 337.238 217.18 332.608 212.607 333.511C195.647 336.859 101.611 341.671 87.0691 281.485C109.656 318.607 171.563 323.915 203.909 300.094L204.631 299.195C206.45 296.928 209.658 296.184 212.376 297.397L227.072 303.957C229.967 305.25 233.384 304.396 235.234 301.918L248.813 283.735C250.912 280.923 254.963 280.257 257.953 282.231L271.341 291.074C273.824 292.713 276.887 293.338 279.803 292.706Z" fill="#C0EAEB"/>
<path d="M131.728 163.707C127.946 164.392 124.222 161.307 123.409 156.818C122.597 152.329 125.004 148.135 128.787 147.45C132.569 146.766 136.293 149.85 137.106 154.34C137.918 158.829 135.51 163.023 131.728 163.707Z" fill="#2B2940"/>
<mask id="mask0_3963_54284" style="mask-type:alpha" maskUnits="userSpaceOnUse" x="70" y="0" width="241" height="138">
<path d="M145.415 120.024C131.875 127.737 123.813 137.492 123.813 137.492L70.9453 36.5253L295.54 0.00013975L310.705 93.2472L271.3 79.211L259.606 113.661C251.463 116.866 252.694 113.788 241.997 112.06C205.35 116.248 182.826 102.892 151.503 110.023C150.295 110.298 149.105 110.717 148.109 111.454C146.117 112.928 143.197 115.96 145.415 120.024Z" fill="#D9D9D9"/>
</mask>
<g mask="url(#mask0_3963_54284)">
<mask id="mask1_3963_54284" style="mask-type:alpha" maskUnits="userSpaceOnUse" x="133" y="56" width="124" height="60">
<path d="M186.306 56.6786C155.008 60.9649 133.455 83.8707 133.948 115.01C163.497 114.659 225.658 113.764 237.913 112.996C241.997 110.822 256.729 115.01 256.729 115.01C256.729 80.172 216.919 52.4863 186.306 56.6786Z" fill="#F59797"/>
</mask>
<g mask="url(#mask1_3963_54284)">
<path d="M186.306 56.6775C155.007 60.9638 133.454 83.8695 133.947 115.009C163.496 114.658 225.657 113.762 237.912 112.995C250.167 112.227 257.451 108.773 259.561 107.142C254.111 71.8156 217.604 52.3912 186.306 56.6775Z" fill="#55ACB5"/>
<path d="M242.516 112.388C243.938 82.4973 221.081 57.8693 188.133 51.8691L271.252 46.6633L275.189 109.525L257.502 112.848L242.516 112.388Z" fill="#458596"/>
<path d="M103.804 140.439L84.5927 66.3106L152.438 49.838L171.649 123.966L103.804 140.439Z" fill="#3F7A89"/>
</g>
<mask id="mask2_3963_54284" style="mask-type:alpha" maskUnits="userSpaceOnUse" x="151" y="46" width="57" height="66">
<path d="M174.198 111.207C159.018 108.674 148.748 92.2778 151.956 75.1393C154.293 62.6512 158.103 50.0112 168.442 46.6603C172.696 46.6586 179.028 47.7297 185.493 49.6375C221.965 60.4006 208.368 116.91 174.198 111.207Z" fill="#0F94C6"/>
</mask>
<g mask="url(#mask2_3963_54284)">
<path d="M174.198 111.207C159.018 108.674 148.748 92.2778 151.956 75.1393C154.293 62.6512 158.103 50.0112 168.442 46.6603C172.696 46.6586 179.028 47.7297 185.493 49.6375C221.965 60.4006 208.368 116.91 174.198 111.207Z" fill="#4B979D"/>
<path d="M207.826 73.992C198.918 94.2048 174.913 88.5012 171.462 89.3391L181.754 116.923L216.75 108.426L207.826 73.992Z" fill="#3F7A89"/>
</g>
<ellipse cx="27.8982" cy="31.5301" rx="27.8982" ry="31.5301" transform="matrix(0.9956 0.0937015 -0.107401 0.994216 142.654 44.1649)" fill="#315A6E"/>
<mask id="mask3_3963_54284" style="mask-type:alpha" maskUnits="userSpaceOnUse" x="145" y="55" width="40" height="45">
<ellipse cx="19.4052" cy="21.9314" rx="19.4052" ry="21.9314" transform="matrix(0.9956 0.0937015 -0.107401 0.994216 147.852 54.039)" fill="#F2F2F2"/>
</mask>
<g mask="url(#mask3_3963_54284)">
<ellipse cx="19.4052" cy="21.9314" rx="19.4052" ry="21.9314" transform="matrix(0.9956 0.0937015 -0.107401 0.994216 147.852 54.039)" fill="#F2F2F2"/>
<path d="M129.288 55.9572L183.613 51.2907C183.613 51.2907 145.282 65.1091 154.931 106.387L129.288 55.9572Z" fill="#9DDEE0"/>
</g>
<path d="M145.707 148.14L194.793 126.794L221.492 113.719L242.668 112.4C233.965 112.4 224.941 103.845 210.691 99.1873C133.364 73.9156 95.8722 130.458 145.707 148.14Z" fill="#55ACB5"/>
<path d="M205.341 103.584C131.526 81.9152 101.056 135.449 149.887 152.774C178.99 141.529 194.397 122.123 218.124 112.955C224.51 114.374 233.702 114.364 242.465 112.05C242.263 112.1 237.589 113.051 205.341 103.584Z" fill="#25404F"/>
</g>
<path d="M93.8819 331.596C93.625 329.889 91.5317 329.197 90.5155 330.592C82.0249 342.25 90.5155 380.723 101.333 395.676C102.614 397.446 105.717 399.14 108.165 396.717C110.294 394.61 113.431 396.267 114.278 399.14L118.905 414.828C119.622 417.258 123.102 417.143 123.656 414.671C124.115 412.625 126.768 412.056 128.065 413.704C134.453 421.824 141.005 428.614 149.647 432.81C152.226 434.062 153.853 431.101 151.696 429.212C144.544 422.948 140.599 413.792 140.957 404.292L140.977 403.762C141.027 402.425 140.151 401.229 138.861 400.874L131.887 398.957C130.513 398.579 129.597 397.284 129.7 395.863L130.451 385.433C130.567 383.821 129.379 382.409 127.771 382.247L120.567 381.524C102.261 379.686 95.06 344.251 93.8819 331.596Z" fill="#C0EAEB"/>
<path d="M139.346 312.455C145.9 290.749 140.528 277.007 135.15 266.816C131.142 259.221 121.132 253.258 114.039 251.357C111.959 250.8 110.146 252.467 110.075 254.62L109.921 259.263L109.921 259.263C101.522 256.747 89.6818 253.202 85.136 259.148C73.1071 274.879 111.835 323.991 139.346 312.455Z" fill="white"/>
<path d="M285.06 234.703C291.206 234.703 299.232 239.081 299.232 241.561C262.082 258.03 218.432 269.463 188.323 270.847C186.739 270.919 186.667 269.085 188.233 268.836C222.726 263.349 255.925 249.687 260.571 241.561C261.666 239.646 265.404 222.374 246.714 202.528C246.119 201.896 246.565 200.847 247.434 200.884C276.064 202.097 282.551 225.329 285.06 234.703Z" fill="#C0EAEB"/>
</g>
<defs>
<clipPath id="clip0_3963_54284">
<rect width="361" height="349" fill="white" transform="matrix(-1 0 0 1 361 0)"/>
</clipPath>
</defs>
</svg>
