<svg width="249" height="298" viewBox="0 0 249 298" fill="none" xmlns="http://www.w3.org/2000/svg">
<path fill-rule="evenodd" clip-rule="evenodd" d="M35.2672 0.88623L65.1895 18.1139V52.5691L35.2672 69.7968L5.34501 52.5691V18.1139L35.2672 0.88623ZM61.9593 19.9736L35.2672 4.60577L8.57519 19.9736V50.7094L35.2672 66.0772L61.9593 50.7094V19.9736Z" fill="white"/>
<path fill-rule="evenodd" clip-rule="evenodd" d="M35.2672 66.0773V50.7094V35.3416L21.9212 27.6576L8.57519 19.9737V35.3416V50.7094L35.2672 66.0773Z" fill="white"/>
<path d="M48.6133 58.3934L61.9593 50.7094L48.6133 43.0255L35.2672 50.7094V66.0773L48.6133 58.3934Z" fill="#87E0E1"/>
<path d="M35.2672 35.3416V50.7094L48.6133 43.0255L35.2672 35.3416Z" fill="#1B46DD"/>
<path d="M48.6133 27.6576L35.2672 35.3416L48.6133 43.0255L61.9593 35.3416L48.6133 27.6576Z" fill="#B068E9"/>
<path d="M48.6133 12.2898L35.2672 4.60583L21.9212 12.2898L8.57519 19.9737L21.9212 27.6576L35.2672 19.9737L48.6133 27.6576L61.9593 19.9737L48.6133 12.2898Z" fill="#F9DB4E"/>
<path d="M35.2672 35.3416L48.6133 27.6576L35.2672 19.9737L21.9212 27.6576L35.2672 35.3416Z" fill="#E94A5D"/>
<path d="M40.8074 69.3031C40.9342 67.1659 38.7227 65.6866 36.8757 66.7685L36.8734 66.7706L36.8293 66.7965L36.8248 66.7985L36.7884 66.8199C36.3555 67.0755 35.9338 67.3356 35.5228 67.5991C28.723 71.959 24.8949 77.3828 23.1576 83.2536C14.4731 105.362 25.19 132.987 41.9047 148.365L40.8888 148.499C38.5825 148.806 37.4503 151.439 38.9704 153.201C52.096 168.409 74.4308 177.652 91.7583 175.634C91.937 175.618 92.1166 175.604 92.2966 175.586C100.35 175.276 96.6109 163.583 94.5721 157.447C94.4157 156.977 94.2005 156.531 93.9299 156.115L68.825 117.542C49.3669 105.184 49.7132 96.0589 52.1439 86.1504C52.5735 84.3989 50.9713 82.8253 49.2399 83.3295L45.9747 84.2815C45.8947 80.9281 46.2953 77.3198 47.3142 73.4543C47.6947 72.0107 46.8003 70.4757 45.3113 70.5849C43.5181 70.7164 41.9159 71.3142 40.6324 72.2129L40.8073 69.3053L40.8074 69.3031Z" fill="#C0EAEB"/>
<path d="M87.7627 120.228L94.1892 155.922C94.2871 156.465 94.4649 156.987 94.6911 157.491C97.2967 163.3 99.7744 175.382 93.9597 175.309C89.6639 165.605 62.3624 167.126 51.9085 154.755C50.4786 153.063 51.1003 150.021 53.7022 150.028C53.7022 150.028 46.8659 148.257 35.6388 135.441C34.9911 134.702 34.3288 133.926 33.6523 133.111L33.5997 133.047C31.531 130.553 34.0529 127.124 37.1073 128.206L37.1087 128.206L37.408 128.312C26.6803 115.326 15.5834 82.9984 30.7365 62.2351C32.2846 60.1139 35.3547 61.2625 35.5102 63.8839L36.3142 77.4406C37.7634 76.4259 39.6183 75.7944 41.6964 75.785C42.8161 75.7799 43.4824 76.9249 43.1803 78.0031C42.0252 82.1258 41.5715 85.9596 41.6563 89.5086L44.9212 88.5575C46.6527 88.0531 48.3805 89.68 48.5582 91.4747C49.4081 100.056 58.9346 110.218 72.4313 120.187C76.1342 122.922 84.0429 125.57 87.7627 120.228Z" fill="white"/>
<circle cx="8.81151" cy="8.81151" r="8.81151" transform="matrix(-1 0 0 1 132.96 95.6356)" fill="white"/>
<ellipse opacity="0.5" cx="57.2803" cy="8.27265" rx="57.2803" ry="8.27265" transform="matrix(-1 0 0 1 148.169 275.25)" fill="#5D5A75"/>
<path d="M142.371 101.687C169.899 105.73 181.677 120.445 185.565 129.7C186.325 131.51 184.897 133.344 182.935 133.342L176.149 133.334C180.105 138.913 181.719 146.23 182.434 151.461C182.791 154.073 184.354 156.356 186.563 157.794L175.146 216.36C172.156 227.105 171.078 250.555 163.322 245.815C160.305 263.052 156.427 257.253 156.427 257.253C153.493 263.73 151.38 275.014 151.265 282.605C151.259 283.026 151.193 283.456 150.945 283.796C150.586 284.287 150.073 284.643 149.46 284.763C141.632 286.289 123.097 286.186 118.658 283.6C118.184 283.324 117.901 282.84 117.816 282.299C117.286 278.936 117.558 267.757 118.023 261.789C118.192 259.616 116.038 257.452 113.867 257.253C112.589 257.136 109.171 256.969 108.686 256.928C106.582 256.75 105.428 257.957 104.578 259.875C99.6409 271.021 94.5051 275.632 94.5051 275.632C91.6267 277.949 70.9765 269.04 66.8793 265.517C66.5811 265.261 66.2539 265.041 65.9871 264.752C65.926 264.685 65.8702 264.615 65.8197 264.54C65.4542 263.998 65.6471 263.304 65.9171 262.709C71.7581 249.838 67.0242 216.796 69.6594 191.925C69.6594 191.925 73.4563 151.461 82.5924 129.211C93.0378 109.654 102.952 95.8985 142.371 101.687Z" fill="#C0EAEB"/>
<path d="M142.371 101.687C157.119 103.853 169.917 115.871 173.805 125.127C174.517 126.824 173.305 128.543 171.533 128.748C171.296 128.775 171.058 128.796 170.826 128.85L166.866 129.776C172.013 133.283 176.032 141.349 176.747 146.58C177.461 151.812 184.354 156.356 186.563 157.794L175.146 216.36C172.922 226.417 157.073 258.958 154.487 241.074C154.487 248.4 154.487 267.559 148.454 261.236C148.454 261.236 145.18 269.554 143.142 276.968C141.833 281.73 137.683 285.851 132.747 285.722C126.595 285.562 120.873 284.89 118.658 283.6C118.184 283.324 117.901 282.84 117.816 282.299C117.286 278.936 117.558 267.757 118.023 261.789C118.192 259.616 117.791 255.561 114.35 255.246C113.072 255.128 106.209 254.964 104.177 254.768C99.9487 254.362 95.6412 253.583 93.0698 252.591C92.0868 252.211 90.8254 252.507 90.3235 253.433C90.1894 253.68 90.1099 253.965 90.2363 254.217C90.9973 255.73 95.2844 258.735 97.5889 260.276C98.4939 260.881 99.0524 261.905 98.9374 262.987C98.3228 268.769 95.6169 273.754 94.7638 275.206C94.5952 275.493 94.3772 275.751 94.069 275.876C92.4412 276.537 88.2199 276.403 83.3639 275.817C74.7701 274.78 71.5846 268.702 64.5372 267.559C63.0043 267.31 62.5973 266.12 63.2743 264.611C67.3229 255.582 63.5816 224.111 71.5489 199.17C64.5372 199.17 64.1514 197.64 67.1926 188.747C75.0703 165.711 75.0124 143.404 82.5924 129.211C93.0378 109.654 102.952 95.8987 142.371 101.687Z" fill="white"/>
<path d="M139.885 136.505C137.769 136.023 136.444 133.917 136.926 131.801C137.408 129.685 139.515 128.36 141.631 128.842C143.747 129.324 145.072 131.43 144.59 133.546C144.108 135.663 142.001 136.987 139.885 136.505Z" fill="#2B2940"/>
<path d="M94.1141 126.08C91.9979 125.598 90.6732 123.491 91.1552 121.375C91.6372 119.259 93.7434 117.934 95.8596 118.416C97.9757 118.898 99.3004 121.005 98.8184 123.121C98.3364 125.237 96.2302 126.562 94.1141 126.08Z" fill="#2B2940"/>
<path d="M133.515 141.818C134.469 141.34 135.631 141.726 136.109 142.68C136.588 143.634 136.202 144.796 135.248 145.274C129.385 148.214 121.511 149.041 113.474 147.21C105.437 145.379 98.6975 141.224 94.6862 136.035C94.0332 135.191 94.1887 133.977 95.0333 133.324C95.8779 132.671 97.0919 132.826 97.7449 133.671C101.119 138.036 107.017 141.774 114.333 143.44C121.648 145.107 128.583 144.292 133.515 141.818Z" fill="#2B2940"/>
<path d="M228.87 227.675L231.735 226.987L231.737 226.987C234.218 226.385 233.559 224.351 232.679 223.818C206.983 208.256 212.185 171.939 188.054 158.548C182.265 155.335 177.022 153.443 173.863 159.108L173.863 159.109C162.993 173.301 161.955 185.881 167.348 198.732C168.363 201.151 171.285 201.574 172.66 199.161C172.66 199.161 170.662 206.277 176.516 222.344C176.854 223.271 177.218 224.228 177.61 225.215L177.64 225.292C178.842 228.311 183.344 227.491 183.968 224.183L183.969 224.182L184.03 223.857C190.833 240.853 218.343 264.289 239.015 252.448C239.476 252.184 239.94 251.908 240.405 251.62L240.444 251.596L240.449 251.593L240.496 251.564L240.499 251.562C242.478 250.329 242.289 247.626 240.251 246.799L240.249 246.798L237.474 245.674C237.474 245.674 239.887 245.11 243.226 241.812L243.24 241.799L243.241 241.797C244.007 241.037 243.72 239.81 242.792 239.387C239.879 238.059 234.193 234.772 228.87 227.675Z" fill="#C0EAEB"/>
<path d="M222.147 227.503L224.705 226.889L224.706 226.889C226.282 226.428 226.287 224.496 225.19 223.832C200.084 208.628 213.136 172.423 187.303 158.087C182.7 155.533 177.978 153.517 175.009 156.681C174.235 157.505 173.45 158.355 172.634 159.138C167.361 164.198 156.619 183.926 169.442 203.963C170.533 212.872 174.398 219.477 178.338 226.889C179.815 229.668 183.867 229.223 184.841 226.373C196.684 246.861 222.147 254.974 231.721 251.49C232.167 251.327 232.547 251.007 232.962 250.75L232.997 250.729L233.001 250.726L233.043 250.7L233.045 250.699C234.812 249.598 234.644 247.185 232.824 246.446L232.822 246.446L230.346 245.442C230.346 245.442 232.5 244.939 235.48 241.995L235.492 241.983L235.494 241.981C236.178 241.303 235.921 240.208 235.093 239.83C232.044 238.44 223.774 234.499 222.147 227.503Z" fill="white"/>
<path d="M93.7559 214.493C90.7477 212.829 89.0464 211.307 87.3447 208.636C86.9034 207.943 85.8595 208.046 85.6871 208.849C84.4895 214.425 86.3808 219.584 89.9559 224.52C90.7936 225.677 92.5437 225.392 93.0637 224.062C93.5824 222.734 95.33 222.442 96.2531 223.527L101.294 229.455C102.074 230.373 103.565 229.651 103.329 228.469C103.134 227.491 104.177 226.731 105.059 227.197C109.404 229.494 113.564 231.182 118.131 231.337C119.494 231.384 119.63 229.782 118.328 229.377C114.009 228.035 110.526 224.816 108.847 220.616L108.753 220.382C108.517 219.791 107.905 219.44 107.276 219.535L103.874 220.048C103.203 220.149 102.555 219.762 102.325 219.125L100.638 214.445C100.377 213.722 99.5883 213.337 98.8577 213.577L95.586 214.654C94.9793 214.853 94.3147 214.802 93.7559 214.493Z" fill="#C0EAEB"/>
<path d="M86.8286 166.443L86.6711 171.094C86.6482 171.772 87.107 172.371 87.7669 172.526L91.3764 173.372C91.8703 173.487 92.265 173.858 92.412 174.343L93.0587 176.478C93.9485 179.416 95.6596 182.039 97.9903 184.036L99.0657 184.958C100.161 185.897 99.3195 187.687 97.9075 187.389C93.6625 186.496 90.3457 185.245 87.1048 181.866C86.4302 181.163 85.2471 181.253 84.7581 182.096C84.1754 183.101 82.7035 182.98 82.3485 181.875C79.427 172.778 81.2907 166.936 85.2526 165.205C86.0648 164.85 86.8586 165.558 86.8286 166.443Z" fill="#C0EAEB"/>
<path d="M149.44 204.808C151.205 206.479 153.289 206.933 156.405 206.1C157.606 205.779 158.683 206.878 157.98 207.903C154.681 212.712 148.262 216.048 142.434 219.077L142.407 219.091C141.283 219.675 140.042 218.435 140.637 217.317C141.148 216.356 140.297 215.241 139.232 215.465C134.706 216.416 131.9 216.672 127.951 215.091C127.083 214.743 127.368 213.561 128.303 213.567C131.438 213.588 134.408 212.167 136.359 209.714L137.888 207.792C138.277 207.303 138.952 207.146 139.517 207.412L142.645 208.89C143.258 209.18 143.99 208.996 144.394 208.451L147.025 204.899C147.596 204.129 148.744 204.148 149.44 204.808Z" fill="#C0EAEB"/>
<mask id="mask0_1_20641" style="mask-type:alpha" maskUnits="userSpaceOnUse" x="101" y="50" width="106" height="72">
<path d="M117.596 100.855C110.219 101.588 104.828 104.269 104.828 104.269L101.377 50.1606L206.058 77.7213L194.615 121.183L180.203 107.461L170.595 111.728C152.179 122.503 134.454 96.5458 122.005 97.2917C122.005 97.2917 117.339 97.6938 117.596 100.855Z" fill="#D9D9D9"/>
</mask>
<g mask="url(#mask0_1_20641)">
<mask id="mask1_1_20641" style="mask-type:alpha" maskUnits="userSpaceOnUse" x="113" y="79" width="58" height="38">
<path d="M147.618 81.23C133.186 77.0399 119.388 82.8274 113.58 96.4572C126.491 102.019 153.682 113.652 159.157 115.688C161.352 115.533 169.968 116.253 169.968 116.253C173.629 100.248 161.734 85.3281 147.618 81.23Z" fill="#F59797"/>
</mask>
<g mask="url(#mask1_1_20641)">
<path d="M147.618 81.23C133.186 77.0399 119.388 82.8274 113.58 96.4572C126.491 102.019 153.682 113.652 159.157 115.688C164.632 117.725 168.466 117.632 169.698 117.331C174.162 100.923 162.051 85.42 147.618 81.23Z" fill="#55ACB5"/>
<path d="M160.974 117.127C167.372 104.411 162.504 88.473 149.344 79.493L186.477 93.3053L176.031 121.389L160.974 117.127Z" fill="#458596"/>
<path d="M95.5618 101.68L101.548 65.7459L134.222 71.7072L128.236 107.642L95.5618 101.68Z" fill="#3F7A89"/>
</g>
<mask id="mask2_1_20641" style="mask-type:alpha" maskUnits="userSpaceOnUse" x="126" y="73" width="28" height="32">
<path d="M131.809 102.589C125.701 98.5528 124.409 89.4401 129.117 82.6114C132.548 77.6356 136.649 72.8786 141.791 73.4217C143.64 74.2438 146.185 75.9338 148.626 78.0133C162.396 89.7448 145.558 111.676 131.809 102.589Z" fill="#0F94C6"/>
</mask>
<g mask="url(#mask2_1_20641)">
<path d="M131.809 102.589C125.701 98.5528 124.409 89.4401 129.117 82.6114C132.548 77.6356 136.649 72.8786 141.791 73.4217C143.64 74.2438 146.185 75.9338 148.626 78.0133C162.396 89.7448 145.558 111.676 131.809 102.589Z" fill="#4B979D"/>
<path d="M153.625 92.9164C145.844 99.9788 136.514 92.8573 134.852 92.5541L133.991 106.534L150.845 109.609L153.625 92.9164Z" fill="#3F7A89"/>
</g>
<ellipse cx="13.2718" cy="14.9996" rx="13.2718" ry="14.9996" transform="matrix(0.871524 0.490352 -0.502306 0.86469 131.065 67.3489)" fill="#315A6E"/>
<mask id="mask3_1_20641" style="mask-type:alpha" maskUnits="userSpaceOnUse" x="124" y="76" width="20" height="21">
<ellipse cx="9.23148" cy="10.4333" rx="9.23148" ry="10.4333" transform="matrix(0.871524 0.490352 -0.502306 0.86469 131.417 72.6458)" fill="#F2F2F2"/>
</mask>
<g mask="url(#mask3_1_20641)">
<ellipse cx="9.23148" cy="10.4333" rx="9.23148" ry="10.4333" transform="matrix(0.871524 0.490352 -0.502306 0.86469 131.417 72.6458)" fill="#F2F2F2"/>
<path d="M122.976 69.889L147.49 78.3669C147.49 78.3669 128.158 76.9598 124.369 96.7669L122.976 69.889Z" fill="#9DDEE0"/>
</g>
<path d="M137.745 113.346L112.282 113.131C94.0418 95.8077 121.272 78.4831 149.994 104.422C155.287 109.202 154.207 112.975 162.859 115.115C165.015 115.648 166.56 115.968 167.458 116.137C168.671 116.364 168.702 116.314 167.458 116.137C166.565 116.009 165.016 115.817 162.776 115.614L137.745 113.346Z" fill="#55ACB5"/>
<path d="M113.265 116.168L168.353 116.103C168.353 116.103 159.36 116.113 146.881 105.513C118.989 81.8194 95.3924 99.1942 113.265 116.168Z" fill="#25404F"/>
</g>
<path d="M117.658 280.626C120.664 286.295 123.841 281.194 125.635 279.234C126.933 277.816 127.241 284.799 130.622 284.993C132.855 285.121 134.379 280.908 135.362 280.498C136.112 280.186 139.963 284.21 143.036 277.447C145.12 278.294 147.045 284.265 150.323 283.396C151.95 286.76 116.147 291.002 117.658 280.626Z" fill="#C0EAEB"/>
<path d="M62.9556 265.056C65.6032 269.165 69.2443 266.581 71.9112 265.055C73.841 263.951 72.2169 270.031 75.3874 271.121C77.4816 271.841 79.552 269.07 80.6967 268.911C87.309 267.995 90.3895 275.835 93.7542 275.815C93.7198 279.676 60.3197 275.828 62.9556 265.056Z" fill="#C0EAEB"/>
</svg>
