<?xml version="1.0" encoding="UTF-8"?>
<svg width="44px" height="36px" viewBox="0 0 44 36" version="1.1" xmlns="http://www.w3.org/2000/svg" xmlns:xlink="http://www.w3.org/1999/xlink">
    <!-- Generator: Sketch 57.1 (83088) - https://sketch.com -->
    <title>“</title>
    <desc>Created with Sketch.</desc>
    <g id="Page-1" stroke="none" stroke-width="1" fill="none" fill-rule="evenodd">
        <g id="HOME_blue" transform="translate(-74.000000, -2920.000000)" fill="#1E252F" fill-rule="nonzero">
            <path d="M84.496,2955.848 C81.237317,2955.848 78.7933415,2954.65201 77.164,2952.26 C75.5346585,2949.86799 74.72,2946.52269 74.72,2942.224 C74.72,2937.30131 75.9333212,2932.96802 78.36,2929.224 C80.7866788,2925.47998 84.495975,2922.39468 89.488,2919.968 L92.816,2926.624 C89.6959844,2928.21867 87.3560078,2930.03866 85.796,2932.084 C84.2359922,2934.12934 83.456,2936.71198 83.456,2939.832 C83.664001,2939.76267 84.0106642,2939.728 84.496,2939.728 C86.7146778,2939.728 88.6039922,2940.40399 90.164,2941.756 C91.7240078,2943.10801 92.504,2944.96265 92.504,2947.32 C92.504,2949.95468 91.741341,2952.03466 90.216,2953.56 C88.690659,2955.08534 86.7840114,2955.848 84.496,2955.848 Z M109.04,2955.848 C105.781317,2955.848 103.337341,2954.65201 101.708,2952.26 C100.078659,2949.86799 99.264,2946.52269 99.264,2942.224 C99.264,2937.30131 100.477321,2932.96802 102.904,2929.224 C105.330679,2925.47998 109.039975,2922.39468 114.032,2919.968 L117.36,2926.624 C114.239984,2928.21867 111.900008,2930.03866 110.34,2932.084 C108.779992,2934.12934 108,2936.71198 108,2939.832 C108.208001,2939.76267 108.554664,2939.728 109.04,2939.728 C111.258678,2939.728 113.147992,2940.40399 114.708,2941.756 C116.268008,2943.10801 117.048,2944.96265 117.048,2947.32 C117.048,2949.95468 116.285341,2952.03466 114.76,2953.56 C113.234659,2955.08534 111.328011,2955.848 109.04,2955.848 Z" id="“"></path>
        </g>
    </g>
</svg>