<svg width="20" height="20" viewBox="0 0 20 20" fill="none" xmlns="http://www.w3.org/2000/svg">
<path d="M17.922 8.35498L17.8995 8.29622L15.6681 2.47422C15.6235 2.36015 15.5433 2.26407 15.4389 2.1977C15.3349 2.13099 15.2129 2.09954 15.0891 2.10611C14.9661 2.11268 14.8479 2.15761 14.7514 2.23434C14.6557 2.31177 14.5866 2.4165 14.5541 2.5347L13.0474 7.14593H6.95166L5.445 2.5347C5.41251 2.4165 5.34338 2.31177 5.24764 2.23434C5.1512 2.15761 5.03299 2.11268 4.90994 2.10611C4.78621 2.09954 4.66419 2.13099 4.56016 2.1977C4.45577 2.26407 4.37558 2.36015 4.33099 2.47422L2.09953 8.29657L2.07706 8.35498C1.41584 10.0797 1.97924 12.0295 3.45168 13.1432C3.45444 13.1449 3.45686 13.147 3.45963 13.1491L3.47933 13.1639L6.87838 15.7085L8.55959 16.9812L9.5827 17.7547C9.82913 17.9414 10.1699 17.9414 10.4164 17.7547L11.4395 16.9812L13.1203 15.7085L16.5394 13.1491C16.5426 13.1466 16.5453 13.1446 16.5484 13.1421C18.0198 12.0285 18.5829 10.0794 17.922 8.35498Z" fill="#E24329"/>
<path d="M17.9225 8.35499L17.9 8.29623C16.7929 8.52367 15.7733 8.99201 14.9002 9.64528C14.886 9.65565 12.247 11.6514 10 13.3502C11.6684 14.6118 13.1208 15.7085 13.1208 15.7085L16.5399 13.1491C16.543 13.1466 16.5458 13.1446 16.5489 13.1421C18.0203 12.0285 18.5834 10.0794 17.9225 8.35499Z" fill="#FC6D26"/>
<path d="M6.87891 15.7085L8.56012 16.9812L9.58322 17.7547C9.82966 17.9414 10.1705 17.9414 10.4169 17.7547L11.44 16.9812L13.1209 15.7085C13.1209 15.7085 11.6685 14.6118 10.0001 13.3502C8.3313 14.6118 6.87891 15.7085 6.87891 15.7085Z" fill="#FCA326"/>
<path d="M5.09901 9.64527C4.22626 8.99235 3.20696 8.52366 2.09953 8.29657L2.07706 8.35498C1.41584 10.0797 1.97924 12.0295 3.45168 13.1432C3.45444 13.1449 3.45686 13.147 3.45963 13.1491L3.47933 13.1639L6.87838 15.7085C6.87838 15.7085 8.33077 14.6118 9.99953 13.3502C7.75251 11.6514 5.11318 9.65564 5.09901 9.64527Z" fill="#FC6D26"/>
</svg>
