<svg width="18" height="18" viewBox="0 0 18 18" fill="none" xmlns="http://www.w3.org/2000/svg">
<path d="M12.2105 6.91453C12.2628 6.96677 12.3043 7.02881 12.3326 7.0971C12.3609 7.16538 12.3754 7.23858 12.3754 7.3125C12.3754 7.38642 12.3609 7.45962 12.3326 7.5279C12.3043 7.59619 12.2628 7.65823 12.2105 7.71047L8.27297 11.648C8.22073 11.7003 8.15869 11.7418 8.09041 11.7701C8.02212 11.7984 7.94892 11.8129 7.875 11.8129C7.80108 11.8129 7.72789 11.7984 7.6596 11.7701C7.59131 11.7418 7.52928 11.7003 7.47703 11.648L5.78953 9.96047C5.68399 9.85492 5.62469 9.71177 5.62469 9.5625C5.62469 9.41323 5.68399 9.27008 5.78953 9.16453C5.89508 9.05898 6.03824 8.99969 6.1875 8.99969C6.33677 8.99969 6.47992 9.05898 6.58547 9.16453L7.875 10.4548L11.4145 6.91453C11.4668 6.86223 11.5288 6.82074 11.5971 6.79244C11.6654 6.76413 11.7386 6.74956 11.8125 6.74956C11.8864 6.74956 11.9596 6.76413 12.0279 6.79244C12.0962 6.82074 12.1582 6.86223 12.2105 6.91453ZM16.3125 9C16.3125 10.4463 15.8836 11.8601 15.0801 13.0626C14.2766 14.2651 13.1346 15.2024 11.7984 15.7559C10.4622 16.3093 8.99189 16.4541 7.57341 16.172C6.15492 15.8898 4.85196 15.1934 3.82928 14.1707C2.80661 13.148 2.11017 11.8451 1.82801 10.4266C1.54586 9.00811 1.69067 7.53781 2.24413 6.20163C2.7976 4.86544 3.73486 3.72339 4.9374 2.91988C6.13993 2.11637 7.55373 1.6875 9 1.6875C10.9388 1.68955 12.7975 2.46063 14.1685 3.83154C15.5394 5.20246 16.3105 7.06123 16.3125 9ZM15.1875 9C15.1875 7.77623 14.8246 6.57994 14.1447 5.56241C13.4648 4.54488 12.4985 3.75181 11.3679 3.2835C10.2372 2.81518 8.99314 2.69264 7.79288 2.93139C6.59262 3.17014 5.49012 3.75944 4.62478 4.62478C3.75944 5.49011 3.17014 6.59262 2.93139 7.79288C2.69265 8.99314 2.81518 10.2372 3.2835 11.3679C3.75182 12.4985 4.54488 13.4648 5.56241 14.1447C6.57994 14.8246 7.77623 15.1875 9 15.1875C10.6405 15.1856 12.2132 14.5331 13.3732 13.3732C14.5331 12.2132 15.1856 10.6405 15.1875 9Z" fill="#FE8E03"/>
</svg>
