<svg width="45" height="44" viewBox="0 0 45 44" fill="none" xmlns="http://www.w3.org/2000/svg">
<g filter="url(#filter0_ii_2526_49849)">
<path d="M0.333984 6C0.333984 2.68629 3.02028 0 6.33398 0H38.334C41.6477 0 44.334 2.68629 44.334 6V38C44.334 41.3137 41.6477 44 38.334 44H6.33398C3.02028 44 0.333984 41.3137 0.333984 38V6Z" fill="#0F1731"/>
<path d="M6.33398 0.5H38.334C41.3716 0.5 43.834 2.96243 43.834 6V38C43.834 41.0376 41.3716 43.5 38.334 43.5H6.33398C3.29642 43.5 0.833984 41.0376 0.833984 38V6C0.833984 2.96243 3.29642 0.5 6.33398 0.5Z" stroke="white" stroke-opacity="0.05"/>
<path d="M22.337 25.2595C23.6986 25.2595 24.7815 24.175 24.7815 22.815C24.7815 21.4551 23.6986 20.3706 22.337 20.3706C20.9755 20.3706 19.8926 21.4551 19.8926 22.815C19.8926 24.175 20.9755 25.2595 22.337 25.2595Z" fill="#60EEB0"/>
<path d="M29.5215 21.3369C29.3295 20.3986 28.9543 19.5073 28.4174 18.7141C27.8899 17.9337 27.2177 17.2616 26.4374 16.7341C25.6441 16.1974 24.7528 15.8222 23.8145 15.63C23.3216 15.53 22.8198 15.4809 22.3169 15.4833V13.8521L19.078 16.2965L22.3169 18.7409V17.1129C22.7112 17.1113 23.1056 17.1488 23.4861 17.227C24.2154 17.3765 24.9081 17.668 25.5248 18.085C26.133 18.4951 26.6564 19.0185 27.0664 19.6266C27.7031 20.5679 28.0425 21.6786 28.0409 22.815C28.0408 23.5776 27.8884 24.3325 27.5928 25.0354C27.449 25.374 27.2733 25.6981 27.0681 26.0034C26.862 26.3068 26.6279 26.5903 26.3689 26.85C25.5802 27.6372 24.5789 28.1773 23.4878 28.4038C22.7289 28.557 21.9472 28.557 21.1883 28.4038C20.4587 28.2542 19.7657 27.9624 19.1489 27.545C18.5414 27.1353 18.0186 26.6125 17.6089 26.005C16.973 25.0627 16.6333 23.9518 16.6335 22.815H15.0039C15.0048 24.2765 15.4414 25.7046 16.2579 26.9168C16.7858 27.6959 17.4572 28.3673 18.2363 28.8952C19.4468 29.7144 20.8756 30.151 22.3372 30.1483C22.8337 30.1483 23.3289 30.0983 23.8153 29.9992C24.7529 29.8056 25.6437 29.4306 26.4374 28.8952C26.8271 28.6326 27.1903 28.3327 27.5219 27.9997C27.854 27.6667 28.154 27.3034 28.4182 26.9143C29.2368 25.7042 29.6731 24.276 29.6706 22.815C29.6705 22.3186 29.6206 21.8234 29.5215 21.3369V21.3369Z" fill="#60EEB0"/>
</g>
<defs>
<filter id="filter0_ii_2526_49849" x="-0.888238" y="-1.22222" width="46.4444" height="46.4444" filterUnits="userSpaceOnUse" color-interpolation-filters="sRGB">
<feFlood flood-opacity="0" result="BackgroundImageFix"/>
<feBlend mode="normal" in="SourceGraphic" in2="BackgroundImageFix" result="shape"/>
<feColorMatrix in="SourceAlpha" type="matrix" values="0 0 0 0 0 0 0 0 0 0 0 0 0 0 0 0 0 0 127 0" result="hardAlpha"/>
<feOffset dx="1.22222" dy="1.22222"/>
<feGaussianBlur stdDeviation="9.77778"/>
<feComposite in2="hardAlpha" operator="arithmetic" k2="-1" k3="1"/>
<feColorMatrix type="matrix" values="0 0 0 0 1 0 0 0 0 1 0 0 0 0 1 0 0 0 0.03 0"/>
<feBlend mode="normal" in2="shape" result="effect1_innerShadow_2526_49849"/>
<feColorMatrix in="SourceAlpha" type="matrix" values="0 0 0 0 0 0 0 0 0 0 0 0 0 0 0 0 0 0 127 0" result="hardAlpha"/>
<feOffset dx="-1.22222" dy="-1.22222"/>
<feGaussianBlur stdDeviation="9.77778"/>
<feComposite in2="hardAlpha" operator="arithmetic" k2="-1" k3="1"/>
<feColorMatrix type="matrix" values="0 0 0 0 1 0 0 0 0 1 0 0 0 0 1 0 0 0 0.03 0"/>
<feBlend mode="normal" in2="effect1_innerShadow_2526_49849" result="effect2_innerShadow_2526_49849"/>
</filter>
</defs>
</svg>
