<?xml version="1.0" encoding="UTF-8" standalone="no"?><!DOCTYPE svg PUBLIC "-//W3C//DTD SVG 1.1//EN" "http://www.w3.org/Graphics/SVG/1.1/DTD/svg11.dtd"><svg width="100%" height="100%" viewBox="0 0 2037 2009" version="1.1" xmlns="http://www.w3.org/2000/svg" xmlns:xlink="http://www.w3.org/1999/xlink" xml:space="preserve" xmlns:serif="http://www.serif.com/" style="fill-rule:evenodd;clip-rule:evenodd;stroke-linejoin:round;stroke-miterlimit:2;"><rect id="Artboard1" x="0" y="0" width="2036.93" height="2008.21" style="fill:none;"/><clipPath id="_clip1"><rect x="0" y="0" width="2036.93" height="2008.21"/></clipPath><g clip-path="url(#_clip1)"><g><path d="M1009.72,221.583l341.667,-214.516l0,339.65l-341.667,214.516l0,-339.65Zm-1003.33,1279.6l273.333,-171.612l0,271.72l-273.333,171.613l0,-271.721Zm270,-283.225l110,-68.387l0,108.279l-110,68.387l0,-108.279Z" style="fill:#5852e6;"/><path d="M413.891,1868.22l145.833,-90.321l0,143.012l-145.833,90.321l0,-143.012Z" style="fill:#4b5fea;"/><path d="M829.724,1601.23l-271.667,-171.666l-271.666,171.666l271.666,171.667l271.667,-171.667Z" style="fill:#3278f2;"/><path d="M1351.39,1413.25l-341.667,-214.517l0,339.65l341.667,214.517l0,-339.65Z" style="fill:#5458e8;"/><path d="M1384.72,854.983l-339.583,-214.583l-339.584,214.583l339.584,214.584l339.583,-214.584Z" style="fill:#3a70f0;"/><path d="M2030.56,1413.32l-339.583,-214.584l-339.583,214.584l339.583,214.583l339.583,-214.583Z" style="fill:#3278f2;"/></g><g><path id="b" d="M1828.62,435.668c0,-22.996 -18.67,-41.666 -41.667,-41.666l-1366.67,0c-22.997,0 -41.667,18.67 -41.667,41.666l0,812.5c0,22.997 18.67,41.667 41.667,41.667l1366.67,0c22.997,0 41.667,-18.67 41.667,-41.667l0,-812.5Z"/><path id="b1" serif:id="b" d="M1828.62,435.668c0,-22.996 -18.67,-41.666 -41.667,-41.666l-1366.67,0c-22.997,0 -41.667,18.67 -41.667,41.666l0,812.5c0,22.997 18.67,41.667 41.667,41.667l1366.67,0c22.997,0 41.667,-18.67 41.667,-41.667l0,-812.5Z" style="fill:#1e252f;"/><circle cx="464.035" cy="466.918" r="14.583" style="fill:#5b55e8;"/><circle cx="530.701" cy="466.918" r="14.583" style="fill:#5b55e8;"/><circle cx="597.368" cy="466.918" r="14.583" style="fill:#5b55e8;"/><g><text x="449.451px" y="681.502px" style="font-family:'ArialMT', 'Arial', sans-serif;font-size:66.667px;fill:#07a7fd;">~</text><text x="546.118px" y="681.502px" style="font-family:'ArialMT', 'Arial', sans-serif;font-size:66.667px;fill:#ee4f5d;">$</text><text x="594.451px" y="681.502px" style="font-family:'ArialMT', 'Arial', sans-serif;font-size:66.667px;fill:#5b55e8;">t<tspan x="614.307px 652.717px 676.251px 699.785px 738.195px 776.605px 800.139px 838.549px 876.959px " y="681.502px 681.502px 681.502px 681.502px 681.502px 681.502px 681.502px 681.502px 681.502px ">erragrunt</tspan></text><text x="1174.45px" y="681.502px" style="font-family:'ArialMT', 'Arial', sans-serif;font-size:66.667px;fill:#07a7fd;">a<tspan x="1212.86px 1251.27px 1289.68px 1305.83px 1340.49px 1364.03px 1402.44px 1418.58px " y="681.502px 681.502px 681.502px 681.502px 681.502px 681.502px 681.502px 681.502px ">pply-all</tspan></text></g><g><text x="449.451px" y="844.002px" style="font-family:'ArialMT', 'Arial', sans-serif;font-size:66.667px;fill:#07a7fd;">~</text><text x="546.118px" y="844.002px" style="font-family:'ArialMT', 'Arial', sans-serif;font-size:66.667px;fill:#ee4f5d;">$</text><text x="594.451px" y="844.002px" style="font-family:'ArialMT', 'Arial', sans-serif;font-size:66.667px;fill:#5b55e8;">t<tspan x="614.307px 652.717px 676.251px 699.785px 738.195px 776.605px 800.139px 838.549px 876.959px " y="844.002px 844.002px 844.002px 844.002px 844.002px 844.002px 844.002px 844.002px 844.002px ">erragrunt</tspan></text><text x="1174.45px" y="844.002px" style="font-family:'ArialMT', 'Arial', sans-serif;font-size:66.667px;fill:#07a7fd;">d<tspan x="1212.86px 1251.27px 1285.94px 1305.79px 1329.33px 1367.74px 1402.4px 1425.94px 1464.35px 1480.49px " y="844.002px 844.002px 844.002px 844.002px 844.002px 844.002px 844.002px 844.002px 844.002px 844.002px ">estroy-all</tspan></text></g><g><text x="449.451px" y="1006.5px" style="font-family:'ArialMT', 'Arial', sans-serif;font-size:66.667px;fill:#07a7fd;">~</text><text x="546.118px" y="1006.5px" style="font-family:'ArialMT', 'Arial', sans-serif;font-size:66.667px;fill:#ee4f5d;">$</text><text x="594.451px" y="1006.5px" style="font-family:'ArialMT', 'Arial', sans-serif;font-size:66.667px;fill:#5b55e8;">t<tspan x="614.307px 652.717px 676.251px 699.785px 738.195px 776.605px 800.139px 838.549px 876.959px " y="1006.5px 1006.5px 1006.5px 1006.5px 1006.5px 1006.5px 1006.5px 1006.5px 1006.5px ">erragrunt</tspan></text><text x="1174.45px" y="1006.5px" style="font-family:'ArialMT', 'Arial', sans-serif;font-size:66.667px;fill:#07a7fd;">p<tspan x="1212.86px 1229.01px 1267.42px 1305.83px 1329.36px 1367.77px 1383.91px " y="1006.5px 1006.5px 1006.5px 1006.5px 1006.5px 1006.5px 1006.5px ">lan-all</tspan></text></g><g><text x="449.451px" y="1169px" style="font-family:'ArialMT', 'Arial', sans-serif;font-size:66.667px;fill:#07a7fd;">~</text><text x="546.118px" y="1169px" style="font-family:'ArialMT', 'Arial', sans-serif;font-size:66.667px;fill:#ee4f5d;">$</text><text x="594.451px" y="1169px" style="font-family:'ArialMT', 'Arial', sans-serif;font-size:66.667px;fill:#5b55e8;">t<tspan x="614.307px 652.717px 676.251px 699.785px 738.195px 776.605px 800.139px 838.549px 876.959px " y="1169px 1169px 1169px 1169px 1169px 1169px 1169px 1169px 1169px ">erragrunt</tspan></text><text x="1174.45px" y="1169px" style="font-family:'ArialMT', 'Arial', sans-serif;font-size:66.667px;fill:#07a7fd;">o<tspan x="1212.86px 1251.27px 1271.13px 1309.54px 1347.95px 1367.8px 1391.34px 1429.75px 1445.89px " y="1169px 1169px 1169px 1169px 1169px 1169px 1169px 1169px 1169px ">utput-all</tspan></text></g></g></g></svg>