<?xml version="1.0" encoding="UTF-8" standalone="no"?><!DOCTYPE svg PUBLIC "-//W3C//DTD SVG 1.1//EN" "http://www.w3.org/Graphics/SVG/1.1/DTD/svg11.dtd"><svg width="100%" height="100%" viewBox="0 0 1903 1548" version="1.1" xmlns="http://www.w3.org/2000/svg" xmlns:xlink="http://www.w3.org/1999/xlink" xml:space="preserve" xmlns:serif="http://www.serif.com/" style="fill-rule:evenodd;clip-rule:evenodd;stroke-linecap:round;stroke-linejoin:round;"><rect id="Artboard1" x="0" y="0" width="1902.48" height="1547.81" style="fill:none;"/><g><path d="M1297.43,1263.03l273.333,-171.612l0,271.72l-273.333,171.613l0,-271.721Zm270,-283.225l110,-68.387l0,108.279l-110,68.387l0,-108.279Z" style="fill:#5852e6;"/><path d="M1279.1,1002.58l145.834,-90.321l0,143.012l-145.834,90.321l0,-143.012Z" style="fill:#4b5fea;"/><path d="M1624.93,358.034l-273.334,-171.612l0,271.72l273.334,171.613l0,-271.721Z" style="fill:#5458e8;"/><path d="M1899.1,178.922l-271.666,-171.667l-271.667,171.667l271.667,171.666l271.666,-171.666Z" style="fill:#3a70f0;"/><path d="M1421.6,901.422l-271.666,-171.667l-271.667,171.667l271.667,171.666l271.666,-171.666Z" style="fill:#3278f2;"/><path d="M1818.27,694.622l-125,-79.034l0,125.134l125,79.033l0,-125.133Z" style="fill:#07a7fd;"/></g><g><g><path d="M1586.25,319.448c0,-18.397 -14.936,-33.333 -33.333,-33.333l-541.667,0c-18.397,0 -33.333,14.936 -33.333,33.333l0,433.333c0,18.398 14.936,33.334 33.333,33.334l541.667,0c18.397,0 33.333,-14.936 33.333,-33.334l0,-433.333Z" style="fill:#1e252f;"/><path d="M1165.41,343.615c0,-3.68 -2.987,-6.667 -6.667,-6.667l-126.666,0c-3.68,0 -6.667,2.987 -6.667,6.667c0,3.679 2.987,6.666 6.667,6.666l126.666,0c3.68,0 6.667,-2.987 6.667,-6.666Z" style="fill:#5852e6;"/><path d="M1165.41,434.448c0,-3.679 -2.987,-6.667 -6.667,-6.667l-126.666,0c-3.68,0 -6.667,2.988 -6.667,6.667c0,3.679 2.987,6.667 6.667,6.667l126.666,0c3.68,0 6.667,-2.988 6.667,-6.667Z" style="fill:#5b55e8;"/><path d="M1200.41,373.615c0,-3.68 -2.987,-6.667 -6.667,-6.667l-126.666,0c-3.68,0 -6.667,2.987 -6.667,6.667c0,3.679 2.987,6.666 6.667,6.666l126.666,0c3.68,0 6.667,-2.987 6.667,-6.666Z" style="fill:#3278f2;"/><path d="M1200.41,464.448c0,-3.679 -2.987,-6.667 -6.667,-6.667l-126.666,0c-3.68,0 -6.667,2.988 -6.667,6.667c0,3.679 2.987,6.667 6.667,6.667l126.666,0c3.68,0 6.667,-2.988 6.667,-6.667Z" style="fill:#07a7fd;"/><path d="M1165.41,526.115c0,-3.68 -2.987,-6.667 -6.667,-6.667l-126.666,0c-3.68,0 -6.667,2.987 -6.667,6.667c0,3.679 2.987,6.666 6.667,6.666l126.666,0c3.68,0 6.667,-2.987 6.667,-6.666Z" style="fill:#5852e6;"/><path d="M1200.41,556.115c0,-3.68 -2.987,-6.667 -6.667,-6.667l-126.666,0c-3.68,0 -6.667,2.987 -6.667,6.667c0,3.679 2.987,6.666 6.667,6.666l126.666,0c3.68,0 6.667,-2.987 6.667,-6.666Z" style="fill:#3278f2;"/></g><path d="M614.581,319.448c0,-18.397 -14.937,-33.333 -33.334,-33.333l-541.666,0c-18.398,0 -33.334,14.936 -33.334,33.333l0,433.333c0,18.398 14.936,33.334 33.334,33.334l541.666,0c18.397,0 33.334,-14.936 33.334,-33.334l0,-433.333Z" style="fill:#1e252f;"/><path d="M914.939,522.69l-21.121,-12.479c-1.283,-0.758 -2.747,-1.158 -4.237,-1.158c-4.572,0 -8.333,3.761 -8.334,8.333l0,24.958c0.001,4.571 3.762,8.333 8.334,8.333c1.49,0 2.954,-0.4 4.237,-1.158l21.125,-12.479c2.535,-1.498 4.095,-4.231 4.095,-7.175c0,-2.944 -1.56,-5.678 -4.095,-7.175l-0.004,0Z" style="fill:#5b55e8;"/><path d="M881.247,529.865l-195.833,0" style="fill:none;stroke:#5b55e8;stroke-width:8.33px;"/><path d="M193.747,343.615c0,-3.68 -2.987,-6.667 -6.666,-6.667l-126.667,0c-3.679,0 -6.667,2.987 -6.667,6.667c0,3.679 2.988,6.666 6.667,6.666l126.667,0c3.679,0 6.666,-2.987 6.666,-6.666Z" style="fill:#5852e6;"/><path d="M193.747,434.448c0,-3.679 -2.987,-6.667 -6.666,-6.667l-126.667,0c-3.679,0 -6.667,2.988 -6.667,6.667c0,3.679 2.988,6.667 6.667,6.667l126.667,0c3.679,0 6.666,-2.988 6.666,-6.667Z" style="fill:#3278f2;"/><path d="M354.581,434.448c0,-3.679 -2.988,-6.667 -6.667,-6.667l-126.667,0c-3.679,0 -6.666,2.988 -6.666,6.667c0,3.679 2.987,6.667 6.666,6.667l126.667,0c3.679,0 6.667,-2.988 6.667,-6.667Z" style="fill:#3278f2;"/><path d="M228.747,373.615c0,-3.68 -2.987,-6.667 -6.666,-6.667l-126.667,0c-3.679,0 -6.667,2.987 -6.667,6.667c0,3.679 2.988,6.666 6.667,6.666l126.667,0c3.679,0 6.666,-2.987 6.666,-6.666Z" style="fill:#3278f2;"/><path d="M228.747,464.448c0,-3.679 -2.987,-6.667 -6.666,-6.667l-126.667,0c-3.679,0 -6.667,2.988 -6.667,6.667c0,3.679 2.988,6.667 6.667,6.667l126.667,0c3.679,0 6.666,-2.988 6.666,-6.667Z" style="fill:#5852e6;"/><path d="M193.747,403.615c0,-3.68 -2.987,-6.667 -6.666,-6.667l-126.667,0c-3.679,0 -6.667,2.987 -6.667,6.667c0,3.679 2.988,6.666 6.667,6.666l126.667,0c3.679,0 6.666,-2.987 6.666,-6.666Z" style="fill:#5852e6;"/><path d="M517.081,434.448c0,-3.679 -2.988,-6.667 -6.667,-6.667l-126.667,0c-3.679,0 -6.666,2.988 -6.666,6.667c0,3.679 2.987,6.667 6.666,6.667l126.667,0c3.679,0 6.667,-2.988 6.667,-6.667Z" style="fill:#5852e6;"/><path d="M193.747,494.448c0,-3.679 -2.987,-6.667 -6.666,-6.667l-126.667,0c-3.679,0 -6.667,2.988 -6.667,6.667c0,3.679 2.988,6.667 6.667,6.667l126.667,0c3.679,0 6.666,-2.988 6.666,-6.667Z" style="fill:#5852e6;"/><path d="M391.247,373.615c0,-3.68 -2.987,-6.667 -6.666,-6.667l-126.667,0c-3.679,0 -6.667,2.987 -6.667,6.667c0,3.679 2.988,6.666 6.667,6.666l126.667,0c3.679,0 6.666,-2.987 6.666,-6.666Z" style="fill:#5852e6;"/><path d="M391.247,464.448c0,-3.679 -2.987,-6.667 -6.666,-6.667l-126.667,0c-3.679,0 -6.667,2.988 -6.667,6.667c0,3.679 2.988,6.667 6.667,6.667l126.667,0c3.679,0 6.666,-2.988 6.666,-6.667Z" style="fill:#3278f2;"/><path d="M475.414,617.781c0,-3.679 -2.987,-6.666 -6.667,-6.666l-126.666,0c-3.68,0 -6.667,2.987 -6.667,6.666c0,3.68 2.987,6.667 6.667,6.667l126.666,0c3.68,0 6.667,-2.987 6.667,-6.667Z" style="fill:#3278f2;"/><path d="M454.581,705.281c0,-3.679 -2.988,-6.666 -6.667,-6.666l-126.667,0c-3.679,0 -6.666,2.987 -6.666,6.666c0,3.68 2.987,6.667 6.666,6.667l126.667,0c3.679,0 6.667,-2.987 6.667,-6.667Z" style="fill:#3278f2;"/><path d="M260.414,526.115c0,-3.68 -2.987,-6.667 -6.667,-6.667l-40.833,0c-3.679,0 -6.667,2.987 -6.667,6.667c0,3.679 2.988,6.666 6.667,6.666l40.833,0c3.68,0 6.667,-2.987 6.667,-6.666Z" style="fill:#3278f2;"/><path d="M256.247,617.781c0,-3.679 -2.987,-6.666 -6.666,-6.666l-40.834,0c-3.679,0 -6.666,2.987 -6.666,6.666c0,3.68 2.987,6.667 6.666,6.667l40.834,0c3.679,0 6.666,-2.987 6.666,-6.667Z" style="fill:#3278f2;"/><path d="M322.914,617.781c0,-3.679 -2.987,-6.666 -6.667,-6.666l-40.833,0c-3.679,0 -6.667,2.987 -6.667,6.666c0,3.68 2.988,6.667 6.667,6.667l40.833,0c3.68,0 6.667,-2.987 6.667,-6.667Z" style="fill:#3278f2;"/><path d="M302.081,705.281c0,-3.679 -2.988,-6.666 -6.667,-6.666l-40.833,0c-3.68,0 -6.667,2.987 -6.667,6.666c0,3.68 2.987,6.667 6.667,6.667l40.833,0c3.679,0 6.667,-2.987 6.667,-6.667Z" style="fill:#3278f2;"/><path d="M447.914,646.948c0,-3.679 -2.987,-6.667 -6.667,-6.667l-40.833,0c-3.679,0 -6.667,2.988 -6.667,6.667c0,3.679 2.988,6.667 6.667,6.667l40.833,0c3.68,0 6.667,-2.988 6.667,-6.667Z" style="fill:#3278f2;"/><path d="M268.747,405.281c0,-3.679 -2.987,-6.666 -6.666,-6.666l-40.834,0c-3.679,0 -6.666,2.987 -6.666,6.666c0,3.68 2.987,6.667 6.666,6.667l40.834,0c3.679,0 6.666,-2.987 6.666,-6.667Z" style="fill:#3278f2;"/><path d="M456.247,371.948c0,-3.679 -2.987,-6.667 -6.666,-6.667l-40.834,0c-3.679,0 -6.666,2.988 -6.666,6.667c0,3.679 2.987,6.667 6.666,6.667l40.834,0c3.679,0 6.666,-2.988 6.666,-6.667Z" style="fill:#3278f2;"/><path d="M229.581,646.948c0,-3.679 -2.988,-6.667 -6.667,-6.667l-126.667,0c-3.679,0 -6.666,2.988 -6.666,6.667c0,3.679 2.987,6.667 6.666,6.667l126.667,0c3.679,0 6.667,-2.988 6.667,-6.667Z" style="fill:#3278f2;"/><path d="M233.747,705.281c0,-3.679 -2.987,-6.666 -6.666,-6.666l-126.667,0c-3.679,0 -6.667,2.987 -6.667,6.666c0,3.68 2.988,6.667 6.667,6.667l126.667,0c3.679,0 6.666,-2.987 6.666,-6.667Z" style="fill:#3278f2;"/><path d="M193.747,526.115c0,-3.68 -2.987,-6.667 -6.666,-6.667l-126.667,0c-3.679,0 -6.667,2.987 -6.667,6.667c0,3.679 2.988,6.666 6.667,6.666l126.667,0c3.679,0 6.666,-2.987 6.666,-6.666Z" style="fill:#5852e6;"/><path d="M228.747,556.115c0,-3.68 -2.987,-6.667 -6.666,-6.667l-126.667,0c-3.679,0 -6.667,2.987 -6.667,6.667c0,3.679 2.988,6.666 6.667,6.666l126.667,0c3.679,0 6.666,-2.987 6.666,-6.666Z" style="fill:#3278f2;"/><path d="M193.747,586.115c0,-3.68 -2.987,-6.667 -6.666,-6.667l-126.667,0c-3.679,0 -6.667,2.987 -6.667,6.667c0,3.679 2.988,6.666 6.667,6.666l126.667,0c3.679,0 6.666,-2.987 6.666,-6.666Z" style="fill:#5852e6;"/><path d="M391.247,556.115c0,-3.68 -2.987,-6.667 -6.666,-6.667l-126.667,0c-3.679,0 -6.667,2.987 -6.667,6.667c0,3.679 2.988,6.666 6.667,6.666l126.667,0c3.679,0 6.666,-2.987 6.666,-6.666Z" style="fill:#5852e6;"/><path d="M192.081,676.115c0,-3.68 -2.988,-6.667 -6.667,-6.667l-126.667,0c-3.679,0 -6.666,2.987 -6.666,6.667c0,3.679 2.987,6.666 6.666,6.666l126.667,0c3.679,0 6.667,-2.987 6.667,-6.666Z" style="fill:#5852e6;"/><path d="M379.581,646.948c0,-3.679 -2.988,-6.667 -6.667,-6.667l-126.667,0c-3.679,0 -6.666,2.988 -6.666,6.667c0,3.679 2.987,6.667 6.666,6.667l126.667,0c3.679,0 6.667,-2.988 6.667,-6.667Z" style="fill:#5852e6;"/><path d="M192.081,617.781c0,-3.679 -2.988,-6.666 -6.667,-6.666l-126.667,0c-3.679,0 -6.666,2.987 -6.666,6.666c0,3.68 2.987,6.667 6.666,6.667l126.667,0c3.679,0 6.667,-2.987 6.667,-6.667Z" style="fill:#5852e6;"/><path d="M345.414,342.781c0,-3.679 -2.987,-6.666 -6.667,-6.666l-126.666,0c-3.68,0 -6.667,2.987 -6.667,6.666c0,3.68 2.987,6.667 6.667,6.667l126.666,0c3.68,0 6.667,-2.987 6.667,-6.667Z" style="fill:#5852e6;"/><path d="M1272.91,371.948c0,-3.679 -2.987,-6.667 -6.667,-6.667l-40.833,0c-3.679,0 -6.667,2.988 -6.667,6.667c0,3.679 2.988,6.667 6.667,6.667l40.833,0c3.68,0 6.667,-2.988 6.667,-6.667Z" style="fill:#3278f2;"/><path d="M553.747,464.448c0,-3.679 -2.987,-6.667 -6.666,-6.667l-126.667,0c-3.679,0 -6.667,2.988 -6.667,6.667c0,3.679 2.988,6.667 6.667,6.667l126.667,0c3.679,0 6.666,-2.988 6.666,-6.667Z" style="fill:#3278f2;"/></g></svg>