<?xml version="1.0" encoding="UTF-8" standalone="no"?><!DOCTYPE svg PUBLIC "-//W3C//DTD SVG 1.1//EN" "http://www.w3.org/Graphics/SVG/1.1/DTD/svg11.dtd"><svg width="100%" height="100%" viewBox="0 0 41 41" version="1.1" xmlns="http://www.w3.org/2000/svg" xmlns:xlink="http://www.w3.org/1999/xlink" xml:space="preserve" xmlns:serif="http://www.serif.com/" style="fill-rule:evenodd;clip-rule:evenodd;stroke-linecap:round;stroke-linejoin:round;stroke-miterlimit:1.5;"><rect id="Artboard2" x="0" y="0" width="40.049" height="40.049" style="fill:none;"/><path d="M20.732,30.607c-0.179,0.204 -0.437,0.321 -0.708,0.321c-0.271,0 -0.528,-0.117 -0.707,-0.321c-2.912,-3.319 -14,-15.96 -17.903,-20.411c-0.244,-0.277 -0.302,-0.672 -0.15,-1.008c0.152,-0.337 0.488,-0.553 0.857,-0.553c6.887,0 28.92,0 35.807,0c0.369,0 0.704,0.216 0.857,0.553c0.152,0.336 0.094,0.731 -0.15,1.008c-3.904,4.451 -14.991,17.092 -17.903,20.411Z" style="fill:#535353;stroke:#535353;stroke-width:0.74px;"/></svg>