<?xml version="1.0" encoding="UTF-8" standalone="no"?><!DOCTYPE svg PUBLIC "-//W3C//DTD SVG 1.1//EN" "http://www.w3.org/Graphics/SVG/1.1/DTD/svg11.dtd"><svg width="100%" height="100%" viewBox="0 0 41 41" version="1.1" xmlns="http://www.w3.org/2000/svg" xmlns:xlink="http://www.w3.org/1999/xlink" xml:space="preserve" xmlns:serif="http://www.serif.com/" style="fill-rule:evenodd;clip-rule:evenodd;stroke-linecap:round;stroke-linejoin:round;stroke-miterlimit:1.5;"><rect id="Artboard2" x="0" y="0" width="40.049" height="40.049" style="fill:none;"/><path d="M30.607,19.317c0.204,0.179 0.321,0.436 0.321,0.707c0,0.271 -0.117,0.529 -0.321,0.708c-3.319,2.912 -15.96,13.999 -20.411,17.903c-0.277,0.244 -0.672,0.302 -1.008,0.15c-0.337,-0.153 -0.553,-0.488 -0.553,-0.857c0,-6.887 0,-28.92 0,-35.807c0,-0.369 0.216,-0.705 0.553,-0.857c0.336,-0.152 0.731,-0.094 1.008,0.15c4.451,3.903 17.092,14.991 20.411,17.903Z" style="fill:#5b55e8;stroke:#5b55e8;stroke-width:0.74px;"/></svg>