<?xml version="1.0" encoding="UTF-8" standalone="no"?><!DOCTYPE svg PUBLIC "-//W3C//DTD SVG 1.1//EN" "http://www.w3.org/Graphics/SVG/1.1/DTD/svg11.dtd"><svg width="100%" height="100%" viewBox="0 0 45 45" version="1.1" xmlns="http://www.w3.org/2000/svg" xmlns:xlink="http://www.w3.org/1999/xlink" xml:space="preserve" xmlns:serif="http://www.serif.com/" style="fill-rule:evenodd;clip-rule:evenodd;stroke-linecap:round;stroke-linejoin:round;stroke-miterlimit:1.5;"><rect id="Artboard1" x="0" y="0" width="44.62" height="44.183" style="fill:none;"/><path d="M27.311,22.44c-0.367,-0.9 -0.894,-1.754 -1.58,-2.518l-0.237,-0.264c-3.207,-3.571 -8.71,-3.867 -12.28,-0.661l-8.255,7.413c-3.571,3.206 -3.867,8.709 -0.66,12.28l0.237,0.264c3.206,3.571 8.709,3.867 12.28,0.66l8.255,-7.412c0.26,-0.234 0.503,-0.48 0.728,-0.737" style="fill:none;stroke:#07a7fd;stroke-width:2.92px;"/><path d="M17.316,21.794c0.363,0.843 0.868,1.643 1.515,2.363l0.237,0.264c3.207,3.571 8.709,3.867 12.28,0.661l8.255,-7.413c3.571,-3.206 3.867,-8.709 0.66,-12.28l-0.237,-0.264c-3.207,-3.571 -8.709,-3.867 -12.28,-0.66l-8.255,7.412c-0.11,0.1 -0.377,0.374 -0.601,0.612" style="fill:none;stroke:#07a7fd;stroke-width:2.92px;"/></svg>