<svg width="512" height="512" viewBox="0 0 512 512" fill="none" xmlns="http://www.w3.org/2000/svg">
<path d="M240.511 14.8887C238.537 11.7136 241.561 7.10591 245.151 8.15108C385.826 49.1115 455.362 105.305 478.864 211.331H345.692C341.107 193.408 333.188 180.07 321.934 171.317C311.097 162.147 289.631 157.562 257.537 157.562C227.943 157.562 207.103 162.564 195.015 172.567C182.927 182.154 173.758 196.117 167.505 214.457C161.253 232.38 158.127 254.054 158.127 279.48C158.127 304.905 161.462 326.579 168.131 344.502C174.8 362.425 184.595 376.18 197.516 385.766C210.854 395.353 229.194 400.146 252.535 400.146C275.043 400.146 292.34 398.271 304.428 394.52C316.516 390.768 325.685 385.141 331.938 377.639C338.19 369.719 342.775 360.341 345.692 349.504H307.88C283.184 349.504 263.164 329.484 263.164 304.787V253.846H425.095C444.268 253.846 458.44 259.056 467.61 269.476C476.779 279.48 483.032 294.902 486.366 315.742L512 491.428H408.839L400.086 432.684C364.078 488.696 315.224 503.307 249.409 503.307C196.474 503.307 154.793 494.346 124.365 476.423C62.4517 439.105 13.5468 357.519 41.3238 251.502C45.5964 235.195 22.3875 227.402 6.71548 230.651C4.79551 231.049 1.71572 227.624 2.83557 226.015C10.1503 215.501 23.9462 198.101 42.5653 185.388C54.5086 177.233 49.0229 159.223 3.39737 154.866C0.537409 154.593 -1.03324 151.484 0.7659 149.244C17.1073 128.9 86.7099 54.8033 233.646 54.8033C249.977 54.8033 253.092 35.1262 240.511 14.8887Z" fill="white"/>
</svg>
