<svg width="1129" height="264" viewBox="0 0 1129 264" fill="none" xmlns="http://www.w3.org/2000/svg">
<path fill-rule="evenodd" clip-rule="evenodd" d="M128.433 0.757812L239.593 64.7578V192.758L128.433 256.758L17.2734 192.758V64.7578L128.433 0.757812ZM227.593 71.6668L128.433 14.5757L29.2734 71.6668V185.849L128.433 242.94L227.593 185.849V71.6668Z" fill="white"/>
<path fill-rule="evenodd" clip-rule="evenodd" d="M128.433 242.938V185.847V128.756L78.8534 100.211L29.2734 71.6653V128.756V185.847L128.433 242.938Z" fill="white"/>
<path d="M178.013 214.395L227.593 185.849L178.013 157.304L128.433 185.849V242.94L178.013 214.395Z" fill="#87E0E1"/>
<path d="M128.433 128.758V185.849L178.013 157.304L128.433 128.758Z" fill="#1B46DD"/>
<path d="M178.013 100.213L128.433 128.758L178.013 157.304L227.593 128.758L178.013 100.213Z" fill="#B068E9"/>
<path d="M178.013 43.1217L128.433 14.5762L78.8534 43.1217L29.2734 71.6672L78.8534 100.213L128.433 71.6672L178.013 100.213L227.593 71.6672L178.013 43.1217Z" fill="#F9DB4E"/>
<path d="M128.433 128.758L178.013 100.213L128.433 71.6672L78.8534 100.213L128.433 128.758Z" fill="#E94A5D"/>
<path d="M810.028 215.926V220.766H814.82C815.031 220.766 815.273 220.722 815.547 220.634C815.82 220.546 816.075 220.407 816.311 220.218C816.56 220.029 816.771 219.777 816.945 219.462C817.119 219.147 817.206 218.762 817.206 218.308C817.206 217.93 817.138 217.596 817.001 217.306C816.877 217.004 816.703 216.752 816.479 216.55C816.268 216.348 816.013 216.197 815.715 216.096C815.429 215.983 815.124 215.926 814.801 215.926H810.028ZM814.074 206.415C814.074 206.415 812.726 206.415 810.028 206.415V210.726H814.055C814.267 210.726 814.484 210.682 814.708 210.594C814.932 210.493 815.131 210.355 815.305 210.178C815.491 209.989 815.64 209.762 815.752 209.497C815.876 209.233 815.938 208.93 815.938 208.59C815.938 208.262 815.882 207.966 815.771 207.701C815.659 207.436 815.51 207.21 815.323 207.02C815.149 206.831 814.95 206.686 814.727 206.586C814.515 206.472 814.298 206.415 814.074 206.415ZM815.547 226.439H803V200.724H814.484C815.814 200.724 817.007 200.882 818.064 201.197C819.12 201.512 820.021 201.978 820.767 202.596C821.513 203.214 822.084 203.976 822.482 204.884C822.88 205.791 823.079 206.844 823.079 208.041C823.079 208.558 822.992 209.069 822.818 209.573C822.656 210.077 822.439 210.544 822.165 210.972C821.892 211.388 821.575 211.76 821.214 212.088C820.866 212.403 820.506 212.636 820.133 212.787C820.705 213.014 821.252 213.323 821.774 213.714C822.296 214.092 822.756 214.533 823.153 215.037C823.551 215.529 823.868 216.077 824.104 216.682C824.34 217.287 824.458 217.93 824.458 218.611C824.458 220.073 824.191 221.302 823.657 222.298C823.135 223.294 822.451 224.1 821.606 224.718C820.761 225.336 819.804 225.777 818.735 226.041C817.678 226.306 816.616 226.439 815.547 226.439Z" fill="white"/>
<path d="M840.893 200.724H849.077L839.494 216.739L839.513 226.439H832.485V216.777L822.958 200.724H831.086L835.971 210.462H836.027L840.893 200.724Z" fill="white"/>
<path d="M877.528 217.42L877.547 212.428H890.672C890.784 214.634 890.535 216.638 889.926 218.441C889.33 220.231 888.447 221.768 887.279 223.054C886.123 224.327 884.731 225.317 883.103 226.023C881.475 226.716 879.697 227.062 877.771 227.062C875.832 227.062 874.011 226.71 872.308 226.004C870.618 225.298 869.139 224.334 867.871 223.111C866.616 221.888 865.622 220.457 864.888 218.819C864.155 217.168 863.788 215.409 863.788 213.544C863.788 211.665 864.155 209.913 864.888 208.287C865.622 206.649 866.616 205.218 867.871 203.995C869.139 202.773 870.618 201.815 872.308 201.121C874.011 200.415 875.832 200.062 877.771 200.062C879.722 200.062 881.543 200.415 883.233 201.121C884.936 201.827 886.44 202.817 887.745 204.09L883.177 208.722C882.568 207.89 881.798 207.228 880.866 206.737C879.933 206.245 878.902 205.999 877.771 205.999C876.801 205.999 875.894 206.195 875.049 206.586C874.204 206.964 873.464 207.493 872.83 208.174C872.209 208.842 871.712 209.636 871.339 210.556C870.978 211.476 870.798 212.478 870.798 213.562C870.798 214.634 870.978 215.636 871.339 216.569C871.712 217.489 872.209 218.289 872.83 218.97C873.464 219.638 874.204 220.168 875.049 220.558C875.894 220.936 876.801 221.126 877.771 221.126C879.523 221.126 880.872 220.798 881.816 220.142C882.761 219.474 883.389 218.567 883.699 217.42C884.01 216.273 877.528 217.42 877.528 217.42Z" fill="white"/>
<path d="M901.401 212.541H905.335C905.708 212.541 906.062 212.472 906.398 212.334C906.733 212.195 907.025 211.999 907.274 211.747C907.523 211.495 907.715 211.193 907.852 210.84C908.001 210.474 908.076 210.071 908.076 209.63C908.076 209.214 908.001 208.823 907.852 208.457C907.715 208.092 907.523 207.777 907.274 207.512C907.025 207.247 906.733 207.039 906.398 206.888C906.075 206.737 905.727 206.661 905.354 206.661H901.401V212.541ZM915.738 226.439H907.703L903.75 218.478H901.401V226.439H894.373V200.724H905.652C907.032 200.724 908.299 200.945 909.455 201.386C910.611 201.815 911.605 202.42 912.438 203.201C913.283 203.983 913.936 204.922 914.396 206.018C914.868 207.102 915.104 208.306 915.104 209.63C915.104 211.432 914.7 212.995 913.892 214.319C913.097 215.63 912.009 216.644 910.63 217.363L915.738 226.439Z" fill="white"/>
<path d="M934.074 216.55C934.074 216.55 934.074 211.275 934.074 200.724H941.103V216.531C941.103 218.044 940.835 219.449 940.301 220.747C939.779 222.033 939.021 223.142 938.026 224.075C937.045 225.008 935.845 225.739 934.428 226.268C933.024 226.798 931.445 227.062 929.693 227.062C928.077 227.062 926.573 226.823 925.181 226.344C923.789 225.852 922.577 225.153 921.546 224.245C920.527 223.338 919.725 222.235 919.141 220.936C918.557 219.626 918.265 218.157 918.265 216.531V200.724H925.274V216.569C925.274 217.237 925.368 217.855 925.554 218.422C925.74 218.989 926.02 219.481 926.393 219.897C926.766 220.3 927.226 220.615 927.773 220.842C928.332 221.069 928.972 221.182 929.693 221.182C930.401 221.182 931.029 221.069 931.576 220.842C932.123 220.615 932.576 220.3 932.937 219.897C933.31 219.481 933.589 218.989 933.776 218.422C933.975 217.855 934.074 217.231 934.074 216.55Z" fill="white"/>
<path d="M969.002 200.724V226.439H962.906L952.279 212.598V226.439H945.251V200.724H951.422L961.993 214.508V200.724H969.002Z" fill="white"/>
<path d="M978.464 226.439V206.661H971.771V200.724H992.13V206.661H985.455V226.439H978.464Z" fill="white"/>
<path d="M1017.23 200.762L1020.77 216.474H1020.84L1025.32 200.705H1032.74L1024.25 226.439H1017.52L1013.53 212.863L1009.53 226.439H1002.8L994.314 200.705H1001.73L1006.23 216.474H1006.32L1009.82 200.762H1017.23Z" fill="white"/>
<path d="M1032.36 213.544C1032.36 211.665 1032.72 209.913 1033.46 208.287C1034.19 206.649 1035.18 205.218 1036.44 203.995C1037.71 202.773 1039.19 201.815 1040.88 201.121C1042.58 200.415 1044.4 200.062 1046.34 200.062C1048.26 200.062 1050.07 200.415 1051.76 201.121C1053.47 201.815 1054.95 202.773 1056.22 203.995C1057.49 205.218 1058.49 206.649 1059.22 208.287C1059.95 209.913 1060.32 211.665 1060.32 213.544C1060.32 215.409 1059.95 217.168 1059.22 218.819C1058.49 220.457 1057.49 221.888 1056.22 223.111C1054.95 224.334 1053.47 225.298 1051.76 226.004C1050.07 226.71 1048.26 227.062 1046.34 227.062C1044.4 227.062 1042.58 226.71 1040.88 226.004C1039.19 225.298 1037.71 224.334 1036.44 223.111C1035.18 221.888 1034.19 220.457 1033.46 218.819C1032.72 217.168 1032.36 215.409 1032.36 213.544ZM1039.37 213.562C1039.37 214.634 1039.55 215.636 1039.91 216.569C1040.28 217.489 1040.78 218.289 1041.4 218.97C1042.03 219.638 1042.77 220.168 1043.62 220.558C1044.46 220.936 1045.37 221.126 1046.34 221.126C1047.31 221.126 1048.21 220.936 1049.06 220.558C1049.92 220.168 1050.66 219.638 1051.28 218.97C1051.91 218.289 1052.41 217.489 1052.77 216.569C1053.13 215.636 1053.31 214.634 1053.31 213.562C1053.31 212.478 1053.13 211.476 1052.77 210.556C1052.41 209.636 1051.91 208.842 1051.28 208.174C1050.66 207.493 1049.92 206.964 1049.06 206.586C1048.21 206.195 1047.31 205.999 1046.34 205.999C1045.37 205.999 1044.46 206.195 1043.62 206.586C1042.77 206.964 1042.03 207.493 1041.4 208.174C1040.78 208.842 1040.28 209.636 1039.91 210.556C1039.55 211.476 1039.37 212.478 1039.37 213.562Z" fill="white"/>
<path d="M1070.98 212.541H1074.91C1075.28 212.541 1075.64 212.472 1075.97 212.334C1076.31 212.195 1076.6 211.999 1076.85 211.747C1077.1 211.495 1077.29 211.193 1077.43 210.84C1077.57 210.474 1077.65 210.071 1077.65 209.63C1077.65 209.214 1077.57 208.823 1077.43 208.457C1077.29 208.092 1077.1 207.777 1076.85 207.512C1076.6 207.247 1076.31 207.039 1075.97 206.888C1075.65 206.737 1075.3 206.661 1074.93 206.661H1070.98V212.541ZM1085.31 226.439H1077.28L1073.32 218.478H1070.98V226.439H1063.95V200.724H1075.23C1076.61 200.724 1077.87 200.945 1079.03 201.386C1080.18 201.815 1081.18 202.42 1082.01 203.201C1082.86 203.983 1083.51 204.922 1083.97 206.018C1084.44 207.102 1084.68 208.306 1084.68 209.63C1084.68 211.432 1084.27 212.995 1083.47 214.319C1082.67 215.63 1081.58 216.644 1080.2 217.363L1085.31 226.439Z" fill="white"/>
<path d="M1095.13 200.724V212.22L1103.55 200.724H1111.7L1102.94 212.201L1112 226.439H1103.72L1098.35 217.306L1095.13 221.617V226.439H1088.1V200.724H1095.13Z" fill="white"/>
<path d="M1069.64 111.539V95.0746H1069.6V71.8066H1094.05V95.0746H1112.27V111.539H1094.05V158.999C1094.05 163.283 1096.4 165.719 1100.85 165.719H1111.85V183.023H1094.3C1078.93 183.023 1069.6 174.875 1069.6 159.755V111.539H1069.64Z" fill="white"/>
<path d="M969.082 183.023V95.0745H974.77L992.77 105.407H994.45C997.39 100.787 1004.45 93.3945 1020.74 93.3945C1040.73 93.3945 1053.33 104.567 1053.33 125.231V183.023H1028.55V126.659C1028.55 116.579 1022.76 111.623 1013.43 111.623C1002.85 111.623 993.778 117.503 993.778 132.371V183.023H969.082Z" fill="white"/>
<path d="M951.567 95.0745V183.023H945.879L927.879 172.775H926.199C923.259 177.395 916.119 184.787 900.243 184.787C880.503 184.787 867.903 173.615 867.903 152.951V95.0745H892.599V151.439C892.599 161.519 898.479 166.559 907.551 166.559C917.799 166.559 926.871 160.595 926.871 145.727V95.0745H951.567Z" fill="white"/>
<path d="M803.177 183.023V95.0745H806.865L826.865 106.431H828.545C832.073 96.8545 839.717 92.2185 857.525 94.1505V114.815C840.221 112.379 827.873 116.999 827.873 138.251V183.023H803.177Z" fill="white"/>
<path d="M694.529 137.075C694.529 107.339 712.589 93.3945 734.681 93.3945C748.961 93.3945 756.773 99.0225 760.301 104.231H761.981V95.0745H785.669V179.411C785.669 205.031 769.541 218.639 741.065 218.639C713.009 218.639 698.141 205.283 696.797 188.399V185.879H719.309C719.897 194.699 726.281 201.419 740.561 201.419C754.505 201.419 760.889 194.615 760.889 181.679V171.179H759.209C755.261 175.883 747.869 180.755 734.681 180.755C712.589 180.755 694.529 166.727 694.529 137.075ZM719.477 137.075C719.477 153.791 727.961 162.443 740.729 162.443C753.581 162.443 761.981 153.791 761.981 137.075C761.981 120.275 753.581 111.623 740.729 111.623C727.961 111.623 719.477 120.275 719.477 137.075Z" fill="white"/>
<path d="M627.14 121.535H604.796V119.015C606.728 103.139 621.512 93.0585 644.192 93.0585C666.956 93.0585 682.244 103.139 682.244 126.575V161.351C682.244 169.919 682.748 175.799 684.764 180.503V183.023H677.496L660.236 173.447H658.556C654.272 179.159 647.384 184.535 632.516 184.535C613.784 184.535 599.756 174.287 599.756 157.571C599.756 140.015 613.28 132.539 630.248 130.775L650.24 128.843C656.12 128.255 659.06 126.407 659.06 121.451C659.06 114.059 653.516 110.027 643.688 110.027C634.112 110.027 627.476 113.975 627.14 121.535ZM623.948 156.395C623.948 163.451 629.408 167.819 638.564 167.819C647.804 167.819 658.892 162.611 658.892 146.567V141.359H657.212C654.524 142.787 651.5 143.543 646.124 144.131L636.632 145.139C629.324 145.895 623.948 149.003 623.948 156.395Z" fill="white"/>
<path d="M541.359 183.023V95.0745H545.047L565.047 106.431H566.727C570.255 96.8545 577.899 92.2185 595.707 94.1505V114.815C578.403 112.379 566.055 116.999 566.055 138.251V183.023H541.359Z" fill="white"/>
<path d="M475.961 183.023V95.0745H479.649L499.649 106.431H501.329C504.857 96.8545 512.501 92.2185 530.309 94.1505V114.815C513.005 112.379 500.657 116.999 500.657 138.251V183.023H475.961Z" fill="white"/>
<path d="M375.68 139.007C375.68 108.347 393.32 93.0585 420.284 93.0585C447.08 93.0585 462.788 108.767 462.788 135.815V145.055H399.284C399.62 158.243 406.844 167.651 420.2 167.651C433.304 167.651 438.344 160.511 439.52 154.799H461.024V157.319C458.504 169.415 447.836 185.039 420.536 185.039C393.32 185.039 375.68 169.667 375.68 139.007ZM399.536 129.431H439.604C439.436 118.427 433.472 110.195 420.032 110.195C406.928 110.195 400.544 118.763 399.536 129.431Z" fill="white"/>
<path d="M282 81.2145V62.0625H389.352V81.2145H348.612V183.023H322.74V81.2145H282Z" fill="white"/>
</svg>
