<svg width="20" height="20" viewBox="0 0 20 20" fill="none" xmlns="http://www.w3.org/2000/svg">
<path d="M10.0021 13.2599C11.3637 13.2599 12.4466 12.1753 12.4466 10.8154C12.4466 9.45549 11.3637 8.37097 10.0021 8.37097C8.64057 8.37097 7.55768 9.45549 7.55768 10.8154C7.55768 12.1753 8.64057 13.2599 10.0021 13.2599Z" fill="#60EEB0"/>
<path d="M17.1863 9.33694C16.9943 8.39856 16.6192 7.50726 16.0823 6.71405C15.5547 5.93369 14.8826 5.26158 14.1023 4.73405C13.309 4.19735 12.4177 3.82219 11.4794 3.62998C10.9865 3.53002 10.4847 3.48088 9.98175 3.48331V1.85205L6.74287 4.2965L9.98175 6.74094V5.11294C10.3761 5.11131 10.7705 5.14879 11.151 5.22701C11.8803 5.37646 12.573 5.668 13.1897 6.08501C13.7978 6.49506 14.3213 7.01849 14.7313 7.62664C15.3679 8.56794 15.7074 9.67864 15.7058 10.815C15.7057 11.5776 15.5533 12.3325 15.2577 13.0354C15.1139 13.374 14.9382 13.6981 14.7329 14.0034C14.5269 14.3068 14.2928 14.5903 14.0338 14.85C13.2451 15.6372 12.2438 16.1773 11.1526 16.4038C10.3938 16.557 9.61205 16.557 8.85324 16.4038C8.12362 16.2542 7.4306 15.9624 6.81375 15.545C6.2063 15.1353 5.68344 14.6125 5.27376 14.005C4.63784 13.0627 4.29818 11.9518 4.29842 10.815H2.66879C2.66966 12.2765 3.10626 13.7046 3.92279 14.9168C4.45067 15.6959 5.12209 16.3673 5.90116 16.8952C7.11167 17.7144 8.54044 18.151 10.0021 18.1483C10.4986 18.1483 10.9937 18.0983 11.4802 17.9992C12.4178 17.8056 13.3086 17.4306 14.1023 16.8952C14.492 16.6326 14.8552 16.3327 15.1868 15.9997C15.5188 15.6667 15.8189 15.3034 16.0831 14.9143C16.9017 13.7042 17.338 12.276 17.3355 10.815C17.3354 10.3186 17.2855 9.82339 17.1863 9.33694V9.33694Z" fill="#60EEB0"/>
</svg>
