<?xml version="1.0" encoding="UTF-8"?>
<svg id="Layer_1" xmlns="http://www.w3.org/2000/svg" version="1.1" viewBox="0 0 128 129">
  <!-- Generator: Adobe Illustrator 30.3.0, SVG Export Plug-In . SVG Version: 2.1.3 Build 182)  -->
  <defs>
    <style>
      .st0 {
        fill: #fff;
      }

      .st0, .st1 {
        fill-rule: evenodd;
      }

      .st2 {
        fill: #e94a5d;
      }

      .st3 {
        fill: #87e0e1;
      }

      .st1 {
        fill: #160c56;
      }

      .st4 {
        fill: #1b46dd;
      }

      .st5 {
        fill: #f9db4e;
      }

      .st6 {
        fill: #b068e9;
      }
    </style>
  </defs>
  <path class="st1" d="M64.22.88l55.58,32v64l-55.58,32-55.58-32V32.88L64.22.88ZM113.8,36.33L64.22,7.79,14.64,36.33v57.09l49.58,28.55,49.58-28.55v-57.09Z"/>
  <path class="st0" d="M64.22,121.97v-57.09l-24.79-14.27-24.79-14.27v57.09l49.58,28.55Z"/>
  <path class="st3" d="M89.01,107.7l24.79-14.27-24.79-14.27-24.79,14.27v28.55l24.79-14.27Z"/>
  <path class="st4" d="M64.22,64.88v28.55l24.79-14.27-24.79-14.27Z"/>
  <path class="st6" d="M89.01,50.61l-24.79,14.27,24.79,14.27,24.79-14.27-24.79-14.27Z"/>
  <path class="st5" d="M89.01,22.06l-24.79-14.27-24.79,14.27-24.79,14.27,24.79,14.27,24.79-14.27,24.79,14.27,24.79-14.27-24.79-14.27Z"/>
  <path class="st2" d="M64.22,64.88l24.79-14.27-24.79-14.27-24.79,14.27,24.79,14.27Z"/>
</svg>