<svg width="231" height="276" viewBox="0 0 231 276" fill="none" xmlns="http://www.w3.org/2000/svg">
<g clip-path="url(#clip0_3965_54169)">
<circle cx="9.20553" cy="9.20553" r="9.20553" transform="matrix(-0.97964 0.200763 0.200763 0.97964 121.596 72.2207)" fill="white"/>
<ellipse opacity="0.5" cx="59.8416" cy="8.64257" rx="59.8416" ry="8.64257" transform="matrix(-1 0 0 1 190.598 258.217)" fill="#011224" fill-opacity="0.5"/>
<mask id="mask0_3965_54169" style="mask-type:alpha" maskUnits="userSpaceOnUse" x="7" y="57" width="224" height="213">
<path d="M189.776 84.3577L186.982 83.0612C184.56 81.9442 183.781 84.0373 184.155 85.0446C188.468 96.634 186.763 107.75 183.789 118.595C181.938 113.431 178.784 106.534 173.705 101.785L180.652 100.369C182.661 99.9593 183.737 97.7828 182.58 96.0907C176.66 87.4333 161.519 74.8442 132.498 76.4804C130.104 76.6153 127.824 76.7961 125.652 77.0212C106.335 79.023 95.505 84.5309 88.6464 92.5018C83.9348 97.9775 81.0972 104.616 78.6693 112.078L78.6616 112.065C76.7676 116.684 74.3306 117.651 69.7437 115.525C67.6771 114.567 65.6571 113.646 63.698 112.754L63.6976 112.753C61.0731 111.558 58.5577 110.411 56.1855 109.291C46.4834 102.138 37.2333 88.4136 30.3182 72.623C29.3833 70.4881 27.9251 68.4636 26.1864 67.2109C23.8278 65.0378 20.7448 64.9696 17.3206 68.3759C16.9877 68.7071 16.6655 69.0403 16.3537 69.3757C15.2301 70.4937 14.1831 71.8102 13.2376 73.2874C10.9476 76.6925 9.58123 80.2551 8.96098 83.8828C8.82824 84.4868 8.70978 85.0988 8.60633 85.7176C3.65784 111.634 21.5308 139.587 43.1122 152.571L42.0498 152.94C39.6359 153.778 38.9978 156.861 41.0219 158.421C50.0134 165.351 61.2803 170.045 72.5796 172.153C72.5484 177.151 72.5505 182.087 72.5526 186.814L72.5527 186.852C72.5532 188.009 72.5537 189.153 72.5537 190.282C72.5537 192.572 72.5537 194.011 77.6602 192.572C79.1584 200.919 80.7422 208.097 82.2139 214.767C85.4818 229.577 88.1974 241.884 88.1974 258.929C88.1981 258.931 88.1988 258.932 88.1995 258.934C88.0112 265.365 98.211 267.387 107.297 267.137C107.479 267.133 107.665 267.127 107.853 267.118C112.797 266.931 117.338 266.076 119.59 264.903C120.342 264.576 120.688 263.864 121.173 262.637C122.641 260.018 125.174 254.659 126.997 246.303C127.465 244.162 128.392 242.685 130.583 242.426C130.763 242.405 131.325 242.322 132.036 242.217L132.038 242.217L132.038 242.217L132.039 242.217C133.326 242.027 135.096 241.767 135.954 241.671C138.217 241.42 140.875 243.183 141.158 245.443L141.159 245.451C141.487 248.078 141.571 251.65 141.654 255.15V255.15C141.723 258.088 141.791 260.974 142.001 263.207L141.998 263.203C142.134 265.16 142.447 267.06 143.274 267.548C151.183 272.218 175.353 267.739 177.167 263.7C177.197 263.644 177.224 263.587 177.25 263.528C177.357 263.279 177.367 263.006 177.355 262.735C176.979 253.633 177.846 240.085 179.511 232.745C179.511 232.745 184.697 237.867 184.169 219.592C190.754 221.969 190.411 209.428 190.099 198.016V198.012C190.008 194.659 189.919 191.403 190.009 188.652C190.056 188.038 190.085 187.474 190.093 186.967L190.091 186.791C190.266 183.534 191.19 181.111 192.641 179.111C192.818 179.023 193 178.945 193.182 178.876C225.883 166.395 228.505 145.783 230.134 120.447C230.332 117.362 227.206 115.222 224.451 116.365C224.691 114.881 224.89 113.434 225.05 112.023C228.24 92.7288 220.252 60.9182 197.541 57.4901C196.992 57.4072 196.433 57.3325 195.865 57.2662L195.812 57.2601L195.754 57.2535L195.751 57.2531C193.331 56.9785 191.731 59.3142 192.864 61.3142L194.408 64.0366C194.408 64.0366 192.066 62.9332 187.192 63.4675L187.172 63.4696L187.17 63.47C186.049 63.5955 185.489 64.7859 185.974 65.7341C187.498 68.7118 190.022 75.0922 189.776 84.3577Z" fill="#C0EAEB"/>
</mask>
<g mask="url(#mask0_3965_54169)">
<path d="M20.0807 66.5359C14.6009 69.4351 10.0823 76.8654 8.60889 85.6787C3.66076 111.595 21.5336 139.547 43.1148 152.531L42.052 152.9C39.6385 153.739 39.0007 156.821 41.0244 158.381C59.2504 172.428 86.8257 177.288 105.068 170.046L65.0081 113.799C52.2577 110.161 39.3138 93.1204 30.3202 72.5836C28.4059 68.2125 24.2986 64.3043 20.0807 66.5359Z" fill="#C0EAEB"/>
<path d="M78.6626 112.025L101.372 149.983C105.496 155.234 111.616 168.784 105.06 170.043C98.2988 160.549 69.2611 168.205 55.2864 157.201C53.375 155.696 53.373 152.285 56.1738 151.719C56.1738 151.719 48.4285 151.322 33.5238 140.009C32.6639 139.356 31.7802 138.667 30.8727 137.939L30.8021 137.883C28.0264 135.655 29.9836 131.41 33.5083 131.9L33.5099 131.901L33.8554 131.949C18.2423 119.369 -3.94405 89.4913 17.3217 68.3362C25.181 60.5177 31.2434 71.0042 30.8727 83.233C30.7821 86.2224 25.5302 87.4385 13.6782 87.4385C19.256 91.9008 27.4919 91.5424 32.1069 90.8793C33.8259 90.6323 35.4743 92.0336 35.9849 93.6935C38.5842 102.143 52.5477 107.513 69.7447 115.485C74.3316 117.611 76.7686 116.645 78.6626 112.025Z" fill="white"/>
<path d="M132.498 76.4403C161.519 74.8041 176.66 87.3932 182.58 96.0506C183.737 97.7427 182.661 99.9192 180.653 100.329L173.706 101.744C178.925 106.625 182.111 113.774 183.94 118.978C184.853 121.576 186.932 123.585 189.494 124.593L190.093 186.927C189.287 198.551 193.102 222.777 184.169 219.552C184.697 237.827 179.512 232.705 179.512 232.705C177.846 240.045 176.98 253.593 177.356 262.695C177.367 262.966 177.357 263.239 177.25 263.488C177.005 264.057 176.522 264.497 176.072 264.805C175.934 264.899 175.788 264.972 175.633 265.034C167.844 268.167 151.42 269.291 146.383 267.591C145.841 267.408 145.449 266.973 145.249 266.437C144.001 263.106 141.935 251.608 141.159 245.402C140.876 243.143 138.218 241.38 135.955 241.631C134.622 241.78 131.088 242.326 130.584 242.386C128.393 242.645 127.465 244.122 126.998 246.263C124.282 258.706 119.993 264.503 119.993 264.503C117.533 267.477 94.5305 262.691 89.5983 259.944C89.2393 259.744 88.7834 259.637 88.5793 259.28C88.5647 259.255 88.5517 259.228 88.5398 259.2C88.3372 258.726 88.3568 258.187 88.4172 257.675C90.7063 238.249 79.5544 210.326 77.0085 184.044C77.0085 184.044 72.4074 141.835 77.0911 117.147C83.6794 94.9406 90.9411 78.7832 132.498 76.4403Z" fill="#C0EAEB"/>
<path d="M132.498 76.4403C148.047 75.5636 163.665 85.1793 169.585 93.8367C170.67 95.424 169.791 97.4376 168.02 98.0188C167.783 98.0964 167.543 98.1673 167.317 98.2715L163.459 100.05C169.462 102.56 175.267 109.972 177.096 115.176C178.924 120.38 186.932 123.585 189.494 124.593L190.093 186.927C189.926 197.686 180.531 234.315 174.134 216.554C175.67 224.051 179.689 243.659 172.188 238.454C172.188 238.454 170.088 253.537 169.543 262.359C169.406 264.593 168.59 266.832 166.459 267.516C160.065 269.571 146.836 268.639 143.73 267.591C143.187 267.408 142.796 266.973 142.595 266.436C141.347 263.106 141.935 251.608 141.159 245.402C140.876 243.143 139.616 239.077 136.028 239.476C134.695 239.624 127.636 240.895 125.516 241.121C121.103 241.592 116.531 241.698 113.692 241.222C112.606 241.04 111.377 241.607 111.058 242.66C110.972 242.941 110.951 243.249 111.133 243.48C112.229 244.869 117.247 247.046 119.929 248.139C120.982 248.569 121.766 249.5 121.89 250.631C122.528 256.421 121.309 261.455 120.842 263.105C120.734 263.486 120.546 263.84 120.219 264.064C118.548 265.21 113.684 266.613 108.63 267.028C100.437 267.702 97.9427 263.43 91.954 262.647C90.7825 262.494 89.6872 261.882 89.1498 260.83C88.8508 260.244 88.5132 259.565 88.1979 258.889C88.1979 234.168 82.4856 219.413 77.6608 192.532C72.5542 193.97 72.5542 192.532 72.5542 190.242C72.5542 165.325 72.31 133.262 77.0911 117.147C83.6794 94.9406 90.9412 78.7835 132.498 76.4403Z" fill="white"/>
<path d="M145.718 112.596C143.451 112.547 141.654 110.669 141.703 108.402C141.753 106.136 143.631 104.338 145.897 104.387C148.164 104.437 149.962 106.315 149.912 108.582C149.863 110.848 147.985 112.646 145.718 112.596Z" fill="#2B2940"/>
<path d="M96.6874 111.526C94.4206 111.477 92.623 109.599 92.6725 107.332C92.722 105.066 94.5997 103.268 96.8666 103.317C99.1334 103.367 100.931 105.245 100.881 107.512C100.832 109.778 98.9543 111.576 96.6874 111.526Z" fill="#2B2940"/>
<path d="M140.313 119.37C141.189 118.68 142.459 118.831 143.149 119.708C143.839 120.584 143.688 121.854 142.812 122.544C137.428 126.782 129.543 129.279 120.933 129.091C112.323 128.904 104.555 126.065 99.361 121.595C98.5156 120.868 98.4201 119.593 99.1476 118.747C99.8751 117.902 101.15 117.806 101.996 118.534C106.365 122.294 113.185 124.882 121.021 125.053C128.858 125.224 135.784 122.936 140.313 119.37Z" fill="#2B2940"/>
<path d="M189.778 84.3177L186.986 83.0217L186.985 83.0211C184.563 81.9041 183.783 83.9972 184.158 85.0046C195.104 114.418 167.282 140.782 178.355 167.403C180.855 173.415 183.247 182.604 188.742 181.503C189.464 181.359 190.075 180.906 190.651 180.446C191.192 180.014 191.729 179.636 192.104 179.384C192.436 179.159 192.809 178.979 193.184 178.835C225.885 166.355 228.508 145.743 230.136 120.407C230.345 117.159 226.868 114.959 224.02 116.534C229.475 98.2033 222.152 61.1647 197.543 57.45C196.994 57.3671 196.435 57.2924 195.867 57.2262L195.819 57.2206L195.814 57.22L195.756 57.2134L195.753 57.213C193.333 56.9384 191.734 59.2741 192.866 61.2741L192.867 61.2764L194.41 63.9966C194.41 63.9966 192.068 62.8931 187.195 63.4274L187.175 63.4296L187.172 63.4299C186.051 63.5554 185.491 64.7459 185.976 65.694C187.5 68.6717 190.024 75.0522 189.778 84.3177Z" fill="#C0EAEB"/>
<path d="M195.172 88.8202L192.679 87.6633L192.678 87.6628C191.088 87.0176 189.832 88.5966 190.299 89.8515C200.993 118.59 166.818 139.77 178.671 168.268C181.042 173.969 184.501 189.084 190.091 186.773C191.161 166.466 221.3 178.554 226.961 123.579C227.297 120.309 225.623 121.378 223.018 123.579C232.579 82.507 212.994 66.3253 202.894 62.9671C202.423 62.8106 201.905 62.8264 201.397 62.7673L201.355 62.7623L201.35 62.7618L201.299 62.7559L201.296 62.7555C199.135 62.5104 197.708 64.5955 198.718 66.3809L198.719 66.383L200.097 68.8113C200.097 68.8113 198.006 67.8262 193.655 68.3032L193.638 68.3051L193.635 68.3054C192.635 68.4174 192.135 69.4802 192.568 70.3266C194.163 73.4432 198.378 82.0363 195.172 88.8202Z" fill="white"/>
<path d="M106.406 202.088C102.979 201.016 100.918 199.815 98.6162 197.438C98.0193 196.822 96.9725 197.146 96.9644 198.004C96.9084 203.962 99.926 208.845 104.62 213.147C105.72 214.155 107.451 213.497 107.705 212.026C107.957 210.559 109.684 209.893 110.857 210.81L117.259 215.819C118.25 216.595 119.625 215.544 119.135 214.384C118.73 213.424 119.639 212.427 120.639 212.719C125.568 214.159 130.179 215.013 134.886 214.215C136.291 213.977 136.094 212.309 134.676 212.168C129.974 211.699 125.734 209.136 123.135 205.189L122.99 204.969C122.625 204.414 121.925 204.183 121.301 204.412L117.926 205.651C117.261 205.895 116.517 205.635 116.148 205.031L113.44 200.595C113.021 199.91 112.133 199.681 111.436 200.081L108.313 201.868C107.734 202.2 107.043 202.287 106.406 202.088Z" fill="#C0EAEB"/>
<path d="M89.2385 154.365L90.0529 159.158C90.1715 159.856 90.7667 160.373 91.4745 160.393L95.3461 160.501C95.8758 160.516 96.3574 160.812 96.6097 161.278L97.7195 163.328C99.2464 166.148 101.548 168.473 104.352 170.029L105.646 170.747C106.964 171.478 106.478 173.486 104.97 173.478C100.439 173.454 96.7817 172.87 92.7561 170.091C91.9181 169.513 90.7262 169.853 90.4025 170.819C90.0169 171.969 88.4852 172.154 87.89 171.097C82.9921 162.401 83.6742 156.031 87.3659 153.428C88.1227 152.894 89.0834 153.452 89.2385 154.365Z" fill="#C0EAEB"/>
<path d="M161.365 180.497C163.521 181.836 165.749 181.865 168.764 180.358C169.926 179.777 171.259 180.677 170.754 181.873C168.386 187.486 162.516 192.247 157.187 196.569L157.162 196.59C156.135 197.423 154.605 196.415 154.979 195.145C155.3 194.055 154.195 193.092 153.152 193.545C148.72 195.467 145.901 196.318 141.528 195.528C140.567 195.354 140.61 194.084 141.569 193.895C144.782 193.258 147.524 191.181 149.006 188.261L150.168 185.973C150.463 185.391 151.12 185.089 151.755 185.244L155.267 186.1C155.955 186.267 156.665 185.926 156.964 185.284L158.912 181.097C159.335 180.188 160.513 179.968 161.365 180.497Z" fill="#C0EAEB"/>
<path d="M142 263.163C145.587 268.826 148.321 263.522 150.031 261.336C151.269 259.754 152.153 267.003 155.689 266.932C158.026 266.886 159.273 262.374 160.265 261.868C161.021 261.483 168.701 265.404 169.951 257.33C172.189 258.044 173.843 264.784 177.188 263.615C179.927 275.025 150.788 275.688 142.85 271C142.023 270.512 142.136 265.12 142 263.163Z" fill="#C0EAEB"/>
<path d="M88.2012 258.852C91.6222 262.502 94.6725 259.094 96.9802 256.973C98.6503 255.438 98.2797 262.002 101.607 262.452C103.804 262.75 105.277 259.479 106.367 259.076C112.293 256.89 119.929 265.661 121.129 262.013L121.174 262.596C120.689 263.824 120.342 264.536 119.59 264.863C113.129 268.228 87.834 268.977 88.2012 258.852Z" fill="#C0EAEB"/>
</g>
<path d="M58.1248 29.6444L27.1127 68.181C28.0233 69.327 28.8929 70.964 29.3695 72.4602L60.8942 31.8329C61.4217 31.1531 61.3821 30.192 60.8005 29.5579C60.0701 28.7616 58.8022 28.8026 58.1248 29.6444Z" fill="#25404F"/>
<mask id="mask1_3965_54169" style="mask-type:alpha" maskUnits="userSpaceOnUse" x="79" y="32" width="114" height="55">
<path d="M106.968 80.7844C99.5723 83.0826 94.6174 86.9569 94.6174 86.9569L79.7363 32.3037L192.652 38.5547L190.057 85.4351L172.429 74.4148L163.49 80.7964C146.902 95.6871 123.318 72.8387 110.734 76.2131C110.734 76.2131 106.042 77.6033 106.968 80.7844Z" fill="#D9D9D9"/>
</mask>
<g mask="url(#mask1_3965_54169)">
<mask id="mask2_3965_54169" style="mask-type:alpha" maskUnits="userSpaceOnUse" x="101" y="54" width="63" height="34">
<path d="M133.578 54.4033C117.929 53.1421 105.021 61.9591 101.936 77.1266C116.316 80.1109 146.584 86.3134 152.614 87.2493C154.829 86.6299 163.798 85.5599 163.798 85.5599C164.188 68.4121 148.885 55.6368 133.578 54.4033Z" fill="#F59797"/>
</mask>
<g mask="url(#mask2_3965_54169)">
<path d="M133.578 54.4033C117.929 53.1421 105.021 61.9591 101.936 77.1266C116.316 80.1109 146.584 86.3134 152.614 87.2493C158.645 88.1852 162.549 87.2862 163.748 86.7197C164.874 68.9908 149.228 55.6645 133.578 54.4033Z" fill="#55ACB5"/>
<path d="M154.772 88.3407C158.654 73.984 150.329 58.694 134.977 52.2637L175.878 58.6114L171.077 89.5442L154.772 88.3407Z" fill="#458596"/>
<path d="M84.5896 86.2508L83.1795 48.2185L117.87 47.4666L119.28 85.499L84.5896 86.2508Z" fill="#3F7A89"/>
</g>
<mask id="mask3_3965_54169" style="mask-type:alpha" maskUnits="userSpaceOnUse" x="113" y="47" width="29" height="34">
<path d="M121.884 79.5788C114.786 76.7285 111.552 67.6733 114.938 59.6969C117.406 53.8848 120.605 48.1563 125.982 47.6337C128.047 48.0871 131.006 49.283 133.94 50.8993C150.494 60.0177 137.86 85.9952 121.884 79.5788Z" fill="#0F94C6"/>
</mask>
<g mask="url(#mask3_3965_54169)">
<path d="M121.884 79.5788C114.786 76.7285 111.552 67.6733 114.938 59.6969C117.406 53.8848 120.605 48.1563 125.982 47.6337C128.047 48.0871 131.006 49.283 133.94 50.8993C150.494 60.0177 137.86 85.9952 121.884 79.5788Z" fill="#4B979D"/>
<path d="M142.181 65.1038C135.699 73.9638 124.657 68.6323 122.892 68.6706L124.943 83.1585L142.836 82.7707L142.181 65.1038Z" fill="#3F7A89"/>
</g>
<ellipse cx="13.8653" cy="15.6703" rx="13.8653" ry="15.6703" transform="matrix(0.952224 0.305399 -0.318481 0.947929 113.729 43.6685)" fill="#315A6E"/>
<mask id="mask4_3965_54169" style="mask-type:alpha" maskUnits="userSpaceOnUse" x="111" y="51" width="20" height="23">
<ellipse cx="9.64427" cy="10.8998" rx="9.64427" ry="10.8998" transform="matrix(0.952224 0.305399 -0.318481 0.947929 115.199 49.0156)" fill="#F2F2F2"/>
</mask>
<g mask="url(#mask4_3965_54169)">
<ellipse cx="9.64427" cy="10.8998" rx="9.64427" ry="10.8998" transform="matrix(0.952224 0.305399 -0.318481 0.947929 115.199 49.0156)" fill="#F2F2F2"/>
<path d="M105.984 47.9648L132.851 51.4999C132.851 51.4999 112.77 54.1147 113.047 75.1808L105.984 47.9648Z" fill="#9DDEE0"/>
</g>
<path d="M130.212 89.3428L104.107 94.4628C81.8054 80.5593 106.041 57.1172 140.876 77.64C147.296 81.4221 146.982 85.5095 156.285 85.8854C158.603 85.979 160.252 85.9828 161.207 85.9668C162.496 85.9451 162.517 85.8874 161.207 85.9668C160.266 86.0237 158.64 86.1513 156.305 86.4134L130.212 89.3428Z" fill="#55ACB5"/>
<path d="M105.749 97.3656L162.114 85.7445C162.114 85.7445 152.912 87.6418 137.918 79.4102C104.402 61.0109 83.8966 83.7422 105.749 97.3656Z" fill="#25404F"/>
</g>
<path d="M13.5882 92.9817L17.9532 87.4563L12.8326 87.4563L10.4685 90.5626C9.80252 91.4376 9.97991 92.688 10.8629 93.3433C11.7198 93.9791 12.9268 93.819 13.5882 92.9817Z" fill="#25404F"/>
<mask id="mask5_3965_54169" style="mask-type:alpha" maskUnits="userSpaceOnUse" x="0" y="0" width="58" height="57">
<path d="M57.9491 29.8766C44.8943 25.7479 39.7238 0 22.1612 0L0 24.494C20.7033 26.8267 24.494 53.6535 36.7763 56.1116L57.9491 29.8766Z" fill="#9DDEE0"/>
</mask>
<g mask="url(#mask5_3965_54169)">
<path d="M57.9491 29.8766C44.8943 25.7479 39.7238 0 22.1612 0L0 24.494C20.7033 26.8267 24.494 53.6535 36.7763 56.1116L57.9491 29.8766Z" fill="#9DDEE0"/>
<path d="M59.3203 29.569C52.8717 27.5296 51.1531 13.8042 42.4778 13.8042L30.6953 26.9102C37.5164 34.8901 42.7946 41.3141 48.8616 42.5283L59.3203 29.569Z" fill="#55ACB5"/>
<path d="M30.904 26.6948C27.4703 18.7651 18.6839 9.45117 10.2486 9.45117L-3.16602 25.463C8.78313 26.8093 11.595 40.418 18.6839 41.8366L30.904 26.6948Z" fill="#55ACB5"/>
</g>
</g>
<defs>
<clipPath id="clip0_3965_54169">
<rect width="230.143" height="275.502" fill="white"/>
</clipPath>
</defs>
</svg>
