<svg width="20" height="20" viewBox="0 0 20 20" fill="none" xmlns="http://www.w3.org/2000/svg">
<path fill-rule="evenodd" clip-rule="evenodd" d="M10 2C5.58011 2 2 5.67017 2 10.2013C2 13.8261 4.29343 16.8972 7.47084 17.9846C7.86863 18.0602 8.01596 17.8084 8.01596 17.5869C8.01596 17.3906 8.01105 16.877 8.00614 16.1923C5.78146 16.6857 5.31001 15.0948 5.31001 15.0948C4.94659 14.1483 4.42112 13.8916 4.42112 13.8916C3.69429 13.3831 4.47514 13.3931 4.47514 13.3931C5.27563 13.4536 5.70288 14.2389 5.70288 14.2389C6.41498 15.4925 7.57397 15.1301 8.03069 14.9186C8.10436 14.39 8.31062 14.0275 8.53653 13.8211C6.76366 13.6197 4.89748 12.9149 4.89748 9.77332C4.89748 8.87717 5.20688 8.14716 5.72253 7.57323C5.63904 7.36177 5.36403 6.53108 5.79619 5.40334C5.79619 5.40334 6.469 5.18182 7.99632 6.24411C8.63474 6.06287 9.31737 5.97224 10 5.96721C10.6777 5.97224 11.3653 6.06287 12.0037 6.24411C13.531 5.18182 14.2038 5.40334 14.2038 5.40334C14.6409 6.53108 14.3659 7.36681 14.2824 7.57323C14.7931 8.14716 15.1025 8.87717 15.1025 9.77332C15.1025 12.9249 13.2314 13.6147 11.4487 13.8211C11.7336 14.0728 11.9939 14.5763 11.9939 15.3415C11.9939 16.439 11.984 17.3201 11.984 17.5919C11.984 17.8135 12.1265 18.0652 12.5341 17.9846C15.7115 16.8972 18 13.8261 18 10.2063C18 5.67017 14.4199 2 10 2Z" fill="#D6D7DB"/>
</svg>
