<svg width="13" height="12" viewBox="0 0 13 12" fill="none" xmlns="http://www.w3.org/2000/svg">
<g clip-path="url(#clip0_39_51)">
<g clip-path="url(#clip1_39_51)">
<path d="M10.6655 0C11.4016 0.000175696 11.9984 0.596886 11.9985 1.33301V10.667C11.9984 11.4031 11.4016 11.9998 10.6655 12H1.33154C0.595421 11.9998 -0.00128915 11.4031 -0.00146484 10.667V1.33301C-0.00128895 0.596886 0.595421 0.000175889 1.33154 0H10.6655ZM1.83838 10.333H3.62842V4.55566H1.83838V10.333ZM8.22998 4.37891C7.0041 4.37905 6.48779 5.33398 6.48779 5.33398V4.55566H4.77197V10.333H6.48779V7.2998C6.48791 6.48737 6.86271 6.00391 7.57861 6.00391C8.23647 6.00406 8.55215 6.46862 8.55225 7.2998V10.333H10.3335V6.6748C10.3334 5.12717 9.45544 4.37891 8.22998 4.37891ZM2.7251 1.66699C2.14063 1.66699 1.66664 2.14376 1.6665 2.73242C1.6665 3.3212 2.14055 3.79883 2.7251 3.79883C3.30948 3.79863 3.78271 3.32107 3.78271 2.73242C3.78258 2.14389 3.30939 1.66719 2.7251 1.66699Z" fill="#D6D7DB"/>
</g>
</g>
</svg>
