<svg width="21" height="20" viewBox="0 0 21 20" fill="none" xmlns="http://www.w3.org/2000/svg">
<path fill-rule="evenodd" clip-rule="evenodd" d="M11.0308 0.98291L18.8467 5.48291V14.4829L11.0308 18.9829L3.21484 14.4829V5.48291L11.0308 0.98291ZM18.003 5.9687L11.0308 1.95448L4.05859 5.9687V13.9971L11.0308 18.0113L18.003 13.9971V5.9687Z" fill="#160C56"/>
<path fill-rule="evenodd" clip-rule="evenodd" d="M11.0308 18.0114V13.9972V9.98302L7.54468 7.97591L4.05859 5.9688V9.98302V13.9972L11.0308 18.0114Z" fill="white"/>
<path d="M14.5169 16.0043L18.003 13.9972L14.5169 11.9901L11.0308 13.9972V18.0114L14.5169 16.0043Z" fill="#87E0E1"/>
<path d="M11.0308 9.98302V13.9972L14.5169 11.9901L11.0308 9.98302Z" fill="#4F2FD0"/>
<path d="M14.5169 7.97591L11.0308 9.98302L14.5169 11.9901L18.003 9.98302L14.5169 7.97591Z" fill="#7B5AFF"/>
<path d="M14.5169 3.9617L11.0308 1.95459L7.54468 3.9617L4.05859 5.9688L7.54468 7.97591L11.0308 5.9688L14.5169 7.97591L18.003 5.9688L14.5169 3.9617Z" fill="#F9DB4E"/>
<path d="M11.0308 9.98302L14.5169 7.97591L11.0308 5.9688L7.54468 7.97591L11.0308 9.98302Z" fill="#E94A5D"/>
</svg>
