<svg width="2460" height="2460" viewBox="0 0 2460 2460" fill="none" xmlns="http://www.w3.org/2000/svg">
<path d="M1516.51 160.72L1845 164.789L2012.77 447.232L2295.21 615L2299.28 943.487L2460 1230L2299.28 1516.51L2295.21 1845L2012.77 2012.77L1845 2295.21L1516.51 2299.28L1230 2460L943.487 2299.28L615 2295.21L447.232 2012.77L164.789 1845L160.72 1516.51L0 1230L160.72 943.487L164.789 615L447.232 447.232L615 164.789L943.487 160.72L1230 0L1516.51 160.72ZM265.703 675V1785L1229.67 2340L2193.63 1785V675L1229.67 120L265.703 675Z" fill="black"/>
<path fill-rule="evenodd" clip-rule="evenodd" d="M1233.46 2218.06V1722.98V1227.89L803.51 980.348L373.559 732.805V1227.89V1722.98L1233.46 2218.06Z" fill="black"/>
<path d="M1663.41 1970.52L2093.36 1722.98L1663.41 1475.43L1233.46 1722.98V2218.06L1663.41 1970.52Z" fill="black" fill-opacity="0.4"/>
<path d="M1233.46 1227.89V1722.98L1663.41 1475.43L1233.46 1227.89Z" fill="black" fill-opacity="0.8"/>
<path d="M1663.41 980.348L1233.46 1227.89L1663.41 1475.43L2093.36 1227.89L1663.41 980.348Z" fill="black" fill-opacity="0.6"/>
<path d="M1663.41 485.262L1233.46 237.719L803.51 485.262L373.559 732.805L803.51 980.348L1233.46 732.805L1663.41 980.348L2093.36 732.805L1663.41 485.262Z" fill="black" fill-opacity="0.4"/>
<path d="M1233.46 1227.89L1663.41 980.348L1233.46 732.805L803.51 980.348L1233.46 1227.89Z" fill="black" fill-opacity="0.8"/>
</svg>
