<svg width="615" height="615" viewBox="0 0 615 615" fill="none" xmlns="http://www.w3.org/2000/svg">
<path d="M379.128 40.1797L461.25 41.1973L503.191 111.809L573.803 153.75L574.82 235.872L615 307.5L574.82 379.128L573.803 461.25L503.191 503.191L461.25 573.803L379.128 574.82L307.5 615L235.872 574.82L153.75 573.803L111.809 503.191L41.1973 461.25L40.1797 379.128L0 307.5L40.1797 235.872L41.1973 153.75L111.809 111.809L153.75 41.1973L235.872 40.1797L307.5 0L379.128 40.1797ZM139.792 211V404L307.417 500.5L475.042 404V211L307.417 114.5L139.792 211Z" fill="black"/>
<path fill-rule="evenodd" clip-rule="evenodd" d="M306.931 457.048V382.116V307.184L372.005 269.718L437.079 232.252V307.184V382.116L306.931 457.048Z" fill="black"/>
<path d="M241.858 194.786L306.931 157.32L372.005 194.786L437.079 232.252L372.005 269.718L306.931 232.252L241.858 269.718L176.784 232.252L241.858 194.786Z" fill="black"/>
<path d="M306.931 307.184L241.858 269.718L306.931 232.252L372.005 269.718L306.931 307.184Z" fill="black"/>
</svg>
