<svg width="64" height="64" viewBox="0 0 64 64" fill="none" xmlns="http://www.w3.org/2000/svg">
<g filter="url(#filter0_ii_3882_99239)">
<path d="M0 6C0 2.68629 2.68629 0 6 0H58C61.3137 0 64 2.68629 64 6V58C64 61.3137 61.3137 64 58 64H6C2.68629 64 0 61.3137 0 58V6Z" fill="#0F1731"/>
<path d="M6 0.5H58C61.0376 0.5 63.5 2.96243 63.5 6V58C63.5 61.0376 61.0376 63.5 58 63.5H6C2.96243 63.5 0.5 61.0376 0.5 58V6C0.5 2.96243 2.96243 0.5 6 0.5Z" stroke="white" stroke-opacity="0.05"/>
<path d="M38.9778 36.4373C38.7561 34.9313 38.002 33.5547 36.8523 32.5571C35.7025 31.5595 34.2333 31.0071 32.7111 31H31.2924C29.7703 31.0071 28.301 31.5595 27.1513 32.5571C26.0015 33.5547 25.2474 34.9313 25.0258 36.4373L24.3458 41.192C24.3241 41.3457 24.3384 41.5023 24.3877 41.6495C24.437 41.7967 24.5199 41.9304 24.6298 42.04C24.8964 42.3067 26.5324 43.6667 32.0031 43.6667C37.4738 43.6667 39.1058 42.312 39.3764 42.04C39.4863 41.9304 39.5692 41.7967 39.6185 41.6495C39.6678 41.5023 39.6822 41.3457 39.6604 41.192L38.9778 36.4373Z" fill="#BFA6F2"/>
<path d="M26.0805 31.7333C24.7918 32.9212 23.9534 34.518 23.7071 36.2533L23.2138 39.6666C19.2538 39.6399 18.0538 38.1999 17.8538 37.9066C17.7765 37.8 17.7213 37.679 17.6915 37.5508C17.6618 37.4226 17.658 37.2896 17.6805 37.1599L17.9738 35.5066C18.1266 34.6425 18.4856 33.828 19.0202 33.1322C19.5548 32.4364 20.2493 31.8797 21.0448 31.5095C21.8403 31.1392 22.7134 30.9662 23.59 31.0051C24.4666 31.0441 25.3209 31.2939 26.0805 31.7333Z" fill="#BFA6F2"/>
<path d="M46.3199 37.1599C46.3424 37.2896 46.3386 37.4226 46.3088 37.5508C46.2791 37.679 46.2239 37.8 46.1466 37.9066C45.9466 38.1999 44.7466 39.6399 40.7866 39.6666L40.2933 36.2533C40.047 34.518 39.2085 32.9212 37.9199 31.7333C38.6795 31.2939 39.5338 31.0441 40.4104 31.0051C41.287 30.9662 42.1601 31.1392 42.9556 31.5095C43.7511 31.8797 44.4456 32.4364 44.9802 33.1322C45.5148 33.828 45.8738 34.6425 46.0266 35.5066L46.3199 37.1599Z" fill="#BFA6F2"/>
<path d="M26.306 28.8C25.9704 29.276 25.5248 29.6639 25.0072 29.9309C24.4895 30.1978 23.9151 30.3359 23.3327 30.3333C22.7517 30.3333 22.179 30.1953 21.6619 29.9305C21.1447 29.6658 20.6978 29.2819 20.3581 28.8106C20.0184 28.3393 19.7956 27.794 19.708 27.2196C19.6203 26.6453 19.6705 26.0583 19.8542 25.5072C20.0379 24.956 20.35 24.4564 20.7647 24.0495C21.1794 23.6426 21.6848 23.34 22.2394 23.1668C22.794 22.9936 23.3818 22.9546 23.9543 23.0531C24.5269 23.1516 25.0679 23.3847 25.5327 23.7333C25.399 24.2561 25.3318 24.7937 25.3327 25.3333C25.3337 26.5562 25.6704 27.7553 26.306 28.8Z" fill="#BFA6F2"/>
<path d="M44.3334 26.6667C44.3337 27.1483 44.2391 27.6252 44.055 28.0703C43.8708 28.5153 43.6007 28.9196 43.2602 29.2602C42.9196 29.6007 42.5153 29.8708 42.0703 30.0549C41.6253 30.2391 41.1483 30.3337 40.6667 30.3333C40.0843 30.3359 39.5098 30.1978 38.9922 29.9309C38.4745 29.6639 38.029 29.276 37.6934 28.8C38.329 27.7553 38.6657 26.5562 38.6667 25.3333C38.6676 24.7937 38.6004 24.2561 38.4667 23.7333C39.0114 23.3248 39.6592 23.076 40.3374 23.0148C41.0156 22.9537 41.6974 23.0826 42.3065 23.3871C42.9155 23.6916 43.4278 24.1597 43.7857 24.739C44.1437 25.3182 44.3334 25.9857 44.3334 26.6667Z" fill="#BFA6F2"/>
<path d="M32 30.3333C34.7614 30.3333 37 28.0947 37 25.3333C37 22.5718 34.7614 20.3333 32 20.3333C29.2386 20.3333 27 22.5718 27 25.3333C27 28.0947 29.2386 30.3333 32 30.3333Z" fill="#BFA6F2"/>
</g>
<defs>
<filter id="filter0_ii_3882_99239" x="-1.22222" y="-1.22222" width="66.4444" height="66.4444" filterUnits="userSpaceOnUse" color-interpolation-filters="sRGB">
<feFlood flood-opacity="0" result="BackgroundImageFix"/>
<feBlend mode="normal" in="SourceGraphic" in2="BackgroundImageFix" result="shape"/>
<feColorMatrix in="SourceAlpha" type="matrix" values="0 0 0 0 0 0 0 0 0 0 0 0 0 0 0 0 0 0 127 0" result="hardAlpha"/>
<feOffset dx="1.22222" dy="1.22222"/>
<feGaussianBlur stdDeviation="9.77778"/>
<feComposite in2="hardAlpha" operator="arithmetic" k2="-1" k3="1"/>
<feColorMatrix type="matrix" values="0 0 0 0 1 0 0 0 0 1 0 0 0 0 1 0 0 0 0.03 0"/>
<feBlend mode="normal" in2="shape" result="effect1_innerShadow_3882_99239"/>
<feColorMatrix in="SourceAlpha" type="matrix" values="0 0 0 0 0 0 0 0 0 0 0 0 0 0 0 0 0 0 127 0" result="hardAlpha"/>
<feOffset dx="-1.22222" dy="-1.22222"/>
<feGaussianBlur stdDeviation="9.77778"/>
<feComposite in2="hardAlpha" operator="arithmetic" k2="-1" k3="1"/>
<feColorMatrix type="matrix" values="0 0 0 0 1 0 0 0 0 1 0 0 0 0 1 0 0 0 0.03 0"/>
<feBlend mode="normal" in2="effect1_innerShadow_3882_99239" result="effect2_innerShadow_3882_99239"/>
</filter>
</defs>
</svg>
