<svg width="64" height="64" viewBox="0 0 64 64" fill="none" xmlns="http://www.w3.org/2000/svg">
<g filter="url(#filter0_ii_3963_54052)">
<path d="M0 6C0 2.68629 2.68629 0 6 0H58C61.3137 0 64 2.68629 64 6V58C64 61.3137 61.3137 64 58 64H6C2.68629 64 0 61.3137 0 58V6Z" fill="#0F1731"/>
<path d="M6 0.5H58C61.0376 0.5 63.5 2.96243 63.5 6V58C63.5 61.0376 61.0376 63.5 58 63.5H6C2.96243 63.5 0.5 61.0376 0.5 58V6C0.5 2.96243 2.96243 0.5 6 0.5Z" stroke="white" stroke-opacity="0.05"/>
<g clip-path="url(#clip0_3963_54052)">
<path d="M33.3733 18.4933L18.72 16.2666C18.04 16.16 17.3467 16.3466 16.8267 16.7866C16.3067 17.24 16 17.8933 16 18.5733V46.6666C16 47.4 16.6 48 17.3333 48H21.6667V41C21.6667 39.7066 22.7067 38.6666 24 38.6666H27.3333C28.6267 38.6666 29.6667 39.7066 29.6667 41V48H35.3333V20.8C35.3333 19.6533 34.5067 18.68 33.3733 18.4933ZM23.3333 35.6666H21.3333C20.7813 35.6666 20.3333 35.2186 20.3333 34.6666C20.3333 34.1146 20.7813 33.6666 21.3333 33.6666H23.3333C23.8853 33.6666 24.3333 34.1146 24.3333 34.6666C24.3333 35.2186 23.8853 35.6666 23.3333 35.6666ZM23.3333 31.6666H21.3333C20.7813 31.6666 20.3333 31.2186 20.3333 30.6666C20.3333 30.1146 20.7813 29.6666 21.3333 29.6666H23.3333C23.8853 29.6666 24.3333 30.1146 24.3333 30.6666C24.3333 31.2186 23.8853 31.6666 23.3333 31.6666ZM23.3333 27.6666H21.3333C20.7813 27.6666 20.3333 27.2186 20.3333 26.6666C20.3333 26.1146 20.7813 25.6666 21.3333 25.6666H23.3333C23.8853 25.6666 24.3333 26.1146 24.3333 26.6666C24.3333 27.2186 23.8853 27.6666 23.3333 27.6666ZM23.3333 23.6666H21.3333C20.7813 23.6666 20.3333 23.2186 20.3333 22.6666C20.3333 22.1146 20.7813 21.6666 21.3333 21.6666H23.3333C23.8853 21.6666 24.3333 22.1146 24.3333 22.6666C24.3333 23.2186 23.8853 23.6666 23.3333 23.6666ZM30 35.6666H28C27.448 35.6666 27 35.2186 27 34.6666C27 34.1146 27.448 33.6666 28 33.6666H30C30.552 33.6666 31 34.1146 31 34.6666C31 35.2186 30.552 35.6666 30 35.6666ZM30 31.6666H28C27.448 31.6666 27 31.2186 27 30.6666C27 30.1146 27.448 29.6666 28 29.6666H30C30.552 29.6666 31 30.1146 31 30.6666C31 31.2186 30.552 31.6666 30 31.6666ZM30 27.6666H28C27.448 27.6666 27 27.2186 27 26.6666C27 26.1146 27.448 25.6666 28 25.6666H30C30.552 25.6666 31 26.1146 31 26.6666C31 27.2186 30.552 27.6666 30 27.6666ZM30 23.6666H28C27.448 23.6666 27 23.2186 27 22.6666C27 22.1146 27.448 21.6666 28 21.6666H30C30.552 21.6666 31 22.1146 31 22.6666C31 23.2186 30.552 23.6666 30 23.6666Z" fill="#BFA6F2"/>
<path d="M46.1594 30.456L36.666 28.468V48H45.666C46.9527 48 47.9993 46.9534 47.9993 45.6667V32.736C47.9993 31.6347 47.2487 30.6974 46.1594 30.456ZM42.9993 44H40.9993C40.4473 44 39.9993 43.552 39.9993 43C39.9993 42.448 40.4473 42 40.9993 42H42.9993C43.5513 42 43.9993 42.448 43.9993 43C43.9993 43.552 43.5513 44 42.9993 44ZM42.9993 40H40.9993C40.4473 40 39.9993 39.552 39.9993 39C39.9993 38.448 40.4473 38 40.9993 38H42.9993C43.5513 38 43.9993 38.448 43.9993 39C43.9993 39.552 43.5513 40 42.9993 40ZM42.9993 36H40.9993C40.4473 36 39.9993 35.552 39.9993 35C39.9993 34.448 40.4473 34 40.9993 34H42.9993C43.5513 34 43.9993 34.448 43.9993 35C43.9993 35.552 43.5513 36 42.9993 36Z" fill="#BFA6F2"/>
</g>
</g>
<defs>
<filter id="filter0_ii_3963_54052" x="-1.22222" y="-1.22222" width="66.4444" height="66.4444" filterUnits="userSpaceOnUse" color-interpolation-filters="sRGB">
<feFlood flood-opacity="0" result="BackgroundImageFix"/>
<feBlend mode="normal" in="SourceGraphic" in2="BackgroundImageFix" result="shape"/>
<feColorMatrix in="SourceAlpha" type="matrix" values="0 0 0 0 0 0 0 0 0 0 0 0 0 0 0 0 0 0 127 0" result="hardAlpha"/>
<feOffset dx="1.22222" dy="1.22222"/>
<feGaussianBlur stdDeviation="9.77778"/>
<feComposite in2="hardAlpha" operator="arithmetic" k2="-1" k3="1"/>
<feColorMatrix type="matrix" values="0 0 0 0 1 0 0 0 0 1 0 0 0 0 1 0 0 0 0.03 0"/>
<feBlend mode="normal" in2="shape" result="effect1_innerShadow_3963_54052"/>
<feColorMatrix in="SourceAlpha" type="matrix" values="0 0 0 0 0 0 0 0 0 0 0 0 0 0 0 0 0 0 127 0" result="hardAlpha"/>
<feOffset dx="-1.22222" dy="-1.22222"/>
<feGaussianBlur stdDeviation="9.77778"/>
<feComposite in2="hardAlpha" operator="arithmetic" k2="-1" k3="1"/>
<feColorMatrix type="matrix" values="0 0 0 0 1 0 0 0 0 1 0 0 0 0 1 0 0 0 0.03 0"/>
<feBlend mode="normal" in2="effect1_innerShadow_3963_54052" result="effect2_innerShadow_3963_54052"/>
</filter>
<clipPath id="clip0_3963_54052">
<rect width="32" height="32" fill="white" transform="translate(16 16)"/>
</clipPath>
</defs>
</svg>
