<svg width="22" height="23" viewBox="0 0 22 23" fill="none" xmlns="http://www.w3.org/2000/svg">
<path d="M11.0026 15.0561C12.4879 15.0561 13.6693 13.873 13.6693 12.3894C13.6693 10.9059 12.4879 9.72278 11.0026 9.72278C9.51727 9.72278 8.33594 10.9059 8.33594 12.3894C8.33594 13.873 9.51727 15.0561 11.0026 15.0561Z" fill="#60EEB0"/>
<path d="M18.8412 10.7767C18.6318 9.75303 18.2225 8.78071 17.6368 7.91539C17.0613 7.06408 16.3281 6.33088 15.4768 5.75539C14.6114 5.1699 13.6391 4.76063 12.6155 4.55094C12.0778 4.4419 11.5303 4.38829 10.9817 4.39094V2.61139L7.44835 5.27806L10.9817 7.94472V6.16872C11.4119 6.16694 11.8421 6.20783 12.2572 6.29317C13.0528 6.4562 13.8085 6.77424 14.4812 7.22917C15.1447 7.67649 15.7157 8.2475 16.163 8.91094C16.8575 9.93781 17.2279 11.1495 17.2261 12.3892C17.226 13.2211 17.0598 14.0446 16.7372 14.8114C16.5804 15.1808 16.3887 15.5344 16.1648 15.8674C15.94 16.1984 15.6847 16.5076 15.4021 16.7909C14.5417 17.6498 13.4493 18.2389 12.259 18.4861C11.4312 18.6532 10.5784 18.6532 9.75057 18.4861C8.95462 18.3229 8.19861 18.0045 7.52568 17.5492C6.863 17.1022 6.29261 16.5318 5.84568 15.8692C5.15196 14.8412 4.78142 13.6293 4.78168 12.3892H3.00391C3.00485 13.9836 3.48114 15.5415 4.37191 16.8638C4.94777 17.7137 5.68023 18.4462 6.53013 19.0221C7.85068 19.9158 9.40934 20.3921 11.0039 20.3892C11.5455 20.3891 12.0857 20.3346 12.6164 20.2265C13.6392 20.0153 14.6109 19.6061 15.4768 19.0221C15.9019 18.7356 16.2982 18.4084 16.6599 18.0452C17.0221 17.6819 17.3495 17.2855 17.6377 16.8612C18.5307 15.541 19.0066 13.983 19.0039 12.3892C19.0039 11.8476 18.9494 11.3074 18.8412 10.7767V10.7767Z" fill="#60EEB0"/>
</svg>
