<svg width="12" height="12" viewBox="0 0 12 12" fill="none" xmlns="http://www.w3.org/2000/svg">
<g clip-path="url(#clip0_39_59)">
<path d="M6 1C7.25064 2.36918 7.96138 4.14602 8 6C7.96138 7.85398 7.25064 9.63082 6 11M6 1C4.74936 2.36918 4.03862 4.14602 4 6C4.03862 7.85398 4.74936 9.63082 6 11M6 1C3.23858 1 1 3.23858 1 6C1 8.76142 3.23858 11 6 11M6 1C8.76142 1 11 3.23858 11 6C11 8.76142 8.76142 11 6 11M1.25001 4.5H10.75M1.25 7.5H10.75" stroke="#D6D7DB" stroke-linecap="round" stroke-linejoin="round"/>
</g>
</svg>
