<svg width="128" height="128" viewBox="0 0 128 128" fill="none" xmlns="http://www.w3.org/2000/svg">
<g clip-path="url(#clip0_99_3419)">
<rect width="128" height="128" rx="64" fill="#87E0E1"/>
<g filter="url(#filter0_d_99_3419)">
<mask id="mask0_99_3419" style="mask-type:alpha" maskUnits="userSpaceOnUse" x="21" y="36" width="85" height="72">
<g style="mix-blend-mode:multiply">
<path d="M98.8168 64.6569L103.99 63.6035C105.456 63.3051 106.257 61.7066 105.516 60.4072C100.695 51.9468 93.9771 48.3647 89.4805 46.8579C86.9386 46.0062 84.8027 43.2043 82.834 41.3848C76.4375 35.4729 55.1115 34.6746 43.5086 43.8941C43.1937 44.1443 42.8616 44.3572 42.5009 44.535C31.5785 49.9188 15.5826 66.4013 22.8145 91.2266C23.1038 92.2199 24.5993 92.2935 25.2405 91.4815C26.0376 90.4722 27.1243 89.6462 28.4226 90.0291C28.4226 90.0291 31.9348 100.463 38.3731 104.447C43.0719 107.355 39.711 100.26 43.0402 101.981C57.0021 109.202 73.8386 110.818 88.3008 101.423C91.0256 99.6531 92.3362 99.7915 93.1821 100.655C94.7329 102.237 96.6445 102.578 97.7066 100.634C102.669 91.5472 106.629 78.6663 98.8168 64.6569Z" fill="#FF3B3B"/>
</g>
</mask>
<g mask="url(#mask0_99_3419)">
<rect width="212.206" height="184.171" transform="matrix(-1 0 0 1 150.988 30.973)" fill="white"/>
<g style="mix-blend-mode:multiply">
<path d="M30.0151 84.5856C26.471 58.0601 49.5361 47.4703 50.003 47.8208L53.0731 41.6882H30.0151C23.6572 49.0694 10.7847 64.1584 10.1577 65.4648C9.53058 66.7712 12.2044 82.9924 13.6196 90.9397L27.0756 108.838L50.003 116.153L92.9186 110.666C94.3689 109.735 105.248 102.619 106.205 92.434C108.015 90.9617 110.027 89.3865 112.015 88.1438C118.52 84.0788 118.248 59.9593 117.435 56.3007C116.622 52.6422 99.2781 40.1976 102.124 51.9647C104.4 61.3783 96.2159 62.6621 92.9186 61.1788C96.7744 69.5105 108.385 73.0001 102.813 90.0396C96.916 100.431 94.5937 97.9216 92.9186 92.2089C91.1479 97.7645 82.4745 104.114 77.7989 106.715C77.4585 109.357 82.854 110.609 73.5073 110.546C70.2971 110.524 66.3608 110.026 61.5648 108.838C42.8048 104.187 43.638 98.3194 40.3357 93.3566L38.6373 98.6475C38.6373 98.6475 31.953 90.2182 34.8212 81.8404L30.0151 84.5856Z" fill="#D6F5F5"/>
</g>
</g>
<circle cx="2.98727" cy="2.98727" r="2.79467" transform="matrix(-1 0 0 1 91.0725 66.1103)" fill="#0D0622" stroke="#0D0622" stroke-width="0.385207"/>
<circle cx="2.98727" cy="2.98727" r="2.79467" transform="matrix(-1 0 0 1 55.3875 66.1103)" fill="#0D0622" stroke="#0D0622" stroke-width="0.385207"/>
<path d="M85.1948 78.2313C81.6511 81.1487 76.3018 83.0069 70.317 83.0069C64.3321 83.0069 58.9829 81.1487 55.4392 78.2313" stroke="#0D0622" stroke-width="3.08165" stroke-linecap="round"/>
<mask id="mask1_99_3419" style="mask-type:alpha" maskUnits="userSpaceOnUse" x="22" y="10" width="83" height="40">
<path d="M83.5599 46.5437C91.0002 46 95.5184 49.8211 95.5184 49.8211L104.801 10.5L22.5543 13.1L23.6338 47.2469L36.6471 39.5344L43.0394 44.3307C54.4582 55.0807 64.5758 43.1841 80.4216 43.4872C81.506 43.5079 82.6551 43.7852 83.2614 44.6845C83.5952 45.1796 83.8072 45.8153 83.5599 46.5437Z" fill="#D9D9D9"/>
</mask>
<g mask="url(#mask1_99_3419)">
<mask id="mask2_99_3419" style="mask-type:alpha" maskUnits="userSpaceOnUse" x="42" y="25" width="46" height="25">
<path d="M65.2524 25.6467C76.6581 24.9991 85.8952 31.6355 87.8781 42.722C77.3661 44.6448 55.2414 48.6347 50.8385 49.2116C49.2383 48.7228 42.7325 47.7898 42.7325 47.7898C42.7445 35.3093 54.0967 26.2801 65.2524 25.6467Z" fill="#F59797"/>
</mask>
<g mask="url(#mask2_99_3419)">
<path d="M65.2524 25.6467C76.6581 24.9991 85.8952 31.6355 87.8781 42.722C77.3661 44.6448 55.2414 48.6347 50.8385 49.2116C46.4357 49.7884 43.6109 49.0671 42.7489 48.6344C42.2353 35.7184 53.8466 26.2943 65.2524 25.6467Z" fill="#55ACB5"/>
<path d="M49.2489 49.9691C46.6729 39.4588 52.9926 28.4799 64.2711 24.0671L34.4091 27.9793L37.3679 50.5635L49.2489 49.9691Z" fill="#4B979D"/>
<path d="M100.34 49.6595L102.021 22.018L76.7996 20.8729L75.118 48.5144L100.34 49.6595Z" fill="#4B979D"/>
</g>
<mask id="mask3_99_3419" style="mask-type:alpha" maskUnits="userSpaceOnUse" x="59" y="20" width="21" height="25">
<path d="M73.3283 44.1604C78.5403 42.2094 81.0493 35.6782 78.7232 29.8175C77.0283 25.5471 74.8001 21.3248 70.8982 20.8519C69.3881 21.1462 67.2151 21.9651 65.0527 23.0902C52.8537 29.4377 61.5956 48.5523 73.3283 44.1604Z" fill="#0F94C6"/>
</mask>
<g mask="url(#mask3_99_3419)">
<path d="M73.3283 44.1604C78.5403 42.2094 81.0493 35.6782 78.7232 29.8175C77.0283 25.5471 74.8001 21.3248 70.8982 20.8519C69.3881 21.1462 67.2151 21.9651 65.0527 23.0902C52.8537 29.4377 61.5956 48.5523 73.3283 44.1604Z" fill="#4B979D"/>
<path d="M58.8136 33.2816C63.376 39.8383 71.5008 36.1505 72.7837 36.2088L71.0423 46.7123L58.0324 46.1217L58.8136 33.2816Z" fill="#3E7C7E"/>
</g>
<ellipse cx="10.0888" cy="11.4022" rx="10.0888" ry="11.4022" transform="matrix(-0.959194 0.282747 0.295927 0.95521 79.879 18.1788)" fill="#31615E"/>
<mask id="mask4_99_3419" style="mask-type:alpha" maskUnits="userSpaceOnUse" x="67" y="23" width="15" height="17">
<ellipse cx="7.01749" cy="7.93104" rx="7.01749" ry="7.93104" transform="matrix(-0.959194 0.282747 0.295927 0.95521 78.7169 22.0451)" fill="#F2F2F2"/>
</mask>
<g mask="url(#mask4_99_3419)">
<ellipse cx="7.01749" cy="7.93104" rx="7.01749" ry="7.93104" transform="matrix(-0.959194 0.282747 0.295927 0.95521 78.7169 22.0451)" fill="#F2F2F2"/>
<path d="M85.44 21.4385L65.8353 23.5467C65.8353 23.5467 80.3975 25.795 79.8332 41.1144L85.44 21.4385Z" fill="#D6F5F5"/>
</g>
<path d="M67.0985 51.1185L85.9998 55.2931C102.462 45.5638 85.237 28.0935 59.5429 42.4217C54.8078 45.0622 54.9654 48.0408 48.1917 48.1538C46.5036 48.182 45.304 48.1563 44.6102 48.1282C43.6586 48.0479 43.6728 48.0902 44.6102 48.1282C45.2933 48.1858 46.4742 48.3067 48.1684 48.5376L67.0985 51.1185Z" fill="#55ACB5"/>
<path d="M84.8977 57.0012L43.8856 48.5394C43.8856 48.5394 50.5812 49.9209 61.4925 43.9329C85.8813 30.5485 100.8 47.0906 84.8977 57.0012Z" fill="#31615E"/>
</g>
</g>
</g>
<defs>
<filter id="filter0_d_99_3419" x="11" y="19.5" width="106" height="108.5" filterUnits="userSpaceOnUse" color-interpolation-filters="sRGB">
<feFlood flood-opacity="0" result="BackgroundImageFix"/>
<feColorMatrix in="SourceAlpha" type="matrix" values="0 0 0 0 0 0 0 0 0 0 0 0 0 0 0 0 0 0 127 0" result="hardAlpha"/>
<feOffset dy="10"/>
<feGaussianBlur stdDeviation="5"/>
<feComposite in2="hardAlpha" operator="out"/>
<feColorMatrix type="matrix" values="0 0 0 0 0.219608 0 0 0 0 0.521569 0 0 0 0 0.611765 0 0 0 0.4 0"/>
<feBlend mode="normal" in2="BackgroundImageFix" result="effect1_dropShadow_99_3419"/>
<feBlend mode="normal" in="SourceGraphic" in2="effect1_dropShadow_99_3419" result="shape"/>
</filter>
<clipPath id="clip0_99_3419">
<rect width="128" height="128" fill="white"/>
</clipPath>
</defs>
</svg>
