<svg width="128" height="128" viewBox="0 0 128 128" fill="none" xmlns="http://www.w3.org/2000/svg">
<g clip-path="url(#clip0_99_3418)">
<rect width="128" height="128" rx="64" fill="#0D0622"/>
<mask id="mask0_99_3418" style="mask-type:alpha" maskUnits="userSpaceOnUse" x="21" y="34" width="85" height="72">
<g style="mix-blend-mode:multiply">
<path d="M98.8168 62.1569L103.99 61.1035C105.456 60.8051 106.257 59.2066 105.516 57.9072C100.695 49.4468 93.9771 45.8647 89.4805 44.3579C86.9386 43.5062 84.8027 40.7043 82.834 38.8848C76.4375 32.9729 55.1115 32.1746 43.5086 41.3941C43.1937 41.6443 42.8616 41.8572 42.5009 42.035C31.5785 47.4188 15.5826 63.9013 22.8145 88.7266C23.1038 89.7199 24.5993 89.7935 25.2405 88.9815C26.0376 87.9722 27.1243 87.1462 28.4226 87.5291C28.4226 87.5291 31.9348 97.9625 38.3731 101.947C43.0719 104.855 39.711 97.7596 43.0402 99.4814C57.0021 106.702 73.8386 108.318 88.3008 98.9232C91.0256 97.1531 92.3362 97.2915 93.1821 98.1548C94.7329 99.7374 96.6445 100.078 97.7066 98.1336C102.669 89.0472 106.629 76.1663 98.8168 62.1569Z" fill="#FF3B3B"/>
</g>
</mask>
<g mask="url(#mask0_99_3418)">
<rect width="212.206" height="184.171" transform="matrix(-1 0 0 1 150.988 28.473)" fill="white"/>
<g style="mix-blend-mode:multiply">
<path d="M30.0151 82.0856C26.471 55.5601 49.5361 44.9703 50.003 45.3208L53.0731 39.1882H30.0151C23.6572 46.5694 10.7847 61.6584 10.1577 62.9648C9.53058 64.2712 12.2044 80.4924 13.6196 88.4397L27.0756 106.338L50.003 113.653L92.9186 108.166C94.3689 107.235 105.248 100.119 106.205 89.934C108.015 88.4617 110.027 86.8865 112.015 85.6438C118.52 81.5788 118.248 57.4593 117.435 53.8007C116.622 50.1422 99.2781 37.6976 102.124 49.4647C104.4 58.8783 96.2159 60.1621 92.9186 58.6788C96.7744 67.0105 108.385 70.5001 102.813 87.5396C96.916 97.9307 94.5937 95.4216 92.9186 89.7089C91.1479 95.2645 82.4745 101.614 77.7989 104.215C77.4585 106.857 82.854 108.109 73.5073 108.046C70.2971 108.024 66.3608 107.526 61.5648 106.338C42.8048 101.687 43.638 95.8194 40.3357 90.8566L38.6373 96.1475C38.6373 96.1475 31.953 87.7182 34.8212 79.3404L30.0151 82.0856Z" fill="#C0EAEB"/>
</g>
</g>
<circle cx="2.98727" cy="2.98727" r="2.79467" transform="matrix(-1 0 0 1 91.0725 63.6103)" fill="#0D0622" stroke="#0D0622" stroke-width="0.385207"/>
<circle cx="2.98727" cy="2.98727" r="2.79467" transform="matrix(-1 0 0 1 55.3875 63.6103)" fill="#0D0622" stroke="#0D0622" stroke-width="0.385207"/>
<path d="M85.1948 75.7313C81.6511 78.6487 76.3018 80.5069 70.317 80.5069C64.3321 80.5069 58.9829 78.6487 55.4392 75.7313" stroke="#0D0622" stroke-width="3.08165" stroke-linecap="round"/>
<mask id="mask1_99_3418" style="mask-type:alpha" maskUnits="userSpaceOnUse" x="22" y="8" width="83" height="40">
<path d="M83.5002 44C90.2502 43.25 95.5184 47.3211 95.5184 47.3211L104.801 8L22.5543 10.6L23.6338 44.7469L36.6471 37.0344L43.0394 41.8307C54.4612 52.5835 64.5811 40.678 80.4339 40.9874C81.5105 41.0085 82.6588 41.2803 83.2423 42.1853C83.5533 42.6676 83.7428 43.2857 83.5002 44Z" fill="#D9D9D9"/>
</mask>
<g mask="url(#mask1_99_3418)">
<mask id="mask2_99_3418" style="mask-type:alpha" maskUnits="userSpaceOnUse" x="42" y="23" width="46" height="24">
<path d="M65.2524 23.1467C76.6581 22.4992 85.8952 29.1355 87.8781 40.222C77.3661 42.1448 55.2414 46.1348 50.8385 46.7116C49.2383 46.2228 42.7325 45.2898 42.7325 45.2898C42.7445 32.8093 54.0967 23.7801 65.2524 23.1467Z" fill="#F59797"/>
</mask>
<g mask="url(#mask2_99_3418)">
<path d="M65.2524 23.1467C76.6581 22.4992 85.8952 29.1355 87.8781 40.222C77.3661 42.1448 55.2414 46.1348 50.8385 46.7116C46.4357 47.2884 43.6109 46.5671 42.7489 46.1344C42.2353 33.2184 53.8466 23.7943 65.2524 23.1467Z" fill="#55ACB5"/>
<path d="M49.2489 47.4692C46.6729 36.9588 52.9926 25.9799 64.2711 21.5671L34.4091 25.4793L37.3679 48.0635L49.2489 47.4692Z" fill="#4B979D"/>
<path d="M100.34 47.1595L102.021 19.518L76.7997 18.3729L75.1181 46.0144L100.34 47.1595Z" fill="#4B979D"/>
</g>
<mask id="mask3_99_3418" style="mask-type:alpha" maskUnits="userSpaceOnUse" x="59" y="18" width="21" height="25">
<path d="M73.3284 41.6604C78.5405 39.7094 81.0495 33.1782 78.7233 27.3175C77.0284 23.0471 74.8002 18.8248 70.8983 18.3519C69.3882 18.6462 67.2152 19.4651 65.0529 20.5902C52.8538 26.9377 61.5957 46.0523 73.3284 41.6604Z" fill="#0F94C6"/>
</mask>
<g mask="url(#mask3_99_3418)">
<path d="M73.3284 41.6604C78.5405 39.7094 81.0495 33.1782 78.7233 27.3175C77.0284 23.0471 74.8002 18.8248 70.8983 18.3519C69.3882 18.6462 67.2152 19.4651 65.0529 20.5902C52.8538 26.9377 61.5957 46.0523 73.3284 41.6604Z" fill="#4B979D"/>
<path d="M58.8136 30.7816C63.376 37.3383 71.5008 33.6505 72.7837 33.7088L71.0423 44.2123L58.0324 43.6217L58.8136 30.7816Z" fill="#3E7C7E"/>
</g>
<ellipse cx="10.0888" cy="11.4022" rx="10.0888" ry="11.4022" transform="matrix(-0.959194 0.282747 0.295927 0.95521 79.8792 15.6788)" fill="#31615E"/>
<mask id="mask4_99_3418" style="mask-type:alpha" maskUnits="userSpaceOnUse" x="67" y="21" width="15" height="16">
<ellipse cx="7.01749" cy="7.93104" rx="7.01749" ry="7.93104" transform="matrix(-0.959194 0.282747 0.295927 0.95521 78.7169 19.5451)" fill="#F2F2F2"/>
</mask>
<g mask="url(#mask4_99_3418)">
<ellipse cx="7.01749" cy="7.93104" rx="7.01749" ry="7.93104" transform="matrix(-0.959194 0.282747 0.295927 0.95521 78.7169 19.5451)" fill="#F2F2F2"/>
<path d="M85.44 18.9385L65.8353 21.0467C65.8353 21.0467 80.3975 23.295 79.8332 38.6144L85.44 18.9385Z" fill="#9DDEE0"/>
</g>
<path d="M67.0985 48.6185L85.9998 52.7931C102.462 43.0639 85.237 25.5935 59.5429 39.9217C54.8078 42.5622 54.9654 45.5409 48.1917 45.6539C46.5036 45.682 45.304 45.6563 44.6102 45.6282C43.6586 45.5479 43.6728 45.5902 44.6102 45.6282C45.2933 45.6858 46.4742 45.8067 48.1684 46.0377L67.0985 48.6185Z" fill="#55ACB5"/>
<path d="M84.7572 54.8785L43.9557 45.453C43.9557 45.453 50.6169 46.9918 61.6662 41.2625C86.3635 28.4563 100.888 45.3453 84.7572 54.8785Z" fill="#31615E"/>
</g>
</g>
<defs>
<clipPath id="clip0_99_3418">
<rect width="128" height="128" fill="white"/>
</clipPath>
</defs>
</svg>
