<svg width="15" height="17" viewBox="0 0 15 17" fill="none" xmlns="http://www.w3.org/2000/svg">
<path d="M12.8138 2.57717C12.1409 1.89751 11.3406 1.35726 10.4586 0.987336C9.57663 0.617416 8.63035 0.425095 7.67395 0.421387H7.61841C5.67901 0.421387 3.81905 1.19181 2.44769 2.56317C1.07633 3.93453 0.305908 5.79449 0.305908 7.73389V11.6714C0.305908 12.1189 0.483698 12.5482 0.800166 12.8646C1.11663 13.1811 1.54586 13.3589 1.99341 13.3589H3.11841C3.56596 13.3589 3.99518 13.1811 4.31165 12.8646C4.62812 12.5482 4.80591 12.1189 4.80591 11.6714V8.85889C4.80591 8.41133 4.62812 7.98211 4.31165 7.66564C3.99518 7.34918 3.56596 7.17139 3.11841 7.17139H1.45622C1.5647 5.99853 2.00525 4.88089 2.72622 3.94946C3.4472 3.01803 4.41874 2.31141 5.52696 1.91241C6.63519 1.51341 7.83419 1.43857 8.98343 1.69665C10.1327 1.95473 11.1845 2.53505 12.0158 3.36959C13.0317 4.39074 13.6566 5.73635 13.7813 7.17139H12.1184C11.6709 7.17139 11.2416 7.34918 10.9252 7.66564C10.6087 7.98211 10.4309 8.41133 10.4309 8.85889V11.6714C10.4309 12.1189 10.6087 12.5482 10.9252 12.8646C11.2416 13.1811 11.6709 13.3589 12.1184 13.3589H13.8059C13.8059 13.8064 13.6281 14.2357 13.3117 14.5521C12.9952 14.8686 12.566 15.0464 12.1184 15.0464H8.18091C8.03172 15.0464 7.88865 15.1056 7.78316 15.2111C7.67767 15.3166 7.61841 15.4597 7.61841 15.6089C7.61841 15.7581 7.67767 15.9011 7.78316 16.0066C7.88865 16.1121 8.03172 16.1714 8.18091 16.1714H12.1184C12.8643 16.1714 13.5797 15.8751 14.1071 15.3476C14.6346 14.8202 14.9309 14.1048 14.9309 13.3589V7.73389C14.9346 6.77734 14.7495 5.82947 14.3862 4.94458C14.0229 4.0597 13.4885 3.2552 12.8138 2.57717ZM3.11841 8.29639C3.26759 8.29639 3.41067 8.35565 3.51616 8.46114C3.62164 8.56663 3.68091 8.7097 3.68091 8.85889V11.6714C3.68091 11.8206 3.62164 11.9636 3.51616 12.0691C3.41067 12.1746 3.26759 12.2339 3.11841 12.2339H1.99341C1.84422 12.2339 1.70115 12.1746 1.59566 12.0691C1.49017 11.9636 1.43091 11.8206 1.43091 11.6714V8.29639H3.11841ZM12.1184 12.2339C11.9692 12.2339 11.8261 12.1746 11.7207 12.0691C11.6152 11.9636 11.5559 11.8206 11.5559 11.6714V8.85889C11.5559 8.7097 11.6152 8.56663 11.7207 8.46114C11.8261 8.35565 11.9692 8.29639 12.1184 8.29639H13.8059V12.2339H12.1184Z" fill="white"/>
</svg>
