<svg width="1129" height="264" viewBox="0 0 1129 264" fill="none" xmlns="http://www.w3.org/2000/svg">
<path fill-rule="evenodd" clip-rule="evenodd" d="M128.433 0.757812L239.593 64.7578V192.758L128.433 256.758L17.2734 192.758V64.7578L128.433 0.757812ZM227.593 71.6668L128.433 14.5757L29.2734 71.6668V185.849L128.433 242.94L227.593 185.849V71.6668Z" fill="#160C56"/>
<path fill-rule="evenodd" clip-rule="evenodd" d="M128.433 242.938V185.847V128.756L78.8534 100.211L29.2734 71.6653V128.756V185.847L128.433 242.938Z" fill="white"/>
<path d="M178.013 214.395L227.593 185.849L178.013 157.304L128.433 185.849V242.94L178.013 214.395Z" fill="#87E0E1"/>
<path d="M128.433 128.758V185.849L178.013 157.304L128.433 128.758Z" fill="#1B46DD"/>
<path d="M178.013 100.213L128.433 128.758L178.013 157.304L227.593 128.758L178.013 100.213Z" fill="#B068E9"/>
<path d="M178.013 43.1217L128.433 14.5762L78.8534 43.1217L29.2734 71.6672L78.8534 100.213L128.433 71.6672L178.013 100.213L227.593 71.6672L178.013 43.1217Z" fill="#F9DB4E"/>
<path d="M128.433 128.758L178.013 100.213L128.433 71.6672L78.8534 100.213L128.433 128.758Z" fill="#E94A5D"/>
<path d="M810.028 215.863V220.704H814.82C815.031 220.704 815.273 220.66 815.547 220.571C815.82 220.483 816.075 220.345 816.311 220.155C816.56 219.966 816.771 219.714 816.945 219.399C817.119 219.084 817.206 218.7 817.206 218.246C817.206 217.868 817.138 217.534 817.001 217.244C816.877 216.941 816.703 216.689 816.479 216.487C816.268 216.286 816.013 216.134 815.715 216.034C815.429 215.92 815.124 215.863 814.801 215.863H810.028ZM814.074 206.353C814.074 206.353 812.726 206.353 810.028 206.353V210.664H814.055C814.267 210.664 814.484 210.62 814.708 210.532C814.932 210.431 815.131 210.292 815.305 210.116C815.491 209.926 815.64 209.7 815.752 209.435C815.876 209.17 815.938 208.868 815.938 208.527C815.938 208.2 815.882 207.903 815.771 207.639C815.659 207.374 815.51 207.147 815.323 206.958C815.149 206.769 814.95 206.624 814.727 206.523C814.515 206.41 814.298 206.353 814.074 206.353ZM815.547 226.376H803V200.662H814.484C815.814 200.662 817.007 200.819 818.064 201.134C819.12 201.45 820.021 201.916 820.767 202.534C821.513 203.151 822.084 203.914 822.482 204.821C822.88 205.729 823.079 206.782 823.079 207.979C823.079 208.496 822.992 209.006 822.818 209.511C822.656 210.015 822.439 210.481 822.165 210.91C821.892 211.326 821.575 211.697 821.214 212.025C820.866 212.34 820.506 212.574 820.133 212.725C820.705 212.952 821.252 213.261 821.774 213.651C822.296 214.029 822.756 214.471 823.153 214.975C823.551 215.466 823.868 216.015 824.104 216.62C824.34 217.225 824.458 217.868 824.458 218.548C824.458 220.011 824.191 221.239 823.657 222.235C823.135 223.231 822.451 224.038 821.606 224.655C820.761 225.273 819.804 225.714 818.735 225.979C817.678 226.244 816.616 226.376 815.547 226.376Z" fill="#160C56"/>
<path d="M840.893 200.662H849.077L839.494 216.676L839.513 226.376H832.485V216.714L822.958 200.662H831.086L835.971 210.399H836.027L840.893 200.662Z" fill="#160C56"/>
<path d="M877.528 217.357L877.547 212.366H890.672C890.784 214.571 890.535 216.576 889.926 218.378C889.33 220.168 888.447 221.706 887.279 222.992C886.123 224.265 884.731 225.254 883.103 225.96C881.475 226.653 879.697 227 877.771 227C875.832 227 874.011 226.647 872.308 225.941C870.618 225.235 869.139 224.271 867.871 223.048C866.616 221.826 865.622 220.395 864.888 218.756C864.155 217.105 863.788 215.347 863.788 213.481C863.788 211.603 864.155 209.851 864.888 208.225C865.622 206.586 866.616 205.155 867.871 203.933C869.139 202.71 870.618 201.752 872.308 201.059C874.011 200.353 875.832 200 877.771 200C879.722 200 881.543 200.353 883.233 201.059C884.936 201.765 886.44 202.754 887.745 204.027L883.177 208.66C882.568 207.828 881.798 207.166 880.866 206.674C879.933 206.183 878.902 205.937 877.771 205.937C876.801 205.937 875.894 206.132 875.049 206.523C874.204 206.901 873.464 207.431 872.83 208.111C872.209 208.779 871.712 209.574 871.339 210.494C870.978 211.414 870.798 212.416 870.798 213.5C870.798 214.571 870.978 215.574 871.339 216.506C871.712 217.426 872.209 218.227 872.83 218.908C873.464 219.576 874.204 220.105 875.049 220.496C875.894 220.874 876.801 221.063 877.771 221.063C879.523 221.063 880.872 220.735 881.816 220.08C882.761 219.412 883.389 218.504 883.699 217.357C884.01 216.21 877.528 217.357 877.528 217.357Z" fill="#160C56"/>
<path d="M901.401 212.479H905.335C905.708 212.479 906.062 212.41 906.398 212.271C906.733 212.132 907.025 211.937 907.274 211.685C907.523 211.433 907.715 211.13 907.852 210.777C908.001 210.412 908.076 210.008 908.076 209.567C908.076 209.151 908.001 208.761 907.852 208.395C907.715 208.029 907.523 207.714 907.274 207.45C907.025 207.185 906.733 206.977 906.398 206.826C906.075 206.674 905.727 206.599 905.354 206.599H901.401V212.479ZM915.738 226.376H907.703L903.75 218.416H901.401V226.376H894.373V200.662H905.652C907.032 200.662 908.299 200.882 909.455 201.324C910.611 201.752 911.605 202.357 912.438 203.139C913.283 203.92 913.936 204.859 914.396 205.956C914.868 207.04 915.104 208.244 915.104 209.567C915.104 211.37 914.7 212.933 913.892 214.256C913.097 215.567 912.009 216.582 910.63 217.3L915.738 226.376Z" fill="#160C56"/>
<path d="M934.074 216.487C934.074 216.487 934.074 211.212 934.074 200.662H941.103V216.468C941.103 217.981 940.835 219.387 940.301 220.685C939.779 221.971 939.021 223.08 938.026 224.013C937.045 224.945 935.845 225.676 934.428 226.206C933.024 226.735 931.445 227 929.693 227C928.077 227 926.573 226.761 925.181 226.282C923.789 225.79 922.577 225.09 921.546 224.183C920.527 223.275 919.725 222.172 919.141 220.874C918.557 219.563 918.265 218.095 918.265 216.468V200.662H925.274V216.506C925.274 217.174 925.368 217.792 925.554 218.359C925.74 218.926 926.02 219.418 926.393 219.834C926.766 220.237 927.226 220.553 927.773 220.779C928.332 221.006 928.972 221.12 929.693 221.12C930.401 221.12 931.029 221.006 931.576 220.779C932.123 220.553 932.576 220.237 932.937 219.834C933.31 219.418 933.589 218.926 933.776 218.359C933.975 217.792 934.074 217.168 934.074 216.487Z" fill="#160C56"/>
<path d="M969.002 200.662V226.376H962.906L952.279 212.536V226.376H945.251V200.662H951.422L961.993 214.445V200.662H969.002Z" fill="#160C56"/>
<path d="M978.464 226.376V206.599H971.771V200.662H992.13V206.599H985.455V226.376H978.464Z" fill="#160C56"/>
<path d="M1017.23 200.7L1020.77 216.412H1020.84L1025.32 200.643H1032.74L1024.25 226.376H1017.52L1013.53 212.8L1009.53 226.376H1002.8L994.314 200.643H1001.73L1006.23 216.412H1006.32L1009.82 200.7H1017.23Z" fill="#160C56"/>
<path d="M1032.36 213.481C1032.36 211.603 1032.72 209.851 1033.46 208.225C1034.19 206.586 1035.18 205.155 1036.44 203.933C1037.71 202.71 1039.19 201.752 1040.88 201.059C1042.58 200.353 1044.4 200 1046.34 200C1048.26 200 1050.07 200.353 1051.76 201.059C1053.47 201.752 1054.95 202.71 1056.22 203.933C1057.49 205.155 1058.49 206.586 1059.22 208.225C1059.95 209.851 1060.32 211.603 1060.32 213.481C1060.32 215.347 1059.95 217.105 1059.22 218.756C1058.49 220.395 1057.49 221.826 1056.22 223.048C1054.95 224.271 1053.47 225.235 1051.76 225.941C1050.07 226.647 1048.26 227 1046.34 227C1044.4 227 1042.58 226.647 1040.88 225.941C1039.19 225.235 1037.71 224.271 1036.44 223.048C1035.18 221.826 1034.19 220.395 1033.46 218.756C1032.72 217.105 1032.36 215.347 1032.36 213.481ZM1039.37 213.5C1039.37 214.571 1039.55 215.574 1039.91 216.506C1040.28 217.426 1040.78 218.227 1041.4 218.908C1042.03 219.576 1042.77 220.105 1043.62 220.496C1044.46 220.874 1045.37 221.063 1046.34 221.063C1047.31 221.063 1048.21 220.874 1049.06 220.496C1049.92 220.105 1050.66 219.576 1051.28 218.908C1051.91 218.227 1052.41 217.426 1052.77 216.506C1053.13 215.574 1053.31 214.571 1053.31 213.5C1053.31 212.416 1053.13 211.414 1052.77 210.494C1052.41 209.574 1051.91 208.779 1051.28 208.111C1050.66 207.431 1049.92 206.901 1049.06 206.523C1048.21 206.132 1047.31 205.937 1046.34 205.937C1045.37 205.937 1044.46 206.132 1043.62 206.523C1042.77 206.901 1042.03 207.431 1041.4 208.111C1040.78 208.779 1040.28 209.574 1039.91 210.494C1039.55 211.414 1039.37 212.416 1039.37 213.5Z" fill="#160C56"/>
<path d="M1070.98 212.479H1074.91C1075.28 212.479 1075.64 212.41 1075.97 212.271C1076.31 212.132 1076.6 211.937 1076.85 211.685C1077.1 211.433 1077.29 211.13 1077.43 210.777C1077.57 210.412 1077.65 210.008 1077.65 209.567C1077.65 209.151 1077.57 208.761 1077.43 208.395C1077.29 208.029 1077.1 207.714 1076.85 207.45C1076.6 207.185 1076.31 206.977 1075.97 206.826C1075.65 206.674 1075.3 206.599 1074.93 206.599H1070.98V212.479ZM1085.31 226.376H1077.28L1073.32 218.416H1070.98V226.376H1063.95V200.662H1075.23C1076.61 200.662 1077.87 200.882 1079.03 201.324C1080.18 201.752 1081.18 202.357 1082.01 203.139C1082.86 203.92 1083.51 204.859 1083.97 205.956C1084.44 207.04 1084.68 208.244 1084.68 209.567C1084.68 211.37 1084.27 212.933 1083.47 214.256C1082.67 215.567 1081.58 216.582 1080.2 217.3L1085.31 226.376Z" fill="#160C56"/>
<path d="M1095.13 200.662V212.158L1103.55 200.662H1111.7L1102.94 212.139L1112 226.376H1103.72L1098.35 217.244L1095.13 221.555V226.376H1088.1V200.662H1095.13Z" fill="#160C56"/>
<path d="M1069.64 111.476V95.0121H1069.6V71.7441H1094.05V95.0121H1112.27V111.476H1094.05V158.936C1094.05 163.22 1096.4 165.656 1100.85 165.656H1111.85V182.96H1094.3C1078.93 182.96 1069.6 174.812 1069.6 159.692V111.476H1069.64Z" fill="#160C56"/>
<path d="M969.082 182.96V95.012H974.77L992.77 105.344H994.45C997.39 100.724 1004.45 93.332 1020.74 93.332C1040.73 93.332 1053.33 104.504 1053.33 125.168V182.96H1028.55V126.596C1028.55 116.516 1022.76 111.56 1013.43 111.56C1002.85 111.56 993.778 117.44 993.778 132.308V182.96H969.082Z" fill="#160C56"/>
<path d="M951.567 95.012V182.96H945.879L927.879 172.712H926.199C923.259 177.332 916.119 184.724 900.243 184.724C880.503 184.724 867.903 173.552 867.903 152.888V95.012H892.599V151.376C892.599 161.456 898.479 166.496 907.551 166.496C917.799 166.496 926.871 160.532 926.871 145.664V95.012H951.567Z" fill="#160C56"/>
<path d="M803.177 182.96V95.012H806.865L826.865 106.368H828.545C832.073 96.792 839.717 92.156 857.525 94.088V114.752C840.221 112.316 827.873 116.936 827.873 138.188V182.96H803.177Z" fill="#160C56"/>
<path d="M694.529 137.012C694.529 107.276 712.589 93.332 734.681 93.332C748.961 93.332 756.773 98.96 760.301 104.168H761.981V95.012H785.669V179.348C785.669 204.968 769.541 218.576 741.065 218.576C713.009 218.576 698.141 205.22 696.797 188.336V185.816H719.309C719.897 194.636 726.281 201.356 740.561 201.356C754.505 201.356 760.889 194.552 760.889 181.616V171.116H759.209C755.261 175.82 747.869 180.692 734.681 180.692C712.589 180.692 694.529 166.664 694.529 137.012ZM719.477 137.012C719.477 153.728 727.961 162.38 740.729 162.38C753.581 162.38 761.981 153.728 761.981 137.012C761.981 120.212 753.581 111.56 740.729 111.56C727.961 111.56 719.477 120.212 719.477 137.012Z" fill="#160C56"/>
<path d="M627.14 121.472H604.796V118.952C606.728 103.076 621.512 92.996 644.192 92.996C666.956 92.996 682.244 103.076 682.244 126.512V161.288C682.244 169.856 682.748 175.736 684.764 180.44V182.96H677.496L660.236 173.384H658.556C654.272 179.096 647.384 184.472 632.516 184.472C613.784 184.472 599.756 174.224 599.756 157.508C599.756 139.952 613.28 132.476 630.248 130.712L650.24 128.78C656.12 128.192 659.06 126.344 659.06 121.388C659.06 113.996 653.516 109.964 643.688 109.964C634.112 109.964 627.476 113.912 627.14 121.472ZM623.948 156.332C623.948 163.388 629.408 167.756 638.564 167.756C647.804 167.756 658.892 162.548 658.892 146.504V141.296H657.212C654.524 142.724 651.5 143.48 646.124 144.068L636.632 145.076C629.324 145.832 623.948 148.94 623.948 156.332Z" fill="#160C56"/>
<path d="M541.359 182.96V95.012H545.047L565.047 106.368H566.727C570.255 96.792 577.899 92.156 595.707 94.088V114.752C578.403 112.316 566.055 116.936 566.055 138.188V182.96H541.359Z" fill="#160C56"/>
<path d="M475.961 182.96V95.012H479.649L499.649 106.368H501.329C504.857 96.792 512.501 92.156 530.309 94.088V114.752C513.005 112.316 500.657 116.936 500.657 138.188V182.96H475.961Z" fill="#160C56"/>
<path d="M375.68 138.944C375.68 108.284 393.32 92.996 420.284 92.996C447.08 92.996 462.788 108.704 462.788 135.752V144.992H399.284C399.62 158.18 406.844 167.588 420.2 167.588C433.304 167.588 438.344 160.448 439.52 154.736H461.024V157.256C458.504 169.352 447.836 184.976 420.536 184.976C393.32 184.976 375.68 169.604 375.68 138.944ZM399.536 129.368H439.604C439.436 118.364 433.472 110.132 420.032 110.132C406.928 110.132 400.544 118.7 399.536 129.368Z" fill="#160C56"/>
<path d="M282 81.152V62H389.352V81.152H348.612V182.96H322.74V81.152H282Z" fill="#160C56"/>
</svg>
