<svg width="26" height="26" viewBox="0 0 26 26" fill="none" xmlns="http://www.w3.org/2000/svg">
<path fill-rule="evenodd" clip-rule="evenodd" d="M23.9228 6.6041L23.9204 12.9957L23.918 19.3873L18.4666 16.1937L13.0152 13L13.0177 6.60837L13.0201 0.216748L18.4714 3.41042L23.9228 6.6041Z" fill="#B068E9"/>
<path d="M7.56629 3.4147L7.56386 9.80632L7.56143 16.1979L13.0128 19.3916L18.4642 22.5853L18.4666 16.1937L18.469 9.80205L13.0177 6.60837L7.56629 3.4147Z" fill="#160C56"/>
<path d="M7.56386 9.80632L2.11249 6.61265L2.11006 13.0043L2.10763 19.3959L7.559 22.5896L13.0104 25.7832L13.0128 19.3916L7.56143 16.1979L7.56386 9.80632Z" fill="#15192D"/>
<path d="M18.469 9.80205L13.0177 6.60837L13.0152 13L18.4666 16.1937L18.469 9.80205Z" fill="#371992"/>
<path d="M7.56143 16.1979L13.0128 19.3916L13.0152 13L7.56386 9.80632L7.56143 16.1979Z" fill="black"/>
<g clip-path="url(#clip0_1911_12849)">
<path d="M4.8 16.2653V15.7756C5.02339 15.9071 5.17977 15.9524 5.26466 15.9162C5.34955 15.8799 5.39423 15.7666 5.39423 15.5762V15.2724C5.39423 14.9959 5.43891 14.8055 5.5238 14.7012C5.60869 14.597 5.72486 14.5562 5.8723 14.5788C6.01527 14.597 6.18058 14.6559 6.36377 14.7511C6.54695 14.8463 6.73907 14.9506 6.93119 15.0639V15.8346C6.77928 15.7439 6.66759 15.6986 6.59163 15.6895C6.52015 15.6804 6.471 15.7031 6.44866 15.762C6.42632 15.821 6.41292 15.9026 6.41292 16.0114V16.4375C6.41292 16.5327 6.39058 16.6143 6.35036 16.6823C6.31015 16.7503 6.22973 16.7866 6.11357 16.7911C5.9974 16.7957 5.83655 16.7594 5.6221 16.6823C5.41657 16.6007 5.13956 16.4602 4.8 16.2653ZM4.8 16.705V15.7756L5.63997 16.2653V17.1946L4.8 16.705ZM6.93119 19.9147C6.73907 19.8013 6.54695 19.6834 6.36377 19.561C6.18058 19.4386 6.01527 19.3026 5.86783 19.153C5.72486 19.0034 5.60869 18.8266 5.5238 18.6226C5.43891 18.4186 5.39423 18.1784 5.39423 17.9018V17.5981C5.39423 17.4077 5.34955 17.2445 5.26466 17.1039C5.17977 16.9679 5.02339 16.8365 4.8 16.705V16.2154C5.13956 16.4149 5.41657 16.5962 5.62656 16.7639C5.83655 16.9317 6.00187 17.0858 6.11803 17.2263C6.22973 17.3714 6.31015 17.4983 6.35036 17.6162C6.39504 17.7341 6.41292 17.8383 6.41292 17.9336V18.3597C6.41292 18.4685 6.42632 18.5637 6.44866 18.6453C6.471 18.7314 6.52015 18.813 6.59163 18.8901C6.66759 18.9672 6.77928 19.0533 6.93119 19.1394V19.9147Z" fill="#371992"/>
<path d="M8.16436 15.7847C8.36094 15.9025 8.55306 16.0204 8.73625 16.1383C8.91943 16.2607 9.08475 16.3967 9.22772 16.5463C9.37516 16.6959 9.48686 16.8727 9.57622 17.0767C9.66111 17.2807 9.70579 17.521 9.70579 17.7975V18.1012C9.70579 18.2916 9.75047 18.4548 9.83536 18.5954C9.92025 18.7359 10.0766 18.8674 10.3 18.9989V19.4839C9.96046 19.2845 9.68345 19.1031 9.47345 18.9354C9.25899 18.7677 9.09815 18.6135 8.98198 18.473C8.87029 18.3324 8.78986 18.201 8.74965 18.0876C8.70497 17.9698 8.6871 17.8655 8.6871 17.7658V17.3396C8.6871 17.2308 8.6737 17.1356 8.65136 17.0495C8.62902 16.9679 8.57987 16.8863 8.50392 16.8092C8.43243 16.7322 8.32073 16.646 8.16436 16.5599V15.7847ZM10.3 19.4386V19.9237C10.0766 19.7922 9.92471 19.7469 9.83536 19.7831C9.75047 19.8194 9.70579 19.9327 9.70579 20.1231V20.4269C9.70579 20.7034 9.66111 20.8938 9.57622 20.9981C9.49133 21.1024 9.37516 21.1432 9.22772 21.1205C9.08028 21.1024 8.91943 21.0434 8.73625 20.9528C8.55306 20.8576 8.36094 20.7533 8.16436 20.64V19.8693C8.31627 19.9599 8.42796 20.0053 8.50392 20.0143C8.57987 20.0234 8.62455 19.9962 8.64689 19.9418C8.66923 19.8829 8.68263 19.8013 8.68263 19.6925V19.2663C8.68263 19.1711 8.70497 19.0895 8.74518 19.0215C8.78986 18.9535 8.86582 18.9173 8.98198 18.9127C9.09815 18.9082 9.25899 18.9445 9.47345 19.0215C9.68345 19.0986 9.96046 19.2391 10.3 19.4386ZM10.3 18.9989V19.9282L9.46005 19.4386V18.5047L10.3 18.9989Z" fill="#371992"/>
</g>
<g clip-path="url(#clip1_1911_12849)">
<path d="M4.80204 10.8565L3.15 10.8224V10.261L4.20272 10.2426L4.18448 10.2583V10.198L4.20272 10.2347L3.15 9.25612V8.42969L4.80204 10.0563V10.8565Z" fill="white"/>
<path d="M6.6 12.2994V12.9999L5.06001 12.1053V11.4048L6.6 12.2994Z" fill="white"/>
</g>
<defs>
<clipPath id="clip0_1911_12849">
<rect width="5.5" height="6.55078" fill="white" transform="translate(4.8 14.5742)"/>
</clipPath>
<clipPath id="clip1_1911_12849">
<rect width="3.45" height="4.57031" fill="white" transform="translate(3.15 8.42969)"/>
</clipPath>
</defs>
</svg>
