<svg width="26" height="26" viewBox="0 0 26 26" fill="none" xmlns="http://www.w3.org/2000/svg">
<path fill-rule="evenodd" clip-rule="evenodd" d="M13.0405 2.79297L17.4082 5.34473L21.7759 7.89648L17.4082 10.4482L13.0405 13L8.6728 10.4482L4.30511 7.89648L8.6728 5.34473L13.0405 2.79297Z" fill="#77E2EF"/>
<path fill-rule="evenodd" clip-rule="evenodd" d="M4.32782 18.0971L4.32976 13.0035L4.3317 7.90989L8.68117 10.455L13.0306 13.0001L13.0287 18.0937L13.0268 23.1873L8.67729 20.6422L4.32782 18.0971Z" fill="#1B46DD"/>
<path fill-rule="evenodd" clip-rule="evenodd" d="M13.9403 0.541667L13.0155 0L12.0906 0.541667L12.6913 1.59714L13.0155 1.40729L13.3396 1.59714L13.9403 0.541667ZM11.1658 1.08333L11.7665 2.1388L9.91676 3.22214L9.31605 2.16667L11.1658 1.08333ZM8.39119 2.70833L8.9919 3.7638L7.14219 4.84714L6.54147 3.79167L8.39119 2.70833ZM5.61661 4.33333L3.76689 5.41667L4.36761 6.47214L6.21733 5.3888L5.61661 4.33333ZM1.91718 18.4167H3.1186V18.7964L3.44275 18.9862L2.84203 20.0417L1.91718 19.5V18.4167ZM3.76689 20.5833L5.61661 21.6667L6.21733 20.6112L4.36761 19.5279L3.76689 20.5833ZM6.54147 22.2083L7.14219 21.1529L8.9919 22.2362L8.39119 23.2917L6.54147 22.2083ZM9.31605 23.8333L11.1658 24.9167L11.7665 23.8612L9.91676 22.7779L9.31605 23.8333ZM12.0906 25.4583L12.6913 24.4029L13.0155 24.5927L13.3396 24.4029L13.9403 25.4583L13.0155 26L12.0906 25.4583ZM14.8652 24.9167L16.7149 23.8333L16.1142 22.7779L14.2645 23.8612L14.8652 24.9167ZM17.6398 23.2917L19.4895 22.2083L18.8888 21.1529L17.0391 22.2362L17.6398 23.2917ZM20.4144 21.6667L22.2641 20.5833L21.6634 19.5279L19.8136 20.6112L20.4144 21.6667ZM24.1138 7.58333H22.9124V7.20365L22.5882 7.0138L23.1889 5.95833L24.1138 6.5V7.58333ZM22.2641 5.41667L21.6634 6.47214L19.8136 5.3888L20.4144 4.33333L22.2641 5.41667ZM19.4895 3.79167L18.8888 4.84714L17.0391 3.7638L17.6398 2.70833L19.4895 3.79167ZM16.7149 2.16667L16.1142 3.22214L14.2645 2.1388L14.8652 1.08333L16.7149 2.16667ZM24.1138 8.66667H22.9124V10.8333H24.1138V8.66667ZM24.1138 11.9167H22.9124V14.0833H24.1138V11.9167ZM24.1138 15.1667H22.9124V17.3333H24.1138V15.1667ZM24.1138 18.4167H22.9124V18.7964L22.5882 18.9862L23.1889 20.0417L24.1138 19.5V18.4167ZM1.91718 17.3333H3.1186V15.1667H1.91718V17.3333ZM1.91718 14.0833H3.1186V11.9167H1.91718V14.0833ZM1.91718 10.8333H3.1186V8.66667H1.91718V10.8333ZM1.91718 7.58333H3.1186V7.20365L3.44275 7.0138L2.84203 5.95833L1.91718 6.5V7.58333Z" fill="#160C56"/>
</svg>
