<svg width="26" height="26" viewBox="0 0 26 26" fill="none" xmlns="http://www.w3.org/2000/svg">
<mask id="mask0_1911_12808" style="mask-type:alpha" maskUnits="userSpaceOnUse" x="4" y="6" width="18" height="17">
<path d="M13 21.6943L15.502 20.252L15.503 21.3066L13 22.75L10.4805 21.2979L10.4795 20.2412L13 21.6943ZM7.93265 7.17383L5.4346 8.61426V11.5303L4.51956 11.001V8.08691L7.01956 6.64648L7.93265 7.17383ZM21.4805 8.08691V11.0029L20.5655 11.5303V8.61426L18.0664 7.17383L18.9795 6.64648L21.4805 8.08691Z" fill="#D80068"/>
</mask>
<g mask="url(#mask0_1911_12808)">
<path fill-rule="evenodd" clip-rule="evenodd" d="M13 3.19922L21.4805 8.08691V17.8623L13 22.75L4.51953 17.8623V8.08691L13 3.19922ZM20.565 8.61455L13 4.2545L5.43502 8.61455V17.3347L13 21.6947L20.565 17.3347V8.61455Z" fill="#D80068"/>
</g>
<mask id="mask1_1911_12808" style="mask-type:alpha" maskUnits="userSpaceOnUse" x="1" y="0" width="24" height="26">
<mask id="path-3-inside-1_1911_12808" fill="white">
<path d="M24.2073 6.5V19.5L12.9495 26L1.69067 19.5V6.5L12.9495 0L24.2073 6.5ZM4.51978 8.08691V17.8623L13.0002 22.75L21.4807 17.8623V8.08691L13.0002 3.19922L4.51978 8.08691ZM20.5647 8.61426V17.335L20.5374 17.3496C16.0411 14.7458 13.0159 9.88449 13.0159 4.31641C13.0159 9.88901 9.98692 14.7542 5.48462 17.3564L5.4856 17.3574C10.0896 14.6943 15.9308 14.6921 20.5364 17.3506L13.0002 21.6943L5.43481 17.335V8.61426L13.0002 4.25488L20.5647 8.61426Z"/>
</mask>
<path d="M24.2073 6.5V19.5L12.9495 26L1.69067 19.5V6.5L12.9495 0L24.2073 6.5ZM4.51978 8.08691V17.8623L13.0002 22.75L21.4807 17.8623V8.08691L13.0002 3.19922L4.51978 8.08691ZM20.5647 8.61426V17.335L20.5374 17.3496C16.0411 14.7458 13.0159 9.88449 13.0159 4.31641C13.0159 9.88901 9.98692 14.7542 5.48462 17.3564L5.4856 17.3574C10.0896 14.6943 15.9308 14.6921 20.5364 17.3506L13.0002 21.6943L5.43481 17.335V8.61426L13.0002 4.25488L20.5647 8.61426Z" fill="#D80068"/>
<path d="M24.2073 6.5H28.2073V4.19065L26.2073 3.03594L24.2073 6.5ZM24.2073 19.5L26.2073 22.9641L28.2073 21.8093V19.5H24.2073ZM12.9495 26L10.9495 29.4641L12.9495 30.6188L14.9495 29.4641L12.9495 26ZM1.69067 19.5H-2.30933V21.8094L-0.309265 22.9641L1.69067 19.5ZM1.69067 6.5L-0.309265 3.03586L-2.30933 4.19055V6.5H1.69067ZM12.9495 0L14.9495 -3.46406L12.9495 -4.61881L10.9495 -3.46414L12.9495 0ZM4.51978 8.08691L2.52238 4.62131L0.519775 5.77551V8.08691H4.51978ZM4.51978 17.8623H0.519775V20.1737L2.52238 21.3279L4.51978 17.8623ZM13.0002 22.75L11.0029 26.2156L13.0002 27.3668L14.9976 26.2156L13.0002 22.75ZM21.4807 17.8623L23.4781 21.3279L25.4807 20.1737V17.8623H21.4807ZM21.4807 8.08691H25.4807V5.77551L23.4781 4.62131L21.4807 8.08691ZM13.0002 3.19922L14.9976 -0.266387L13.0002 -1.41758L11.0029 -0.266387L13.0002 3.19922ZM20.5647 8.61426H24.5647V6.30275L22.562 5.14858L20.5647 8.61426ZM20.5647 17.335L22.4536 20.8609L24.5647 19.7299V17.335H20.5647ZM20.5374 17.3496L18.5328 20.8111L20.4616 21.928L22.4262 20.8755L20.5374 17.3496ZM5.48462 17.3564L3.483 13.8933L-1.0281 16.5006L2.65619 20.1849L5.48462 17.3564ZM5.4856 17.3574L2.65717 20.1858L4.82934 22.358L7.48843 20.8199L5.4856 17.3574ZM20.5364 17.3506L22.5339 20.8161L28.5419 17.3531L22.5361 13.8863L20.5364 17.3506ZM13.0002 21.6943L11.0032 25.1601L13.0005 26.3111L14.9977 25.1599L13.0002 21.6943ZM5.43481 17.335H1.43481V19.6466L3.43775 20.8008L5.43481 17.335ZM5.43481 8.61426L3.43775 5.14847L1.43481 6.3026V8.61426H5.43481ZM13.0002 4.25488L14.9975 0.789202L13.0004 -0.361741L11.0032 0.789091L13.0002 4.25488ZM24.2073 6.5H20.2073V19.5H24.2073H28.2073V6.5H24.2073ZM24.2073 19.5L22.2072 16.0359L10.9494 22.5359L12.9495 26L14.9495 29.4641L26.2073 22.9641L24.2073 19.5ZM12.9495 26L14.9494 22.5359L3.69061 16.0359L1.69067 19.5L-0.309265 22.9641L10.9495 29.4641L12.9495 26ZM1.69067 19.5H5.69067V6.5H1.69067H-2.30933V19.5H1.69067ZM1.69067 6.5L3.69061 9.96414L14.9494 3.46414L12.9495 0L10.9495 -3.46414L-0.309265 3.03586L1.69067 6.5ZM12.9495 0L10.9494 3.46406L22.2072 9.96406L24.2073 6.5L26.2073 3.03594L14.9495 -3.46406L12.9495 0ZM4.51978 8.08691H0.519775V17.8623H4.51978H8.51978V8.08691H4.51978ZM4.51978 17.8623L2.52238 21.3279L11.0029 26.2156L13.0002 22.75L14.9976 19.2844L6.51717 14.3967L4.51978 17.8623ZM13.0002 22.75L14.9976 26.2156L23.4781 21.3279L21.4807 17.8623L19.4833 14.3967L11.0029 19.2844L13.0002 22.75ZM21.4807 17.8623H25.4807V8.08691H21.4807H17.4807V17.8623H21.4807ZM21.4807 8.08691L23.4781 4.62131L14.9976 -0.266387L13.0002 3.19922L11.0029 6.66482L19.4833 11.5525L21.4807 8.08691ZM13.0002 3.19922L11.0029 -0.266387L2.52238 4.62131L4.51978 8.08691L6.51717 11.5525L14.9976 6.66482L13.0002 3.19922ZM20.5647 8.61426H16.5647V17.335H20.5647H24.5647V8.61426H20.5647ZM20.5647 17.335L18.6758 13.809L18.6485 13.8237L20.5374 17.3496L22.4262 20.8755L22.4536 20.8609L20.5647 17.335ZM20.5374 17.3496L22.5419 13.8881C19.2289 11.9696 17.0159 8.3985 17.0159 4.31641H13.0159H9.01587C9.01587 11.3705 12.8533 17.5221 18.5328 20.8111L20.5374 17.3496ZM13.0159 4.31641H9.01587C9.01587 8.40256 6.79971 11.9763 3.483 13.8933L5.48462 17.3564L7.48624 20.8196C13.1741 17.5322 17.0159 11.3755 17.0159 4.31641H13.0159ZM5.48462 17.3564L2.65619 20.1849L2.65717 20.1858L5.4856 17.3574L8.31402 14.529L8.31305 14.528L5.48462 17.3564ZM5.4856 17.3574L7.48843 20.8199C10.8544 18.8729 15.1696 18.8712 18.5367 20.8148L20.5364 17.3506L22.5361 13.8863C16.6921 10.5129 9.32474 10.5157 3.48276 13.895L5.4856 17.3574ZM20.5364 17.3506L18.5389 13.885L11.0027 18.2288L13.0002 21.6943L14.9977 25.1599L22.5339 20.8161L20.5364 17.3506ZM13.0002 21.6943L14.9973 18.2285L7.43188 13.8692L5.43481 17.335L3.43775 20.8008L11.0032 25.1601L13.0002 21.6943ZM5.43481 17.335H9.43481V8.61426H5.43481H1.43481V17.335H5.43481ZM5.43481 8.61426L7.43188 12.08L14.9973 7.72067L13.0002 4.25488L11.0032 0.789091L3.43775 5.14847L5.43481 8.61426ZM13.0002 4.25488L11.003 7.72056L18.5674 12.0799L20.5647 8.61426L22.562 5.14858L14.9975 0.789202L13.0002 4.25488Z" fill="black" mask="url(#path-3-inside-1_1911_12808)"/>
</mask>
<g mask="url(#mask1_1911_12808)">
<path d="M13 0L21.7344 5.05273L13 10.1055L4.26562 5.05273L13 0Z" fill="#FFDF6F"/>
<path d="M24.212 19.5117L15.455 24.5577L15.4465 14.451L24.2035 9.40494L24.212 19.5117Z" fill="#E35163"/>
<path d="M1.70117 19.5116L10.4841 24.5946L10.4735 14.4469L1.69063 9.36388L1.70117 19.5116Z" fill="#F68D7F"/>
</g>
<mask id="mask2_1911_12808" style="mask-type:alpha" maskUnits="userSpaceOnUse" x="1" y="0" width="24" height="25">
<path d="M13 0L21.7344 5.05273L13 10.1055L4.26562 5.05273L13 0Z" fill="#7F1381"/>
<path d="M24.2628 19.5117L15.5058 24.5577L15.4973 14.451L24.2543 9.40494L24.2628 19.5117Z" fill="#7F1381"/>
<path d="M1.70117 19.5116L10.4841 24.5946L10.4735 14.4469L1.69063 9.36388L1.70117 19.5116Z" fill="#7F1381"/>
</mask>
<g mask="url(#mask2_1911_12808)">
<path fill-rule="evenodd" clip-rule="evenodd" d="M13 3.19922L21.4805 8.08691V17.8623L13 22.75L4.51953 17.8623V8.08691L13 3.19922ZM20.565 8.61455L13 4.2545L5.43502 8.61455V17.3347L13 21.6947L20.565 17.3347V8.61455Z" fill="#7F1381"/>
</g>
<path d="M20.5664 17.3672C16.0539 14.7676 13.0163 9.89662 13.0163 4.31641C13.0163 9.88914 9.98684 14.7545 5.48438 17.3567L5.48566 17.3571C10.0981 14.6891 15.9523 14.6924 20.5618 17.3657L20.5664 17.3672Z" fill="white"/>
<path d="M8.02344 10.1055C11.0166 11.8351 13.0314 15.0762 13.0314 18.7891C13.0314 15.0811 15.0409 11.8438 18.0273 10.1124L18.0265 10.1122C14.967 11.8874 11.084 11.8852 8.02651 10.1065L8.02344 10.1055Z" fill="#D80068"/>
</svg>
