<svg width="26" height="27" viewBox="0 0 26 27" fill="none" xmlns="http://www.w3.org/2000/svg">
<path d="M18.6875 4.24365L13.0508 1L7.41406 4.24365L1.77734 7.48731L7.41406 10.731L13.0508 7.4873L18.6875 10.731L24.3242 7.48731L18.6875 4.24365Z" fill="#77FECD"/>
<path d="M18.6875 23.7056L24.3242 20.4619L18.6875 17.2183L13.0508 20.4619L7.41406 17.2183L1.77734 20.4619L7.41406 23.7056L13.0508 26.9492L18.6875 23.7056Z" fill="#038D74"/>
<path d="M18.6875 10.731L13.0508 7.4873L7.41406 10.731V17.2183L13.0508 20.4619L18.6875 17.2183V10.731Z" fill="#160C56"/>
<path fill-rule="evenodd" clip-rule="evenodd" d="M16.6794 11.2521L12.9419 17.8882L9.59216 15.907L10.2126 14.858L12.4909 16.2055L15.6175 10.6541L16.6794 11.2521Z" fill="white"/>
<path fill-rule="evenodd" clip-rule="evenodd" d="M13.0441 0.975342L24.3338 7.47534V20.4753L13.0441 26.9753L1.75439 20.4753V7.47534L13.0441 0.975342ZM23.115 8.17703L13.0441 2.37873L2.97314 8.17703V19.7736L13.0441 25.572L23.115 19.7736V8.17703Z" fill="#160C56"/>
</svg>
