<svg width="132" height="28" viewBox="0 0 132 28" fill="none" xmlns="http://www.w3.org/2000/svg">
<g clip-path="url(#clip0_1941_6353)">
<path d="M70.3309 13.0152C72.742 13.0152 74.3797 14.8778 74.3797 17.6489V22.8049C74.3797 22.873 74.3115 22.9412 74.2432 22.9412H71.8777C71.8094 22.9412 71.7412 22.873 71.7412 22.8049V17.6716C71.7412 16.604 71.218 15.4456 69.7395 15.4456H69.694C68.5795 15.4683 67.6241 16.4677 67.6241 17.6034V22.8049C67.6241 22.873 67.5559 22.9412 67.4876 22.9412H65.1448C65.0765 22.9412 65.0083 22.873 65.0083 22.8049V13.2651C65.0083 13.197 65.0765 13.1288 65.1448 13.1288H67.4194C67.4876 13.1288 67.5559 13.197 67.5559 13.2651V14.1055C68.4202 13.3559 69.3073 13.0152 70.3309 13.0152ZM106.384 21.2149C106.338 21.2604 106.361 21.3512 106.406 21.3966C107.817 22.8049 109.341 22.9866 110.66 22.9866C112.525 22.9866 113.913 22.2825 114.504 21.0332C114.686 20.6471 114.777 20.2382 114.777 19.8067C114.777 17.2854 112.593 16.8312 110.705 16.7176C109.204 16.6267 109.204 16.1043 109.204 15.9226C109.204 15.2866 110.228 15.2185 110.66 15.2185C111.501 15.2185 112.138 15.4229 112.662 15.8772C112.707 15.9226 112.798 15.9226 112.843 15.8545L114.186 14.3099C114.231 14.2645 114.231 14.1736 114.163 14.1282C113.185 13.3105 112.138 12.9698 110.614 12.9698C109.636 12.9698 108.681 13.2197 107.976 13.6285C107.066 14.1736 106.588 14.9913 106.588 15.9908C106.588 17.7397 107.976 18.8073 110.523 18.989C111.956 19.0798 112.138 19.4887 112.138 19.8521C112.138 20.3745 111.433 20.6471 110.751 20.6471H110.683C109.568 20.6244 108.499 20.2155 107.794 19.5568C107.726 19.5114 107.635 19.5114 107.589 19.5795L106.384 21.2149ZM82.6138 19.6022C83.0005 19.148 83.1825 18.512 83.1825 17.8306C83.1825 16.604 82.4319 15.3093 80.6122 15.3093C79.1109 15.3093 78.1101 16.3315 78.1101 17.8533C78.1101 19.3751 79.1109 20.4199 80.6122 20.4199C81.3855 20.4199 82.1589 20.1247 82.6138 19.6022ZM83.1143 13.2424C83.1143 13.1742 83.1825 13.1061 83.2507 13.1061H85.5936C85.6618 13.1061 85.7301 13.1742 85.7301 13.2424V22.8049C85.7301 22.873 85.6618 22.9412 85.5936 22.9412H83.2507C83.1825 22.9412 83.1143 22.873 83.1143 22.8049V22.0781C82.2954 22.8276 81.3173 22.8503 80.4757 22.873H80.3392C78.929 22.873 77.7462 22.4415 76.8818 21.6011C75.972 20.7152 75.517 19.4205 75.517 17.876C75.517 14.8778 77.4277 12.9471 80.4075 12.9471H80.453C81.3855 12.9471 82.3636 13.038 83.137 13.6739L83.1143 13.2424ZM53.9764 10.7439V8.44977C53.9764 8.35891 53.9082 8.29077 53.8172 8.29077H45.2874C45.1964 8.29077 45.1282 8.35891 45.1282 8.44977V22.7595C45.1282 22.8503 45.1964 22.9185 45.2874 22.9185H47.5848C47.6757 22.9185 47.744 22.8503 47.744 22.7595V16.922C47.744 16.8312 47.8122 16.763 47.9032 16.763H52.2022C52.2932 16.763 52.3615 16.6949 52.3615 16.604V14.2872C52.3615 14.1964 52.2932 14.1282 52.2022 14.1282H47.9032C47.8122 14.1282 47.744 14.0601 47.744 13.9692V11.0846C47.744 10.9937 47.8122 10.9256 47.9032 10.9256H53.7945C53.9082 10.9256 53.9764 10.8347 53.9764 10.7439ZM104.132 19.8748C104.086 19.8294 103.995 19.8294 103.95 19.8748C103.495 20.2609 102.903 20.4654 102.335 20.4654C100.902 20.4654 99.9009 19.4432 99.9009 17.9669C99.9009 16.4905 100.902 15.4683 102.335 15.4683C102.903 15.4683 103.472 15.6728 103.95 16.0589C103.995 16.1043 104.086 16.1043 104.132 16.0589L105.656 14.4689C105.701 14.4235 105.701 14.3326 105.656 14.2872C104.678 13.3559 103.677 12.9698 102.312 12.9698C99.2413 12.9698 97.2624 14.9459 97.2624 18.0123C97.2624 21.0786 99.2413 23.0547 102.312 23.0547C103.677 23.0547 104.678 22.6686 105.656 21.7373C105.701 21.6919 105.701 21.6011 105.656 21.5556L104.132 19.8748ZM91.8943 22.9412C91.9625 22.9412 92.0307 22.873 92.0307 22.8049V20.6698C92.0307 20.6017 91.9625 20.5335 91.8943 20.5335H90.7342C90.0518 20.5108 89.7334 20.1701 89.7334 19.4432V15.7863H91.8943C91.9625 15.7863 92.0307 15.7182 92.0307 15.65V13.2651C92.0307 13.197 91.9625 13.1288 91.8943 13.1288H89.7561V11.0619C89.7561 10.9937 89.6879 10.9256 89.6197 10.9256H87.2541C87.1858 10.9256 87.1176 10.9937 87.1176 11.0619V19.4432C87.1176 21.6692 88.3686 22.9412 90.575 22.9412H91.0072H91.8943ZM60.4591 19.6022C60.8458 19.148 61.0277 18.512 61.0277 17.8306C61.0277 16.604 60.2771 15.3093 58.4574 15.3093C56.9562 15.3093 55.9553 16.3315 55.9553 17.8533C55.9553 19.3751 56.9562 20.4199 58.4574 20.4199C59.2535 20.4199 60.0269 20.1247 60.4591 19.6022ZM60.9822 13.2424C60.9822 13.1742 61.0505 13.1061 61.1187 13.1061H63.4616C63.5298 13.1061 63.5981 13.1742 63.5981 13.2424V22.8049C63.5981 22.873 63.5298 22.9412 63.4616 22.9412H61.1187C61.0505 22.9412 60.9822 22.873 60.9822 22.8049V22.0781C60.1634 22.8276 59.1853 22.8503 58.3437 22.873H58.2072C56.7969 22.873 55.6142 22.4415 54.7498 21.6011C53.8399 20.7152 53.385 19.4205 53.385 17.876C53.3623 14.8778 55.273 12.9244 58.23 12.9244H58.2754C59.208 12.9244 60.1861 13.0152 60.9595 13.6512L60.9822 13.2424ZM93.441 22.9412H95.8066C95.8748 22.9412 95.9431 22.873 95.9431 22.8049V13.2424C95.9431 13.1742 95.8748 13.1061 95.8066 13.1061H93.441C93.3728 13.1061 93.3045 13.1742 93.3045 13.2424V22.8049C93.3273 22.873 93.3728 22.9412 93.441 22.9412ZM96.1251 10.2214C96.1251 8.29077 93.2135 8.29077 93.2135 10.2214C93.1908 12.1294 96.1251 12.1294 96.1251 10.2214Z" fill="#0F0934"/>
<path d="M41.1249 5.5197L38.6683 9.33561C38.6228 9.40376 38.5091 9.44918 38.4408 9.40376C32.777 6.56453 26.2261 11.7887 20.4486 10.5394C20.4031 10.5167 20.3576 10.494 20.3121 10.4486C20.3349 10.4486 17.5371 6.1784 16.6045 4.74743C16.4908 4.56572 16.6273 4.31586 16.8775 4.33858C17.3779 4.45215 19.5615 4.92914 21.2447 5.06542C30.002 5.54241 34.7559 0.295521 41.1021 5.26984C41.1704 5.31527 41.1931 5.42884 41.1249 5.5197ZM33.9826 16.445C34.0281 16.4677 34.0736 16.445 34.119 16.3996L37.076 11.7887C37.1215 11.7206 37.076 11.6524 37.0078 11.6297C32.7088 10.1533 28.6827 12.9925 22.5413 13.1515C22.382 13.1515 22.2228 13.3332 22.3365 13.5377L28.9557 23.7589C29.0467 23.9406 29.2741 23.827 29.2514 23.668L27.8184 17.1946C27.7956 17.1264 27.8411 17.081 27.8866 17.0583C28.4553 16.8993 32.2084 15.6273 33.9826 16.445Z" fill="#0F0934"/>
<path d="M116.456 12.0838C116.456 12.5608 116.16 12.947 115.615 12.947C115.069 12.947 114.773 12.5608 114.773 12.0838C114.773 11.6068 115.069 11.2207 115.615 11.2207C116.16 11.2207 116.456 11.6068 116.456 12.0838ZM115.615 12.8107C116.069 12.8107 116.32 12.4927 116.32 12.0838C116.32 11.675 116.069 11.357 115.615 11.357C115.16 11.357 114.909 11.675 114.909 12.0838C114.909 12.4927 115.16 12.8107 115.615 12.8107ZM115.751 12.1974C116.092 12.152 116.069 11.6296 115.683 11.6296H115.273V12.5154H115.41V12.1974H115.592L115.865 12.5154H116.024V12.4927L115.751 12.1974ZM115.683 11.7658C115.91 11.7658 115.91 12.0838 115.683 12.0838H115.41V11.7658H115.683Z" fill="#0F0934"/>
</g>
<defs>
<clipPath id="clip0_1941_6353">
<rect width="99.9012" height="20.7407" fill="white" transform="translate(16.5618 3.11133)"/>
</clipPath>
</defs>
</svg>
