<svg width="64" height="24" viewBox="0 0 64 24" fill="none" xmlns="http://www.w3.org/2000/svg">
<path d="M43.9256 17.8702C43.8197 17.7643 43.7668 17.6055 43.7668 17.4467V5.69551C43.7668 5.53671 43.8197 5.37791 43.9256 5.27204C44.0314 5.16618 44.1902 5.11324 44.349 5.11324H46.3817C46.5405 5.11324 46.6463 5.16618 46.7522 5.27204C46.911 5.37791 46.9639 5.53671 46.9639 5.74845V17.4891C46.9639 17.6479 46.911 17.8067 46.7522 17.9655C46.6463 18.0713 46.4875 18.1243 46.3817 18.1243H44.349C44.2008 18.0819 44.0844 18.029 43.9256 17.8702ZM43.8197 2.86887C43.7138 2.763 43.6609 2.6042 43.6609 2.4454V0.635079C43.6609 0.476278 43.7138 0.317478 43.8197 0.211612C43.9256 0.105745 44.0844 -0.00012207 44.2432 -0.00012207H46.5405C46.6993 -0.00012207 46.8581 0.0528113 46.9639 0.158678C47.0698 0.264545 47.1227 0.423345 47.1227 0.582145V2.39247C47.1227 2.55127 47.0698 2.71007 46.9639 2.81594C46.8581 2.9218 46.6993 2.97474 46.5405 2.97474H44.2432C44.0844 3.02767 43.9256 2.97474 43.8197 2.86887Z" fill="#92C039"/>
<path d="M0.160265 23.8411C0.0543982 23.7352 0.00146484 23.5764 0.00146484 23.3647V21.872C0.00146484 21.7132 0.0543982 21.5544 0.160265 21.3956C0.266132 21.2897 0.424932 21.1838 0.583732 21.1838H1.22952C1.92824 21.1838 2.40464 20.9721 2.61637 20.6016C2.82811 20.231 2.98691 19.6382 2.98691 18.8971V5.66375C2.98691 5.45202 3.03984 5.29322 3.14571 5.18735C3.25158 5.08149 3.41038 5.02855 3.56918 5.02855H5.7712C5.93 5.02855 6.0888 5.08149 6.19467 5.18735C6.30054 5.29322 6.35347 5.45202 6.35347 5.66375V18.9289C6.35347 20.5274 5.93 21.7555 5.12542 22.666C4.32083 23.5764 3.14571 23.9999 1.54712 23.9999H0.583732C0.424932 23.9999 0.266132 23.9469 0.160265 23.8411ZM9.72004 16.8009C8.86251 15.7846 8.43905 14.4507 8.43905 12.6933V5.75903C8.43905 5.60023 8.49198 5.44143 8.59785 5.33556C8.70371 5.2297 8.86251 5.17676 9.02131 5.17676H11.2128C11.3716 5.17676 11.4774 5.2297 11.5833 5.33556C11.7421 5.44143 11.795 5.60023 11.795 5.81197V12.6404C11.795 14.673 12.6525 15.6787 14.357 15.6787C15.2145 15.6787 15.8497 15.4141 16.3367 14.8742C16.8131 14.3448 17.0884 13.5932 17.0884 12.6298V5.74844C17.0884 5.58964 17.1413 5.43084 17.2472 5.32498C17.353 5.21911 17.5118 5.16618 17.6706 5.16618H19.8621C20.0209 5.16618 20.1797 5.21911 20.2855 5.32498C20.3914 5.43084 20.4443 5.58964 20.4443 5.74844V17.4891C20.4443 17.6479 20.3914 17.8067 20.2855 17.9125C20.1797 18.0184 20.0209 18.0713 19.8621 18.0713H17.9353C17.7765 18.0713 17.6177 18.0184 17.5118 17.9125C17.406 17.8067 17.353 17.6479 17.353 17.4891V16.4727C16.4426 17.7008 15.1087 18.336 13.2983 18.336C11.795 18.2937 10.567 17.8173 9.72004 16.8009ZM22.8475 17.8702C22.7416 17.7643 22.6887 17.6055 22.6887 17.4467V5.69551C22.6887 5.53671 22.7416 5.37791 22.8475 5.27204C22.9534 5.16618 23.1122 5.11324 23.271 5.11324H25.1978C25.3566 5.11324 25.5154 5.16618 25.6212 5.27204C25.7271 5.37791 25.78 5.53671 25.78 5.69551V6.55303C26.6375 5.43084 27.8127 4.90151 29.3054 4.90151C31.1157 4.90151 32.3438 5.65317 33.0954 7.09295C33.466 6.44717 34.0588 5.91783 34.7469 5.49436C35.4351 5.0709 36.2397 4.9121 37.0443 4.9121C38.3782 4.9121 39.4474 5.3885 40.305 6.29895C41.1625 7.20941 41.5859 8.54333 41.5859 10.3007V17.3514C41.5859 17.5102 41.533 17.669 41.4271 17.7749C41.3213 17.8808 41.1625 17.9337 41.0037 17.9337H39.024C39.024 17.9337 38.7064 17.9337 38.6005 17.8278C38.4946 17.722 38.4417 17.5632 38.4417 17.4044V10.4701C38.3888 9.40085 38.177 8.65978 37.743 8.22573C37.3195 7.74933 36.7267 7.52701 36.0385 7.52701C35.3927 7.52701 34.8634 7.73874 34.4399 8.22573C34.0165 8.70213 33.7412 9.45378 33.7412 10.4701V17.4044C33.7412 17.5632 33.6883 17.722 33.5824 17.8278C33.4765 17.9337 33.1589 18.0396 33.1589 18.0396H31.0734C30.9146 18.0396 30.7558 17.9866 30.6499 17.8808C30.544 17.7749 30.4911 17.6161 30.4911 17.4573V10.523C30.4911 9.50672 30.2794 8.76565 29.8453 8.27866C29.4218 7.80226 28.829 7.57994 28.1409 7.57994C27.4951 7.57994 26.9657 7.79167 26.4893 8.27866C26.0129 8.75506 25.7906 9.50672 25.7906 10.523V17.4573C25.7906 17.6161 25.7377 17.7749 25.6318 17.8808C25.5259 17.9866 25.3671 18.0396 25.2083 18.0396H23.1228C23.1122 18.0819 22.9534 18.029 22.8475 17.8702ZM50.4364 16.8009C49.4201 15.7846 48.8378 14.4507 48.7319 12.6933V11.6241V10.5548C48.8378 8.79741 49.3777 7.46349 50.4364 6.44717C51.5057 5.43084 52.9454 4.95444 54.8616 4.95444C56.7249 4.95444 58.1753 5.43084 59.2339 6.44717C60.3032 7.46349 60.8325 8.79741 60.9384 10.5548C60.9384 10.7665 60.9384 11.1371 60.9384 11.6241C60.9384 12.1534 60.9384 12.5345 60.9384 12.6933C60.8325 14.4507 60.2926 15.8375 59.2339 16.8009C58.2176 17.8173 56.7249 18.2937 54.8087 18.2937C52.9454 18.2407 51.4527 17.7643 50.4364 16.8009ZM56.8413 14.9271C57.3177 14.3978 57.5401 13.5932 57.593 12.5239C57.593 12.3651 57.593 12.0475 57.593 11.5605C57.593 11.0841 57.593 10.7559 57.593 10.5971C57.5401 9.52789 57.3283 8.73389 56.8413 8.19397C56.3544 7.65405 55.7192 7.33645 54.8616 7.33645C54.0041 7.33645 53.316 7.60111 52.8819 8.19397C52.4055 8.7233 52.1303 9.58082 52.1303 10.5971V11.5605V12.5239C52.1832 13.5932 52.3949 14.3872 52.8819 14.9271C53.3583 15.4564 54.0041 15.7317 54.8616 15.7317C55.7192 15.7317 56.4179 15.467 56.8413 14.9271ZM3.4739 3.02767C3.31509 3.02767 3.20923 2.97474 3.10336 2.86887C2.94456 2.763 2.83869 2.6042 2.83869 2.4454V0.635079C2.83869 0.476278 2.89163 0.317478 2.99749 0.211611C3.10336 0.105745 3.26216 -0.00012207 3.4739 -0.00012207H5.7712C5.93 -0.00012207 6.0888 0.0528113 6.19467 0.158678C6.30054 0.264545 6.35347 0.423345 6.35347 0.582145V2.39247C6.35347 2.55127 6.30054 2.71007 6.19467 2.81593C6.0888 2.9218 5.87707 3.02767 5.71827 3.02767H3.4739ZM62.3993 15.6787C63.0451 15.6787 63.5745 16.2081 63.5215 16.9068C63.5215 17.5526 62.9393 18.0819 62.2935 18.029C61.7112 17.9761 61.2242 17.4997 61.2242 16.8539C61.2242 16.2081 61.7006 15.6787 62.3993 15.6787ZM62.3464 15.9434C61.9229 15.9434 61.5948 16.2081 61.4889 16.6421C61.3301 17.3409 61.7536 17.8702 62.3993 17.8702C62.8757 17.8702 63.3098 17.4467 63.3098 16.9068C63.3098 16.3669 62.8757 15.9434 62.3464 15.9434ZM62.1876 17.542H61.9229V16.3139C62.0817 16.3139 62.1876 16.261 62.3464 16.261C62.5581 16.261 62.664 16.3139 62.7169 16.3669C62.7699 16.4198 62.8228 16.5257 62.8228 16.6315C62.8228 16.7903 62.664 16.8962 62.664 16.8962C62.664 16.8962 62.7699 17.055 62.7699 17.2138C62.8228 17.3726 62.8228 17.4785 62.8757 17.5314H62.664C62.6111 17.4785 62.6111 17.3726 62.5581 17.2138C62.5052 17.055 62.4523 17.0021 62.2935 17.0021H62.1876V17.542ZM62.1876 16.8539H62.3464C62.5052 16.8539 62.664 16.8009 62.664 16.6421C62.664 16.5363 62.6111 16.4304 62.3993 16.4304C62.2935 16.4304 62.2405 16.4304 62.2405 16.4304L62.1876 16.8539Z" fill="#0F0934"/>
</svg>
