<svg width="131" height="28" viewBox="0 0 131 28" fill="none" xmlns="http://www.w3.org/2000/svg">
<path d="M36.423 13.4969C36.423 19.9117 31.1959 25.1388 24.7811 25.1388C18.3663 25.1388 13.1392 19.9117 13.1392 13.4969C13.1392 7.08208 18.3663 1.85498 24.7811 1.85498C31.2255 1.85498 36.423 7.08208 36.423 13.4969Z" fill="#0F0934"/>
<path d="M24.78 1.85468V3.19057C26.2048 3.19057 27.5725 3.48696 28.7898 3.99295C30.6317 4.76569 32.2047 6.07194 33.3331 7.73385C34.4319 9.36825 35.086 11.3562 35.086 13.4945C35.086 14.9193 34.7896 16.2869 34.2837 17.5042C33.5109 19.3461 32.2047 20.9191 30.5428 22.0475C28.9084 23.1463 26.9204 23.8005 24.7821 23.8005C23.3573 23.8005 21.9897 23.5041 20.7724 22.9981C18.9305 22.2254 17.3575 20.9191 16.2291 19.2572C15.1303 17.6228 14.4761 15.6348 14.4761 13.4966C14.4761 12.0718 14.7725 10.7041 15.2785 9.48681C16.0513 7.64494 17.3575 6.07193 19.0194 4.94352C20.6538 3.84475 22.6418 3.19057 24.78 3.19057V1.85468V0.518799C22.9974 0.518799 21.2762 0.874471 19.7308 1.52865C17.4147 2.50887 15.4246 4.17078 14.0294 6.22013C12.6343 8.29912 11.8022 10.7952 11.8022 13.4669C11.8022 15.2495 12.1579 16.9707 12.8121 18.5162C13.7923 20.8323 15.4542 22.8224 17.5036 24.2175C19.5826 25.6127 22.0765 26.4447 24.7504 26.4447C26.533 26.4447 28.2542 26.0891 29.7997 25.4349C32.1158 24.4547 34.1058 22.7927 35.501 20.7434C36.8962 18.6644 37.7282 16.1705 37.7282 13.4966C37.7282 11.714 37.3725 9.99279 36.7183 8.44731C35.7381 6.13121 34.0762 4.14115 32.0268 2.74598C29.9479 1.35082 27.4539 0.518799 24.78 0.518799V1.85468Z" fill="#0F0934"/>
<path d="M23.2666 9.51628H23.3258C24.1875 8.23968 25.2566 7.79297 26.7111 7.79297C29.5628 7.79297 30.6912 9.57556 30.6912 12.2177V18.7807H26.9185V13.6129C26.9185 12.603 27.0964 10.8204 25.2249 10.8204C23.6815 10.8204 23.2644 11.9785 23.2644 13.2847V18.8082H19.4939V8.14652H23.2644V9.51628" fill="#FAFAFA"/>
<path d="M49.8751 11.8938C49.6973 10.884 48.7467 10.2298 47.7369 10.2298C46.6381 10.2298 45.7172 10.795 45.5097 11.8938H49.8751ZM53.3789 14.0617H45.4504C45.4504 15.6051 46.2528 16.4075 47.7961 16.4075C48.5985 16.4075 49.1913 16.1407 49.5787 15.4272H53.2307C52.6358 17.9212 50.2604 19.0496 47.8258 19.0496C44.322 19.0496 41.6777 17.0595 41.6777 13.4075C41.6777 9.87411 44.0828 7.73584 47.5569 7.73584C51.2385 7.73584 53.3768 10.0223 53.3768 13.6446L53.3789 14.0617Z" fill="#0F0934"/>
<path d="M64.3357 1.58813H60.5652V18.7535H64.3357V1.58813Z" fill="#0F0934"/>
<path d="M76.3924 9.51628H76.4516C77.3133 8.23968 78.3824 7.79297 79.8369 7.79297C82.6886 7.79297 83.817 9.57556 83.817 12.2177V18.7807H80.0465V13.6129C80.0465 12.603 80.2243 10.8204 78.3528 10.8204C76.8094 10.8204 76.3924 11.9785 76.3924 13.2847V18.8082H72.6218V8.14652H76.3924V9.51628Z" fill="#0F0934"/>
<path d="M98.874 11.8938C98.6961 10.884 97.7456 10.2298 96.7357 10.2298C95.6369 10.2298 94.716 10.795 94.5085 11.8938H98.874ZM102.38 14.0617H94.4514C94.4514 15.6051 95.2537 16.4075 96.7971 16.4075C97.5995 16.4075 98.1923 16.1407 98.5797 15.4272H102.232C101.637 17.9212 99.2614 19.0496 96.8267 19.0496C93.323 19.0496 90.6787 17.0595 90.6787 13.4075C90.6787 9.87411 93.0837 7.73584 96.5579 7.73584C100.24 7.73584 102.378 10.0223 102.378 13.6446L102.38 14.0617Z" fill="#0F0934"/>
<path d="M115.238 18.7534H111.467V11.2398H110.25V8.151H111.467V4.9436H115.238V8.151H117.376V11.2398H115.238V18.7534Z" fill="#0F0934"/>
<path d="M118.774 16.1089V16.2571C119.1 16.2571 119.398 16.3756 119.606 16.5831C119.813 16.7906 119.932 17.087 119.932 17.4151C119.932 17.7433 119.813 18.0397 119.606 18.2472C119.398 18.4546 119.102 18.5732 118.774 18.5732C118.446 18.5732 118.149 18.4546 117.942 18.2472C117.734 18.0397 117.616 17.7433 117.616 17.4151C117.616 17.0891 117.734 16.7906 117.942 16.5831C118.149 16.3756 118.446 16.2571 118.774 16.2571V16.1089V15.9607C117.972 15.9607 117.349 16.6149 117.349 17.3855C117.349 18.1879 118.003 18.8103 118.774 18.8103C119.576 18.8103 120.199 18.1561 120.199 17.3855C120.199 16.5831 119.545 15.9607 118.774 15.9607V16.1089Z" fill="#0F0934"/>
<path d="M118.535 17.299H118.594C118.801 17.299 119.009 17.2397 119.009 17.0026C119.009 16.7359 118.801 16.7062 118.594 16.7062H118.535V17.299ZM118.535 18.1586H118.357V16.5242H118.594C118.89 16.5242 119.189 16.6131 119.189 16.9688C119.189 17.2059 119.041 17.4133 118.774 17.4133L119.307 18.1564H119.1L118.596 17.443H118.537L118.535 18.1586Z" fill="#0F0934"/>
</svg>
