<svg width="131" height="28" viewBox="0 0 131 28" fill="none" xmlns="http://www.w3.org/2000/svg">
<path d="M22.8351 11.5552C22.4213 12.1928 22.2686 12.9581 22.2686 13.7234C22.2686 15.4874 23.1402 17.0851 25.0138 17.0851C26.8222 17.0851 27.7152 15.6151 27.7152 13.872C27.7152 12.6393 27.4103 11.6826 26.7784 11.0875C26.0813 10.4499 25.297 10.4287 24.8177 10.471C23.8591 10.535 23.2927 10.8538 22.8351 11.5552ZM31.114 13.744C31.114 16.6198 29.4582 19.7352 25.0138 19.7352C21.8112 19.7352 18.8918 17.9487 18.8918 13.744C18.8918 10.258 21.0923 7.57852 25.4496 7.8184C30.09 8.07969 31.114 11.6741 31.114 13.744Z" fill="#0F0934"/>
<path d="M60.8587 9.10366C61.1855 8.75492 61.4034 8.49363 61.9915 8.21041C62.5144 7.99245 63.2552 7.8186 64.0613 7.8186C64.7368 7.8186 65.4993 7.92719 66.0874 8.254C67.2858 8.88569 67.5909 9.90971 67.5909 11.6743V19.4522H64.2575V13.047C64.2575 12.023 64.2356 11.6526 64.1048 11.3477C63.8433 10.7377 63.2552 10.4761 62.6018 10.4761C60.837 10.4761 60.837 11.8922 60.837 13.3083V19.4522H57.482V8.10156H60.8587V9.10366Z" fill="#0F0934"/>
<path d="M52.5562 12.3096C52.491 11.8304 52.4035 11.1984 51.9243 10.6975C51.5103 10.2835 50.8786 10.0656 50.2902 10.0656C49.4842 10.0656 48.918 10.4579 48.5912 10.8064C48.1336 11.3075 48.0245 11.8304 47.9156 12.3096H52.5562ZM55.8893 16.5143C55.5821 17.1617 54.5927 19.7352 50.225 19.7352C46.848 19.7352 44.4734 17.6691 44.4734 13.9437C44.4734 11.1984 45.8243 7.81841 50.3122 7.81841C50.9877 7.81841 52.9483 7.73458 54.408 9.30311C55.8893 10.8936 55.9765 13.1157 56.0201 14.401H47.894C47.8721 15.8171 48.6781 17.2334 50.4865 17.2334C52.3166 17.2334 52.9483 16.0351 53.3623 15.229L55.8893 16.5143Z" fill="#0F0934"/>
<path d="M102.537 10.4578H104.759V8.10151H102.559V5.71118H99.2256V8.10151H98.6969L97.1709 10.4578H99.2256V15.8575C99.2256 16.9465 99.2473 17.7526 99.7046 18.4284C100.424 19.4738 101.687 19.5393 102.842 19.5393C103.452 19.5393 103.888 19.4738 104.607 19.3649V16.7507L103.409 16.7941C102.515 16.7941 102.515 16.206 102.537 15.5088V10.4578Z" fill="#0F0934"/>
<path d="M69.2601 5.71118H72.5932V8.10151H76.0576L74.5318 10.4578H72.5715V15.5088C72.5496 16.206 72.5496 16.7941 73.4431 16.7941L74.6415 16.7507V19.3649C73.9221 19.4738 73.4867 19.5393 72.8766 19.5393C71.7218 19.5393 70.4582 19.4738 69.7393 18.4284C69.2817 17.7526 69.2601 16.9465 69.2601 15.8575V5.71118Z" fill="#0F0934"/>
<path d="M111.082 10.4581H110.677L110.691 9.00306L110.713 8.5202L110.599 8.91768L110.116 10.4581H109.747L109.271 8.91768L109.151 8.52716L109.179 9.00306L109.193 10.4581H108.796V8.10156H109.357L109.946 9.9613L110.521 8.10156H111.082L111.082 10.4581ZM107.852 10.4581H107.44V8.449H106.68V8.10156H108.597V8.449H107.852V10.4581Z" fill="#0F0934"/>
<path d="M83.4192 12.3096C83.3537 11.8304 83.2665 11.1984 82.7873 10.6975C82.3733 10.2835 81.7416 10.0656 81.1535 10.0656C80.3474 10.0656 79.781 10.4579 79.4542 10.8064C78.9966 11.3075 78.8877 11.8304 78.7786 12.3096H83.4192ZM86.5625 16.5244L85.9241 17.5105C85.3267 18.387 84.2023 19.7352 80.9819 19.7352C77.605 19.7352 75.3364 17.6691 75.3364 13.9437C75.3364 11.1984 76.687 7.81841 81.1751 7.81841C81.8504 7.81841 83.8113 7.73458 85.271 9.30311C86.7526 10.8936 86.8395 13.1157 86.8833 14.401H78.757C78.735 15.8171 79.4351 17.2334 81.2435 17.2334C83.0733 17.2334 83.599 16.0351 84.013 15.229L86.5625 16.5244Z" fill="#0F0934"/>
<path d="M97.982 19.4535L93.8145 13.4783L97.29 8.10156H93.4751L91.8346 10.6397L90.0641 8.10156H86.2491L89.9996 13.4783L86.1372 19.4535H89.9521L91.9798 16.3172L94.1674 19.4535H97.982Z" fill="#0F0934"/>
<path d="M37.9988 10.4375C37.3888 10.4375 36.7571 10.681 36.2778 11.2892C35.7983 11.8773 35.5806 12.7896 35.5806 13.7832C35.5806 15.1214 35.973 15.9324 36.3867 16.3987C36.7736 16.8351 37.3452 17.0853 37.89 17.0853C39.524 17.0853 40.2429 15.3646 40.2429 13.702C40.2429 12.3029 39.8289 10.8228 38.4564 10.4983C38.304 10.4578 38.1513 10.4375 37.9988 10.4375ZM35.7331 9.10367C36.054 8.61617 37.0829 7.81836 38.7169 7.81836C41.5055 7.81836 43.4671 9.93166 43.4671 13.7223C43.4671 16.0533 42.6183 19.7354 38.5769 19.7354C37.1236 19.7354 35.9964 18.927 35.7112 18.4498V23.2111H32.3561V8.10158H35.7331V9.10367Z" fill="#0F0934"/>
</svg>
