<svg width="1140" height="1300" viewBox="0 0 1140 1300" fill="none" xmlns="http://www.w3.org/2000/svg">
<g clip-path="url(#clip0_1095_6525)">
<path fill-rule="evenodd" clip-rule="evenodd" d="M513.733 0.0273438L958.373 256.027V768.027L513.733 1024.03L69.0938 768.027V256.027L513.733 0.0273438ZM910.373 283.663L513.733 55.2991L117.094 283.663V740.392L513.733 968.756L910.373 740.392V283.663Z" fill="#160C56"/>
<path fill-rule="evenodd" clip-rule="evenodd" d="M513.733 968.757V740.393V512.029L315.414 397.847L117.094 283.665V512.029V740.393L513.733 968.757Z" fill="white"/>
<path d="M712.053 854.575L910.373 740.393L712.053 626.211L513.733 740.393V968.757L712.053 854.575Z" fill="#87E0E1"/>
<path d="M513.733 512.029V740.393L712.053 626.211L513.733 512.029Z" fill="#1B46DD"/>
<path d="M712.053 397.847L513.733 512.029L712.053 626.211L910.373 512.029L712.053 397.847Z" fill="#B068E9"/>
<path d="M712.053 169.483L513.733 55.3008L315.414 169.483L117.094 283.665L315.414 397.847L513.733 283.665L712.053 397.847L910.373 283.665L712.053 169.483Z" fill="#F9DB4E"/>
<path d="M513.733 512.029L712.053 397.847L513.733 283.665L315.414 397.847L513.733 512.029Z" fill="#E94A5D"/>
<path d="M856.222 1072.71L858.642 1076.9L862.791 1074.51C862.974 1074.4 863.162 1074.24 863.355 1074.03C863.547 1073.82 863.699 1073.57 863.809 1073.29C863.929 1073 863.986 1072.67 863.98 1072.31C863.973 1071.95 863.856 1071.58 863.629 1071.18C863.44 1070.86 863.214 1070.6 862.95 1070.42C862.691 1070.22 862.415 1070.09 862.12 1070.03C861.836 1069.96 861.54 1069.95 861.231 1070.01C860.927 1070.06 860.635 1070.16 860.355 1070.32L856.222 1072.71ZM854.97 1062.45C854.97 1062.45 853.802 1063.13 851.466 1064.47L853.622 1068.21L857.109 1066.19C857.292 1066.09 857.459 1065.94 857.608 1065.75C857.752 1065.55 857.854 1065.33 857.917 1065.09C857.984 1064.84 858 1064.57 857.964 1064.28C857.939 1063.99 857.842 1063.7 857.672 1063.4C857.508 1063.12 857.311 1062.89 857.082 1062.72C856.853 1062.54 856.61 1062.42 856.354 1062.35C856.109 1062.27 855.864 1062.25 855.62 1062.27C855.38 1062.28 855.164 1062.34 854.97 1062.45ZM866.257 1079.06L855.391 1085.33L842.534 1063.06L852.48 1057.32C853.631 1056.65 854.743 1056.19 855.816 1055.94C856.888 1055.68 857.902 1055.63 858.857 1055.8C859.811 1055.96 860.688 1056.33 861.486 1056.92C862.284 1057.51 862.983 1058.32 863.581 1059.36C863.84 1059.8 864.02 1060.29 864.121 1060.81C864.233 1061.33 864.278 1061.84 864.256 1062.35C864.227 1062.85 864.138 1063.33 863.99 1063.79C863.846 1064.24 863.651 1064.62 863.403 1064.94C864.012 1064.85 864.64 1064.84 865.287 1064.92C865.928 1064.99 866.547 1065.14 867.144 1065.38C867.734 1065.61 868.283 1065.92 868.79 1066.33C869.297 1066.73 869.72 1067.23 870.061 1067.82C870.792 1069.09 871.175 1070.28 871.21 1071.41C871.256 1072.54 871.067 1073.58 870.644 1074.54C870.221 1075.49 869.613 1076.35 868.819 1077.12C868.037 1077.87 867.183 1078.52 866.257 1079.06Z" fill="#160C56"/>
<path d="M875.35 1044.11L882.438 1040.02L882.147 1058.68L887.012 1067.07L880.926 1070.59L876.095 1062.22L859.818 1053.08L866.858 1049.02L875.956 1055.01L876.005 1054.98L875.35 1044.11Z" fill="#160C56"/>
<path d="M915.425 1040.25L912.946 1035.92L924.312 1029.36C925.512 1031.21 926.299 1033.07 926.672 1034.94C927.051 1036.79 927.055 1038.56 926.686 1040.26C926.322 1041.94 925.611 1043.49 924.554 1044.92C923.491 1046.33 922.125 1047.52 920.456 1048.48C918.777 1049.45 917.024 1050.06 915.196 1050.3C913.38 1050.53 911.617 1050.44 909.907 1050.01C908.209 1049.58 906.632 1048.84 905.178 1047.79C903.717 1046.72 902.521 1045.38 901.588 1043.77C900.649 1042.14 900.09 1040.44 899.912 1038.67C899.728 1036.88 899.874 1035.14 900.35 1033.46C900.836 1031.76 901.638 1030.19 902.755 1028.75C903.877 1027.29 905.277 1026.07 906.956 1025.1C908.646 1024.13 910.4 1023.52 912.217 1023.29C914.044 1023.05 915.841 1023.15 917.608 1023.6L915.969 1029.9C915.025 1029.48 914.027 1029.29 912.974 1029.33C911.921 1029.37 910.904 1029.68 909.925 1030.24C909.085 1030.73 908.397 1031.35 907.861 1032.11C907.318 1032.86 906.942 1033.69 906.734 1034.6C906.529 1035.49 906.496 1036.42 906.633 1037.4C906.781 1038.38 907.126 1039.34 907.668 1040.28C908.204 1041.21 908.861 1041.98 909.639 1042.61C910.422 1043.22 911.253 1043.67 912.132 1043.95C913.015 1044.21 913.92 1044.3 914.847 1044.21C915.768 1044.12 916.648 1043.83 917.488 1043.34C919.006 1042.47 920.01 1041.51 920.5 1040.47C920.984 1039.42 921.074 1038.32 920.769 1037.17C920.465 1036.02 915.425 1040.25 915.425 1040.25Z" fill="#160C56"/>
<path d="M933.661 1024.09L937.067 1022.13C937.39 1021.94 937.662 1021.7 937.884 1021.41C938.105 1021.13 938.26 1020.81 938.35 1020.47C938.439 1020.13 938.454 1019.77 938.396 1019.39C938.343 1019 938.206 1018.62 937.985 1018.23C937.777 1017.87 937.517 1017.57 937.205 1017.33C936.904 1017.08 936.579 1016.91 936.232 1016.8C935.884 1016.7 935.527 1016.66 935.161 1016.7C934.806 1016.73 934.466 1016.84 934.143 1017.02L930.721 1019L933.661 1024.09ZM953.025 1028.96L946.066 1032.98L938.664 1028.06L936.629 1029.23L940.609 1036.13L934.522 1039.64L921.665 1017.37L931.433 1011.73C932.628 1011.04 933.836 1010.6 935.058 1010.4C936.273 1010.2 937.437 1010.22 938.549 1010.49C939.671 1010.74 940.706 1011.23 941.653 1011.95C942.604 1012.65 943.41 1013.57 944.072 1014.72C944.973 1016.28 945.405 1017.84 945.367 1019.39C945.333 1020.92 944.899 1022.34 944.063 1023.65L953.025 1028.96Z" fill="#160C56"/>
<path d="M963.96 1011.23C963.96 1011.23 961.323 1006.66 956.047 997.522L962.134 994.008L970.038 1007.7C970.794 1009.01 971.265 1010.36 971.452 1011.75C971.642 1013.12 971.54 1014.46 971.146 1015.77C970.762 1017.07 970.089 1018.3 969.126 1019.47C968.175 1020.63 966.94 1021.65 965.422 1022.52C964.023 1023.33 962.601 1023.87 961.156 1024.16C959.705 1024.43 958.305 1024.43 956.958 1024.16C955.622 1023.88 954.376 1023.33 953.221 1022.49C952.06 1021.65 951.072 1020.52 950.259 1019.12L942.356 1005.43L948.427 1001.92L956.349 1015.64C956.683 1016.22 957.073 1016.71 957.518 1017.11C957.963 1017.51 958.451 1017.79 958.982 1017.97C959.506 1018.13 960.062 1018.17 960.649 1018.1C961.247 1018.01 961.858 1017.79 962.482 1017.43C963.096 1017.08 963.583 1016.66 963.943 1016.19C964.303 1015.72 964.538 1015.22 964.649 1014.69C964.764 1014.15 964.76 1013.58 964.638 1013C964.526 1012.41 964.301 1011.82 963.96 1011.23Z" fill="#160C56"/>
<path d="M986.296 980.058L999.154 1002.33L993.874 1005.38L977.751 998.703L984.671 1010.69L978.584 1014.2L965.727 991.934L971.071 988.848L987.117 995.5L980.226 983.563L986.296 980.058Z" fill="#160C56"/>
<path d="M1007.35 997.597L997.459 980.469L991.663 983.815L988.694 978.674L1006.33 968.495L1009.29 973.636L1003.51 976.973L1013.4 994.101L1007.35 997.597Z" fill="#160C56"/>
<path d="M1028.08 955.979L1039 967.815L1039.07 967.778L1035.06 951.884L1041.48 948.174L1047 974.701L1041.17 978.066L1030.93 968.304L1034.25 982.065L1028.42 985.431L1008.21 967.386L1014.63 963.676L1026.41 975.086L1026.49 975.039L1021.67 959.68L1028.08 955.979Z" fill="#160C56"/>
<path d="M1047.57 959.484C1046.63 957.857 1046.07 956.156 1045.9 954.382C1045.71 952.596 1045.86 950.86 1046.33 949.173C1046.82 947.48 1047.62 945.911 1048.74 944.466C1049.86 943.003 1051.26 941.787 1052.94 940.817C1054.61 939.854 1056.35 939.256 1058.17 939.022C1059.99 938.771 1061.75 938.858 1063.46 939.283C1065.17 939.708 1066.75 940.447 1068.21 941.499C1069.66 942.541 1070.85 943.875 1071.79 945.501C1072.72 947.117 1073.28 948.823 1073.47 950.62C1073.66 952.405 1073.51 954.145 1073.02 955.837C1072.53 957.53 1071.73 959.108 1070.61 960.571C1069.5 962.027 1068.11 963.237 1066.44 964.2C1064.76 965.17 1063.01 965.774 1061.18 966.014C1059.36 966.248 1057.6 966.153 1055.89 965.728C1054.19 965.296 1052.62 964.555 1051.16 963.502C1049.7 962.439 1048.5 961.099 1047.57 959.484ZM1053.65 955.995C1054.19 956.923 1054.84 957.701 1055.62 958.328C1056.41 958.939 1057.24 959.383 1058.12 959.662C1059 959.924 1059.9 960.012 1060.83 959.928C1061.75 959.833 1062.63 959.543 1063.47 959.059C1064.31 958.574 1065 957.956 1065.55 957.206C1066.09 956.439 1066.47 955.611 1066.67 954.722C1066.88 953.815 1066.91 952.873 1066.76 951.896C1066.61 950.908 1066.26 949.95 1065.73 949.022C1065.19 948.084 1064.53 947.306 1063.76 946.689C1062.98 946.073 1062.16 945.633 1061.27 945.372C1060.4 945.093 1059.49 945.004 1058.56 945.106C1057.63 945.19 1056.75 945.474 1055.91 945.959C1055.07 946.444 1054.38 947.067 1053.84 947.828C1053.3 948.578 1052.93 949.406 1052.72 950.312C1052.51 951.202 1052.48 952.138 1052.62 953.121C1052.76 954.098 1053.11 955.056 1053.65 955.995Z" fill="#160C56"/>
<path d="M1080.52 939.306L1083.92 937.339C1084.25 937.153 1084.52 936.915 1084.74 936.628C1084.96 936.34 1085.12 936.024 1085.2 935.682C1085.29 935.339 1085.31 934.981 1085.25 934.607C1085.2 934.216 1085.06 933.829 1084.84 933.447C1084.63 933.087 1084.37 932.786 1084.06 932.544C1083.76 932.295 1083.43 932.119 1083.09 932.014C1082.74 931.909 1082.38 931.875 1082.02 931.912C1081.66 931.942 1081.32 932.051 1081 932.237L1077.58 934.213L1080.52 939.306ZM1099.88 944.173L1092.92 948.19L1085.52 943.273L1083.48 944.447L1087.46 951.341L1081.38 954.855L1068.52 932.586L1078.29 926.946C1079.48 926.257 1080.69 925.814 1081.91 925.618C1083.13 925.411 1084.29 925.438 1085.4 925.698C1086.53 925.953 1087.56 926.44 1088.51 927.16C1089.46 927.862 1090.27 928.787 1090.93 929.933C1091.83 931.494 1092.26 933.049 1092.22 934.6C1092.19 936.133 1091.75 937.555 1090.92 938.867L1099.88 944.173Z" fill="#160C56"/>
<path d="M1095.52 916.995L1101.27 926.951L1102.82 912.782L1109.88 908.709L1108.03 923.029L1122.99 930.829L1115.82 934.967L1106.61 929.743L1105.97 935.089L1108.38 939.265L1102.29 942.779L1089.44 920.51L1095.52 916.995Z" fill="#160C56"/>
<path d="M1028.86 852.501L1020.62 838.243L1020.59 838.263L1008.96 818.113L1030.12 805.89L1041.76 826.041L1057.54 816.927L1065.78 831.185L1049.99 840.299L1073.72 881.401C1075.86 885.111 1079.12 886.045 1082.97 883.819L1092.5 878.317L1101.15 893.302L1085.95 902.08C1072.64 909.766 1060.49 907.372 1052.93 894.278L1028.82 852.521L1028.86 852.501Z" fill="#160C56"/>
<path d="M977.511 964.688L933.537 888.523L938.463 885.679L959.217 885.627L960.672 884.787C960.908 879.315 963.323 869.386 977.436 861.238C994.749 851.242 1011.25 854.617 1021.58 872.513L1050.48 922.562L1029.01 934.952L1000.83 886.139C995.793 877.41 988.295 876.016 980.221 880.678C971.055 885.97 966.138 895.598 973.572 908.474L998.898 952.34L977.511 964.688Z" fill="#160C56"/>
<path d="M918.368 897.28L962.342 973.446L957.416 976.29L936.704 976.415L935.249 977.255C935.013 982.726 932.525 992.697 918.776 1000.64C901.681 1010.51 885.183 1007.13 874.851 989.234L845.913 939.112L867.3 926.764L895.482 975.577C900.522 984.307 908.135 985.731 915.991 981.195C924.866 976.071 929.741 966.37 922.307 953.494L896.981 909.628L918.368 897.28Z" fill="#160C56"/>
<path d="M833.833 1047.64L789.859 971.475L793.053 969.631L816.051 969.466L817.506 968.626C815.773 958.569 820.075 950.732 836.463 943.501L846.795 961.397C830.592 967.939 822.208 978.114 832.834 996.519L855.22 1035.29L833.833 1047.64Z" fill="#160C56"/>
<path d="M716.766 1062.17C701.898 1036.42 710.567 1015.31 729.699 1004.27C742.066 997.129 751.645 998.097 757.305 1000.84L758.759 1000L754.181 992.074L774.696 980.23L816.864 1053.27C829.674 1075.45 822.511 1095.3 797.85 1109.54C773.552 1123.57 753.998 1119.44 744.392 1105.49L743.132 1103.3L762.628 1092.05C767.548 1099.39 776.436 1102.02 788.803 1094.88C800.879 1087.91 803.006 1078.82 796.538 1067.62L791.288 1058.53L789.833 1059.37C788.766 1065.42 784.8 1073.33 773.379 1079.92C754.247 1090.97 731.592 1087.85 716.766 1062.17ZM738.372 1049.7C746.73 1064.18 758.403 1067.43 769.461 1061.04C780.591 1054.62 783.539 1042.92 775.181 1028.45C766.781 1013.9 755.181 1010.6 744.051 1017.03C732.993 1023.41 729.972 1035.15 738.372 1049.7Z" fill="#160C56"/>
<path d="M650.636 1082.41L631.285 1093.58L630.025 1091.4C623.76 1076.68 631.524 1060.56 651.165 1049.22C670.879 1037.84 689.159 1038.93 700.877 1059.22L718.265 1089.34C722.549 1096.76 725.926 1101.6 730.024 1104.66L731.284 1106.85L724.989 1110.48L705.254 1110.82L703.799 1111.66C702.945 1118.75 699.668 1126.85 686.792 1134.28C670.569 1143.65 653.297 1141.79 644.939 1127.31C636.161 1112.11 644.135 1098.87 657.947 1088.86L674.295 1077.19C679.093 1073.74 680.715 1070.67 678.237 1066.38C674.541 1059.97 667.724 1059.25 659.213 1064.17C650.92 1068.96 647.147 1075.69 650.636 1082.41ZM665.301 1114.19C668.829 1120.31 675.742 1121.36 683.671 1116.78C691.673 1112.16 698.672 1102.11 690.65 1088.21L688.046 1083.7L686.591 1084.54C684.977 1087.12 682.736 1089.29 678.374 1092.49L670.658 1098.1C664.707 1102.41 661.605 1107.79 665.301 1114.19Z" fill="#160C56"/>
<path d="M607.091 1178.55L563.117 1102.38L566.311 1100.54L589.31 1100.38L590.765 1099.54C589.032 1089.48 593.334 1081.64 609.722 1074.41L620.054 1092.31C603.85 1098.85 595.467 1109.02 606.093 1127.43L628.479 1166.2L607.091 1178.55Z" fill="#160C56"/>
<path d="M550.455 1211.25L506.481 1135.08L509.675 1133.24L532.674 1133.07L534.128 1132.23C532.396 1122.18 536.698 1114.34 553.086 1107.11L563.418 1125C547.214 1131.55 538.831 1141.72 549.457 1160.13L571.843 1198.9L550.455 1211.25Z" fill="#160C56"/>
<path d="M441.601 1223.27C426.271 1196.72 433.904 1174.66 457.255 1161.18C480.461 1147.78 501.919 1153.53 515.443 1176.95L520.063 1184.95L465.067 1216.71C471.952 1227.96 482.912 1232.49 494.478 1225.82C505.827 1219.26 506.622 1210.56 504.784 1205.03L523.407 1194.27L524.667 1196.46C528.533 1208.19 527.106 1227.06 503.463 1240.71C479.894 1254.32 456.931 1249.82 441.601 1223.27ZM457.473 1203.05L492.173 1183.02C486.525 1173.57 477.244 1169.42 465.605 1176.14C454.256 1182.69 453.012 1193.31 457.473 1203.05Z" fill="#160C56"/>
<path d="M331.576 1220.06L322 1203.47L414.97 1149.8L424.546 1166.38L389.264 1186.75L440.168 1274.92L417.762 1287.86L366.858 1199.69L331.576 1220.06Z" fill="#160C56"/>
</g>
<defs>
<clipPath id="clip0_1095_6525">
<rect width="1140" height="1300" fill="white"/>
</clipPath>
</defs>
</svg>
