<svg width="131" height="28" viewBox="0 0 131 28" fill="none" xmlns="http://www.w3.org/2000/svg">
<path d="M74.2666 8.7709L72.3199 10.2341L72.2415 10.1296C71.327 8.79703 69.8507 7.9609 68.0609 7.9609C65.0038 7.9609 62.7567 10.1819 62.7567 13.4349C62.7567 16.688 65.0038 18.909 68.0609 18.909C69.8377 18.909 71.3009 18.099 72.2285 16.7533L72.3069 16.6358L74.2666 18.099L74.2012 18.2035C72.934 20.0848 70.6869 21.2475 68.0609 21.2475C63.4622 21.2475 60.2222 17.9422 60.2222 13.4349C60.2222 8.92768 63.4622 5.62235 68.0609 5.62235C70.7261 5.60928 73.0907 6.81122 74.2666 8.7709ZM77.5588 20.9471H75.3117V5.46558H77.5588V20.9471ZM90.6756 20.9471H88.4416V19.7059C87.7361 20.6204 86.6779 21.2083 85.2146 21.2083C82.3535 21.2083 80.0933 18.9351 80.0933 15.7866C80.0933 12.638 82.3535 10.3648 85.2146 10.3648C86.6648 10.3648 87.723 10.9657 88.4416 11.8803V10.6391H90.6756V20.9471ZM82.4058 15.7996C82.4058 17.6025 83.5685 19.105 85.5021 19.105C87.3572 19.105 88.5984 17.6809 88.5984 15.7996C88.5984 13.9183 87.3572 12.4943 85.5021 12.4943C83.5685 12.4943 82.4058 13.9967 82.4058 15.7996ZM100.134 10.6653L99.5987 12.8862C99.1284 12.638 98.449 12.5074 97.9003 12.5074C96.4763 12.5074 95.4572 13.5133 95.4572 15.277V20.9471H93.2232V10.6522H95.4311V11.8149C96.1105 10.8351 97.1556 10.3909 98.4098 10.3909C99.0892 10.3778 99.6118 10.4693 100.134 10.6653ZM104.119 7.08558C104.119 7.97397 103.427 8.65332 102.538 8.65332C101.65 8.65332 100.97 7.97397 100.97 7.08558C100.97 6.19719 101.65 5.4917 102.538 5.4917C103.427 5.4917 104.119 6.19719 104.119 7.08558ZM103.675 20.9471H101.428V10.6522H103.675V20.9471Z" fill="#0F0934"/>
<path d="M52.3819 6.18433L44.0337 8.45756C44.3734 10.0253 44.5432 11.6845 44.5432 13.4351C44.5432 15.1727 44.3603 16.845 44.0337 18.4127L52.3819 20.686C52.9176 18.4258 53.1919 15.9435 53.1919 13.4482C53.1919 10.9529 52.9176 8.44449 52.3819 6.18433Z" fill="#0F0934"/>
<path d="M31.2338 3.83301L25.7336 13.4224L34.4477 6.89011C33.6116 5.63591 32.5272 4.60382 31.2338 3.83301Z" fill="#0F0934"/>
<path d="M31.2338 23.0117L25.7336 13.4224L34.4477 19.9546C33.6116 21.2088 32.5272 22.2409 31.2338 23.0117Z" fill="#0F0934"/>
<path d="M41.2804 1.75562L25.7336 13.4223L44.0371 8.44466C43.5014 5.9624 42.5608 3.7153 41.2804 1.75562Z" fill="#0F0934"/>
<path d="M41.2804 25.089L25.7336 13.4224L44.0371 18.4C43.5014 20.8822 42.5608 23.1293 41.2804 25.089Z" fill="#0F0934"/>
</svg>
