<svg width="169" height="64" viewBox="0 0 169 64" fill="none" xmlns="http://www.w3.org/2000/svg">
<path d="M116.86 47.6539C116.579 47.3716 116.438 46.9481 116.438 46.5247V15.1881C116.438 14.7646 116.579 14.3412 116.86 14.0589C117.142 13.7766 117.565 13.6354 117.987 13.6354H123.395C123.817 13.6354 124.099 13.7766 124.38 14.0589C124.803 14.3412 124.944 14.7646 124.944 15.3293V46.6376C124.944 47.0611 124.803 47.4845 124.38 47.908C124.099 48.1903 123.676 48.3315 123.395 48.3315H117.987C117.593 48.2185 117.283 48.0774 116.86 47.6539ZM116.579 7.6504C116.297 7.36809 116.156 6.94462 116.156 6.52115V1.69362C116.156 1.27016 116.297 0.84669 116.579 0.564379C116.86 0.282067 117.283 -0.000244141 117.705 -0.000244141H123.817C124.24 -0.000244141 124.662 0.140912 124.944 0.423223C125.225 0.705534 125.366 1.129 125.366 1.55247V6.38C125.366 6.80346 125.225 7.22693 124.944 7.50924C124.662 7.79155 124.24 7.93271 123.817 7.93271H117.705C117.283 8.07386 116.86 7.93271 116.579 7.6504Z" fill="#92C039"/>
<path d="M0.426382 63.5025C0.144731 63.2209 0.00390625 62.7984 0.00390625 62.2351V58.2638C0.00390625 57.8413 0.144731 57.4189 0.426382 56.9964C0.708032 56.7147 1.13051 56.4331 1.55298 56.4331H3.27105C5.12994 56.4331 6.39737 55.8698 6.96067 54.884C7.52397 53.8982 7.94645 52.321 7.94645 50.3494V15.1431C7.94645 14.5798 8.08727 14.1574 8.36892 13.8757C8.65058 13.5941 9.07305 13.4532 9.49553 13.4532H15.3539C15.7763 13.4532 16.1988 13.5941 16.4805 13.8757C16.7621 14.1574 16.9029 14.5798 16.9029 15.1431V50.4339C16.9029 54.6869 15.7763 57.954 13.6358 60.3762C11.4952 62.7984 8.36892 63.925 4.116 63.925H1.55298C1.13051 63.925 0.708032 63.7842 0.426382 63.5025ZM25.8594 44.7728C23.578 42.0689 22.4514 38.5201 22.4514 33.8447V15.3966C22.4514 14.9741 22.5923 14.5517 22.8739 14.27C23.1556 13.9884 23.578 13.8475 24.0005 13.8475H29.8307C30.2532 13.8475 30.5348 13.9884 30.8165 14.27C31.2389 14.5517 31.3798 14.9741 31.3798 15.5374V33.7039C31.3798 39.1116 33.6611 41.7873 38.1957 41.7873C40.4771 41.7873 42.167 41.0831 43.4626 39.6467C44.73 38.2385 45.4623 36.2387 45.4623 33.6757V15.3684C45.4623 14.946 45.6031 14.5235 45.8848 14.2418C46.1664 13.9602 46.5889 13.8194 47.0114 13.8194H52.8415C53.264 13.8194 53.6865 13.9602 53.9681 14.2418C54.2498 14.5235 54.3906 14.946 54.3906 15.3684V46.6035C54.3906 47.026 54.2498 47.4484 53.9681 47.7301C53.6865 48.0117 53.264 48.1526 52.8415 48.1526H47.7155C47.293 48.1526 46.8705 48.0117 46.5889 47.7301C46.3072 47.4484 46.1664 47.026 46.1664 46.6035V43.8996C43.7442 47.1668 40.1954 48.8567 35.3792 48.8567C31.3798 48.744 28.1126 47.4766 25.8594 44.7728ZM60.7841 47.6174C60.5024 47.3358 60.3616 46.9133 60.3616 46.4908V15.2276C60.3616 14.8051 60.5024 14.3827 60.7841 14.101C61.0657 13.8194 61.4882 13.6785 61.9107 13.6785H67.0367C67.4592 13.6785 67.8817 13.8194 68.1633 14.101C68.445 14.3827 68.5858 14.8051 68.5858 15.2276V17.509C70.8672 14.5235 73.9935 13.1152 77.9647 13.1152C82.781 13.1152 86.0481 15.115 88.0478 18.9454C89.0336 17.2273 90.6109 15.8191 92.4416 14.6925C94.2723 13.5659 96.4129 13.1434 98.5534 13.1434C102.102 13.1434 104.947 14.4108 107.228 16.833C109.51 19.2552 110.636 22.804 110.636 27.4794V46.2373C110.636 46.6598 110.495 47.0823 110.214 47.3639C109.932 47.6456 109.51 47.7864 109.087 47.7864H103.82C103.82 47.7864 102.975 47.7864 102.694 47.5048C102.412 47.2231 102.271 46.8006 102.271 46.3782V27.9301C102.13 25.0854 101.567 23.1138 100.412 21.9591C99.2857 20.6916 97.7084 20.1002 95.8777 20.1002C94.1597 20.1002 92.7514 20.6635 91.6248 21.9591C90.4982 23.2265 89.7659 25.2262 89.7659 27.9301V46.3782C89.7659 46.8006 89.6251 47.2231 89.3434 47.5048C89.0618 47.7864 88.2168 48.0681 88.2168 48.0681H82.6683C82.2458 48.0681 81.8234 47.9272 81.5417 47.6456C81.2601 47.3639 81.1192 46.9415 81.1192 46.519V28.0709C81.1192 25.367 80.5559 23.3955 79.4012 22.0999C78.2746 20.8325 76.6973 20.241 74.8666 20.241C73.1485 20.241 71.7403 20.8043 70.4729 22.0999C69.2054 23.3673 68.614 25.367 68.614 28.0709V46.519C68.614 46.9415 68.4731 47.3639 68.1915 47.6456C67.9098 47.9272 67.4874 48.0681 67.0649 48.0681H61.5164C61.4882 48.1807 61.0657 48.0399 60.7841 47.6174ZM134.182 44.7728C131.478 42.0689 129.929 38.5201 129.648 33.8447V31V28.1554C129.929 23.48 131.366 19.9312 134.182 17.2273C137.027 14.5235 140.857 13.2561 145.955 13.2561C150.912 13.2561 154.771 14.5235 157.587 17.2273C160.432 19.9312 161.84 23.48 162.122 28.1554C162.122 28.7187 162.122 29.7045 162.122 31C162.122 32.4083 162.122 33.4222 162.122 33.8447C161.84 38.5201 160.404 42.2097 157.587 44.7728C154.883 47.4766 150.912 48.744 145.814 48.744C140.857 48.6032 136.886 47.3358 134.182 44.7728ZM151.222 39.7875C152.489 38.3793 153.081 36.2387 153.222 33.3941C153.222 32.9716 153.222 32.1266 153.222 30.8311C153.222 29.5636 153.222 28.6905 153.222 28.268C153.081 25.4234 152.518 23.311 151.222 21.8746C149.926 20.4382 148.237 19.5932 145.955 19.5932C143.674 19.5932 141.843 20.2973 140.688 21.8746C139.421 23.2828 138.689 25.5642 138.689 28.268V30.8311V33.3941C138.829 36.2387 139.393 38.3511 140.688 39.7875C141.956 41.1958 143.674 41.9281 145.955 41.9281C148.237 41.9281 150.095 41.224 151.222 39.7875ZM9.24204 8.13003C8.81957 8.13003 8.53791 7.98921 8.25626 7.70756C7.83379 7.42591 7.55214 7.00343 7.55214 6.58096V1.76473C7.55214 1.34226 7.69296 0.91978 7.97461 0.63813C8.25626 0.35648 8.67874 0.0748291 9.24204 0.0748291H15.3539C15.7763 0.0748291 16.1988 0.215654 16.4805 0.497305C16.7621 0.778955 16.9029 1.20143 16.9029 1.62391V6.44013C16.9029 6.86261 16.7621 7.28508 16.4805 7.56673C16.1988 7.84838 15.6355 8.13003 15.213 8.13003H9.24204ZM166.009 41.7873C167.727 41.7873 169.135 43.1955 168.994 45.0544C168.994 46.7725 167.445 48.1807 165.727 48.0399C164.178 47.8991 162.882 46.6316 162.882 44.9136C162.882 43.1955 164.15 41.7873 166.009 41.7873ZM165.868 42.4914C164.741 42.4914 163.868 43.1955 163.586 44.3503C163.164 46.2092 164.291 47.6174 166.009 47.6174C167.276 47.6174 168.431 46.4908 168.431 45.0544C168.431 43.618 167.276 42.4914 165.868 42.4914ZM165.445 46.7443H164.741V43.4772C165.164 43.4772 165.445 43.3363 165.868 43.3363C166.431 43.3363 166.713 43.4772 166.854 43.618C166.994 43.7588 167.135 44.0405 167.135 44.3221C167.135 44.7446 166.713 45.0262 166.713 45.0262C166.713 45.0262 166.994 45.4487 166.994 45.8712C167.135 46.2937 167.135 46.5753 167.276 46.7161H166.713C166.572 46.5753 166.572 46.2937 166.431 45.8712C166.29 45.4487 166.15 45.3079 165.727 45.3079H165.445V46.7443ZM165.445 44.9136H165.868C166.29 44.9136 166.713 44.7728 166.713 44.3503C166.713 44.0686 166.572 43.787 166.009 43.787C165.727 43.787 165.586 43.787 165.586 43.787L165.445 44.9136Z" fill="#0F0934"/>
</svg>
