<svg width="131" height="28" viewBox="0 0 131 28" fill="none" xmlns="http://www.w3.org/2000/svg">
<g clip-path="url(#clip0_1941_6373)">
<path d="M23.1812 16.3952C22.2554 18.425 20.3847 19.6316 18.2049 19.6316C15.0802 19.6316 12.5535 16.9124 12.5535 13.5611C12.5535 10.2098 15.0994 7.49024 18.2049 7.49024C20.4617 7.49024 22.2746 8.67739 23.1812 10.7266L23.2199 10.8226H25.573L25.4959 10.5927C24.454 7.33685 21.6574 5.32642 18.2049 5.32642C13.8458 5.32642 10.3163 9.00319 10.3163 13.5417C10.3163 18.0802 13.8458 21.7764 18.2049 21.7764C21.6187 21.7764 24.4156 19.7465 25.4955 16.4911L25.5726 16.2612H23.2387L23.1812 16.3952ZM32.4971 19.6891C30.4527 19.6891 28.7939 17.8891 28.7939 15.6674C28.7939 13.4077 30.4527 11.5884 32.4971 11.5884C34.5415 11.5884 36.2582 13.4652 36.2582 15.6674C36.239 17.8507 34.5223 19.6891 32.4971 19.6891ZM36.3161 11.2629C35.8516 10.7016 35.2691 10.2478 34.6094 9.93356C33.9497 9.61928 33.2288 9.45204 32.4971 9.44357C29.1604 9.44357 26.5371 12.1627 26.5371 15.6484C26.5371 19.1147 29.1604 21.8339 32.4971 21.8339C33.2305 21.8244 33.9529 21.6548 34.6129 21.3371C35.2729 21.0194 35.8544 20.5613 36.3161 19.9955V21.5465H38.4954V9.73094H36.3161V11.2629ZM45.8826 9.44357C45.2912 9.43678 44.7044 9.54861 44.1576 9.77235C43.6107 9.99609 43.115 10.3271 42.7 10.7457V9.73056H40.5207V21.5461H42.7775V14.365C42.7775 12.718 43.9731 11.5309 45.6319 11.5309C47.04 11.5309 48.0045 12.3542 48.2356 13.7331V13.7716L50.4729 13.7526V13.6951C50.1647 11.0905 48.4289 9.44357 45.8826 9.44357Z" fill="#0F0934"/>
<path d="M17.7041 11.7607H19.17V16.0313H17.7041V11.7607Z" fill="#0F0934"/>
<path d="M21.1556 13.2547C21.6244 13.2547 22.0044 12.8774 22.0044 12.412C22.0044 11.9466 21.6244 11.5693 21.1556 11.5693C20.6869 11.5693 20.3069 11.9466 20.3069 12.412C20.3069 12.8774 20.6869 13.2547 21.1556 13.2547Z" fill="#0F0934"/>
<path d="M15.697 13.2547C16.1658 13.2547 16.5458 12.8774 16.5458 12.412C16.5458 11.9466 16.1658 11.5693 15.697 11.5693C15.2283 11.5693 14.8483 11.9466 14.8483 12.412C14.8483 12.8774 15.2283 13.2547 15.697 13.2547Z" fill="#0F0934"/>
<path d="M97.0781 21.7253C94.247 21.7253 92.192 19.685 92.192 16.8741V9.85864H94.1718V16.8737C94.1718 18.6225 95.34 19.7977 97.0781 19.7977C98.8049 19.7977 99.9649 18.6225 99.9649 16.8737V9.85864H101.964V16.8737C101.964 19.6854 99.9089 21.7253 97.0781 21.7253ZM74.0482 21.7253C71.2171 21.7253 69.1621 19.685 69.1621 16.8741V9.85864H71.1419V16.8737C71.1419 18.6225 72.3101 19.7977 74.0482 19.7977C75.775 19.7977 76.935 18.6225 76.935 16.8737V9.85864H78.9343V16.8737C78.9343 19.6854 76.8793 21.7253 74.0482 21.7253ZM108.998 14.0586C106.645 13.6948 106.22 13.3884 106.22 12.7565C106.22 11.9523 107.301 11.3205 108.67 11.3205C110.097 11.3205 111.043 11.9523 111.274 13.0249L111.312 13.1589H113.588L113.569 12.9674C113.318 10.6692 111.448 9.23315 108.69 9.23315C105.449 9.23315 103.983 11.0906 103.983 12.8144C103.983 15.0932 105.758 15.8019 108.632 16.2038C111.409 16.5677 111.622 17.123 111.622 17.8123C111.622 18.655 110.696 19.5167 108.902 19.5167C107.263 19.5167 106.067 18.7315 105.835 17.4869L105.816 17.3529H103.559L103.579 17.5443C103.906 20.0146 105.99 21.6234 108.902 21.6234C111.834 21.6234 113.801 20.053 113.801 17.7168C113.82 15.0353 111.737 14.48 108.998 14.0586ZM59.0231 13.7907V15.7631H63.9802L64.0381 15.6671C64.1809 15.3622 64.2847 15.0405 64.3467 14.7095C64.4098 14.4065 64.4486 14.0993 64.4625 13.7903L59.0231 13.7907Z" fill="#0F0934"/>
<path d="M65.3469 13.7907C65.2311 17.0846 62.8394 19.5742 59.8113 19.5742C56.6482 19.5742 54.0637 16.8551 54.0637 13.5418C54.0637 10.2095 56.6482 7.49033 59.8113 7.49033C61.9523 7.49033 63.7847 8.69689 64.7297 10.7267L64.7684 10.8226H67.1793L67.1023 10.5927C65.9645 7.33731 63.1096 5.25 59.8117 5.25C55.3947 5.25 51.8073 8.96522 51.8073 13.5227C51.8073 18.0803 55.3947 21.7955 59.8117 21.7955C60.8094 21.7988 61.7978 21.6041 62.7186 21.2226C63.6395 20.8411 64.4741 20.2807 65.1736 19.5742C65.9265 18.8108 66.5189 17.9063 66.9163 16.9134C67.3137 15.9205 67.5082 14.859 67.4883 13.7907H65.3469ZM86.3316 9.44366C85.7402 9.43687 85.1535 9.5487 84.6066 9.77244C84.0597 9.99618 83.564 10.3272 83.1491 10.7458V9.73065H80.9697V21.5462H83.2265V14.3651C83.2265 12.7181 84.4222 11.531 86.0809 11.531C87.489 11.531 88.4535 12.3543 88.6847 13.7332V13.7717L90.9219 13.7526V13.6952C90.6137 11.0906 88.8779 9.44366 86.3316 9.44366ZM117.54 9.53957C117.519 9.50176 117.495 9.46591 117.467 9.43247C117.441 9.40146 117.411 9.37465 117.377 9.35297C117.567 9.31977 117.74 9.22266 117.866 9.07792C117.977 8.93872 118.034 8.76555 118.029 8.58828C118.036 8.48077 118.017 8.37319 117.973 8.27483C117.928 8.17646 117.861 8.09026 117.775 8.02363C117.54 7.87838 117.264 7.81132 116.988 7.83218H116.103V10.561H116.584V9.47874H116.828C116.868 9.47621 116.909 9.48351 116.947 9.50001C116.973 9.51532 116.995 9.53621 117.013 9.56122L117.635 10.4849C117.65 10.51 117.672 10.5304 117.698 10.544C117.724 10.5575 117.753 10.5635 117.783 10.5614H118.242L117.539 9.54032L117.54 9.53957ZM116.939 9.12943H116.585V8.19941H116.988C117.079 8.19754 117.17 8.20687 117.258 8.22665C117.322 8.24083 117.382 8.26882 117.434 8.30913C117.478 8.34608 117.512 8.39497 117.53 8.44983C117.551 8.51402 117.561 8.58119 117.56 8.64874C117.564 8.71458 117.554 8.78055 117.53 8.84209C117.506 8.90363 117.469 8.95927 117.421 9.00515C117.28 9.1025 117.109 9.1466 116.939 9.12943Z" fill="#0F0934"/>
<path d="M59.7126 12.4307C60.2026 12.4307 60.5997 12.0364 60.5997 11.5499C60.5997 11.0635 60.2026 10.6692 59.7126 10.6692C59.2227 10.6692 58.8256 11.0635 58.8256 11.5499C58.8256 12.0364 59.2227 12.4307 59.7126 12.4307Z" fill="#0F0934"/>
<path d="M63.0901 12.4307C63.58 12.4307 63.9772 12.0364 63.9772 11.5499C63.9772 11.0635 63.58 10.6692 63.0901 10.6692C62.6002 10.6692 62.203 11.0635 62.203 11.5499C62.203 12.0364 62.6002 12.4307 63.0901 12.4307Z" fill="#0F0934"/>
<path d="M117.072 11.4687C116.619 11.4686 116.177 11.3353 115.801 11.0856C115.425 10.8359 115.131 10.4811 114.958 10.0659C114.785 9.65077 114.74 9.19396 114.828 8.75326C114.916 8.31256 115.134 7.90776 115.454 7.59003C115.774 7.2723 116.182 7.05592 116.626 6.96824C117.07 6.88056 117.53 6.92552 117.948 7.09744C118.366 7.26936 118.724 7.56052 118.975 7.93409C119.226 8.30767 119.361 8.7469 119.361 9.19624C119.36 9.79877 119.119 10.3765 118.69 10.8025C118.261 11.2286 117.679 11.4682 117.072 11.4687ZM117.072 7.29254C116.693 7.29269 116.322 7.40449 116.007 7.61382C115.691 7.82315 115.446 8.1206 115.301 8.46856C115.156 8.81652 115.118 9.19936 115.192 9.56867C115.266 9.93799 115.449 10.2772 115.717 10.5434C115.985 10.8096 116.327 10.9908 116.699 11.0642C117.071 11.1376 117.457 11.0998 117.807 10.9556C118.158 10.8114 118.457 10.5673 118.668 10.2541C118.878 9.94095 118.991 9.57281 118.991 9.19624C118.99 8.6913 118.788 8.20721 118.428 7.85027C118.068 7.49333 117.581 7.29274 117.072 7.29254Z" fill="#0F0934"/>
</g>
<defs>
<clipPath id="clip0_1941_6373">
<rect width="110.714" height="17.5" fill="white" transform="translate(9.479 5.25)"/>
</clipPath>
</defs>
</svg>
