<svg width="131" height="28" viewBox="0 0 131 28" fill="none" xmlns="http://www.w3.org/2000/svg">
<g clip-path="url(#clip0_1941_6362)">
<path d="M54.5893 7.85136H43.816V10.2226H47.7936V20.3309H50.616V10.2226H54.5936V7.85136M65.1256 16.0938C64.9084 16.6387 64.555 17.1193 64.0988 17.4901C63.6426 17.8609 63.0989 18.1095 62.5191 18.2124C62.304 18.2507 62.0859 18.2704 61.8674 18.2713C61.6432 18.2713 61.4231 18.2503 61.2116 18.2124C60.6322 18.1096 60.089 17.8609 59.6335 17.4901C59.1779 17.1193 58.8253 16.6386 58.6092 16.0938C58.3572 15.4552 58.228 14.7751 58.2284 14.089C58.2285 13.4043 58.3577 12.7257 58.6092 12.0884C58.8251 11.5431 59.1776 11.0617 59.633 10.6902C60.0885 10.3187 60.6319 10.0693 61.2116 9.96568C61.6451 9.88584 62.0897 9.88584 62.5233 9.96568C63.1025 10.0689 63.6456 10.3176 64.101 10.6884C64.5565 11.0592 64.9092 11.5396 65.1256 12.0842C65.6308 13.3735 65.6308 14.8046 65.1256 16.0938ZM61.8674 7.47651C60.1049 7.47651 58.4146 8.17341 57.1684 9.41389C55.9221 10.6544 55.2219 12.3368 55.2219 14.0911C55.2219 15.8454 55.9221 17.5279 57.1684 18.7684C58.4146 20.0089 60.1049 20.7057 61.8674 20.7057C63.6299 20.7057 65.3202 20.0089 66.5665 18.7684C67.8128 17.5279 68.5129 15.8454 68.5129 14.0911C68.5129 12.3368 67.8128 10.6544 66.5665 9.41389C65.3202 8.17341 63.6299 7.47651 61.8674 7.47651ZM68.5531 7.85557H71.8791L74.9807 13.2172L78.0824 7.85136H81.4041L76.3898 15.7148V20.3309H73.5716V15.7148L68.5531 7.85136M88.1025 18.2713C88.3225 18.2713 88.5425 18.2503 88.7541 18.2124C89.3334 18.1096 89.8767 17.8609 90.3322 17.4901C90.7877 17.1193 91.1403 16.6386 91.3564 16.0938C91.8647 14.8066 91.8647 13.3756 91.3564 12.0884C91.1403 11.5436 90.7877 11.063 90.3322 10.6921C89.8767 10.3213 89.3334 10.0727 88.7541 9.96989C88.3203 9.89245 87.8761 9.89245 87.4423 9.96989C86.8638 10.0733 86.3214 10.3223 85.8667 10.6931C85.412 11.0639 85.06 11.5442 84.8442 12.0884C84.5926 12.7257 84.4635 13.4043 84.4634 14.089C84.4634 14.7966 84.5988 15.4747 84.8442 16.0938C85.06 16.6388 85.4125 17.1197 85.8681 17.4906C86.3237 17.8615 86.8671 18.11 87.4466 18.2124C87.663 18.2512 87.8825 18.2709 88.1025 18.2713ZM81.4591 14.089C81.4591 12.3353 82.159 10.6534 83.4049 9.41327C84.6507 8.17318 86.3405 7.47651 88.1025 7.47651C89.8644 7.47651 91.5542 8.17318 92.8 9.41327C94.0459 10.6534 94.7458 12.3353 94.7458 14.089C94.7458 15.8428 94.0459 17.5247 92.8 18.7648C91.5542 20.0049 89.8644 20.7015 88.1025 20.7015C86.3405 20.7015 84.6507 20.0049 83.4049 18.7648C82.159 17.5247 81.4591 15.8428 81.4591 14.089ZM113.986 15.3947L112.141 10.4627L110.292 15.3905H113.986M114.803 17.5764H109.471L108.443 20.3225H105.303L110.381 7.84294H113.893L118.971 20.3225H115.84L114.803 17.5764ZM106.133 7.85136H95.3594V10.2226H99.337V20.3309H102.159V10.2226H106.128V7.85136M32.3065 6.20034C30.3426 5.60771 28.2991 5.31795 26.247 5.34113C24.195 5.31795 22.1515 5.60771 20.1876 6.20034C15.7022 7.63656 12.6133 10.6185 12.6133 14.0553C12.6133 18.8947 18.7066 22.8411 26.247 22.8411C33.7706 22.8411 39.8808 18.9115 39.8808 14.0553C39.8808 10.6185 36.8003 7.63656 32.3065 6.20034ZM26.247 19.0716C25.1215 19.0716 24.2032 16.8814 24.1525 14.1059C24.821 14.1775 25.5235 14.1943 26.247 14.1943C26.9664 14.1943 27.673 14.1606 28.3458 14.1101C28.2908 16.8772 27.3726 19.0716 26.247 19.0716ZM24.2921 11.9536C24.5883 10.0036 25.35 8.63896 26.247 8.63896C27.1272 8.63896 27.8846 10.0036 28.202 11.9494C26.9013 12.0652 25.593 12.0666 24.2921 11.9536ZM29.3995 11.7936C28.9425 8.76111 27.7069 6.57098 26.247 6.57098C24.7872 6.57098 23.5516 8.74426 23.0946 11.7936C20.3272 11.3556 18.3892 10.3911 18.3892 9.24967C18.3892 7.70816 21.914 6.46147 26.247 6.46147C30.58 6.46147 34.1091 7.70816 34.1091 9.24967C34.1091 10.3869 32.1711 11.3724 29.4037 11.7936H29.3995ZM14.6021 13.7394C14.6021 12.2485 15.186 10.8628 16.1889 9.65401C16.1719 9.73824 16.1719 9.8309 16.1719 9.89829C16.1719 11.7768 18.9901 13.352 22.9169 13.95V14.3712C22.9169 17.8417 23.8901 20.79 25.2273 21.805C19.2736 21.4554 14.6063 17.9807 14.6063 13.7394H14.6021ZM27.271 21.8261C28.6082 20.8068 29.5772 17.8586 29.5772 14.3881V13.9669C33.504 13.3899 36.3221 11.7936 36.3221 9.91935C36.3221 9.8309 36.3221 9.74245 36.3052 9.67085C37.3047 10.8019 37.8672 12.2501 37.892 13.7563C37.892 17.9807 33.2247 21.4555 27.271 21.8219V21.8261Z" fill="#0F0934"/>
</g>
<defs>
<clipPath id="clip0_1941_6362">
<rect width="106.373" height="17.5" fill="white" transform="translate(12.603 5.34155)"/>
</clipPath>
</defs>
</svg>
