<svg width="131" height="28" viewBox="0 0 131 28" fill="none" xmlns="http://www.w3.org/2000/svg">
<g clip-path="url(#clip0_1941_6311)">
<path d="M27.3125 2.92944C34.1313 2.92944 39.6572 8.23456 39.6572 14.7781C39.6571 21.3215 34.1312 26.6267 27.3125 26.6267C20.4939 26.6266 14.9659 21.3215 14.9658 14.7781C14.9658 8.23462 20.4938 2.92954 27.3125 2.92944ZM31.6973 3.97437C29.1295 3.98315 26.2962 5.03916 24.2275 6.68042C22.1091 8.36521 20.4488 11.2057 20.46 14.155C20.4758 18.6174 24.0053 21.3955 27.3965 21.3845C31.5839 21.3715 34.0608 18.0711 34.0518 15.0583C34.0403 12.048 32.3347 9.87134 28.5762 8.99194C28.5671 8.95496 28.5606 8.8746 28.5605 8.79858C28.5537 6.52379 30.3412 4.51632 32.5869 4.07007C32.376 4.00041 32.0285 3.97437 31.6973 3.97437Z" fill="#0F0934"/>
<path d="M47.6447 19.6847L43.8701 11.0405H46.3359L48.6905 16.7808L50.9725 11.0405H53.327L49.6636 19.6847H47.6447Z" fill="#0F0934"/>
<path d="M59.8601 15.3181C59.8601 14.9589 59.817 14.6172 59.7285 14.2928C59.6423 13.9685 59.5108 13.6898 59.3361 13.4569C59.1614 13.2218 58.9505 13.0368 58.701 12.8997C58.4514 12.7603 58.1588 12.6907 57.8231 12.6907C57.4874 12.6907 57.1925 12.7603 56.9452 12.8997C56.6957 13.0368 56.4825 13.2218 56.3101 13.4569C56.1354 13.6898 56.0038 13.9685 55.9176 14.2928C55.8292 14.6172 55.7861 14.9589 55.7861 15.3181C55.7861 15.6903 55.8292 16.0364 55.9176 16.3542C56.0039 16.6721 56.1309 16.9507 56.2987 17.1902C56.4666 17.4296 56.6798 17.619 56.9362 17.7583C57.1902 17.8954 57.4874 17.9651 57.8231 17.9651C58.1588 17.9651 58.4514 17.8954 58.701 17.7583C58.9505 17.619 59.1614 17.4296 59.3361 17.1902C59.5108 16.9507 59.6423 16.6721 59.7285 16.3542C59.817 16.0364 59.8601 15.6903 59.8601 15.3181ZM62.1399 15.3276C62.1399 15.8914 62.0491 16.4443 61.8699 16.9885C61.6884 17.5327 61.4208 18.0181 61.0646 18.4491C60.7108 18.8801 60.2616 19.2263 59.7195 19.4897C59.1773 19.7531 58.5444 19.8837 57.8231 19.8837C57.0995 19.8837 56.4666 19.753 55.9267 19.4897C55.3846 19.2263 54.9354 18.8801 54.5793 18.4491C54.2254 18.0181 53.9578 17.5327 53.7763 16.9885C53.5971 16.4443 53.5063 15.8914 53.5063 15.3276C53.5063 14.766 53.5971 14.2174 53.7763 13.6775C53.9578 13.1399 54.2254 12.6588 54.5793 12.2343C54.9354 11.8098 55.3846 11.4702 55.9267 11.2134C56.4666 10.9565 57.0995 10.8259 57.8231 10.8259C58.5444 10.8259 59.1751 10.9566 59.7104 11.2134C60.2457 11.4702 60.6949 11.8098 61.0556 12.2343C61.4185 12.6588 61.6884 13.1399 61.8699 13.6775C62.0491 14.2174 62.1399 14.766 62.1399 15.3276Z" fill="#0F0934"/>
<path d="M69.1333 12.9432C68.6865 12.7755 68.2713 12.6906 67.8857 12.6906C67.491 12.6906 67.1485 12.7647 66.8649 12.9083C66.5791 13.0519 66.3432 13.2457 66.1572 13.4917C65.9712 13.7377 65.8328 14.0141 65.7398 14.3211C65.6468 14.6258 65.5992 14.9415 65.5992 15.2658C65.5992 15.625 65.64 15.9689 65.7217 16.2998C65.8011 16.6285 65.9258 16.918 66.0937 17.164C66.2593 17.41 66.4702 17.6081 66.7243 17.7583C66.9784 17.9063 67.2801 17.9825 67.6271 17.9825C67.9129 17.9825 68.2033 17.9064 68.5004 17.7583C68.7976 17.6081 69.0086 17.4296 69.1333 17.2271L69.1333 12.9432ZM69.3193 19.6848L69.2263 19.023C69.0154 19.2494 68.7364 19.4497 68.387 19.6216C68.04 19.7958 67.6294 19.8829 67.1576 19.8829C66.5383 19.8829 65.9893 19.7566 65.5198 19.5063C65.0457 19.2559 64.6487 18.9207 64.3266 18.5028C64.0045 18.0848 63.7572 17.5994 63.5894 17.0486C63.4238 16.5001 63.3398 15.9254 63.3398 15.3268C63.3398 14.7652 63.4261 14.2144 63.5984 13.6768C63.7731 13.1391 64.0362 12.658 64.3901 12.2335C64.7463 11.809 65.1886 11.4695 65.7239 11.2126C66.257 10.9557 66.8853 10.8251 67.6044 10.8251C68.0763 10.8251 68.5866 10.9099 69.1333 11.0754V7.72314H71.4494V19.6848H69.3193Z" fill="#0F0934"/>
<path d="M77.9945 15.6314C77.745 15.644 77.4864 15.6663 77.2233 15.6945C76.9601 15.725 76.7106 15.7642 76.4724 15.8121C75.9688 15.9078 75.6218 16.0711 75.4267 16.3041C75.2339 16.5392 75.1363 16.7917 75.1363 17.0681C75.1363 17.3533 75.2452 17.584 75.4652 17.7582C75.6853 17.9301 75.9938 18.0172 76.3953 18.0172C76.697 18.0172 76.9896 17.9584 77.2709 17.8387C77.5522 17.719 77.7949 17.5688 77.9945 17.3903V15.6314ZM78.1805 19.6781L78.0898 19.0316C77.838 19.2971 77.5204 19.5061 77.1325 19.6563C76.7446 19.8066 76.3204 19.8827 75.8577 19.8827C75.4698 19.8827 75.0955 19.8195 74.7416 19.6933C74.3832 19.5693 74.0679 19.3886 73.7935 19.1557C73.519 18.9227 73.2967 18.6376 73.1288 18.2958C72.9587 17.954 72.8748 17.5688 72.8748 17.1377C72.8748 16.7089 72.9609 16.328 73.1379 15.9993C73.3126 15.6706 73.5485 15.3941 73.8502 15.1655C74.1496 14.9392 74.4944 14.7541 74.8823 14.6105C75.2679 14.4669 75.6762 14.3579 76.1004 14.2861C76.3998 14.2273 76.7288 14.1837 77.0849 14.1532C77.441 14.1228 77.7382 14.0967 77.9764 14.0727V13.9465C77.9764 13.4676 77.8493 13.128 77.5907 12.9234C77.3344 12.7209 76.9806 12.6186 76.5314 12.6186C76.2683 12.6186 76.0165 12.6491 75.7783 12.7101C75.5401 12.7688 75.3292 12.8429 75.1409 12.9321C74.9526 13.0236 74.787 13.1128 74.6418 13.202C74.4989 13.2913 74.3832 13.3718 74.2948 13.4437L73.5281 11.8851C73.6279 11.8002 73.7798 11.7 73.9863 11.5803C74.1927 11.4606 74.4399 11.343 74.7348 11.2298C75.0275 11.1166 75.3564 11.0208 75.7239 10.9425C76.0913 10.8641 76.4883 10.825 76.9102 10.825C77.4093 10.825 77.8652 10.8882 78.2758 11.0144C78.6864 11.1406 79.0425 11.3365 79.3419 11.6064C79.6391 11.8742 79.8727 12.2138 80.0429 12.6274C80.2107 13.0388 80.2947 13.5373 80.2947 14.1228V19.6781H78.1805Z" fill="#0F0934"/>
<path d="M87.4566 9.6954C87.3818 9.66065 87.2366 9.60836 87.0188 9.54297C86.7988 9.47773 86.5107 9.44503 86.1478 9.44503C85.8256 9.44503 85.5534 9.53871 85.3357 9.72367C85.1179 9.9087 85.009 10.2113 85.009 10.6292V11.0406H86.953V12.8343H85.0272V19.6848H82.7089V12.8343H81.5134V11.0406H82.7089V10.5748C82.7089 10.0132 82.7837 9.53865 82.9334 9.14899C83.0831 8.76152 83.2918 8.4437 83.5595 8.19989C83.8272 7.95391 84.1425 7.77324 84.5032 7.66004C84.8661 7.54678 85.2585 7.49023 85.6827 7.49023C86.243 7.49023 86.7058 7.5403 87.0733 7.64267C87.4407 7.74503 87.6562 7.81246 87.7175 7.84947L87.4566 9.6954Z" fill="#0F0934"/>
<path d="M93.7307 15.3181C93.7307 14.9589 93.6854 14.6172 93.5992 14.2928C93.513 13.9685 93.3814 13.6898 93.2067 13.4569C93.0321 13.2218 92.8211 13.0368 92.5716 12.8997C92.3221 12.7603 92.0294 12.6907 91.6937 12.6907C91.358 12.6907 91.0631 12.7603 90.8158 12.8997C90.5663 13.0368 90.3531 13.2218 90.1784 13.4569C90.006 13.6898 89.8745 13.9685 89.786 14.2928C89.6998 14.6172 89.6567 14.9589 89.6567 15.3181C89.6567 15.6903 89.6998 16.0364 89.786 16.3542C89.8745 16.6721 90.0015 16.9507 90.1693 17.1902C90.3372 17.4296 90.5504 17.619 90.8045 17.7583C91.0608 17.8954 91.358 17.9651 91.6937 17.9651C92.0294 17.9651 92.3221 17.8954 92.5716 17.7583C92.8211 17.619 93.0321 17.4296 93.2067 17.1902C93.3814 16.9507 93.513 16.6721 93.5992 16.3542C93.6854 16.0364 93.7307 15.6903 93.7307 15.3181ZM96.0105 15.3276C96.0105 15.8914 95.9197 16.4443 95.7383 16.9885C95.5591 17.5327 95.2914 18.0181 94.9352 18.4491C94.5814 18.8801 94.1322 19.2263 93.5901 19.4897C93.0479 19.7531 92.4151 19.8837 91.6937 19.8837C90.9701 19.8837 90.3372 19.753 89.7973 19.4897C89.2552 19.2263 88.806 18.8801 88.4499 18.4491C88.096 18.0181 87.8284 17.5327 87.6469 16.9885C87.4654 16.4443 87.377 15.8914 87.377 15.3276C87.377 14.766 87.4654 14.2174 87.6469 13.6775C87.8284 13.1399 88.096 12.6588 88.4499 12.2343C88.806 11.8098 89.2552 11.4702 89.7973 11.2134C90.3372 10.9565 90.9701 10.8259 91.6937 10.8259C92.4151 10.8259 93.0457 10.9566 93.581 11.2134C94.1163 11.4702 94.5655 11.8098 94.9262 12.2343C95.2891 12.6588 95.5591 13.1399 95.7383 13.6775C95.9197 14.2174 96.0105 14.766 96.0105 15.3276Z" fill="#0F0934"/>
<path d="M103.241 19.6849V14.7544C103.241 14.097 103.098 13.5876 102.812 13.2284C102.524 12.8714 102.127 12.6907 101.615 12.6907C101.254 12.6907 100.921 12.78 100.617 12.9607C100.31 13.1392 100.045 13.3372 99.8204 13.5528V19.6849H97.5044V11.0407H99.6163L99.7274 11.7221C100.09 11.4369 100.496 11.2149 100.952 11.0603C101.406 10.9036 101.864 10.8274 102.325 10.8274C102.799 10.8274 103.234 10.8948 103.634 11.032C104.033 11.1713 104.375 11.389 104.661 11.6872C104.949 11.9854 105.169 12.3751 105.326 12.8518C105.48 13.3307 105.559 13.9054 105.559 14.5737V19.6849H103.241Z" fill="#0F0934"/>
<path d="M112.755 14.3232C112.73 14.0249 112.664 13.7637 112.557 13.5438C112.451 13.3218 112.319 13.1433 112.163 13.0062C112.006 12.8668 111.838 12.7667 111.657 12.6992C111.473 12.634 111.289 12.6013 111.101 12.6013C110.7 12.6013 110.318 12.7449 109.956 13.0323C109.593 13.3196 109.379 13.7485 109.316 14.3232H112.755ZM109.261 15.9187C109.311 16.648 109.547 17.1748 109.974 17.4969C110.398 17.8191 110.949 17.9824 111.623 17.9824C111.936 17.9824 112.231 17.9541 112.505 17.9018C112.78 17.8475 113.025 17.7799 113.238 17.695C113.451 17.6122 113.633 17.5274 113.782 17.4447C113.932 17.3599 114.043 17.2814 114.12 17.2096L114.737 19.0229C114.649 19.0816 114.508 19.1622 114.315 19.2645C114.123 19.3669 113.882 19.4604 113.596 19.5518C113.31 19.6411 112.973 19.7173 112.587 19.7848C112.201 19.85 111.777 19.8827 111.317 19.8827C110.729 19.8827 110.173 19.7934 109.643 19.6149C109.114 19.4343 108.649 19.1556 108.252 18.7791C107.853 18.4025 107.535 17.9344 107.299 17.3728C107.061 16.8112 106.943 16.1408 106.943 15.3636C106.943 14.6344 107.052 13.9879 107.27 13.4263C107.488 12.8646 107.787 12.3922 108.166 12.0091C108.547 11.6282 108.989 11.3343 109.493 11.1297C109.999 10.9273 110.536 10.825 111.11 10.825C111.684 10.825 112.213 10.9164 112.7 11.0949C113.186 11.2734 113.605 11.552 113.962 11.9286C114.315 12.3052 114.597 12.7928 114.801 13.3914C115.007 13.9879 115.109 14.6997 115.109 15.5247V15.9187L109.261 15.9187Z" fill="#0F0934"/>
</g>
<defs>
<clipPath id="clip0_1941_6311">
<rect width="101.709" height="25.9259" fill="white" transform="translate(14.1074 1.81494)"/>
</clipPath>
</defs>
</svg>
