<svg width="1140" height="1300" viewBox="0 0 1140 1300" fill="none" xmlns="http://www.w3.org/2000/svg">
<g clip-path="url(#clip0_1095_6494)">
<path fill-rule="evenodd" clip-rule="evenodd" d="M513.733 -0.972656L958.373 255.027V767.027L513.733 1023.03L69.0938 767.027V255.027L513.733 -0.972656ZM910.373 282.663L513.733 54.2991L117.094 282.663V739.392L513.733 967.756L910.373 739.392V282.663Z" fill="white"/>
<path fill-rule="evenodd" clip-rule="evenodd" d="M513.733 967.757V739.393V511.029L315.414 396.847L117.094 282.665V511.029V739.393L513.733 967.757Z" fill="white"/>
<path d="M712.053 853.575L910.373 739.393L712.053 625.211L513.733 739.393V967.757L712.053 853.575Z" fill="#87E0E1"/>
<path d="M513.733 511.029V739.393L712.053 625.211L513.733 511.029Z" fill="#1B46DD"/>
<path d="M712.053 396.847L513.733 511.029L712.053 625.211L910.373 511.029L712.053 396.847Z" fill="#B068E9"/>
<path d="M712.053 168.483L513.733 54.3008L315.414 168.483L117.094 282.665L315.414 396.847L513.733 282.665L712.053 396.847L910.373 282.665L712.053 168.483Z" fill="#F9DB4E"/>
<path d="M513.733 511.029L712.053 396.847L513.733 282.665L315.414 396.847L513.733 511.029Z" fill="#E94A5D"/>
<path d="M856.222 1071.71L858.642 1075.9L862.791 1073.51C862.974 1073.4 863.162 1073.24 863.355 1073.03C863.547 1072.82 863.699 1072.57 863.809 1072.29C863.929 1072 863.986 1071.67 863.98 1071.31C863.973 1070.95 863.856 1070.58 863.629 1070.18C863.44 1069.86 863.214 1069.6 862.95 1069.42C862.691 1069.22 862.415 1069.09 862.12 1069.03C861.836 1068.96 861.54 1068.95 861.231 1069.01C860.927 1069.06 860.635 1069.16 860.355 1069.32L856.222 1071.71ZM854.97 1061.45C854.97 1061.45 853.802 1062.13 851.466 1063.47L853.622 1067.21L857.109 1065.19C857.292 1065.09 857.459 1064.94 857.608 1064.75C857.752 1064.55 857.854 1064.33 857.917 1064.09C857.984 1063.84 858 1063.57 857.964 1063.28C857.939 1062.99 857.842 1062.7 857.672 1062.4C857.508 1062.12 857.311 1061.89 857.082 1061.72C856.853 1061.54 856.61 1061.42 856.354 1061.35C856.109 1061.27 855.864 1061.25 855.62 1061.27C855.38 1061.28 855.164 1061.34 854.97 1061.45ZM866.257 1078.06L855.391 1084.33L842.534 1062.06L852.48 1056.32C853.631 1055.65 854.743 1055.19 855.816 1054.94C856.888 1054.68 857.902 1054.63 858.857 1054.8C859.811 1054.96 860.688 1055.33 861.486 1055.92C862.284 1056.51 862.983 1057.32 863.581 1058.36C863.84 1058.8 864.02 1059.29 864.121 1059.81C864.233 1060.33 864.278 1060.84 864.256 1061.35C864.227 1061.85 864.138 1062.33 863.99 1062.79C863.846 1063.24 863.651 1063.62 863.403 1063.94C864.012 1063.85 864.64 1063.84 865.287 1063.92C865.928 1063.99 866.547 1064.14 867.144 1064.38C867.734 1064.61 868.283 1064.92 868.79 1065.33C869.297 1065.73 869.72 1066.23 870.061 1066.82C870.792 1068.09 871.175 1069.28 871.21 1070.41C871.256 1071.54 871.067 1072.58 870.644 1073.54C870.221 1074.49 869.613 1075.35 868.819 1076.12C868.037 1076.87 867.183 1077.52 866.257 1078.06Z" fill="white"/>
<path d="M875.35 1043.11L882.438 1039.02L882.147 1057.68L887.012 1066.07L880.926 1069.59L876.095 1061.22L859.818 1052.08L866.858 1048.02L875.956 1054.01L876.005 1053.98L875.35 1043.11Z" fill="white"/>
<path d="M915.425 1039.25L912.946 1034.92L924.312 1028.36C925.512 1030.21 926.299 1032.07 926.672 1033.94C927.051 1035.79 927.055 1037.56 926.686 1039.26C926.322 1040.94 925.611 1042.49 924.554 1043.92C923.491 1045.33 922.125 1046.52 920.456 1047.48C918.777 1048.45 917.024 1049.06 915.196 1049.3C913.38 1049.53 911.617 1049.44 909.907 1049.01C908.209 1048.58 906.632 1047.84 905.178 1046.79C903.717 1045.72 902.521 1044.38 901.588 1042.77C900.649 1041.14 900.09 1039.44 899.912 1037.67C899.728 1035.88 899.874 1034.14 900.35 1032.46C900.836 1030.76 901.638 1029.19 902.755 1027.75C903.877 1026.29 905.277 1025.07 906.956 1024.1C908.646 1023.13 910.4 1022.52 912.217 1022.29C914.044 1022.05 915.841 1022.15 917.608 1022.6L915.969 1028.9C915.025 1028.48 914.027 1028.29 912.974 1028.33C911.921 1028.37 910.904 1028.68 909.925 1029.24C909.085 1029.73 908.397 1030.35 907.861 1031.11C907.318 1031.86 906.942 1032.69 906.734 1033.6C906.529 1034.49 906.496 1035.42 906.633 1036.4C906.781 1037.38 907.126 1038.34 907.668 1039.28C908.204 1040.21 908.861 1040.98 909.639 1041.61C910.422 1042.22 911.253 1042.67 912.132 1042.95C913.015 1043.21 913.92 1043.3 914.847 1043.21C915.768 1043.12 916.648 1042.83 917.488 1042.34C919.006 1041.47 920.01 1040.51 920.5 1039.47C920.984 1038.42 921.074 1037.32 920.769 1036.17C920.465 1035.02 915.425 1039.25 915.425 1039.25Z" fill="white"/>
<path d="M933.661 1023.09L937.067 1021.13C937.39 1020.94 937.662 1020.7 937.884 1020.41C938.105 1020.13 938.26 1019.81 938.35 1019.47C938.439 1019.13 938.454 1018.77 938.396 1018.39C938.343 1018 938.206 1017.62 937.985 1017.23C937.777 1016.87 937.517 1016.57 937.205 1016.33C936.904 1016.08 936.579 1015.91 936.232 1015.8C935.884 1015.7 935.527 1015.66 935.161 1015.7C934.806 1015.73 934.466 1015.84 934.143 1016.02L930.721 1018L933.661 1023.09ZM953.025 1027.96L946.066 1031.98L938.664 1027.06L936.629 1028.23L940.609 1035.13L934.522 1038.64L921.665 1016.37L931.433 1010.73C932.628 1010.04 933.836 1009.6 935.058 1009.4C936.273 1009.2 937.437 1009.22 938.549 1009.49C939.671 1009.74 940.706 1010.23 941.653 1010.95C942.604 1011.65 943.41 1012.57 944.072 1013.72C944.973 1015.28 945.405 1016.84 945.367 1018.39C945.333 1019.92 944.899 1021.34 944.063 1022.65L953.025 1027.96Z" fill="white"/>
<path d="M963.96 1010.23C963.96 1010.23 961.323 1005.66 956.047 996.522L962.134 993.008L970.038 1006.7C970.794 1008.01 971.265 1009.36 971.452 1010.75C971.642 1012.12 971.54 1013.46 971.146 1014.77C970.762 1016.07 970.089 1017.3 969.126 1018.47C968.175 1019.63 966.94 1020.65 965.422 1021.52C964.023 1022.33 962.601 1022.87 961.156 1023.16C959.705 1023.43 958.305 1023.43 956.958 1023.16C955.622 1022.88 954.376 1022.33 953.221 1021.49C952.06 1020.65 951.072 1019.52 950.259 1018.12L942.356 1004.43L948.427 1000.92L956.349 1014.64C956.683 1015.22 957.073 1015.71 957.518 1016.11C957.963 1016.51 958.451 1016.79 958.982 1016.97C959.506 1017.13 960.062 1017.17 960.649 1017.1C961.247 1017.01 961.858 1016.79 962.482 1016.43C963.096 1016.08 963.583 1015.66 963.943 1015.19C964.303 1014.72 964.538 1014.22 964.649 1013.69C964.764 1013.15 964.76 1012.58 964.638 1012C964.526 1011.41 964.301 1010.82 963.96 1010.23Z" fill="white"/>
<path d="M986.296 979.058L999.154 1001.33L993.874 1004.38L977.751 997.703L984.671 1009.69L978.584 1013.2L965.727 990.934L971.071 987.848L987.117 994.5L980.226 982.563L986.296 979.058Z" fill="white"/>
<path d="M1007.35 996.597L997.459 979.469L991.663 982.815L988.694 977.674L1006.33 967.495L1009.29 972.636L1003.51 975.973L1013.4 993.101L1007.35 996.597Z" fill="white"/>
<path d="M1028.08 954.979L1039 966.815L1039.07 966.778L1035.06 950.884L1041.48 947.174L1047 973.701L1041.17 977.066L1030.93 967.304L1034.25 981.065L1028.42 984.431L1008.21 966.386L1014.63 962.676L1026.41 974.086L1026.49 974.039L1021.67 958.68L1028.08 954.979Z" fill="white"/>
<path d="M1047.57 958.484C1046.63 956.857 1046.07 955.156 1045.9 953.382C1045.71 951.596 1045.86 949.86 1046.33 948.173C1046.82 946.48 1047.62 944.911 1048.74 943.466C1049.86 942.003 1051.26 940.787 1052.94 939.817C1054.61 938.854 1056.35 938.256 1058.17 938.022C1059.99 937.771 1061.75 937.858 1063.46 938.283C1065.17 938.708 1066.75 939.447 1068.21 940.499C1069.66 941.541 1070.85 942.875 1071.79 944.501C1072.72 946.117 1073.28 947.823 1073.47 949.62C1073.66 951.405 1073.51 953.145 1073.02 954.837C1072.53 956.53 1071.73 958.108 1070.61 959.571C1069.5 961.027 1068.11 962.237 1066.44 963.2C1064.76 964.17 1063.01 964.774 1061.18 965.014C1059.36 965.248 1057.6 965.153 1055.89 964.728C1054.19 964.296 1052.62 963.555 1051.16 962.502C1049.7 961.439 1048.5 960.099 1047.57 958.484ZM1053.65 954.995C1054.19 955.923 1054.84 956.701 1055.62 957.328C1056.41 957.939 1057.24 958.383 1058.12 958.662C1059 958.924 1059.9 959.012 1060.83 958.928C1061.75 958.833 1062.63 958.543 1063.47 958.059C1064.31 957.574 1065 956.956 1065.55 956.206C1066.09 955.439 1066.47 954.611 1066.67 953.722C1066.88 952.815 1066.91 951.873 1066.76 950.896C1066.61 949.908 1066.26 948.95 1065.73 948.022C1065.19 947.084 1064.53 946.306 1063.76 945.689C1062.98 945.073 1062.16 944.633 1061.27 944.372C1060.4 944.093 1059.49 944.004 1058.56 944.106C1057.63 944.19 1056.75 944.474 1055.91 944.959C1055.07 945.444 1054.38 946.067 1053.84 946.828C1053.3 947.578 1052.93 948.406 1052.72 949.312C1052.51 950.202 1052.48 951.138 1052.62 952.121C1052.76 953.098 1053.11 954.056 1053.65 954.995Z" fill="white"/>
<path d="M1080.52 938.306L1083.92 936.339C1084.25 936.153 1084.52 935.915 1084.74 935.628C1084.96 935.34 1085.12 935.024 1085.2 934.682C1085.29 934.339 1085.31 933.981 1085.25 933.607C1085.2 933.216 1085.06 932.829 1084.84 932.447C1084.63 932.087 1084.37 931.786 1084.06 931.544C1083.76 931.295 1083.43 931.119 1083.09 931.014C1082.74 930.909 1082.38 930.875 1082.02 930.912C1081.66 930.942 1081.32 931.051 1081 931.237L1077.58 933.213L1080.52 938.306ZM1099.88 943.173L1092.92 947.19L1085.52 942.273L1083.48 943.447L1087.46 950.341L1081.38 953.855L1068.52 931.586L1078.29 925.946C1079.48 925.257 1080.69 924.814 1081.91 924.618C1083.13 924.411 1084.29 924.438 1085.4 924.698C1086.53 924.953 1087.56 925.44 1088.51 926.16C1089.46 926.862 1090.27 927.787 1090.93 928.933C1091.83 930.494 1092.26 932.049 1092.22 933.6C1092.19 935.133 1091.75 936.555 1090.92 937.867L1099.88 943.173Z" fill="white"/>
<path d="M1095.52 915.995L1101.27 925.951L1102.82 911.782L1109.88 907.709L1108.03 922.029L1122.99 929.829L1115.82 933.967L1106.61 928.743L1105.97 934.089L1108.38 938.265L1102.29 941.779L1089.44 919.51L1095.52 915.995Z" fill="white"/>
<path d="M1028.86 851.501L1020.62 837.243L1020.59 837.263L1008.96 817.113L1030.12 804.89L1041.76 825.041L1057.54 815.927L1065.78 830.185L1049.99 839.299L1073.72 880.401C1075.86 884.111 1079.12 885.045 1082.97 882.819L1092.5 877.317L1101.15 892.302L1085.95 901.08C1072.64 908.766 1060.49 906.372 1052.93 893.278L1028.82 851.521L1028.86 851.501Z" fill="white"/>
<path d="M977.511 963.688L933.537 887.523L938.463 884.679L959.217 884.627L960.672 883.787C960.908 878.315 963.323 868.386 977.436 860.238C994.749 850.242 1011.25 853.617 1021.58 871.513L1050.48 921.562L1029.01 933.952L1000.83 885.139C995.793 876.41 988.295 875.016 980.221 879.678C971.055 884.97 966.138 894.598 973.572 907.474L998.898 951.34L977.511 963.688Z" fill="white"/>
<path d="M918.368 896.28L962.342 972.446L957.416 975.29L936.704 975.415L935.249 976.255C935.013 981.726 932.525 991.697 918.776 999.635C901.681 1009.51 885.183 1006.13 874.851 988.234L845.913 938.112L867.3 925.764L895.482 974.577C900.522 983.307 908.135 984.731 915.991 980.195C924.866 975.071 929.741 965.37 922.307 952.494L896.981 908.628L918.368 896.28Z" fill="white"/>
<path d="M833.833 1046.64L789.859 970.475L793.053 968.631L816.051 968.466L817.506 967.626C815.773 957.569 820.075 949.732 836.463 942.501L846.795 960.397C830.592 966.939 822.208 977.114 832.834 995.519L855.22 1034.29L833.833 1046.64Z" fill="white"/>
<path d="M716.766 1061.17C701.898 1035.42 710.567 1014.31 729.699 1003.27C742.066 996.129 751.645 997.097 757.305 999.843L758.759 999.003L754.181 991.074L774.696 979.23L816.864 1052.27C829.674 1074.45 822.511 1094.3 797.85 1108.54C773.552 1122.57 753.998 1118.44 744.392 1104.49L743.132 1102.3L762.628 1091.05C767.548 1098.39 776.436 1101.02 788.803 1093.88C800.879 1086.91 803.006 1077.82 796.538 1066.62L791.288 1057.53L789.833 1058.37C788.766 1064.42 784.8 1072.33 773.379 1078.92C754.247 1089.97 731.592 1086.85 716.766 1061.17ZM738.372 1048.7C746.73 1063.18 758.403 1066.43 769.461 1060.04C780.591 1053.62 783.539 1041.92 775.181 1027.45C766.781 1012.9 755.181 1009.6 744.051 1016.03C732.993 1022.41 729.972 1034.15 738.372 1048.7Z" fill="white"/>
<path d="M650.636 1081.41L631.285 1092.58L630.025 1090.4C623.76 1075.68 631.524 1059.56 651.165 1048.22C670.879 1036.84 689.159 1037.93 700.877 1058.22L718.265 1088.34C722.549 1095.76 725.926 1100.6 730.024 1103.66L731.284 1105.85L724.989 1109.48L705.254 1109.82L703.799 1110.66C702.945 1117.75 699.668 1125.85 686.792 1133.28C670.569 1142.65 653.297 1140.79 644.939 1126.31C636.161 1111.11 644.135 1097.87 657.947 1087.86L674.295 1076.19C679.093 1072.74 680.715 1069.67 678.237 1065.38C674.541 1058.97 667.724 1058.25 659.213 1063.17C650.92 1067.96 647.147 1074.69 650.636 1081.41ZM665.301 1113.19C668.829 1119.31 675.742 1120.36 683.671 1115.78C691.673 1111.16 698.672 1101.11 690.65 1087.21L688.046 1082.7L686.591 1083.54C684.977 1086.12 682.736 1088.29 678.374 1091.49L670.658 1097.1C664.707 1101.41 661.605 1106.79 665.301 1113.19Z" fill="white"/>
<path d="M607.091 1177.55L563.117 1101.38L566.311 1099.54L589.31 1099.38L590.765 1098.54C589.032 1088.48 593.334 1080.64 609.722 1073.41L620.054 1091.31C603.85 1097.85 595.467 1108.02 606.093 1126.43L628.479 1165.2L607.091 1177.55Z" fill="white"/>
<path d="M550.455 1210.25L506.481 1134.08L509.675 1132.24L532.674 1132.07L534.128 1131.23C532.396 1121.18 536.698 1113.34 553.086 1106.11L563.418 1124C547.214 1130.55 538.831 1140.72 549.457 1159.13L571.843 1197.9L550.455 1210.25Z" fill="white"/>
<path d="M441.601 1222.27C426.271 1195.72 433.904 1173.66 457.255 1160.18C480.461 1146.78 501.919 1152.53 515.443 1175.95L520.063 1183.95L465.067 1215.71C471.952 1226.96 482.912 1231.49 494.478 1224.82C505.827 1218.26 506.622 1209.56 504.784 1204.03L523.407 1193.27L524.667 1195.46C528.533 1207.19 527.106 1226.06 503.463 1239.71C479.894 1253.32 456.931 1248.82 441.601 1222.27ZM457.473 1202.05L492.173 1182.02C486.525 1172.57 477.244 1168.42 465.605 1175.14C454.256 1181.69 453.012 1192.31 457.473 1202.05Z" fill="white"/>
<path d="M331.576 1219.06L322 1202.47L414.97 1148.8L424.546 1165.38L389.264 1185.75L440.168 1273.92L417.762 1286.86L366.858 1198.69L331.576 1219.06Z" fill="white"/>
</g>
<defs>
<clipPath id="clip0_1095_6494">
<rect width="1140" height="1300" fill="white"/>
</clipPath>
</defs>
</svg>
