<svg width="64" height="64" viewBox="0 0 64 64" fill="none" xmlns="http://www.w3.org/2000/svg">
<rect width="64" height="64" rx="4" fill="#FFDA18"/>
<path fill-rule="evenodd" clip-rule="evenodd" d="M33.4192 11.3642C32.5357 10.8786 31.465 10.8786 30.5815 11.3642L16.0395 19.3571C16.0268 19.3637 16.0152 19.3705 16.0031 19.3773L14.0885 20.4296C13.1469 20.9473 12.5613 21.9366 12.5613 23.0113V40.9893C12.5613 42.064 13.1469 43.0534 14.0885 43.5711L28.7685 51.6395C28.7871 51.6504 28.8062 51.66 28.8255 51.6702L30.5815 52.6355C31.465 53.1213 32.5358 53.1213 33.4192 52.6355L35.1797 51.6677C35.197 51.6587 35.2143 51.6491 35.2321 51.6395L49.9115 43.5711C50.8538 43.0534 51.4388 42.064 51.4388 40.9893V23.0113C51.4388 21.9366 50.8539 20.9473 49.9116 20.4296L48.004 19.3809C47.9898 19.3729 47.9753 19.3649 47.9612 19.3571L33.4192 11.3642ZM34.3538 31.9998L47.9612 24.5205C47.9753 24.5128 47.9894 24.505 48.0027 24.4972L48.165 24.4079C48.6183 24.1589 49.1725 24.4867 49.1725 25.0037V38.997C49.1725 39.514 48.6183 39.8418 48.165 39.5928L48.0397 39.5238C48.0141 39.5086 47.9879 39.4937 47.9612 39.4791L34.3538 31.9998ZM16.0043 24.5009C16.0157 24.5075 16.0274 24.514 16.0395 24.5205L29.6468 31.9998L16.0395 39.4791C16.0138 39.4932 15.9883 39.5074 15.964 39.522L15.8349 39.5928C15.3816 39.8418 14.8274 39.514 14.8274 38.997V25.0037C14.8274 24.4867 15.3816 24.1589 15.8349 24.4079L16.0043 24.5009ZM46.8898 21.3546L34.1403 14.3469C33.6935 14.1011 33.1475 14.4172 33.1334 14.9224C33.1334 14.9292 33.1334 14.9359 33.1334 14.9426V30.0842L46.8898 22.5232C47.3328 22.261 47.3328 21.617 46.8898 21.3546ZM17.1141 22.525L30.8673 30.0842V14.9426C30.8673 14.9359 30.8673 14.9292 30.8673 14.9224C30.8525 14.4172 30.3073 14.1011 29.8598 14.3469L17.1135 21.3528C16.6666 21.6146 16.6666 22.2634 17.1141 22.525ZM17.1307 42.6566C16.673 42.4051 16.6615 41.7582 17.0949 41.4861L30.8672 33.9165V49.058C30.8672 49.0648 30.8672 49.0716 30.8672 49.0783C30.853 49.5734 30.3289 49.8867 29.8872 49.668L17.1307 42.6566ZM33.1334 49.058V33.9165L46.907 41.4871C47.3391 41.7597 47.327 42.4054 46.8699 42.6566L34.1153 49.6668C33.6729 49.888 33.1474 49.5741 33.1334 49.0783C33.1334 49.075 33.1334 49.0716 33.1334 49.0682C33.1334 49.0648 33.1334 49.0614 33.1334 49.058Z" fill="#15192D"/>
<path d="M31.6721 13.3492C31.876 13.2371 32.1234 13.2371 32.3273 13.3492L46.8693 21.342C47.3392 21.6003 47.3392 22.2754 46.8693 22.5336L32.3273 30.5264C32.1234 30.6385 31.876 30.6385 31.6721 30.5264L17.1301 22.5336C16.6602 22.2754 16.6602 21.6003 17.1301 21.342L31.6721 13.3492Z" fill="#E7C200"/>
<path d="M14.8275 25.0028C14.8275 24.4858 15.3818 24.158 15.835 24.407L30.5144 32.4757C30.7318 32.5952 30.8673 32.8235 30.8673 33.0715V49.0572C30.8673 49.574 30.3131 49.9019 29.8598 49.6532L15.1797 41.5843C14.9624 41.4648 14.8275 41.2365 14.8275 40.9885V25.0028Z" fill="#FFDA18"/>
<path d="M48.1642 24.407C48.6174 24.158 49.1716 24.4858 49.1716 25.0028V40.9885C49.1716 41.2365 49.0367 41.4648 48.8194 41.5843L34.1393 49.6532C33.6861 49.9019 33.1318 49.574 33.1318 49.0572V33.0715C33.1318 32.8235 33.2673 32.5952 33.4847 32.4757L48.1642 24.407Z" fill="white"/>
<path d="M20.992 37.545C20.9913 37.5525 20.9907 37.5598 20.9906 37.5672L17.55 35.7569C17.55 35.7494 17.5507 35.7419 17.5513 35.7345C17.6313 34.6637 18.4661 34.201 19.4167 34.7009C20.3667 35.2009 21.0719 36.4742 20.992 37.545Z" fill="#15192D"/>
<path d="M26.4074 40.6722C26.4068 40.6795 26.4061 40.687 26.406 40.6944L22.9648 38.884C22.9655 38.8767 22.9661 38.8691 22.9662 38.8617C23.0455 37.7909 23.881 37.3282 24.831 37.8281C25.7816 38.3281 26.4867 39.6014 26.4074 40.6722Z" fill="#15192D"/>
</svg>
