<svg width="1272" height="352" viewBox="0 0 1272 352" fill="none" xmlns="http://www.w3.org/2000/svg">
<mask id="mask0_1_107285" style="mask-type:alpha" maskUnits="userSpaceOnUse" x="-178" y="0" width="1309" height="696">
<rect x="-178" width="1309" height="696" fill="url(#paint0_linear_1_107285)"/>
</mask>
<g mask="url(#mask0_1_107285)">
<g opacity="0.36">
<rect width="1663.85" height="959.122" transform="translate(-342)" fill="#071031"/>
<path d="M177.954 179.62L73.9631 239.566L177.954 299.511L281.945 239.566L177.954 179.62Z" stroke="white" stroke-width="0.429714" stroke-linecap="round" stroke-dasharray="3.44 6.88"/>
<path d="M-30.0275 299.511L-134.018 359.456L-30.0275 419.401L73.9633 359.456L-30.0275 299.511Z" stroke="white" stroke-width="0.429714" stroke-linecap="round" stroke-dasharray="3.44 6.88"/>
<path d="M801.899 299.511L697.908 359.456L801.899 419.401L905.89 359.456L801.899 299.511Z" stroke="white" stroke-width="0.429714" stroke-linecap="round" stroke-dasharray="3.44 6.88"/>
<path d="M385.936 59.7302L281.945 119.675L385.936 179.62L489.926 119.675L385.936 59.7302Z" stroke="white" stroke-width="0.429714" stroke-linecap="round" stroke-dasharray="3.44 6.88"/>
<path d="M593.918 179.62L489.927 239.566L593.918 299.511L697.908 239.566L593.918 179.62Z" stroke="white" stroke-width="0.429714" stroke-linecap="round" stroke-dasharray="3.44 6.88"/>
<path d="M385.936 299.511L281.945 359.456L385.936 419.401L489.926 359.456L385.936 299.511Z" stroke="white" stroke-width="0.429714" stroke-linecap="round" stroke-dasharray="3.44 6.88"/>
<path d="M281.945 239.781L177.954 299.726L281.945 359.671L385.936 299.726L281.945 239.781Z" stroke="white" stroke-width="0.429714" stroke-linecap="round" stroke-dasharray="3.44 6.88"/>
<path d="M489.927 119.89L385.936 179.835L489.927 239.78L593.918 179.835L489.927 119.89Z" stroke="white" stroke-width="0.429714" stroke-linecap="round" stroke-dasharray="3.44 6.88"/>
<path d="M697.908 239.781L593.917 299.726L697.908 359.671L801.899 299.726L697.908 239.781Z" stroke="white" stroke-width="0.429714" stroke-linecap="round" stroke-dasharray="3.44 6.88"/>
<path d="M385.936 179.62L281.945 239.566L385.936 299.511L489.926 239.566L385.936 179.62Z" stroke="white" stroke-width="0.429714" stroke-linecap="round" stroke-dasharray="3.44 6.88"/>
<path d="M177.954 299.511L73.9631 359.456L177.954 419.401L281.945 359.456L177.954 299.511Z" stroke="white" stroke-width="0.429714" stroke-linecap="round" stroke-dasharray="3.44 6.88"/>
<path d="M1009.88 299.511L905.89 359.456L1009.88 419.401L1113.87 359.456L1009.88 299.511Z" stroke="white" stroke-width="0.429714" stroke-linecap="round" stroke-dasharray="3.44 6.88"/>
<path d="M593.918 59.7302L489.927 119.675L593.918 179.62L697.908 119.675L593.918 59.7302Z" stroke="white" stroke-width="0.429714" stroke-linecap="round" stroke-dasharray="3.44 6.88"/>
<path d="M801.899 179.62L697.908 239.566L801.899 299.511L905.89 239.566L801.899 179.62Z" stroke="white" stroke-width="0.429714" stroke-linecap="round" stroke-dasharray="3.44 6.88"/>
<path d="M593.991 300L490 359.945L593.991 419.89L697.982 359.945L593.991 300Z" stroke="white" stroke-width="0.429714" stroke-linecap="round" stroke-dasharray="3.44 6.88"/>
<path d="M281.945 119.89L177.954 179.835L281.945 239.78L385.936 179.835L281.945 119.89Z" stroke="white" stroke-width="0.429714" stroke-linecap="round" stroke-dasharray="3.44 6.88"/>
<path d="M73.9632 239.781L-30.0276 299.726L73.9632 359.671L177.954 299.726L73.9632 239.781Z" stroke="white" stroke-width="0.429714" stroke-linecap="round" stroke-dasharray="3.44 6.88"/>
<path d="M905.89 239.781L801.899 299.726L905.89 359.671L1009.88 299.726L905.89 239.781Z" stroke="white" stroke-width="0.429714" stroke-linecap="round" stroke-dasharray="3.44 6.88"/>
<path d="M489.927 0L385.936 59.9451L489.927 119.89L593.918 59.9451L489.927 0Z" stroke="white" stroke-width="0.429714" stroke-linecap="round" stroke-dasharray="3.44 6.88"/>
<path d="M697.908 119.89L593.917 179.835L697.908 239.78L801.899 179.835L697.908 119.89Z" stroke="white" stroke-width="0.429714" stroke-linecap="round" stroke-dasharray="3.44 6.88"/>
<path d="M489.927 239.781L385.936 299.726L489.927 359.671L593.918 299.726L489.927 239.781Z" stroke="white" stroke-width="0.429714" stroke-linecap="round" stroke-dasharray="3.44 6.88"/>
</g>
</g>
<g opacity="0.8" clip-path="url(#clip0_1_107285)">
<mask id="mask1_1_107285" style="mask-type:alpha" maskUnits="userSpaceOnUse" x="386" y="241" width="207" height="120">
<path d="M489.27 241L386 300.602L489.27 360.203L592.541 300.602L489.27 241Z" fill="#D9D9D9"/>
</mask>
<g mask="url(#mask1_1_107285)">
<circle cx="588.41" cy="241.59" r="0.590116" transform="rotate(90 588.41 241.59)" fill="#7C5CFF"/>
<circle cx="588.41" cy="247.492" r="0.590116" transform="rotate(90 588.41 247.492)" fill="#7C5CFF"/>
<circle cx="588.41" cy="253.393" r="0.590116" transform="rotate(90 588.41 253.393)" fill="#7C5CFF"/>
<circle cx="588.41" cy="259.294" r="0.590116" transform="rotate(90 588.41 259.294)" fill="#7C5CFF"/>
<circle cx="588.41" cy="265.195" r="0.590116" transform="rotate(90 588.41 265.195)" fill="#7C5CFF"/>
<circle cx="588.41" cy="271.096" r="0.590116" transform="rotate(90 588.41 271.096)" fill="#7C5CFF"/>
<circle cx="588.41" cy="276.997" r="0.590116" transform="rotate(90 588.41 276.997)" fill="#7C5CFF"/>
<circle cx="588.41" cy="282.898" r="0.590116" transform="rotate(90 588.41 282.898)" fill="#7C5CFF"/>
<circle cx="588.41" cy="288.8" r="0.590116" transform="rotate(90 588.41 288.8)" fill="#7C5CFF"/>
<circle cx="588.41" cy="294.701" r="0.590116" transform="rotate(90 588.41 294.701)" fill="#7C5CFF"/>
<circle cx="588.41" cy="300.602" r="0.590116" transform="rotate(90 588.41 300.602)" fill="#7C5CFF"/>
<circle cx="588.41" cy="306.503" r="0.590116" transform="rotate(90 588.41 306.503)" fill="#7C5CFF"/>
<circle cx="588.41" cy="312.404" r="0.590116" transform="rotate(90 588.41 312.404)" fill="#7C5CFF"/>
<circle cx="588.41" cy="318.305" r="0.590116" transform="rotate(90 588.41 318.305)" fill="#7C5CFF"/>
<circle cx="588.41" cy="324.207" r="0.590116" transform="rotate(90 588.41 324.207)" fill="#7C5CFF"/>
<circle cx="588.41" cy="336.009" r="0.590116" transform="rotate(90 588.41 336.009)" fill="#7C5CFF"/>
<circle cx="588.41" cy="341.91" r="0.590116" transform="rotate(90 588.41 341.91)" fill="#7C5CFF"/>
<circle cx="588.41" cy="347.811" r="0.590116" transform="rotate(90 588.41 347.811)" fill="#7C5CFF"/>
<circle cx="582.509" cy="241.591" r="0.590116" transform="rotate(90 582.509 241.591)" fill="#7C5CFF"/>
<circle cx="582.509" cy="247.492" r="0.590116" transform="rotate(90 582.509 247.492)" fill="#7C5CFF"/>
<circle cx="582.509" cy="253.393" r="0.590116" transform="rotate(90 582.509 253.393)" fill="#7C5CFF"/>
<circle cx="582.509" cy="259.294" r="0.590116" transform="rotate(90 582.509 259.294)" fill="#7C5CFF"/>
<circle cx="582.509" cy="265.195" r="0.590116" transform="rotate(90 582.509 265.195)" fill="#7C5CFF"/>
<circle cx="582.509" cy="271.097" r="0.590116" transform="rotate(90 582.509 271.097)" fill="#7C5CFF"/>
<circle cx="582.509" cy="276.998" r="0.590116" transform="rotate(90 582.509 276.998)" fill="#7C5CFF"/>
<circle cx="582.509" cy="282.899" r="0.590116" transform="rotate(90 582.509 282.899)" fill="#7C5CFF"/>
<circle cx="582.509" cy="288.8" r="0.590116" transform="rotate(90 582.509 288.8)" fill="#7C5CFF"/>
<circle cx="582.509" cy="294.701" r="0.590116" transform="rotate(90 582.509 294.701)" fill="#7C5CFF"/>
<circle cx="582.509" cy="300.602" r="0.590116" transform="rotate(90 582.509 300.602)" fill="#7C5CFF"/>
<circle cx="582.509" cy="312.405" r="0.590116" transform="rotate(90 582.509 312.405)" fill="#7C5CFF"/>
<circle cx="582.509" cy="330.108" r="0.590116" transform="rotate(90 582.509 330.108)" fill="#7C5CFF"/>
<circle cx="582.509" cy="336.009" r="0.590116" transform="rotate(90 582.509 336.009)" fill="#7C5CFF"/>
<circle cx="582.509" cy="341.91" r="0.590116" transform="rotate(90 582.509 341.91)" fill="#7C5CFF"/>
<circle cx="582.509" cy="347.812" r="0.590116" transform="rotate(90 582.509 347.812)" fill="#7C5CFF"/>
<circle cx="576.608" cy="241.591" r="0.590116" transform="rotate(90 576.608 241.591)" fill="#7C5CFF"/>
<circle cx="576.608" cy="247.492" r="0.590116" transform="rotate(90 576.608 247.492)" fill="#7C5CFF"/>
<circle cx="576.608" cy="253.393" r="0.590116" transform="rotate(90 576.608 253.393)" fill="#7C5CFF"/>
<circle cx="576.608" cy="259.294" r="0.590116" transform="rotate(90 576.608 259.294)" fill="#7C5CFF"/>
<circle cx="576.608" cy="265.195" r="0.590116" transform="rotate(90 576.608 265.195)" fill="#7C5CFF"/>
<circle cx="576.608" cy="271.096" r="0.590116" transform="rotate(90 576.608 271.096)" fill="#7C5CFF"/>
<circle cx="576.608" cy="276.998" r="0.590116" transform="rotate(90 576.608 276.998)" fill="#7C5CFF"/>
<circle cx="576.608" cy="282.899" r="0.590116" transform="rotate(90 576.608 282.899)" fill="#7C5CFF"/>
<circle cx="576.608" cy="288.8" r="0.590116" transform="rotate(90 576.608 288.8)" fill="#7C5CFF"/>
<circle cx="576.608" cy="294.701" r="0.590116" transform="rotate(90 576.608 294.701)" fill="#7C5CFF"/>
<circle cx="576.608" cy="300.602" r="0.590116" transform="rotate(90 576.608 300.602)" fill="#7C5CFF"/>
<circle cx="576.608" cy="306.503" r="0.590116" transform="rotate(90 576.608 306.503)" fill="#7C5CFF"/>
<circle cx="576.608" cy="312.405" r="0.590116" transform="rotate(90 576.608 312.405)" fill="#7C5CFF"/>
<circle cx="576.608" cy="318.306" r="0.590116" transform="rotate(90 576.608 318.306)" fill="#7C5CFF"/>
<circle cx="576.608" cy="324.207" r="0.590116" transform="rotate(90 576.608 324.207)" fill="#7C5CFF"/>
<circle cx="576.608" cy="330.108" r="0.590116" transform="rotate(90 576.608 330.108)" fill="#7C5CFF"/>
<circle cx="576.608" cy="336.009" r="0.590116" transform="rotate(90 576.608 336.009)" fill="#7C5CFF"/>
<circle cx="576.608" cy="347.812" r="0.590116" transform="rotate(90 576.608 347.812)" fill="#7C5CFF"/>
<circle cx="570.707" cy="241.591" r="0.590116" transform="rotate(90 570.707 241.591)" fill="#7C5CFF"/>
<circle cx="570.706" cy="247.492" r="0.590116" transform="rotate(90 570.706 247.492)" fill="#7C5CFF"/>
<circle cx="570.706" cy="253.393" r="0.590116" transform="rotate(90 570.706 253.393)" fill="#7C5CFF"/>
<circle cx="570.707" cy="259.294" r="0.590116" transform="rotate(90 570.707 259.294)" fill="#7C5CFF"/>
<circle cx="570.707" cy="265.195" r="0.590116" transform="rotate(90 570.707 265.195)" fill="#7C5CFF"/>
<circle cx="570.706" cy="271.097" r="0.590116" transform="rotate(90 570.706 271.097)" fill="#7C5CFF"/>
<circle cx="570.706" cy="276.998" r="0.590116" transform="rotate(90 570.706 276.998)" fill="#7C5CFF"/>
<circle cx="570.707" cy="282.899" r="0.590116" transform="rotate(90 570.707 282.899)" fill="#7C5CFF"/>
<circle cx="570.707" cy="288.8" r="0.590116" transform="rotate(90 570.707 288.8)" fill="#7C5CFF"/>
<circle cx="570.706" cy="312.405" r="0.590116" transform="rotate(90 570.706 312.405)" fill="#7C5CFF"/>
<circle cx="570.706" cy="318.306" r="0.590116" transform="rotate(90 570.706 318.306)" fill="#7C5CFF"/>
<circle cx="570.707" cy="324.207" r="0.590116" transform="rotate(90 570.707 324.207)" fill="#7C5CFF"/>
<circle cx="570.706" cy="330.108" r="0.590116" transform="rotate(90 570.706 330.108)" fill="#7C5CFF"/>
<circle cx="570.707" cy="341.91" r="0.590116" transform="rotate(90 570.707 341.91)" fill="#7C5CFF"/>
<circle cx="564.805" cy="241.59" r="0.590116" transform="rotate(90 564.805 241.59)" fill="#7C5CFF"/>
<circle cx="564.805" cy="247.492" r="0.590116" transform="rotate(90 564.805 247.492)" fill="#7C5CFF"/>
<circle cx="564.805" cy="253.393" r="0.590116" transform="rotate(90 564.805 253.393)" fill="#7C5CFF"/>
<circle cx="564.805" cy="259.294" r="0.590116" transform="rotate(90 564.805 259.294)" fill="#7C5CFF"/>
<circle cx="564.805" cy="265.195" r="0.590116" transform="rotate(90 564.805 265.195)" fill="#7C5CFF"/>
<circle cx="564.805" cy="271.096" r="0.590116" transform="rotate(90 564.805 271.096)" fill="#7C5CFF"/>
<circle cx="564.805" cy="276.997" r="0.590116" transform="rotate(90 564.805 276.997)" fill="#7C5CFF"/>
<circle cx="564.805" cy="288.8" r="0.590116" transform="rotate(90 564.805 288.8)" fill="#7C5CFF"/>
<circle cx="564.805" cy="294.701" r="0.590116" transform="rotate(90 564.805 294.701)" fill="#7C5CFF"/>
<circle cx="564.805" cy="300.602" r="0.590116" transform="rotate(90 564.805 300.602)" fill="#7C5CFF"/>
<circle cx="564.805" cy="306.503" r="0.590116" transform="rotate(90 564.805 306.503)" fill="#7C5CFF"/>
<circle cx="564.805" cy="312.404" r="0.590116" transform="rotate(90 564.805 312.404)" fill="#7C5CFF"/>
<circle cx="564.805" cy="318.305" r="0.590116" transform="rotate(90 564.805 318.305)" fill="#7C5CFF"/>
<circle cx="564.805" cy="324.207" r="0.590116" transform="rotate(90 564.805 324.207)" fill="#7C5CFF"/>
<circle cx="564.805" cy="330.108" r="0.590116" transform="rotate(90 564.805 330.108)" fill="#7C5CFF"/>
<circle cx="564.805" cy="336.009" r="0.590116" transform="rotate(90 564.805 336.009)" fill="#7C5CFF"/>
<circle cx="564.805" cy="341.91" r="0.590116" transform="rotate(90 564.805 341.91)" fill="#7C5CFF"/>
<circle cx="564.805" cy="347.811" r="0.590116" transform="rotate(90 564.805 347.811)" fill="#7C5CFF"/>
<circle cx="558.904" cy="241.59" r="0.590116" transform="rotate(90 558.904 241.59)" fill="#7C5CFF"/>
<circle cx="558.904" cy="247.491" r="0.590116" transform="rotate(90 558.904 247.491)" fill="#7C5CFF"/>
<circle cx="558.904" cy="253.393" r="0.590116" transform="rotate(90 558.904 253.393)" fill="#7C5CFF"/>
<circle cx="558.904" cy="259.294" r="0.590116" transform="rotate(90 558.904 259.294)" fill="#7C5CFF"/>
<circle cx="558.904" cy="265.195" r="0.590116" transform="rotate(90 558.904 265.195)" fill="#7C5CFF"/>
<circle cx="558.904" cy="276.997" r="0.590116" transform="rotate(90 558.904 276.997)" fill="#7C5CFF"/>
<circle cx="558.904" cy="282.898" r="0.590116" transform="rotate(90 558.904 282.898)" fill="#7C5CFF"/>
<circle cx="558.904" cy="288.8" r="0.590116" transform="rotate(90 558.904 288.8)" fill="#7C5CFF"/>
<circle cx="558.904" cy="294.701" r="0.590116" transform="rotate(90 558.904 294.701)" fill="#7C5CFF"/>
<circle cx="558.904" cy="300.602" r="0.590116" transform="rotate(90 558.904 300.602)" fill="#7C5CFF"/>
<circle cx="558.904" cy="306.503" r="0.590116" transform="rotate(90 558.904 306.503)" fill="#7C5CFF"/>
<circle cx="558.904" cy="312.404" r="0.590116" transform="rotate(90 558.904 312.404)" fill="#7C5CFF"/>
<circle cx="558.904" cy="318.305" r="0.590116" transform="rotate(90 558.904 318.305)" fill="#7C5CFF"/>
<circle cx="558.904" cy="324.207" r="0.590116" transform="rotate(90 558.904 324.207)" fill="#7C5CFF"/>
<circle cx="558.904" cy="330.108" r="0.590116" transform="rotate(90 558.904 330.108)" fill="#7C5CFF"/>
<circle cx="558.904" cy="336.009" r="0.590116" transform="rotate(90 558.904 336.009)" fill="#7C5CFF"/>
<circle cx="558.904" cy="341.91" r="0.590116" transform="rotate(90 558.904 341.91)" fill="#7C5CFF"/>
<circle cx="553.003" cy="241.59" r="0.590116" transform="rotate(90 553.003 241.59)" fill="#7C5CFF"/>
<circle cx="553.003" cy="247.491" r="0.590116" transform="rotate(90 553.003 247.491)" fill="#7C5CFF"/>
<circle cx="553.003" cy="271.096" r="0.590116" transform="rotate(90 553.003 271.096)" fill="#7C5CFF"/>
<circle cx="553.003" cy="276.997" r="0.590116" transform="rotate(90 553.003 276.997)" fill="#7C5CFF"/>
<circle cx="553.003" cy="282.898" r="0.590116" transform="rotate(90 553.003 282.898)" fill="#7C5CFF"/>
<circle cx="553.003" cy="288.8" r="0.590116" transform="rotate(90 553.003 288.8)" fill="#7C5CFF"/>
<circle cx="553.003" cy="312.404" r="0.590116" transform="rotate(90 553.003 312.404)" fill="#7C5CFF"/>
<circle cx="553.003" cy="318.305" r="0.590116" transform="rotate(90 553.003 318.305)" fill="#7C5CFF"/>
<circle cx="553.003" cy="324.207" r="0.590116" transform="rotate(90 553.003 324.207)" fill="#7C5CFF"/>
<circle cx="553.003" cy="330.108" r="0.590116" transform="rotate(90 553.003 330.108)" fill="#7C5CFF"/>
<circle cx="553.003" cy="336.009" r="0.590116" transform="rotate(90 553.003 336.009)" fill="#7C5CFF"/>
<circle cx="553.003" cy="341.91" r="0.590116" transform="rotate(90 553.003 341.91)" fill="#7C5CFF"/>
<circle cx="553.003" cy="347.811" r="0.590116" transform="rotate(90 553.003 347.811)" fill="#7C5CFF"/>
<circle cx="547.102" cy="241.59" r="0.590116" transform="rotate(90 547.102 241.59)" fill="#7C5CFF"/>
<circle cx="547.102" cy="247.492" r="0.590116" transform="rotate(90 547.102 247.492)" fill="#7C5CFF"/>
<circle cx="547.102" cy="253.393" r="0.590116" transform="rotate(90 547.102 253.393)" fill="#7C5CFF"/>
<circle cx="547.102" cy="259.294" r="0.590116" transform="rotate(90 547.102 259.294)" fill="#7C5CFF"/>
<circle cx="547.102" cy="265.195" r="0.590116" transform="rotate(90 547.102 265.195)" fill="#7C5CFF"/>
<circle cx="547.102" cy="271.096" r="0.590116" transform="rotate(90 547.102 271.096)" fill="#7C5CFF"/>
<circle cx="547.102" cy="276.997" r="0.590116" transform="rotate(90 547.102 276.997)" fill="#7C5CFF"/>
<circle cx="547.102" cy="282.898" r="0.590116" transform="rotate(90 547.102 282.898)" fill="#7C5CFF"/>
<circle cx="547.102" cy="288.8" r="0.590116" transform="rotate(90 547.102 288.8)" fill="#7C5CFF"/>
<circle cx="547.102" cy="294.701" r="0.590116" transform="rotate(90 547.102 294.701)" fill="#7C5CFF"/>
<circle cx="547.102" cy="300.602" r="0.590116" transform="rotate(90 547.102 300.602)" fill="#7C5CFF"/>
<circle cx="547.102" cy="306.503" r="0.590116" transform="rotate(90 547.102 306.503)" fill="#7C5CFF"/>
<circle cx="547.102" cy="318.305" r="0.590116" transform="rotate(90 547.102 318.305)" fill="#7C5CFF"/>
<circle cx="547.102" cy="324.207" r="0.590116" transform="rotate(90 547.102 324.207)" fill="#7C5CFF"/>
<circle cx="547.102" cy="330.108" r="0.590116" transform="rotate(90 547.102 330.108)" fill="#7C5CFF"/>
<circle cx="547.102" cy="336.009" r="0.590116" transform="rotate(90 547.102 336.009)" fill="#7C5CFF"/>
<circle cx="547.102" cy="341.91" r="0.590116" transform="rotate(90 547.102 341.91)" fill="#7C5CFF"/>
<circle cx="547.102" cy="347.811" r="0.590116" transform="rotate(90 547.102 347.811)" fill="#7C5CFF"/>
<circle cx="541.201" cy="241.59" r="0.590116" transform="rotate(90 541.201 241.59)" fill="#7C5CFF"/>
<circle cx="541.201" cy="247.491" r="0.590116" transform="rotate(90 541.201 247.491)" fill="#7C5CFF"/>
<circle cx="541.201" cy="253.393" r="0.590116" transform="rotate(90 541.201 253.393)" fill="#7C5CFF"/>
<circle cx="541.201" cy="259.294" r="0.590116" transform="rotate(90 541.201 259.294)" fill="#7C5CFF"/>
<circle cx="541.201" cy="265.195" r="0.590116" transform="rotate(90 541.201 265.195)" fill="#7C5CFF"/>
<circle cx="541.201" cy="276.997" r="0.590116" transform="rotate(90 541.201 276.997)" fill="#7C5CFF"/>
<circle cx="541.201" cy="282.898" r="0.590116" transform="rotate(90 541.201 282.898)" fill="#7C5CFF"/>
<circle cx="541.201" cy="288.8" r="0.590116" transform="rotate(90 541.201 288.8)" fill="#7C5CFF"/>
<circle cx="541.201" cy="300.602" r="0.590116" transform="rotate(90 541.201 300.602)" fill="#7C5CFF"/>
<circle cx="541.201" cy="306.503" r="0.590116" transform="rotate(90 541.201 306.503)" fill="#7C5CFF"/>
<circle cx="541.201" cy="312.404" r="0.590116" transform="rotate(90 541.201 312.404)" fill="#7C5CFF"/>
<circle cx="541.201" cy="318.305" r="0.590116" transform="rotate(90 541.201 318.305)" fill="#7C5CFF"/>
<circle cx="541.201" cy="330.108" r="0.590116" transform="rotate(90 541.201 330.108)" fill="#7C5CFF"/>
<circle cx="541.201" cy="336.009" r="0.590116" transform="rotate(90 541.201 336.009)" fill="#7C5CFF"/>
<circle cx="541.201" cy="341.91" r="0.590116" transform="rotate(90 541.201 341.91)" fill="#7C5CFF"/>
<circle cx="541.201" cy="347.811" r="0.590116" transform="rotate(90 541.201 347.811)" fill="#7C5CFF"/>
<circle cx="535.299" cy="241.591" r="0.590116" transform="rotate(90 535.299 241.591)" fill="#7C5CFF"/>
<circle cx="535.299" cy="247.492" r="0.590116" transform="rotate(90 535.299 247.492)" fill="#7C5CFF"/>
<circle cx="535.299" cy="253.393" r="0.590116" transform="rotate(90 535.299 253.393)" fill="#7C5CFF"/>
<circle cx="535.299" cy="265.195" r="0.590116" transform="rotate(90 535.299 265.195)" fill="#7C5CFF"/>
<circle cx="535.299" cy="271.096" r="0.590116" transform="rotate(90 535.299 271.096)" fill="#7C5CFF"/>
<circle cx="535.299" cy="276.998" r="0.590116" transform="rotate(90 535.299 276.998)" fill="#7C5CFF"/>
<circle cx="535.299" cy="282.899" r="0.590116" transform="rotate(90 535.299 282.899)" fill="#7C5CFF"/>
<circle cx="535.299" cy="288.8" r="0.590116" transform="rotate(90 535.299 288.8)" fill="#7C5CFF"/>
<circle cx="535.299" cy="294.701" r="0.590116" transform="rotate(90 535.299 294.701)" fill="#7C5CFF"/>
<circle cx="535.299" cy="300.602" r="0.590116" transform="rotate(90 535.299 300.602)" fill="#7C5CFF"/>
<circle cx="535.299" cy="306.503" r="0.590116" transform="rotate(90 535.299 306.503)" fill="#7C5CFF"/>
<circle cx="535.299" cy="312.405" r="0.590116" transform="rotate(90 535.299 312.405)" fill="#7C5CFF"/>
<circle cx="535.299" cy="318.306" r="0.590116" transform="rotate(90 535.299 318.306)" fill="#7C5CFF"/>
<circle cx="535.299" cy="324.207" r="0.590116" transform="rotate(90 535.299 324.207)" fill="#7C5CFF"/>
<circle cx="535.299" cy="330.108" r="0.590116" transform="rotate(90 535.299 330.108)" fill="#7C5CFF"/>
<circle cx="535.299" cy="336.009" r="0.590116" transform="rotate(90 535.299 336.009)" fill="#7C5CFF"/>
<circle cx="535.299" cy="341.91" r="0.590116" transform="rotate(90 535.299 341.91)" fill="#7C5CFF"/>
<circle cx="535.299" cy="347.812" r="0.590116" transform="rotate(90 535.299 347.812)" fill="#7C5CFF"/>
<circle cx="529.398" cy="241.591" r="0.590116" transform="rotate(90 529.398 241.591)" fill="#7C5CFF"/>
<circle cx="529.398" cy="247.492" r="0.590116" transform="rotate(90 529.398 247.492)" fill="#7C5CFF"/>
<circle cx="529.398" cy="253.393" r="0.590116" transform="rotate(90 529.398 253.393)" fill="#7C5CFF"/>
<circle cx="529.398" cy="259.294" r="0.590116" transform="rotate(90 529.398 259.294)" fill="#7C5CFF"/>
<circle cx="529.398" cy="265.195" r="0.590116" transform="rotate(90 529.398 265.195)" fill="#7C5CFF"/>
<circle cx="529.398" cy="271.097" r="0.590116" transform="rotate(90 529.398 271.097)" fill="#7C5CFF"/>
<circle cx="529.398" cy="276.998" r="0.590116" transform="rotate(90 529.398 276.998)" fill="#7C5CFF"/>
<circle cx="529.398" cy="282.899" r="0.590116" transform="rotate(90 529.398 282.899)" fill="#7C5CFF"/>
<circle cx="529.398" cy="288.8" r="0.590116" transform="rotate(90 529.398 288.8)" fill="#7C5CFF"/>
<circle cx="529.398" cy="294.701" r="0.590116" transform="rotate(90 529.398 294.701)" fill="#7C5CFF"/>
<circle cx="529.398" cy="300.602" r="0.590116" transform="rotate(90 529.398 300.602)" fill="#7C5CFF"/>
<circle cx="529.398" cy="306.503" r="0.590116" transform="rotate(90 529.398 306.503)" fill="#7C5CFF"/>
<circle cx="529.398" cy="312.405" r="0.590116" transform="rotate(90 529.398 312.405)" fill="#7C5CFF"/>
<circle cx="529.398" cy="324.207" r="0.590116" transform="rotate(90 529.398 324.207)" fill="#7C5CFF"/>
<circle cx="529.398" cy="336.009" r="0.590116" transform="rotate(90 529.398 336.009)" fill="#7C5CFF"/>
<circle cx="529.398" cy="341.91" r="0.590116" transform="rotate(90 529.398 341.91)" fill="#7C5CFF"/>
<circle cx="529.398" cy="347.812" r="0.590116" transform="rotate(90 529.398 347.812)" fill="#7C5CFF"/>
<circle cx="523.497" cy="241.591" r="0.590116" transform="rotate(90 523.497 241.591)" fill="#7C5CFF"/>
<circle cx="523.497" cy="247.492" r="0.590116" transform="rotate(90 523.497 247.492)" fill="#7C5CFF"/>
<circle cx="523.497" cy="253.393" r="0.590116" transform="rotate(90 523.497 253.393)" fill="#7C5CFF"/>
<circle cx="523.497" cy="259.294" r="0.590116" transform="rotate(90 523.497 259.294)" fill="#7C5CFF"/>
<circle cx="523.497" cy="265.195" r="0.590116" transform="rotate(90 523.497 265.195)" fill="#7C5CFF"/>
<circle cx="523.497" cy="271.096" r="0.590116" transform="rotate(90 523.497 271.096)" fill="#7C5CFF"/>
<circle cx="523.497" cy="276.998" r="0.590116" transform="rotate(90 523.497 276.998)" fill="#7C5CFF"/>
<circle cx="523.497" cy="282.899" r="0.590116" transform="rotate(90 523.497 282.899)" fill="#7C5CFF"/>
<circle cx="523.497" cy="300.602" r="0.590116" transform="rotate(90 523.497 300.602)" fill="#7C5CFF"/>
<circle cx="523.497" cy="306.503" r="0.590116" transform="rotate(90 523.497 306.503)" fill="#7C5CFF"/>
<circle cx="523.497" cy="312.405" r="0.590116" transform="rotate(90 523.497 312.405)" fill="#7C5CFF"/>
<circle cx="523.497" cy="318.306" r="0.590116" transform="rotate(90 523.497 318.306)" fill="#7C5CFF"/>
<circle cx="523.497" cy="324.207" r="0.590116" transform="rotate(90 523.497 324.207)" fill="#7C5CFF"/>
<circle cx="523.497" cy="341.91" r="0.590116" transform="rotate(90 523.497 341.91)" fill="#7C5CFF"/>
<circle cx="523.497" cy="347.812" r="0.590116" transform="rotate(90 523.497 347.812)" fill="#7C5CFF"/>
<circle cx="517.596" cy="241.591" r="0.590116" transform="rotate(90 517.596 241.591)" fill="#7C5CFF"/>
<circle cx="517.596" cy="247.492" r="0.590116" transform="rotate(90 517.596 247.492)" fill="#7C5CFF"/>
<circle cx="517.596" cy="253.393" r="0.590116" transform="rotate(90 517.596 253.393)" fill="#7C5CFF"/>
<circle cx="517.596" cy="259.294" r="0.590116" transform="rotate(90 517.596 259.294)" fill="#7C5CFF"/>
<circle cx="517.596" cy="265.195" r="0.590116" transform="rotate(90 517.596 265.195)" fill="#7C5CFF"/>
<circle cx="517.596" cy="271.096" r="0.590116" transform="rotate(90 517.596 271.096)" fill="#7C5CFF"/>
<circle cx="517.596" cy="276.998" r="0.590116" transform="rotate(90 517.596 276.998)" fill="#7C5CFF"/>
<circle cx="517.596" cy="282.899" r="0.590116" transform="rotate(90 517.596 282.899)" fill="#7C5CFF"/>
<circle cx="517.596" cy="294.701" r="0.590116" transform="rotate(90 517.596 294.701)" fill="#7C5CFF"/>
<circle cx="517.596" cy="300.602" r="0.590116" transform="rotate(90 517.596 300.602)" fill="#7C5CFF"/>
<circle cx="517.596" cy="306.503" r="0.590116" transform="rotate(90 517.596 306.503)" fill="#7C5CFF"/>
<circle cx="517.596" cy="312.405" r="0.590116" transform="rotate(90 517.596 312.405)" fill="#7C5CFF"/>
<circle cx="517.596" cy="318.306" r="0.590116" transform="rotate(90 517.596 318.306)" fill="#7C5CFF"/>
<circle cx="517.596" cy="324.207" r="0.590116" transform="rotate(90 517.596 324.207)" fill="#7C5CFF"/>
<circle cx="517.596" cy="336.009" r="0.590116" transform="rotate(90 517.596 336.009)" fill="#7C5CFF"/>
<circle cx="517.596" cy="341.91" r="0.590116" transform="rotate(90 517.596 341.91)" fill="#7C5CFF"/>
<circle cx="517.596" cy="347.812" r="0.590116" transform="rotate(90 517.596 347.812)" fill="#7C5CFF"/>
<circle cx="511.695" cy="241.591" r="0.590116" transform="rotate(90 511.695 241.591)" fill="#7C5CFF"/>
<circle cx="511.695" cy="247.492" r="0.590116" transform="rotate(90 511.695 247.492)" fill="#7C5CFF"/>
<circle cx="511.695" cy="253.393" r="0.590116" transform="rotate(90 511.695 253.393)" fill="#7C5CFF"/>
<circle cx="511.695" cy="259.294" r="0.590116" transform="rotate(90 511.695 259.294)" fill="#7C5CFF"/>
<circle cx="511.695" cy="271.097" r="0.590116" transform="rotate(90 511.695 271.097)" fill="#7C5CFF"/>
<circle cx="511.695" cy="276.998" r="0.590116" transform="rotate(90 511.695 276.998)" fill="#7C5CFF"/>
<circle cx="511.695" cy="282.899" r="0.590116" transform="rotate(90 511.695 282.899)" fill="#7C5CFF"/>
<circle cx="511.695" cy="288.8" r="0.590116" transform="rotate(90 511.695 288.8)" fill="#7C5CFF"/>
<circle cx="511.695" cy="294.701" r="0.590116" transform="rotate(90 511.695 294.701)" fill="#7C5CFF"/>
<circle cx="511.695" cy="300.602" r="0.590116" transform="rotate(90 511.695 300.602)" fill="#7C5CFF"/>
<circle cx="511.695" cy="306.503" r="0.590116" transform="rotate(90 511.695 306.503)" fill="#7C5CFF"/>
<circle cx="511.695" cy="312.405" r="0.590116" transform="rotate(90 511.695 312.405)" fill="#7C5CFF"/>
<circle cx="511.695" cy="318.306" r="0.590116" transform="rotate(90 511.695 318.306)" fill="#7C5CFF"/>
<circle cx="511.695" cy="324.207" r="0.590116" transform="rotate(90 511.695 324.207)" fill="#7C5CFF"/>
<circle cx="511.695" cy="330.108" r="0.590116" transform="rotate(90 511.695 330.108)" fill="#7C5CFF"/>
<circle cx="511.695" cy="341.91" r="0.590116" transform="rotate(90 511.695 341.91)" fill="#7C5CFF"/>
<circle cx="511.695" cy="347.812" r="0.590116" transform="rotate(90 511.695 347.812)" fill="#7C5CFF"/>
<circle cx="505.794" cy="241.59" r="0.590116" transform="rotate(90 505.794 241.59)" fill="#7C5CFF"/>
<circle cx="505.794" cy="247.491" r="0.590116" transform="rotate(90 505.794 247.491)" fill="#7C5CFF"/>
<circle cx="505.794" cy="253.393" r="0.590116" transform="rotate(90 505.794 253.393)" fill="#7C5CFF"/>
<circle cx="505.794" cy="259.294" r="0.590116" transform="rotate(90 505.794 259.294)" fill="#7C5CFF"/>
<circle cx="505.794" cy="265.195" r="0.590116" transform="rotate(90 505.794 265.195)" fill="#7C5CFF"/>
<circle cx="505.794" cy="276.997" r="0.590116" transform="rotate(90 505.794 276.997)" fill="#7C5CFF"/>
<circle cx="505.794" cy="282.898" r="0.590116" transform="rotate(90 505.794 282.898)" fill="#7C5CFF"/>
<circle cx="505.794" cy="288.8" r="0.590116" transform="rotate(90 505.794 288.8)" fill="#7C5CFF"/>
<circle cx="505.794" cy="294.701" r="0.590116" transform="rotate(90 505.794 294.701)" fill="#7C5CFF"/>
<circle cx="505.794" cy="300.602" r="0.590116" transform="rotate(90 505.794 300.602)" fill="#7C5CFF"/>
<circle cx="505.794" cy="306.503" r="0.590116" transform="rotate(90 505.794 306.503)" fill="#7C5CFF"/>
<circle cx="505.794" cy="312.404" r="0.590116" transform="rotate(90 505.794 312.404)" fill="#7C5CFF"/>
<circle cx="505.794" cy="324.207" r="0.590116" transform="rotate(90 505.794 324.207)" fill="#7C5CFF"/>
<circle cx="505.794" cy="330.108" r="0.590116" transform="rotate(90 505.794 330.108)" fill="#7C5CFF"/>
<circle cx="505.794" cy="336.009" r="0.590116" transform="rotate(90 505.794 336.009)" fill="#7C5CFF"/>
<circle cx="505.794" cy="341.91" r="0.590116" transform="rotate(90 505.794 341.91)" fill="#7C5CFF"/>
<circle cx="505.794" cy="347.811" r="0.590116" transform="rotate(90 505.794 347.811)" fill="#7C5CFF"/>
<circle cx="499.893" cy="241.59" r="0.590116" transform="rotate(90 499.893 241.59)" fill="#7C5CFF"/>
<circle cx="499.893" cy="247.491" r="0.590116" transform="rotate(90 499.893 247.491)" fill="#7C5CFF"/>
<circle cx="499.893" cy="253.393" r="0.590116" transform="rotate(90 499.893 253.393)" fill="#7C5CFF"/>
<circle cx="499.893" cy="259.294" r="0.590116" transform="rotate(90 499.893 259.294)" fill="#7C5CFF"/>
<circle cx="499.893" cy="265.195" r="0.590116" transform="rotate(90 499.893 265.195)" fill="#7C5CFF"/>
<circle cx="499.893" cy="271.096" r="0.590116" transform="rotate(90 499.893 271.096)" fill="#7C5CFF"/>
<circle cx="499.893" cy="288.8" r="0.590116" transform="rotate(90 499.893 288.8)" fill="#7C5CFF"/>
<circle cx="499.893" cy="294.701" r="0.590116" transform="rotate(90 499.893 294.701)" fill="#7C5CFF"/>
<circle cx="499.893" cy="300.602" r="0.590116" transform="rotate(90 499.893 300.602)" fill="#7C5CFF"/>
<circle cx="499.893" cy="306.503" r="0.590116" transform="rotate(90 499.893 306.503)" fill="#7C5CFF"/>
<circle cx="499.893" cy="312.404" r="0.590116" transform="rotate(90 499.893 312.404)" fill="#7C5CFF"/>
<circle cx="499.893" cy="318.305" r="0.590116" transform="rotate(90 499.893 318.305)" fill="#7C5CFF"/>
<circle cx="499.893" cy="324.207" r="0.590116" transform="rotate(90 499.893 324.207)" fill="#7C5CFF"/>
<circle cx="499.893" cy="330.108" r="0.590116" transform="rotate(90 499.893 330.108)" fill="#7C5CFF"/>
<circle cx="499.893" cy="336.009" r="0.590116" transform="rotate(90 499.893 336.009)" fill="#7C5CFF"/>
<circle cx="499.893" cy="347.811" r="0.590116" transform="rotate(90 499.893 347.811)" fill="#7C5CFF"/>
<circle cx="493.991" cy="241.59" r="0.590116" transform="rotate(90 493.991 241.59)" fill="#7C5CFF"/>
<circle cx="493.991" cy="247.492" r="0.590116" transform="rotate(90 493.991 247.492)" fill="#7C5CFF"/>
<circle cx="493.991" cy="253.393" r="0.590116" transform="rotate(90 493.991 253.393)" fill="#7C5CFF"/>
<circle cx="493.991" cy="265.195" r="0.590116" transform="rotate(90 493.991 265.195)" fill="#7C5CFF"/>
<circle cx="493.991" cy="271.096" r="0.590116" transform="rotate(90 493.991 271.096)" fill="#7C5CFF"/>
<circle cx="493.991" cy="276.997" r="0.590116" transform="rotate(90 493.991 276.997)" fill="#7C5CFF"/>
<circle cx="493.991" cy="282.898" r="0.590116" transform="rotate(90 493.991 282.898)" fill="#7C5CFF"/>
<circle cx="493.991" cy="288.8" r="0.590116" transform="rotate(90 493.991 288.8)" fill="#7C5CFF"/>
<circle cx="493.991" cy="294.701" r="0.590116" transform="rotate(90 493.991 294.701)" fill="#7C5CFF"/>
<circle cx="493.991" cy="300.602" r="0.590116" transform="rotate(90 493.991 300.602)" fill="#7C5CFF"/>
<circle cx="493.991" cy="306.503" r="0.590116" transform="rotate(90 493.991 306.503)" fill="#7C5CFF"/>
<circle cx="493.991" cy="312.404" r="0.590116" transform="rotate(90 493.991 312.404)" fill="#7C5CFF"/>
<circle cx="493.991" cy="318.305" r="0.590116" transform="rotate(90 493.991 318.305)" fill="#7C5CFF"/>
<circle cx="493.991" cy="330.108" r="0.590116" transform="rotate(90 493.991 330.108)" fill="#7C5CFF"/>
<circle cx="493.991" cy="336.009" r="0.590116" transform="rotate(90 493.991 336.009)" fill="#7C5CFF"/>
<circle cx="493.991" cy="341.91" r="0.590116" transform="rotate(90 493.991 341.91)" fill="#7C5CFF"/>
<circle cx="493.991" cy="347.811" r="0.590116" transform="rotate(90 493.991 347.811)" fill="#7C5CFF"/>
<circle cx="488.09" cy="241.59" r="0.590116" transform="rotate(90 488.09 241.59)" fill="#7C5CFF"/>
<circle cx="488.09" cy="247.492" r="0.590116" transform="rotate(90 488.09 247.492)" fill="#7C5CFF"/>
<circle cx="488.09" cy="253.393" r="0.590116" transform="rotate(90 488.09 253.393)" fill="#7C5CFF"/>
<circle cx="488.09" cy="259.294" r="0.590116" transform="rotate(90 488.09 259.294)" fill="#7C5CFF"/>
<circle cx="488.09" cy="265.195" r="0.590116" transform="rotate(90 488.09 265.195)" fill="#7C5CFF"/>
<circle cx="488.09" cy="271.096" r="0.590116" transform="rotate(90 488.09 271.096)" fill="#7C5CFF"/>
<circle cx="488.09" cy="276.997" r="0.590116" transform="rotate(90 488.09 276.997)" fill="#7C5CFF"/>
<circle cx="488.09" cy="282.898" r="0.590116" transform="rotate(90 488.09 282.898)" fill="#7C5CFF"/>
<circle cx="488.09" cy="288.8" r="0.590116" transform="rotate(90 488.09 288.8)" fill="#7C5CFF"/>
<circle cx="488.09" cy="306.503" r="0.590116" transform="rotate(90 488.09 306.503)" fill="#7C5CFF"/>
<circle cx="488.09" cy="312.404" r="0.590116" transform="rotate(90 488.09 312.404)" fill="#7C5CFF"/>
<circle cx="488.09" cy="318.305" r="0.590116" transform="rotate(90 488.09 318.305)" fill="#7C5CFF"/>
<circle cx="488.09" cy="324.207" r="0.590116" transform="rotate(90 488.09 324.207)" fill="#7C5CFF"/>
<circle cx="488.09" cy="336.009" r="0.590116" transform="rotate(90 488.09 336.009)" fill="#7C5CFF"/>
<circle cx="488.09" cy="341.91" r="0.590116" transform="rotate(90 488.09 341.91)" fill="#7C5CFF"/>
<circle cx="488.09" cy="347.811" r="0.590116" transform="rotate(90 488.09 347.811)" fill="#7C5CFF"/>
<circle cx="482.189" cy="241.59" r="0.590116" transform="rotate(90 482.189 241.59)" fill="#7C5CFF"/>
<circle cx="482.189" cy="247.491" r="0.590116" transform="rotate(90 482.189 247.491)" fill="#7C5CFF"/>
<circle cx="482.189" cy="253.393" r="0.590116" transform="rotate(90 482.189 253.393)" fill="#7C5CFF"/>
<circle cx="482.189" cy="259.294" r="0.590116" transform="rotate(90 482.189 259.294)" fill="#7C5CFF"/>
<circle cx="482.189" cy="276.997" r="0.590116" transform="rotate(90 482.189 276.997)" fill="#7C5CFF"/>
<circle cx="482.189" cy="282.898" r="0.590116" transform="rotate(90 482.189 282.898)" fill="#7C5CFF"/>
<circle cx="482.189" cy="288.8" r="0.590116" transform="rotate(90 482.189 288.8)" fill="#7C5CFF"/>
<circle cx="482.189" cy="294.701" r="0.590116" transform="rotate(90 482.189 294.701)" fill="#7C5CFF"/>
<circle cx="482.189" cy="300.602" r="0.590116" transform="rotate(90 482.189 300.602)" fill="#7C5CFF"/>
<circle cx="482.189" cy="312.404" r="0.590116" transform="rotate(90 482.189 312.404)" fill="#7C5CFF"/>
<circle cx="482.189" cy="318.305" r="0.590116" transform="rotate(90 482.189 318.305)" fill="#7C5CFF"/>
<circle cx="482.189" cy="324.207" r="0.590116" transform="rotate(90 482.189 324.207)" fill="#7C5CFF"/>
<circle cx="482.189" cy="330.108" r="0.590116" transform="rotate(90 482.189 330.108)" fill="#7C5CFF"/>
<circle cx="482.189" cy="341.91" r="0.590116" transform="rotate(90 482.189 341.91)" fill="#7C5CFF"/>
<circle cx="482.189" cy="347.811" r="0.590116" transform="rotate(90 482.189 347.811)" fill="#7C5CFF"/>
<circle cx="476.288" cy="241.591" r="0.590116" transform="rotate(90 476.288 241.591)" fill="#7C5CFF"/>
<circle cx="476.287" cy="247.492" r="0.590116" transform="rotate(90 476.287 247.492)" fill="#7C5CFF"/>
<circle cx="476.287" cy="253.393" r="0.590116" transform="rotate(90 476.287 253.393)" fill="#7C5CFF"/>
<circle cx="476.288" cy="259.294" r="0.590116" transform="rotate(90 476.288 259.294)" fill="#7C5CFF"/>
<circle cx="476.288" cy="265.195" r="0.590116" transform="rotate(90 476.288 265.195)" fill="#7C5CFF"/>
<circle cx="476.287" cy="271.097" r="0.590116" transform="rotate(90 476.287 271.097)" fill="#7C5CFF"/>
<circle cx="476.287" cy="276.998" r="0.590116" transform="rotate(90 476.287 276.998)" fill="#7C5CFF"/>
<circle cx="476.288" cy="288.8" r="0.590116" transform="rotate(90 476.288 288.8)" fill="#7C5CFF"/>
<circle cx="476.288" cy="294.701" r="0.590116" transform="rotate(90 476.288 294.701)" fill="#7C5CFF"/>
<circle cx="476.287" cy="300.602" r="0.590116" transform="rotate(90 476.287 300.602)" fill="#7C5CFF"/>
<circle cx="476.287" cy="306.503" r="0.590116" transform="rotate(90 476.287 306.503)" fill="#7C5CFF"/>
<circle cx="476.287" cy="312.405" r="0.590116" transform="rotate(90 476.287 312.405)" fill="#7C5CFF"/>
<circle cx="476.288" cy="318.306" r="0.590116" transform="rotate(90 476.288 318.306)" fill="#7C5CFF"/>
<circle cx="476.288" cy="324.207" r="0.590116" transform="rotate(90 476.288 324.207)" fill="#7C5CFF"/>
<circle cx="476.287" cy="330.108" r="0.590116" transform="rotate(90 476.287 330.108)" fill="#7C5CFF"/>
<circle cx="476.287" cy="336.009" r="0.590116" transform="rotate(90 476.287 336.009)" fill="#7C5CFF"/>
<circle cx="476.288" cy="341.91" r="0.590116" transform="rotate(90 476.288 341.91)" fill="#7C5CFF"/>
<circle cx="470.386" cy="241.591" r="0.590116" transform="rotate(90 470.386 241.591)" fill="#7C5CFF"/>
<circle cx="470.386" cy="247.492" r="0.590116" transform="rotate(90 470.386 247.492)" fill="#7C5CFF"/>
<circle cx="470.386" cy="259.294" r="0.590116" transform="rotate(90 470.386 259.294)" fill="#7C5CFF"/>
<circle cx="470.386" cy="265.195" r="0.590116" transform="rotate(90 470.386 265.195)" fill="#7C5CFF"/>
<circle cx="470.386" cy="271.097" r="0.590116" transform="rotate(90 470.386 271.097)" fill="#7C5CFF"/>
<circle cx="470.386" cy="276.998" r="0.590116" transform="rotate(90 470.386 276.998)" fill="#7C5CFF"/>
<circle cx="470.386" cy="282.899" r="0.590116" transform="rotate(90 470.386 282.899)" fill="#7C5CFF"/>
<circle cx="470.386" cy="288.8" r="0.590116" transform="rotate(90 470.386 288.8)" fill="#7C5CFF"/>
<circle cx="470.386" cy="294.701" r="0.590116" transform="rotate(90 470.386 294.701)" fill="#7C5CFF"/>
<circle cx="470.386" cy="300.602" r="0.590116" transform="rotate(90 470.386 300.602)" fill="#7C5CFF"/>
<circle cx="470.386" cy="306.503" r="0.590116" transform="rotate(90 470.386 306.503)" fill="#7C5CFF"/>
<circle cx="470.386" cy="312.405" r="0.590116" transform="rotate(90 470.386 312.405)" fill="#7C5CFF"/>
<circle cx="470.386" cy="318.306" r="0.590116" transform="rotate(90 470.386 318.306)" fill="#7C5CFF"/>
<circle cx="470.386" cy="324.207" r="0.590116" transform="rotate(90 470.386 324.207)" fill="#7C5CFF"/>
<circle cx="470.386" cy="330.108" r="0.590116" transform="rotate(90 470.386 330.108)" fill="#7C5CFF"/>
<circle cx="470.386" cy="336.009" r="0.590116" transform="rotate(90 470.386 336.009)" fill="#7C5CFF"/>
<circle cx="470.386" cy="341.91" r="0.590116" transform="rotate(90 470.386 341.91)" fill="#7C5CFF"/>
<circle cx="470.386" cy="347.812" r="0.590116" transform="rotate(90 470.386 347.812)" fill="#7C5CFF"/>
<circle cx="464.486" cy="241.591" r="0.590116" transform="rotate(90 464.486 241.591)" fill="#7C5CFF"/>
<circle cx="464.486" cy="247.492" r="0.590116" transform="rotate(90 464.486 247.492)" fill="#7C5CFF"/>
<circle cx="464.486" cy="253.393" r="0.590116" transform="rotate(90 464.486 253.393)" fill="#7C5CFF"/>
<circle cx="464.486" cy="259.294" r="0.590116" transform="rotate(90 464.486 259.294)" fill="#7C5CFF"/>
<circle cx="464.486" cy="265.195" r="0.590116" transform="rotate(90 464.486 265.195)" fill="#7C5CFF"/>
<circle cx="464.486" cy="271.096" r="0.590116" transform="rotate(90 464.486 271.096)" fill="#7C5CFF"/>
<circle cx="464.486" cy="276.998" r="0.590116" transform="rotate(90 464.486 276.998)" fill="#7C5CFF"/>
<circle cx="464.486" cy="288.8" r="0.590116" transform="rotate(90 464.486 288.8)" fill="#7C5CFF"/>
<circle cx="464.486" cy="300.602" r="0.590116" transform="rotate(90 464.486 300.602)" fill="#7C5CFF"/>
<circle cx="464.486" cy="306.503" r="0.590116" transform="rotate(90 464.486 306.503)" fill="#7C5CFF"/>
<circle cx="464.486" cy="312.405" r="0.590116" transform="rotate(90 464.486 312.405)" fill="#7C5CFF"/>
<circle cx="464.486" cy="318.306" r="0.590116" transform="rotate(90 464.486 318.306)" fill="#7C5CFF"/>
<circle cx="464.486" cy="324.207" r="0.590116" transform="rotate(90 464.486 324.207)" fill="#7C5CFF"/>
<circle cx="464.486" cy="336.009" r="0.590116" transform="rotate(90 464.486 336.009)" fill="#7C5CFF"/>
<circle cx="464.486" cy="341.91" r="0.590116" transform="rotate(90 464.486 341.91)" fill="#7C5CFF"/>
<circle cx="458.584" cy="241.591" r="0.590116" transform="rotate(90 458.584 241.591)" fill="#7C5CFF"/>
<circle cx="458.584" cy="247.492" r="0.590116" transform="rotate(90 458.584 247.492)" fill="#7C5CFF"/>
<circle cx="458.584" cy="253.393" r="0.590116" transform="rotate(90 458.584 253.393)" fill="#7C5CFF"/>
<circle cx="458.584" cy="265.195" r="0.590116" transform="rotate(90 458.584 265.195)" fill="#7C5CFF"/>
<circle cx="458.584" cy="271.097" r="0.590116" transform="rotate(90 458.584 271.097)" fill="#7C5CFF"/>
<circle cx="458.584" cy="276.998" r="0.590116" transform="rotate(90 458.584 276.998)" fill="#7C5CFF"/>
<circle cx="458.584" cy="282.899" r="0.590116" transform="rotate(90 458.584 282.899)" fill="#7C5CFF"/>
<circle cx="458.584" cy="288.8" r="0.590116" transform="rotate(90 458.584 288.8)" fill="#7C5CFF"/>
<circle cx="458.584" cy="294.701" r="0.590116" transform="rotate(90 458.584 294.701)" fill="#7C5CFF"/>
<circle cx="458.584" cy="300.602" r="0.590116" transform="rotate(90 458.584 300.602)" fill="#7C5CFF"/>
<circle cx="458.584" cy="306.503" r="0.590116" transform="rotate(90 458.584 306.503)" fill="#7C5CFF"/>
<circle cx="458.584" cy="312.405" r="0.590116" transform="rotate(90 458.584 312.405)" fill="#7C5CFF"/>
<circle cx="458.584" cy="318.306" r="0.590116" transform="rotate(90 458.584 318.306)" fill="#7C5CFF"/>
<circle cx="458.584" cy="324.207" r="0.590116" transform="rotate(90 458.584 324.207)" fill="#7C5CFF"/>
<circle cx="458.584" cy="330.108" r="0.590116" transform="rotate(90 458.584 330.108)" fill="#7C5CFF"/>
<circle cx="458.584" cy="336.009" r="0.590116" transform="rotate(90 458.584 336.009)" fill="#7C5CFF"/>
<circle cx="458.584" cy="341.91" r="0.590116" transform="rotate(90 458.584 341.91)" fill="#7C5CFF"/>
<circle cx="458.584" cy="347.812" r="0.590116" transform="rotate(90 458.584 347.812)" fill="#7C5CFF"/>
<circle cx="452.683" cy="241.59" r="0.590116" transform="rotate(90 452.683 241.59)" fill="#7C5CFF"/>
<circle cx="452.683" cy="247.492" r="0.590116" transform="rotate(90 452.683 247.492)" fill="#7C5CFF"/>
<circle cx="452.683" cy="253.393" r="0.590116" transform="rotate(90 452.683 253.393)" fill="#7C5CFF"/>
<circle cx="452.683" cy="259.294" r="0.590116" transform="rotate(90 452.683 259.294)" fill="#7C5CFF"/>
<circle cx="452.683" cy="265.195" r="0.590116" transform="rotate(90 452.683 265.195)" fill="#7C5CFF"/>
<circle cx="452.683" cy="271.096" r="0.590116" transform="rotate(90 452.683 271.096)" fill="#7C5CFF"/>
<circle cx="452.683" cy="276.997" r="0.590116" transform="rotate(90 452.683 276.997)" fill="#7C5CFF"/>
<circle cx="452.683" cy="282.898" r="0.590116" transform="rotate(90 452.683 282.898)" fill="#7C5CFF"/>
<circle cx="452.683" cy="288.8" r="0.590116" transform="rotate(90 452.683 288.8)" fill="#7C5CFF"/>
<circle cx="452.683" cy="294.701" r="0.590116" transform="rotate(90 452.683 294.701)" fill="#7C5CFF"/>
<circle cx="452.683" cy="300.602" r="0.590116" transform="rotate(90 452.683 300.602)" fill="#7C5CFF"/>
<circle cx="452.683" cy="306.503" r="0.590116" transform="rotate(90 452.683 306.503)" fill="#7C5CFF"/>
<circle cx="452.683" cy="312.404" r="0.590116" transform="rotate(90 452.683 312.404)" fill="#7C5CFF"/>
<circle cx="452.683" cy="324.207" r="0.590116" transform="rotate(90 452.683 324.207)" fill="#7C5CFF"/>
<circle cx="452.683" cy="330.108" r="0.590116" transform="rotate(90 452.683 330.108)" fill="#7C5CFF"/>
<circle cx="452.683" cy="336.009" r="0.590116" transform="rotate(90 452.683 336.009)" fill="#7C5CFF"/>
<circle cx="452.683" cy="341.91" r="0.590116" transform="rotate(90 452.683 341.91)" fill="#7C5CFF"/>
<circle cx="446.782" cy="241.59" r="0.590116" transform="rotate(90 446.782 241.59)" fill="#7C5CFF"/>
<circle cx="446.782" cy="247.491" r="0.590116" transform="rotate(90 446.782 247.491)" fill="#7C5CFF"/>
<circle cx="446.782" cy="253.393" r="0.590116" transform="rotate(90 446.782 253.393)" fill="#7C5CFF"/>
<circle cx="446.782" cy="259.294" r="0.590116" transform="rotate(90 446.782 259.294)" fill="#7C5CFF"/>
<circle cx="446.782" cy="265.195" r="0.590116" transform="rotate(90 446.782 265.195)" fill="#7C5CFF"/>
<circle cx="446.782" cy="276.997" r="0.590116" transform="rotate(90 446.782 276.997)" fill="#7C5CFF"/>
<circle cx="446.782" cy="282.898" r="0.590116" transform="rotate(90 446.782 282.898)" fill="#7C5CFF"/>
<circle cx="446.782" cy="288.8" r="0.590116" transform="rotate(90 446.782 288.8)" fill="#7C5CFF"/>
<circle cx="446.782" cy="294.701" r="0.590116" transform="rotate(90 446.782 294.701)" fill="#7C5CFF"/>
<circle cx="446.782" cy="300.602" r="0.590116" transform="rotate(90 446.782 300.602)" fill="#7C5CFF"/>
<circle cx="446.782" cy="306.503" r="0.590116" transform="rotate(90 446.782 306.503)" fill="#7C5CFF"/>
<circle cx="446.782" cy="312.404" r="0.590116" transform="rotate(90 446.782 312.404)" fill="#7C5CFF"/>
<circle cx="446.782" cy="318.305" r="0.590116" transform="rotate(90 446.782 318.305)" fill="#7C5CFF"/>
<circle cx="446.782" cy="324.207" r="0.590116" transform="rotate(90 446.782 324.207)" fill="#7C5CFF"/>
<circle cx="446.782" cy="330.108" r="0.590116" transform="rotate(90 446.782 330.108)" fill="#7C5CFF"/>
<circle cx="446.782" cy="336.009" r="0.590116" transform="rotate(90 446.782 336.009)" fill="#7C5CFF"/>
<circle cx="446.782" cy="341.91" r="0.590116" transform="rotate(90 446.782 341.91)" fill="#7C5CFF"/>
<circle cx="440.881" cy="241.59" r="0.590116" transform="rotate(90 440.881 241.59)" fill="#7C5CFF"/>
<circle cx="440.881" cy="247.491" r="0.590116" transform="rotate(90 440.881 247.491)" fill="#7C5CFF"/>
<circle cx="440.881" cy="253.393" r="0.590116" transform="rotate(90 440.881 253.393)" fill="#7C5CFF"/>
<circle cx="440.881" cy="259.294" r="0.590116" transform="rotate(90 440.881 259.294)" fill="#7C5CFF"/>
<circle cx="440.881" cy="265.195" r="0.590116" transform="rotate(90 440.881 265.195)" fill="#7C5CFF"/>
<circle cx="440.881" cy="271.096" r="0.590116" transform="rotate(90 440.881 271.096)" fill="#7C5CFF"/>
<circle cx="440.881" cy="276.997" r="0.590116" transform="rotate(90 440.881 276.997)" fill="#7C5CFF"/>
<circle cx="440.881" cy="282.898" r="0.590116" transform="rotate(90 440.881 282.898)" fill="#7C5CFF"/>
<circle cx="440.881" cy="288.8" r="0.590116" transform="rotate(90 440.881 288.8)" fill="#7C5CFF"/>
<circle cx="440.881" cy="294.701" r="0.590116" transform="rotate(90 440.881 294.701)" fill="#7C5CFF"/>
<circle cx="440.881" cy="300.602" r="0.590116" transform="rotate(90 440.881 300.602)" fill="#7C5CFF"/>
<circle cx="440.881" cy="306.503" r="0.590116" transform="rotate(90 440.881 306.503)" fill="#7C5CFF"/>
<circle cx="440.881" cy="312.404" r="0.590116" transform="rotate(90 440.881 312.404)" fill="#7C5CFF"/>
<circle cx="440.881" cy="318.305" r="0.590116" transform="rotate(90 440.881 318.305)" fill="#7C5CFF"/>
<circle cx="440.881" cy="324.207" r="0.590116" transform="rotate(90 440.881 324.207)" fill="#7C5CFF"/>
<circle cx="440.881" cy="330.108" r="0.590116" transform="rotate(90 440.881 330.108)" fill="#7C5CFF"/>
<circle cx="440.881" cy="336.009" r="0.590116" transform="rotate(90 440.881 336.009)" fill="#7C5CFF"/>
<circle cx="440.881" cy="341.91" r="0.590116" transform="rotate(90 440.881 341.91)" fill="#7C5CFF"/>
<circle cx="440.881" cy="347.811" r="0.590116" transform="rotate(90 440.881 347.811)" fill="#7C5CFF"/>
<circle cx="434.98" cy="241.59" r="0.590116" transform="rotate(90 434.98 241.59)" fill="#7C5CFF"/>
<circle cx="434.98" cy="247.492" r="0.590116" transform="rotate(90 434.98 247.492)" fill="#7C5CFF"/>
<circle cx="434.98" cy="253.393" r="0.590116" transform="rotate(90 434.98 253.393)" fill="#7C5CFF"/>
<circle cx="434.98" cy="259.294" r="0.590116" transform="rotate(90 434.98 259.294)" fill="#7C5CFF"/>
<circle cx="434.98" cy="265.195" r="0.590116" transform="rotate(90 434.98 265.195)" fill="#7C5CFF"/>
<circle cx="434.98" cy="271.096" r="0.590116" transform="rotate(90 434.98 271.096)" fill="#7C5CFF"/>
<circle cx="434.98" cy="276.997" r="0.590116" transform="rotate(90 434.98 276.997)" fill="#7C5CFF"/>
<circle cx="434.98" cy="282.898" r="0.590116" transform="rotate(90 434.98 282.898)" fill="#7C5CFF"/>
<circle cx="434.98" cy="288.8" r="0.590116" transform="rotate(90 434.98 288.8)" fill="#7C5CFF"/>
<circle cx="434.98" cy="294.701" r="0.590116" transform="rotate(90 434.98 294.701)" fill="#7C5CFF"/>
<circle cx="434.98" cy="312.404" r="0.590116" transform="rotate(90 434.98 312.404)" fill="#7C5CFF"/>
<circle cx="434.98" cy="324.207" r="0.590116" transform="rotate(90 434.98 324.207)" fill="#7C5CFF"/>
<circle cx="434.98" cy="330.108" r="0.590116" transform="rotate(90 434.98 330.108)" fill="#7C5CFF"/>
<circle cx="434.98" cy="336.009" r="0.590116" transform="rotate(90 434.98 336.009)" fill="#7C5CFF"/>
<circle cx="434.98" cy="341.91" r="0.590116" transform="rotate(90 434.98 341.91)" fill="#7C5CFF"/>
<circle cx="434.98" cy="347.811" r="0.590116" transform="rotate(90 434.98 347.811)" fill="#7C5CFF"/>
<circle cx="429.079" cy="241.59" r="0.590116" transform="rotate(90 429.079 241.59)" fill="#7C5CFF"/>
<circle cx="429.079" cy="247.491" r="0.590116" transform="rotate(90 429.079 247.491)" fill="#7C5CFF"/>
<circle cx="429.079" cy="253.393" r="0.590116" transform="rotate(90 429.079 253.393)" fill="#7C5CFF"/>
<circle cx="429.079" cy="259.294" r="0.590116" transform="rotate(90 429.079 259.294)" fill="#7C5CFF"/>
<circle cx="429.079" cy="265.195" r="0.590116" transform="rotate(90 429.079 265.195)" fill="#7C5CFF"/>
<circle cx="429.079" cy="271.096" r="0.590116" transform="rotate(90 429.079 271.096)" fill="#7C5CFF"/>
<circle cx="429.079" cy="282.898" r="0.590116" transform="rotate(90 429.079 282.898)" fill="#7C5CFF"/>
<circle cx="429.079" cy="288.8" r="0.590116" transform="rotate(90 429.079 288.8)" fill="#7C5CFF"/>
<circle cx="429.079" cy="294.701" r="0.590116" transform="rotate(90 429.079 294.701)" fill="#7C5CFF"/>
<circle cx="429.079" cy="306.503" r="0.590116" transform="rotate(90 429.079 306.503)" fill="#7C5CFF"/>
<circle cx="429.079" cy="312.404" r="0.590116" transform="rotate(90 429.079 312.404)" fill="#7C5CFF"/>
<circle cx="429.079" cy="318.305" r="0.590116" transform="rotate(90 429.079 318.305)" fill="#7C5CFF"/>
<circle cx="429.079" cy="324.207" r="0.590116" transform="rotate(90 429.079 324.207)" fill="#7C5CFF"/>
<circle cx="429.079" cy="330.108" r="0.590116" transform="rotate(90 429.079 330.108)" fill="#7C5CFF"/>
<circle cx="429.079" cy="336.009" r="0.590116" transform="rotate(90 429.079 336.009)" fill="#7C5CFF"/>
<circle cx="429.079" cy="341.91" r="0.590116" transform="rotate(90 429.079 341.91)" fill="#7C5CFF"/>
<circle cx="429.079" cy="347.811" r="0.590116" transform="rotate(90 429.079 347.811)" fill="#7C5CFF"/>
<circle cx="423.177" cy="241.59" r="0.590116" transform="rotate(90 423.177 241.59)" fill="#7C5CFF"/>
<circle cx="423.177" cy="247.491" r="0.590116" transform="rotate(90 423.177 247.491)" fill="#7C5CFF"/>
<circle cx="423.177" cy="253.393" r="0.590116" transform="rotate(90 423.177 253.393)" fill="#7C5CFF"/>
<circle cx="423.177" cy="259.294" r="0.590116" transform="rotate(90 423.177 259.294)" fill="#7C5CFF"/>
<circle cx="423.177" cy="265.195" r="0.590116" transform="rotate(90 423.177 265.195)" fill="#7C5CFF"/>
<circle cx="423.177" cy="271.096" r="0.590116" transform="rotate(90 423.177 271.096)" fill="#7C5CFF"/>
<circle cx="423.177" cy="276.997" r="0.590116" transform="rotate(90 423.177 276.997)" fill="#7C5CFF"/>
<circle cx="423.177" cy="282.898" r="0.590116" transform="rotate(90 423.177 282.898)" fill="#7C5CFF"/>
<circle cx="423.177" cy="288.8" r="0.590116" transform="rotate(90 423.177 288.8)" fill="#7C5CFF"/>
<circle cx="423.177" cy="300.602" r="0.590116" transform="rotate(90 423.177 300.602)" fill="#7C5CFF"/>
<circle cx="423.177" cy="306.503" r="0.590116" transform="rotate(90 423.177 306.503)" fill="#7C5CFF"/>
<circle cx="423.177" cy="312.404" r="0.590116" transform="rotate(90 423.177 312.404)" fill="#7C5CFF"/>
<circle cx="423.177" cy="318.305" r="0.590116" transform="rotate(90 423.177 318.305)" fill="#7C5CFF"/>
<circle cx="423.177" cy="324.207" r="0.590116" transform="rotate(90 423.177 324.207)" fill="#7C5CFF"/>
<circle cx="423.177" cy="330.108" r="0.590116" transform="rotate(90 423.177 330.108)" fill="#7C5CFF"/>
<circle cx="423.177" cy="336.009" r="0.590116" transform="rotate(90 423.177 336.009)" fill="#7C5CFF"/>
<circle cx="423.177" cy="341.91" r="0.590116" transform="rotate(90 423.177 341.91)" fill="#7C5CFF"/>
<circle cx="423.177" cy="347.811" r="0.590116" transform="rotate(90 423.177 347.811)" fill="#7C5CFF"/>
<circle cx="417.276" cy="241.591" r="0.590116" transform="rotate(90 417.276 241.591)" fill="#7C5CFF"/>
<circle cx="417.276" cy="247.492" r="0.590116" transform="rotate(90 417.276 247.492)" fill="#7C5CFF"/>
<circle cx="417.276" cy="253.393" r="0.590116" transform="rotate(90 417.276 253.393)" fill="#7C5CFF"/>
<circle cx="417.276" cy="259.294" r="0.590116" transform="rotate(90 417.276 259.294)" fill="#7C5CFF"/>
<circle cx="417.276" cy="265.195" r="0.590116" transform="rotate(90 417.276 265.195)" fill="#7C5CFF"/>
<circle cx="417.276" cy="271.097" r="0.590116" transform="rotate(90 417.276 271.097)" fill="#7C5CFF"/>
<circle cx="417.276" cy="282.899" r="0.590116" transform="rotate(90 417.276 282.899)" fill="#7C5CFF"/>
<circle cx="417.276" cy="288.8" r="0.590116" transform="rotate(90 417.276 288.8)" fill="#7C5CFF"/>
<circle cx="417.276" cy="294.701" r="0.590116" transform="rotate(90 417.276 294.701)" fill="#7C5CFF"/>
<circle cx="417.276" cy="300.602" r="0.590116" transform="rotate(90 417.276 300.602)" fill="#7C5CFF"/>
<circle cx="417.276" cy="306.503" r="0.590116" transform="rotate(90 417.276 306.503)" fill="#7C5CFF"/>
<circle cx="417.276" cy="312.405" r="0.590116" transform="rotate(90 417.276 312.405)" fill="#7C5CFF"/>
<circle cx="417.276" cy="318.306" r="0.590116" transform="rotate(90 417.276 318.306)" fill="#7C5CFF"/>
<circle cx="417.276" cy="324.207" r="0.590116" transform="rotate(90 417.276 324.207)" fill="#7C5CFF"/>
<circle cx="417.276" cy="330.108" r="0.590116" transform="rotate(90 417.276 330.108)" fill="#7C5CFF"/>
<circle cx="417.276" cy="336.009" r="0.590116" transform="rotate(90 417.276 336.009)" fill="#7C5CFF"/>
<circle cx="417.276" cy="341.91" r="0.590116" transform="rotate(90 417.276 341.91)" fill="#7C5CFF"/>
<circle cx="417.276" cy="347.812" r="0.590116" transform="rotate(90 417.276 347.812)" fill="#7C5CFF"/>
<circle cx="411.375" cy="241.591" r="0.590116" transform="rotate(90 411.375 241.591)" fill="#7C5CFF"/>
<circle cx="411.375" cy="247.492" r="0.590116" transform="rotate(90 411.375 247.492)" fill="#7C5CFF"/>
<circle cx="411.375" cy="253.393" r="0.590116" transform="rotate(90 411.375 253.393)" fill="#7C5CFF"/>
<circle cx="411.375" cy="259.294" r="0.590116" transform="rotate(90 411.375 259.294)" fill="#7C5CFF"/>
<circle cx="411.375" cy="265.195" r="0.590116" transform="rotate(90 411.375 265.195)" fill="#7C5CFF"/>
<circle cx="411.375" cy="271.097" r="0.590116" transform="rotate(90 411.375 271.097)" fill="#7C5CFF"/>
<circle cx="411.375" cy="276.998" r="0.590116" transform="rotate(90 411.375 276.998)" fill="#7C5CFF"/>
<circle cx="411.375" cy="282.899" r="0.590116" transform="rotate(90 411.375 282.899)" fill="#7C5CFF"/>
<circle cx="411.375" cy="288.8" r="0.590116" transform="rotate(90 411.375 288.8)" fill="#7C5CFF"/>
<circle cx="411.375" cy="294.701" r="0.590116" transform="rotate(90 411.375 294.701)" fill="#7C5CFF"/>
<circle cx="411.375" cy="300.602" r="0.590116" transform="rotate(90 411.375 300.602)" fill="#7C5CFF"/>
<circle cx="411.375" cy="306.503" r="0.590116" transform="rotate(90 411.375 306.503)" fill="#7C5CFF"/>
<circle cx="411.375" cy="312.405" r="0.590116" transform="rotate(90 411.375 312.405)" fill="#7C5CFF"/>
<circle cx="411.375" cy="324.207" r="0.590116" transform="rotate(90 411.375 324.207)" fill="#7C5CFF"/>
<circle cx="411.375" cy="330.108" r="0.590116" transform="rotate(90 411.375 330.108)" fill="#7C5CFF"/>
<circle cx="411.375" cy="336.009" r="0.590116" transform="rotate(90 411.375 336.009)" fill="#7C5CFF"/>
<circle cx="411.375" cy="341.91" r="0.590116" transform="rotate(90 411.375 341.91)" fill="#7C5CFF"/>
<circle cx="411.375" cy="347.812" r="0.590116" transform="rotate(90 411.375 347.812)" fill="#7C5CFF"/>
<circle cx="405.474" cy="241.591" r="0.590116" transform="rotate(90 405.474 241.591)" fill="#7C5CFF"/>
<circle cx="405.474" cy="247.492" r="0.590116" transform="rotate(90 405.474 247.492)" fill="#7C5CFF"/>
<circle cx="405.474" cy="253.393" r="0.590116" transform="rotate(90 405.474 253.393)" fill="#7C5CFF"/>
<circle cx="405.474" cy="259.294" r="0.590116" transform="rotate(90 405.474 259.294)" fill="#7C5CFF"/>
<circle cx="405.474" cy="265.195" r="0.590116" transform="rotate(90 405.474 265.195)" fill="#7C5CFF"/>
<circle cx="405.474" cy="271.096" r="0.590116" transform="rotate(90 405.474 271.096)" fill="#7C5CFF"/>
<circle cx="405.474" cy="276.998" r="0.590116" transform="rotate(90 405.474 276.998)" fill="#7C5CFF"/>
<circle cx="405.474" cy="282.899" r="0.590116" transform="rotate(90 405.474 282.899)" fill="#7C5CFF"/>
<circle cx="405.474" cy="288.8" r="0.590116" transform="rotate(90 405.474 288.8)" fill="#7C5CFF"/>
<circle cx="405.474" cy="294.701" r="0.590116" transform="rotate(90 405.474 294.701)" fill="#7C5CFF"/>
<circle cx="405.474" cy="300.602" r="0.590116" transform="rotate(90 405.474 300.602)" fill="#7C5CFF"/>
<circle cx="405.474" cy="306.503" r="0.590116" transform="rotate(90 405.474 306.503)" fill="#7C5CFF"/>
<circle cx="405.474" cy="312.405" r="0.590116" transform="rotate(90 405.474 312.405)" fill="#7C5CFF"/>
<circle cx="405.474" cy="324.207" r="0.590116" transform="rotate(90 405.474 324.207)" fill="#7C5CFF"/>
<circle cx="405.474" cy="330.108" r="0.590116" transform="rotate(90 405.474 330.108)" fill="#7C5CFF"/>
<circle cx="405.474" cy="341.91" r="0.590116" transform="rotate(90 405.474 341.91)" fill="#7C5CFF"/>
<circle cx="405.474" cy="347.812" r="0.590116" transform="rotate(90 405.474 347.812)" fill="#7C5CFF"/>
<circle cx="399.573" cy="241.591" r="0.590116" transform="rotate(90 399.573 241.591)" fill="#7C5CFF"/>
<circle cx="399.573" cy="247.492" r="0.590116" transform="rotate(90 399.573 247.492)" fill="#7C5CFF"/>
<circle cx="399.573" cy="253.393" r="0.590116" transform="rotate(90 399.573 253.393)" fill="#7C5CFF"/>
<circle cx="399.573" cy="259.294" r="0.590116" transform="rotate(90 399.573 259.294)" fill="#7C5CFF"/>
<circle cx="399.573" cy="265.195" r="0.590116" transform="rotate(90 399.573 265.195)" fill="#7C5CFF"/>
<circle cx="399.573" cy="276.998" r="0.590116" transform="rotate(90 399.573 276.998)" fill="#7C5CFF"/>
<circle cx="399.573" cy="288.8" r="0.590116" transform="rotate(90 399.573 288.8)" fill="#7C5CFF"/>
<circle cx="399.573" cy="306.503" r="0.590116" transform="rotate(90 399.573 306.503)" fill="#7C5CFF"/>
<circle cx="399.573" cy="318.306" r="0.590116" transform="rotate(90 399.573 318.306)" fill="#7C5CFF"/>
<circle cx="399.573" cy="324.207" r="0.590116" transform="rotate(90 399.573 324.207)" fill="#7C5CFF"/>
<circle cx="399.573" cy="330.108" r="0.590116" transform="rotate(90 399.573 330.108)" fill="#7C5CFF"/>
<circle cx="399.573" cy="336.009" r="0.590116" transform="rotate(90 399.573 336.009)" fill="#7C5CFF"/>
<circle cx="399.573" cy="341.91" r="0.590116" transform="rotate(90 399.573 341.91)" fill="#7C5CFF"/>
<circle cx="399.573" cy="347.812" r="0.590116" transform="rotate(90 399.573 347.812)" fill="#7C5CFF"/>
<circle cx="393.671" cy="241.59" r="0.590116" transform="rotate(90 393.671 241.59)" fill="#7C5CFF"/>
<circle cx="393.672" cy="247.492" r="0.590116" transform="rotate(90 393.672 247.492)" fill="#7C5CFF"/>
<circle cx="393.672" cy="253.393" r="0.590116" transform="rotate(90 393.672 253.393)" fill="#7C5CFF"/>
<circle cx="393.671" cy="259.294" r="0.590116" transform="rotate(90 393.671 259.294)" fill="#7C5CFF"/>
<circle cx="393.671" cy="265.195" r="0.590116" transform="rotate(90 393.671 265.195)" fill="#7C5CFF"/>
<circle cx="393.672" cy="271.096" r="0.590116" transform="rotate(90 393.672 271.096)" fill="#7C5CFF"/>
<circle cx="393.672" cy="276.997" r="0.590116" transform="rotate(90 393.672 276.997)" fill="#7C5CFF"/>
<circle cx="393.672" cy="282.898" r="0.590116" transform="rotate(90 393.672 282.898)" fill="#7C5CFF"/>
<circle cx="393.671" cy="288.8" r="0.590116" transform="rotate(90 393.671 288.8)" fill="#7C5CFF"/>
<circle cx="393.671" cy="294.701" r="0.590116" transform="rotate(90 393.671 294.701)" fill="#7C5CFF"/>
<circle cx="393.672" cy="300.602" r="0.590116" transform="rotate(90 393.672 300.602)" fill="#7C5CFF"/>
<circle cx="393.672" cy="306.503" r="0.590116" transform="rotate(90 393.672 306.503)" fill="#7C5CFF"/>
<circle cx="393.672" cy="312.404" r="0.590116" transform="rotate(90 393.672 312.404)" fill="#7C5CFF"/>
<circle cx="393.671" cy="318.305" r="0.590116" transform="rotate(90 393.671 318.305)" fill="#7C5CFF"/>
<circle cx="393.671" cy="324.207" r="0.590116" transform="rotate(90 393.671 324.207)" fill="#7C5CFF"/>
<circle cx="393.672" cy="330.108" r="0.590116" transform="rotate(90 393.672 330.108)" fill="#7C5CFF"/>
<circle cx="393.672" cy="336.009" r="0.590116" transform="rotate(90 393.672 336.009)" fill="#7C5CFF"/>
<circle cx="393.671" cy="341.91" r="0.590116" transform="rotate(90 393.671 341.91)" fill="#7C5CFF"/>
<circle cx="393.671" cy="347.811" r="0.590116" transform="rotate(90 393.671 347.811)" fill="#7C5CFF"/>
<circle cx="387.77" cy="241.59" r="0.590116" transform="rotate(90 387.77 241.59)" fill="#7C5CFF"/>
<circle cx="387.77" cy="247.491" r="0.590116" transform="rotate(90 387.77 247.491)" fill="#7C5CFF"/>
<circle cx="387.77" cy="253.393" r="0.590116" transform="rotate(90 387.77 253.393)" fill="#7C5CFF"/>
<circle cx="387.77" cy="259.294" r="0.590116" transform="rotate(90 387.77 259.294)" fill="#7C5CFF"/>
<circle cx="387.77" cy="265.195" r="0.590116" transform="rotate(90 387.77 265.195)" fill="#7C5CFF"/>
<circle cx="387.77" cy="271.096" r="0.590116" transform="rotate(90 387.77 271.096)" fill="#7C5CFF"/>
<circle cx="387.77" cy="276.997" r="0.590116" transform="rotate(90 387.77 276.997)" fill="#7C5CFF"/>
<circle cx="387.77" cy="282.898" r="0.590116" transform="rotate(90 387.77 282.898)" fill="#7C5CFF"/>
<circle cx="387.77" cy="288.8" r="0.590116" transform="rotate(90 387.77 288.8)" fill="#7C5CFF"/>
<circle cx="387.77" cy="294.701" r="0.590116" transform="rotate(90 387.77 294.701)" fill="#7C5CFF"/>
<circle cx="387.77" cy="306.503" r="0.590116" transform="rotate(90 387.77 306.503)" fill="#7C5CFF"/>
<circle cx="387.77" cy="312.404" r="0.590116" transform="rotate(90 387.77 312.404)" fill="#7C5CFF"/>
<circle cx="387.77" cy="318.305" r="0.590116" transform="rotate(90 387.77 318.305)" fill="#7C5CFF"/>
<circle cx="387.77" cy="324.207" r="0.590116" transform="rotate(90 387.77 324.207)" fill="#7C5CFF"/>
<circle cx="387.77" cy="330.108" r="0.590116" transform="rotate(90 387.77 330.108)" fill="#7C5CFF"/>
<circle cx="387.77" cy="336.009" r="0.590116" transform="rotate(90 387.77 336.009)" fill="#7C5CFF"/>
<circle cx="387.77" cy="341.91" r="0.590116" transform="rotate(90 387.77 341.91)" fill="#7C5CFF"/>
<circle cx="387.77" cy="347.811" r="0.590116" transform="rotate(90 387.77 347.811)" fill="#7C5CFF"/>
</g>
</g>
<defs>
<linearGradient id="paint0_linear_1_107285" x1="456" y1="15.5" x2="652.5" y2="332" gradientUnits="userSpaceOnUse">
<stop stop-color="#071031" stop-opacity="0"/>
<stop offset="0.516286" stop-color="#071031"/>
<stop offset="0.710204" stop-color="#071031"/>
<stop offset="1" stop-color="#071031" stop-opacity="0"/>
</linearGradient>
<clipPath id="clip0_1_107285">
<rect width="203" height="119.203" fill="white" transform="translate(386 241)"/>
</clipPath>
</defs>
</svg>
