<svg width="317" height="32" viewBox="0 0 317 32" fill="none" xmlns="http://www.w3.org/2000/svg">
<g clip-path="url(#clip0_1_55811)">
<circle cx="312.5" cy="5.5" r="0.5" transform="rotate(90 312.5 5.5)" fill="#C2C2C2"/>
<circle cx="312.5" cy="10.5" r="0.5" transform="rotate(90 312.5 10.5)" fill="#C2C2C2"/>
<circle cx="312.5" cy="15.5" r="0.5" transform="rotate(90 312.5 15.5)" fill="#C2C2C2"/>
<circle cx="312.5" cy="20.5" r="0.5" transform="rotate(90 312.5 20.5)" fill="#C2C2C2"/>
<circle cx="312.5" cy="25.5" r="0.5" transform="rotate(90 312.5 25.5)" fill="#C2C2C2"/>
<circle cx="312.5" cy="30.5" r="0.5" transform="rotate(90 312.5 30.5)" fill="#C2C2C2"/>
<circle cx="307.5" cy="0.5" r="0.5" transform="rotate(90 307.5 0.5)" fill="#C2C2C2"/>
<circle cx="307.5" cy="5.5" r="0.5" transform="rotate(90 307.5 5.5)" fill="#C2C2C2"/>
<circle cx="307.5" cy="10.5" r="0.5" transform="rotate(90 307.5 10.5)" fill="#C2C2C2"/>
<circle cx="307.5" cy="15.5" r="0.5" transform="rotate(90 307.5 15.5)" fill="#C2C2C2"/>
<circle cx="307.5" cy="20.5" r="0.5" transform="rotate(90 307.5 20.5)" fill="#C2C2C2"/>
<circle cx="307.5" cy="25.5" r="0.5" transform="rotate(90 307.5 25.5)" fill="#C2C2C2"/>
<circle cx="307.5" cy="30.5" r="0.5" transform="rotate(90 307.5 30.5)" fill="#C2C2C2"/>
<circle cx="302.5" cy="0.5" r="0.5" transform="rotate(90 302.5 0.5)" fill="#C2C2C2"/>
<circle cx="302.5" cy="5.5" r="0.5" transform="rotate(90 302.5 5.5)" fill="#C2C2C2"/>
<circle cx="302.5" cy="20.5" r="0.5" transform="rotate(90 302.5 20.5)" fill="#C2C2C2"/>
<circle cx="302.5" cy="25.5" r="0.5" transform="rotate(90 302.5 25.5)" fill="#C2C2C2"/>
<circle cx="302.5" cy="30.5" r="0.5" transform="rotate(90 302.5 30.5)" fill="#C2C2C2"/>
<circle cx="297.5" cy="0.5" r="0.5" transform="rotate(90 297.5 0.5)" fill="#C2C2C2"/>
<circle cx="297.5" cy="5.5" r="0.5" transform="rotate(90 297.5 5.5)" fill="#C2C2C2"/>
<circle cx="297.5" cy="10.5" r="0.5" transform="rotate(90 297.5 10.5)" fill="#C2C2C2"/>
<circle cx="297.5" cy="15.5" r="0.5" transform="rotate(90 297.5 15.5)" fill="#C2C2C2"/>
<circle cx="297.5" cy="25.5" r="0.5" transform="rotate(90 297.5 25.5)" fill="#C2C2C2"/>
<circle cx="297.5" cy="30.5" r="0.5" transform="rotate(90 297.5 30.5)" fill="#C2C2C2"/>
<circle cx="292.5" cy="5.5" r="0.5" transform="rotate(90 292.5 5.5)" fill="#C2C2C2"/>
<circle cx="292.5" cy="10.5" r="0.5" transform="rotate(90 292.5 10.5)" fill="#C2C2C2"/>
<circle cx="292.5" cy="15.5" r="0.5" transform="rotate(90 292.5 15.5)" fill="#C2C2C2"/>
<circle cx="292.5" cy="20.5" r="0.5" transform="rotate(90 292.5 20.5)" fill="#C2C2C2"/>
<circle cx="292.5" cy="25.5" r="0.5" transform="rotate(90 292.5 25.5)" fill="#C2C2C2"/>
<circle cx="292.5" cy="30.5" r="0.5" transform="rotate(90 292.5 30.5)" fill="#C2C2C2"/>
<circle cx="287.5" cy="0.5" r="0.5" transform="rotate(90 287.5 0.5)" fill="#C2C2C2"/>
<circle cx="287.5" cy="5.5" r="0.5" transform="rotate(90 287.5 5.5)" fill="#C2C2C2"/>
<circle cx="287.5" cy="10.5" r="0.5" transform="rotate(90 287.5 10.5)" fill="#C2C2C2"/>
<circle cx="287.5" cy="15.5" r="0.5" transform="rotate(90 287.5 15.5)" fill="#C2C2C2"/>
<circle cx="287.5" cy="20.5" r="0.5" transform="rotate(90 287.5 20.5)" fill="#C2C2C2"/>
<circle cx="287.5" cy="25.5" r="0.5" transform="rotate(90 287.5 25.5)" fill="#C2C2C2"/>
<circle cx="287.5" cy="30.5" r="0.5" transform="rotate(90 287.5 30.5)" fill="#C2C2C2"/>
<circle cx="282.5" cy="5.5" r="0.5" transform="rotate(90 282.5 5.5)" fill="#C2C2C2"/>
<circle cx="282.5" cy="15.5" r="0.5" transform="rotate(90 282.5 15.5)" fill="#C2C2C2"/>
<circle cx="282.5" cy="20.5" r="0.5" transform="rotate(90 282.5 20.5)" fill="#C2C2C2"/>
<circle cx="282.5" cy="25.5" r="0.5" transform="rotate(90 282.5 25.5)" fill="#C2C2C2"/>
<circle cx="282.5" cy="30.5" r="0.5" transform="rotate(90 282.5 30.5)" fill="#C2C2C2"/>
<circle cx="277.5" cy="0.5" r="0.5" transform="rotate(90 277.5 0.5)" fill="#C2C2C2"/>
<circle cx="277.5" cy="5.5" r="0.5" transform="rotate(90 277.5 5.5)" fill="#C2C2C2"/>
<circle cx="277.5" cy="10.5" r="0.5" transform="rotate(90 277.5 10.5)" fill="#C2C2C2"/>
<circle cx="277.5" cy="15.5" r="0.5" transform="rotate(90 277.5 15.5)" fill="#C2C2C2"/>
<circle cx="277.5" cy="20.5" r="0.5" transform="rotate(90 277.5 20.5)" fill="#C2C2C2"/>
<circle cx="277.5" cy="25.5" r="0.5" transform="rotate(90 277.5 25.5)" fill="#C2C2C2"/>
<circle cx="277.5" cy="30.5" r="0.5" transform="rotate(90 277.5 30.5)" fill="#C2C2C2"/>
<circle cx="272.5" cy="0.5" r="0.5" transform="rotate(90 272.5 0.5)" fill="#C2C2C2"/>
<circle cx="272.5" cy="5.5" r="0.5" transform="rotate(90 272.5 5.5)" fill="#C2C2C2"/>
<circle cx="272.5" cy="10.5" r="0.5" transform="rotate(90 272.5 10.5)" fill="#C2C2C2"/>
<circle cx="272.5" cy="15.5" r="0.5" transform="rotate(90 272.5 15.5)" fill="#C2C2C2"/>
<circle cx="272.5" cy="20.5" r="0.5" transform="rotate(90 272.5 20.5)" fill="#C2C2C2"/>
<circle cx="272.5" cy="25.5" r="0.5" transform="rotate(90 272.5 25.5)" fill="#C2C2C2"/>
<circle cx="267.5" cy="0.5" r="0.5" transform="rotate(90 267.5 0.5)" fill="#C2C2C2"/>
<circle cx="267.5" cy="5.5" r="0.5" transform="rotate(90 267.5 5.5)" fill="#C2C2C2"/>
<circle cx="267.5" cy="10.5" r="0.5" transform="rotate(90 267.5 10.5)" fill="#C2C2C2"/>
<circle cx="267.5" cy="15.5" r="0.5" transform="rotate(90 267.5 15.5)" fill="#C2C2C2"/>
<circle cx="267.5" cy="20.5" r="0.5" transform="rotate(90 267.5 20.5)" fill="#C2C2C2"/>
<circle cx="267.5" cy="25.5" r="0.5" transform="rotate(90 267.5 25.5)" fill="#C2C2C2"/>
<circle cx="267.5" cy="30.5" r="0.5" transform="rotate(90 267.5 30.5)" fill="#C2C2C2"/>
<circle cx="262.5" cy="0.5" r="0.5" transform="rotate(90 262.5 0.5)" fill="#C2C2C2"/>
<circle cx="262.5" cy="5.5" r="0.5" transform="rotate(90 262.5 5.5)" fill="#C2C2C2"/>
<circle cx="262.5" cy="10.5" r="0.5" transform="rotate(90 262.5 10.5)" fill="#C2C2C2"/>
<circle cx="262.5" cy="15.5" r="0.5" transform="rotate(90 262.5 15.5)" fill="#C2C2C2"/>
<circle cx="262.5" cy="20.5" r="0.5" transform="rotate(90 262.5 20.5)" fill="#C2C2C2"/>
<circle cx="262.5" cy="25.5" r="0.5" transform="rotate(90 262.5 25.5)" fill="#C2C2C2"/>
<circle cx="262.5" cy="30.5" r="0.5" transform="rotate(90 262.5 30.5)" fill="#C2C2C2"/>
<circle cx="257.5" cy="0.5" r="0.5" transform="rotate(90 257.5 0.5)" fill="#C2C2C2"/>
<circle cx="257.5" cy="5.5" r="0.5" transform="rotate(90 257.5 5.5)" fill="#C2C2C2"/>
<circle cx="257.5" cy="10.5" r="0.5" transform="rotate(90 257.5 10.5)" fill="#C2C2C2"/>
<circle cx="257.5" cy="25.5" r="0.5" transform="rotate(90 257.5 25.5)" fill="#C2C2C2"/>
<circle cx="252.5" cy="0.5" r="0.5" transform="rotate(90 252.5 0.5)" fill="#C2C2C2"/>
<circle cx="252.5" cy="5.5" r="0.5" transform="rotate(90 252.5 5.5)" fill="#C2C2C2"/>
<circle cx="252.5" cy="10.5" r="0.5" transform="rotate(90 252.5 10.5)" fill="#C2C2C2"/>
<circle cx="252.5" cy="20.5" r="0.5" transform="rotate(90 252.5 20.5)" fill="#C2C2C2"/>
<circle cx="252.5" cy="25.5" r="0.5" transform="rotate(90 252.5 25.5)" fill="#C2C2C2"/>
<circle cx="252.5" cy="30.5" r="0.5" transform="rotate(90 252.5 30.5)" fill="#C2C2C2"/>
<circle cx="247.5" cy="0.5" r="0.5" transform="rotate(90 247.5 0.5)" fill="#C2C2C2"/>
<circle cx="247.5" cy="5.5" r="0.5" transform="rotate(90 247.5 5.5)" fill="#C2C2C2"/>
<circle cx="247.5" cy="15.5" r="0.5" transform="rotate(90 247.5 15.5)" fill="#C2C2C2"/>
<circle cx="247.5" cy="20.5" r="0.5" transform="rotate(90 247.5 20.5)" fill="#C2C2C2"/>
<circle cx="247.5" cy="25.5" r="0.5" transform="rotate(90 247.5 25.5)" fill="#C2C2C2"/>
<circle cx="247.5" cy="30.5" r="0.5" transform="rotate(90 247.5 30.5)" fill="#C2C2C2"/>
<circle cx="242.5" cy="0.5" r="0.5" transform="rotate(90 242.5 0.5)" fill="#C2C2C2"/>
<circle cx="242.5" cy="5.5" r="0.5" transform="rotate(90 242.5 5.5)" fill="#C2C2C2"/>
<circle cx="242.5" cy="10.5" r="0.5" transform="rotate(90 242.5 10.5)" fill="#C2C2C2"/>
<circle cx="242.5" cy="15.5" r="0.5" transform="rotate(90 242.5 15.5)" fill="#C2C2C2"/>
<circle cx="242.5" cy="20.5" r="0.5" transform="rotate(90 242.5 20.5)" fill="#C2C2C2"/>
<circle cx="242.5" cy="25.5" r="0.5" transform="rotate(90 242.5 25.5)" fill="#C2C2C2"/>
<circle cx="242.5" cy="30.5" r="0.5" transform="rotate(90 242.5 30.5)" fill="#C2C2C2"/>
<circle cx="237.5" cy="0.5" r="0.5" transform="rotate(90 237.5 0.5)" fill="#C2C2C2"/>
<circle cx="237.5" cy="5.5" r="0.5" transform="rotate(90 237.5 5.5)" fill="#C2C2C2"/>
<circle cx="237.5" cy="10.5" r="0.5" transform="rotate(90 237.5 10.5)" fill="#C2C2C2"/>
<circle cx="237.5" cy="15.5" r="0.5" transform="rotate(90 237.5 15.5)" fill="#C2C2C2"/>
<circle cx="237.5" cy="20.5" r="0.5" transform="rotate(90 237.5 20.5)" fill="#C2C2C2"/>
<circle cx="237.5" cy="25.5" r="0.5" transform="rotate(90 237.5 25.5)" fill="#C2C2C2"/>
<circle cx="232.5" cy="0.5" r="0.5" transform="rotate(90 232.5 0.5)" fill="#C2C2C2"/>
<circle cx="232.5" cy="5.5" r="0.5" transform="rotate(90 232.5 5.5)" fill="#C2C2C2"/>
<circle cx="232.5" cy="10.5" r="0.5" transform="rotate(90 232.5 10.5)" fill="#C2C2C2"/>
<circle cx="232.5" cy="15.5" r="0.5" transform="rotate(90 232.5 15.5)" fill="#C2C2C2"/>
<circle cx="232.5" cy="20.5" r="0.5" transform="rotate(90 232.5 20.5)" fill="#C2C2C2"/>
<circle cx="232.5" cy="25.5" r="0.5" transform="rotate(90 232.5 25.5)" fill="#C2C2C2"/>
<circle cx="227.5" cy="5.5" r="0.5" transform="rotate(90 227.5 5.5)" fill="#C2C2C2"/>
<circle cx="227.5" cy="20.5" r="0.5" transform="rotate(90 227.5 20.5)" fill="#C2C2C2"/>
<circle cx="227.5" cy="30.5" r="0.5" transform="rotate(90 227.5 30.5)" fill="#C2C2C2"/>
<circle cx="222.5" cy="0.5" r="0.5" transform="rotate(90 222.5 0.5)" fill="#C2C2C2"/>
<circle cx="222.5" cy="5.5" r="0.5" transform="rotate(90 222.5 5.5)" fill="#C2C2C2"/>
<circle cx="222.5" cy="10.5" r="0.5" transform="rotate(90 222.5 10.5)" fill="#C2C2C2"/>
<circle cx="222.5" cy="15.5" r="0.5" transform="rotate(90 222.5 15.5)" fill="#C2C2C2"/>
<circle cx="222.5" cy="20.5" r="0.5" transform="rotate(90 222.5 20.5)" fill="#C2C2C2"/>
<circle cx="222.5" cy="25.5" r="0.5" transform="rotate(90 222.5 25.5)" fill="#C2C2C2"/>
<circle cx="222.5" cy="30.5" r="0.5" transform="rotate(90 222.5 30.5)" fill="#C2C2C2"/>
<circle cx="217.5" cy="0.5" r="0.5" transform="rotate(90 217.5 0.5)" fill="#C2C2C2"/>
<circle cx="217.5" cy="5.5" r="0.5" transform="rotate(90 217.5 5.5)" fill="#C2C2C2"/>
<circle cx="217.5" cy="10.5" r="0.5" transform="rotate(90 217.5 10.5)" fill="#C2C2C2"/>
<circle cx="217.5" cy="20.5" r="0.5" transform="rotate(90 217.5 20.5)" fill="#C2C2C2"/>
<circle cx="217.5" cy="25.5" r="0.5" transform="rotate(90 217.5 25.5)" fill="#C2C2C2"/>
<circle cx="217.5" cy="30.5" r="0.5" transform="rotate(90 217.5 30.5)" fill="#C2C2C2"/>
<circle cx="212.5" cy="5.5" r="0.5" transform="rotate(90 212.5 5.5)" fill="#C2C2C2"/>
<circle cx="212.5" cy="10.5" r="0.5" transform="rotate(90 212.5 10.5)" fill="#C2C2C2"/>
<circle cx="212.5" cy="15.5" r="0.5" transform="rotate(90 212.5 15.5)" fill="#C2C2C2"/>
<circle cx="212.5" cy="20.5" r="0.5" transform="rotate(90 212.5 20.5)" fill="#C2C2C2"/>
<circle cx="212.5" cy="25.5" r="0.5" transform="rotate(90 212.5 25.5)" fill="#C2C2C2"/>
<circle cx="207.5" cy="0.5" r="0.5" transform="rotate(90 207.5 0.5)" fill="#C2C2C2"/>
<circle cx="207.5" cy="5.5" r="0.5" transform="rotate(90 207.5 5.5)" fill="#C2C2C2"/>
<circle cx="207.5" cy="10.5" r="0.5" transform="rotate(90 207.5 10.5)" fill="#C2C2C2"/>
<circle cx="207.5" cy="15.5" r="0.5" transform="rotate(90 207.5 15.5)" fill="#C2C2C2"/>
<circle cx="207.5" cy="20.5" r="0.5" transform="rotate(90 207.5 20.5)" fill="#C2C2C2"/>
<circle cx="207.5" cy="25.5" r="0.5" transform="rotate(90 207.5 25.5)" fill="#C2C2C2"/>
<circle cx="207.5" cy="30.5" r="0.5" transform="rotate(90 207.5 30.5)" fill="#C2C2C2"/>
<circle cx="202.5" cy="0.5" r="0.5" transform="rotate(90 202.5 0.5)" fill="#C2C2C2"/>
<circle cx="202.5" cy="5.5" r="0.5" transform="rotate(90 202.5 5.5)" fill="#C2C2C2"/>
<circle cx="202.5" cy="10.5" r="0.5" transform="rotate(90 202.5 10.5)" fill="#C2C2C2"/>
<circle cx="202.5" cy="15.5" r="0.5" transform="rotate(90 202.5 15.5)" fill="#C2C2C2"/>
<circle cx="202.5" cy="20.5" r="0.5" transform="rotate(90 202.5 20.5)" fill="#C2C2C2"/>
<circle cx="202.5" cy="25.5" r="0.5" transform="rotate(90 202.5 25.5)" fill="#C2C2C2"/>
<circle cx="202.5" cy="30.5" r="0.5" transform="rotate(90 202.5 30.5)" fill="#C2C2C2"/>
<circle cx="197.5" cy="0.5" r="0.5" transform="rotate(90 197.5 0.5)" fill="#C2C2C2"/>
<circle cx="197.5" cy="5.5" r="0.5" transform="rotate(90 197.5 5.5)" fill="#C2C2C2"/>
<circle cx="197.5" cy="10.5" r="0.5" transform="rotate(90 197.5 10.5)" fill="#C2C2C2"/>
<circle cx="197.5" cy="15.5" r="0.5" transform="rotate(90 197.5 15.5)" fill="#C2C2C2"/>
<circle cx="197.5" cy="20.5" r="0.5" transform="rotate(90 197.5 20.5)" fill="#C2C2C2"/>
<circle cx="197.5" cy="25.5" r="0.5" transform="rotate(90 197.5 25.5)" fill="#C2C2C2"/>
<circle cx="197.5" cy="30.5" r="0.5" transform="rotate(90 197.5 30.5)" fill="#C2C2C2"/>
<circle cx="192.5" cy="0.5" r="0.5" transform="rotate(90 192.5 0.5)" fill="#C2C2C2"/>
<circle cx="192.5" cy="5.5" r="0.5" transform="rotate(90 192.5 5.5)" fill="#C2C2C2"/>
<circle cx="192.5" cy="10.5" r="0.5" transform="rotate(90 192.5 10.5)" fill="#C2C2C2"/>
<circle cx="192.5" cy="15.5" r="0.5" transform="rotate(90 192.5 15.5)" fill="#C2C2C2"/>
<circle cx="192.5" cy="20.5" r="0.5" transform="rotate(90 192.5 20.5)" fill="#C2C2C2"/>
<circle cx="192.5" cy="25.5" r="0.5" transform="rotate(90 192.5 25.5)" fill="#C2C2C2"/>
<circle cx="192.5" cy="30.5" r="0.5" transform="rotate(90 192.5 30.5)" fill="#C2C2C2"/>
<circle cx="187.5" cy="0.5" r="0.5" transform="rotate(90 187.5 0.5)" fill="#C2C2C2"/>
<circle cx="187.5" cy="5.5" r="0.5" transform="rotate(90 187.5 5.5)" fill="#C2C2C2"/>
<circle cx="187.5" cy="10.5" r="0.5" transform="rotate(90 187.5 10.5)" fill="#C2C2C2"/>
<circle cx="187.5" cy="15.5" r="0.5" transform="rotate(90 187.5 15.5)" fill="#C2C2C2"/>
<circle cx="187.5" cy="20.5" r="0.5" transform="rotate(90 187.5 20.5)" fill="#C2C2C2"/>
<circle cx="187.5" cy="25.5" r="0.5" transform="rotate(90 187.5 25.5)" fill="#C2C2C2"/>
<circle cx="187.5" cy="30.5" r="0.5" transform="rotate(90 187.5 30.5)" fill="#C2C2C2"/>
<circle cx="182.5" cy="0.5" r="0.5" transform="rotate(90 182.5 0.5)" fill="#C2C2C2"/>
<circle cx="182.5" cy="5.5" r="0.5" transform="rotate(90 182.5 5.5)" fill="#C2C2C2"/>
<circle cx="182.5" cy="10.5" r="0.5" transform="rotate(90 182.5 10.5)" fill="#C2C2C2"/>
<circle cx="182.5" cy="20.5" r="0.5" transform="rotate(90 182.5 20.5)" fill="#C2C2C2"/>
<circle cx="182.5" cy="25.5" r="0.5" transform="rotate(90 182.5 25.5)" fill="#C2C2C2"/>
<circle cx="182.5" cy="30.5" r="0.5" transform="rotate(90 182.5 30.5)" fill="#C2C2C2"/>
<circle cx="177.5" cy="0.5" r="0.5" transform="rotate(90 177.5 0.5)" fill="#C2C2C2"/>
<circle cx="177.5" cy="5.5" r="0.5" transform="rotate(90 177.5 5.5)" fill="#C2C2C2"/>
<circle cx="177.5" cy="15.5" r="0.5" transform="rotate(90 177.5 15.5)" fill="#C2C2C2"/>
<circle cx="177.5" cy="20.5" r="0.5" transform="rotate(90 177.5 20.5)" fill="#C2C2C2"/>
<circle cx="177.5" cy="25.5" r="0.5" transform="rotate(90 177.5 25.5)" fill="#C2C2C2"/>
<circle cx="177.5" cy="30.5" r="0.5" transform="rotate(90 177.5 30.5)" fill="#C2C2C2"/>
<circle cx="172.5" cy="5.5" r="0.5" transform="rotate(90 172.5 5.5)" fill="#C2C2C2"/>
<circle cx="172.5" cy="10.5" r="0.5" transform="rotate(90 172.5 10.5)" fill="#C2C2C2"/>
<circle cx="172.5" cy="15.5" r="0.5" transform="rotate(90 172.5 15.5)" fill="#C2C2C2"/>
<circle cx="172.5" cy="20.5" r="0.5" transform="rotate(90 172.5 20.5)" fill="#C2C2C2"/>
<circle cx="172.5" cy="25.5" r="0.5" transform="rotate(90 172.5 25.5)" fill="#C2C2C2"/>
<circle cx="172.5" cy="30.5" r="0.5" transform="rotate(90 172.5 30.5)" fill="#C2C2C2"/>
<circle cx="167.5" cy="0.5" r="0.5" transform="rotate(90 167.5 0.5)" fill="#C2C2C2"/>
<circle cx="167.5" cy="5.5" r="0.5" transform="rotate(90 167.5 5.5)" fill="#C2C2C2"/>
<circle cx="167.5" cy="10.5" r="0.5" transform="rotate(90 167.5 10.5)" fill="#C2C2C2"/>
<circle cx="167.5" cy="15.5" r="0.5" transform="rotate(90 167.5 15.5)" fill="#C2C2C2"/>
<circle cx="167.5" cy="20.5" r="0.5" transform="rotate(90 167.5 20.5)" fill="#C2C2C2"/>
<circle cx="167.5" cy="25.5" r="0.5" transform="rotate(90 167.5 25.5)" fill="#C2C2C2"/>
<circle cx="167.5" cy="30.5" r="0.5" transform="rotate(90 167.5 30.5)" fill="#C2C2C2"/>
<circle cx="162.5" cy="0.5" r="0.5" transform="rotate(90 162.5 0.5)" fill="#C2C2C2"/>
<circle cx="162.5" cy="5.5" r="0.5" transform="rotate(90 162.5 5.5)" fill="#C2C2C2"/>
<circle cx="162.5" cy="10.5" r="0.5" transform="rotate(90 162.5 10.5)" fill="#C2C2C2"/>
<circle cx="162.5" cy="15.5" r="0.5" transform="rotate(90 162.5 15.5)" fill="#C2C2C2"/>
<circle cx="162.5" cy="20.5" r="0.5" transform="rotate(90 162.5 20.5)" fill="#C2C2C2"/>
<circle cx="162.5" cy="25.5" r="0.5" transform="rotate(90 162.5 25.5)" fill="#C2C2C2"/>
<circle cx="162.5" cy="30.5" r="0.5" transform="rotate(90 162.5 30.5)" fill="#C2C2C2"/>
<circle cx="157.5" cy="0.5" r="0.5" transform="rotate(90 157.5 0.5)" fill="#C2C2C2"/>
<circle cx="157.5" cy="5.5" r="0.5" transform="rotate(90 157.5 5.5)" fill="#C2C2C2"/>
<circle cx="157.5" cy="10.5" r="0.5" transform="rotate(90 157.5 10.5)" fill="#C2C2C2"/>
<circle cx="157.5" cy="15.5" r="0.5" transform="rotate(90 157.5 15.5)" fill="#C2C2C2"/>
<circle cx="157.5" cy="20.5" r="0.5" transform="rotate(90 157.5 20.5)" fill="#C2C2C2"/>
<circle cx="157.5" cy="25.5" r="0.5" transform="rotate(90 157.5 25.5)" fill="#C2C2C2"/>
<circle cx="157.5" cy="30.5" r="0.5" transform="rotate(90 157.5 30.5)" fill="#C2C2C2"/>
<circle cx="152.5" cy="0.5" r="0.5" transform="rotate(90 152.5 0.5)" fill="#C2C2C2"/>
<circle cx="152.5" cy="5.5" r="0.5" transform="rotate(90 152.5 5.5)" fill="#C2C2C2"/>
<circle cx="152.5" cy="10.5" r="0.5" transform="rotate(90 152.5 10.5)" fill="#C2C2C2"/>
<circle cx="152.5" cy="15.5" r="0.5" transform="rotate(90 152.5 15.5)" fill="#C2C2C2"/>
<circle cx="152.5" cy="20.5" r="0.5" transform="rotate(90 152.5 20.5)" fill="#C2C2C2"/>
<circle cx="152.5" cy="25.5" r="0.5" transform="rotate(90 152.5 25.5)" fill="#C2C2C2"/>
<circle cx="152.5" cy="30.5" r="0.5" transform="rotate(90 152.5 30.5)" fill="#C2C2C2"/>
<circle cx="147.5" cy="0.5" r="0.5" transform="rotate(90 147.5 0.5)" fill="#C2C2C2"/>
<circle cx="147.5" cy="10.5" r="0.5" transform="rotate(90 147.5 10.5)" fill="#C2C2C2"/>
<circle cx="147.5" cy="15.5" r="0.5" transform="rotate(90 147.5 15.5)" fill="#C2C2C2"/>
<circle cx="147.5" cy="20.5" r="0.5" transform="rotate(90 147.5 20.5)" fill="#C2C2C2"/>
<circle cx="147.5" cy="30.5" r="0.5" transform="rotate(90 147.5 30.5)" fill="#C2C2C2"/>
<circle cx="142.5" cy="0.5" r="0.5" transform="rotate(90 142.5 0.5)" fill="#C2C2C2"/>
<circle cx="142.5" cy="5.5" r="0.5" transform="rotate(90 142.5 5.5)" fill="#C2C2C2"/>
<circle cx="142.5" cy="10.5" r="0.5" transform="rotate(90 142.5 10.5)" fill="#C2C2C2"/>
<circle cx="142.5" cy="15.5" r="0.5" transform="rotate(90 142.5 15.5)" fill="#C2C2C2"/>
<circle cx="142.5" cy="20.5" r="0.5" transform="rotate(90 142.5 20.5)" fill="#C2C2C2"/>
<circle cx="142.5" cy="25.5" r="0.5" transform="rotate(90 142.5 25.5)" fill="#C2C2C2"/>
<circle cx="142.5" cy="30.5" r="0.5" transform="rotate(90 142.5 30.5)" fill="#C2C2C2"/>
<circle cx="137.5" cy="0.5" r="0.5" transform="rotate(90 137.5 0.5)" fill="#C2C2C2"/>
<circle cx="137.5" cy="5.5" r="0.5" transform="rotate(90 137.5 5.5)" fill="#C2C2C2"/>
<circle cx="137.5" cy="15.5" r="0.5" transform="rotate(90 137.5 15.5)" fill="#C2C2C2"/>
<circle cx="137.5" cy="20.5" r="0.5" transform="rotate(90 137.5 20.5)" fill="#C2C2C2"/>
<circle cx="137.5" cy="25.5" r="0.5" transform="rotate(90 137.5 25.5)" fill="#C2C2C2"/>
<circle cx="137.5" cy="30.5" r="0.5" transform="rotate(90 137.5 30.5)" fill="#C2C2C2"/>
<circle cx="132.5" cy="0.5" r="0.5" transform="rotate(90 132.5 0.5)" fill="#C2C2C2"/>
<circle cx="132.5" cy="5.5" r="0.5" transform="rotate(90 132.5 5.5)" fill="#C2C2C2"/>
<circle cx="132.5" cy="10.5" r="0.5" transform="rotate(90 132.5 10.5)" fill="#C2C2C2"/>
<circle cx="132.5" cy="15.5" r="0.5" transform="rotate(90 132.5 15.5)" fill="#C2C2C2"/>
<circle cx="132.5" cy="20.5" r="0.5" transform="rotate(90 132.5 20.5)" fill="#C2C2C2"/>
<circle cx="132.5" cy="25.5" r="0.5" transform="rotate(90 132.5 25.5)" fill="#C2C2C2"/>
<circle cx="132.5" cy="30.5" r="0.5" transform="rotate(90 132.5 30.5)" fill="#C2C2C2"/>
<circle cx="127.5" cy="0.5" r="0.5" transform="rotate(90 127.5 0.5)" fill="#C2C2C2"/>
<circle cx="127.5" cy="5.5" r="0.5" transform="rotate(90 127.5 5.5)" fill="#C2C2C2"/>
<circle cx="127.5" cy="10.5" r="0.5" transform="rotate(90 127.5 10.5)" fill="#C2C2C2"/>
<circle cx="127.5" cy="15.5" r="0.5" transform="rotate(90 127.5 15.5)" fill="#C2C2C2"/>
<circle cx="127.5" cy="20.5" r="0.5" transform="rotate(90 127.5 20.5)" fill="#C2C2C2"/>
<circle cx="127.5" cy="25.5" r="0.5" transform="rotate(90 127.5 25.5)" fill="#C2C2C2"/>
<circle cx="127.5" cy="30.5" r="0.5" transform="rotate(90 127.5 30.5)" fill="#C2C2C2"/>
<circle cx="122.5" cy="0.5" r="0.5" transform="rotate(90 122.5 0.5)" fill="#C2C2C2"/>
<circle cx="122.5" cy="5.5" r="0.5" transform="rotate(90 122.5 5.5)" fill="#C2C2C2"/>
<circle cx="122.5" cy="10.5" r="0.5" transform="rotate(90 122.5 10.5)" fill="#C2C2C2"/>
<circle cx="122.5" cy="15.5" r="0.5" transform="rotate(90 122.5 15.5)" fill="#C2C2C2"/>
<circle cx="122.5" cy="20.5" r="0.5" transform="rotate(90 122.5 20.5)" fill="#C2C2C2"/>
<circle cx="122.5" cy="25.5" r="0.5" transform="rotate(90 122.5 25.5)" fill="#C2C2C2"/>
<circle cx="122.5" cy="30.5" r="0.5" transform="rotate(90 122.5 30.5)" fill="#C2C2C2"/>
<circle cx="117.5" cy="0.5" r="0.5" transform="rotate(90 117.5 0.5)" fill="#C2C2C2"/>
<circle cx="117.5" cy="5.5" r="0.5" transform="rotate(90 117.5 5.5)" fill="#C2C2C2"/>
<circle cx="117.5" cy="10.5" r="0.5" transform="rotate(90 117.5 10.5)" fill="#C2C2C2"/>
<circle cx="117.5" cy="15.5" r="0.5" transform="rotate(90 117.5 15.5)" fill="#C2C2C2"/>
<circle cx="117.5" cy="20.5" r="0.5" transform="rotate(90 117.5 20.5)" fill="#C2C2C2"/>
<circle cx="117.5" cy="25.5" r="0.5" transform="rotate(90 117.5 25.5)" fill="#C2C2C2"/>
<circle cx="117.5" cy="30.5" r="0.5" transform="rotate(90 117.5 30.5)" fill="#C2C2C2"/>
<circle cx="112.5" cy="0.5" r="0.5" transform="rotate(90 112.5 0.5)" fill="#C2C2C2"/>
<circle cx="112.5" cy="5.5" r="0.5" transform="rotate(90 112.5 5.5)" fill="#C2C2C2"/>
<circle cx="112.5" cy="10.5" r="0.5" transform="rotate(90 112.5 10.5)" fill="#C2C2C2"/>
<circle cx="112.5" cy="15.5" r="0.5" transform="rotate(90 112.5 15.5)" fill="#C2C2C2"/>
<circle cx="112.5" cy="20.5" r="0.5" transform="rotate(90 112.5 20.5)" fill="#C2C2C2"/>
<circle cx="112.5" cy="25.5" r="0.5" transform="rotate(90 112.5 25.5)" fill="#C2C2C2"/>
<circle cx="112.5" cy="30.5" r="0.5" transform="rotate(90 112.5 30.5)" fill="#C2C2C2"/>
<circle cx="107.5" cy="0.5" r="0.5" transform="rotate(90 107.5 0.5)" fill="#C2C2C2"/>
<circle cx="107.5" cy="5.5" r="0.5" transform="rotate(90 107.5 5.5)" fill="#C2C2C2"/>
<circle cx="107.5" cy="10.5" r="0.5" transform="rotate(90 107.5 10.5)" fill="#C2C2C2"/>
<circle cx="107.5" cy="15.5" r="0.5" transform="rotate(90 107.5 15.5)" fill="#C2C2C2"/>
<circle cx="107.5" cy="20.5" r="0.5" transform="rotate(90 107.5 20.5)" fill="#C2C2C2"/>
<circle cx="107.5" cy="25.5" r="0.5" transform="rotate(90 107.5 25.5)" fill="#C2C2C2"/>
<circle cx="107.5" cy="30.5" r="0.5" transform="rotate(90 107.5 30.5)" fill="#C2C2C2"/>
<circle cx="102.5" cy="0.5" r="0.5" transform="rotate(90 102.5 0.5)" fill="#C2C2C2"/>
<circle cx="102.5" cy="5.5" r="0.5" transform="rotate(90 102.5 5.5)" fill="#C2C2C2"/>
<circle cx="102.5" cy="10.5" r="0.5" transform="rotate(90 102.5 10.5)" fill="#C2C2C2"/>
<circle cx="102.5" cy="15.5" r="0.5" transform="rotate(90 102.5 15.5)" fill="#C2C2C2"/>
<circle cx="97.5" cy="0.5" r="0.5" transform="rotate(90 97.5 0.5)" fill="#C2C2C2"/>
<circle cx="97.5" cy="5.5" r="0.5" transform="rotate(90 97.5 5.5)" fill="#C2C2C2"/>
<circle cx="97.5" cy="10.5" r="0.5" transform="rotate(90 97.5 10.5)" fill="#C2C2C2"/>
<circle cx="97.5" cy="15.5" r="0.5" transform="rotate(90 97.5 15.5)" fill="#C2C2C2"/>
<circle cx="97.5" cy="20.5" r="0.5" transform="rotate(90 97.5 20.5)" fill="#C2C2C2"/>
<circle cx="97.5" cy="25.5" r="0.5" transform="rotate(90 97.5 25.5)" fill="#C2C2C2"/>
<circle cx="97.5" cy="30.5" r="0.5" transform="rotate(90 97.5 30.5)" fill="#C2C2C2"/>
<circle cx="92.5" cy="0.5" r="0.5" transform="rotate(90 92.5 0.5)" fill="#C2C2C2"/>
<circle cx="92.5" cy="5.5" r="0.5" transform="rotate(90 92.5 5.5)" fill="#C2C2C2"/>
<circle cx="92.5" cy="10.5" r="0.5" transform="rotate(90 92.5 10.5)" fill="#C2C2C2"/>
<circle cx="92.5" cy="15.5" r="0.5" transform="rotate(90 92.5 15.5)" fill="#C2C2C2"/>
<circle cx="92.5" cy="20.5" r="0.5" transform="rotate(90 92.5 20.5)" fill="#C2C2C2"/>
<circle cx="92.5" cy="25.5" r="0.5" transform="rotate(90 92.5 25.5)" fill="#C2C2C2"/>
<circle cx="92.5" cy="30.5" r="0.5" transform="rotate(90 92.5 30.5)" fill="#C2C2C2"/>
<circle cx="87.5" cy="0.5" r="0.5" transform="rotate(90 87.5 0.5)" fill="#C2C2C2"/>
<circle cx="87.5" cy="5.5" r="0.5" transform="rotate(90 87.5 5.5)" fill="#C2C2C2"/>
<circle cx="87.5" cy="10.5" r="0.5" transform="rotate(90 87.5 10.5)" fill="#C2C2C2"/>
<circle cx="87.5" cy="15.5" r="0.5" transform="rotate(90 87.5 15.5)" fill="#C2C2C2"/>
<circle cx="87.5" cy="20.5" r="0.5" transform="rotate(90 87.5 20.5)" fill="#C2C2C2"/>
<circle cx="87.5" cy="25.5" r="0.5" transform="rotate(90 87.5 25.5)" fill="#C2C2C2"/>
<circle cx="87.5" cy="30.5" r="0.5" transform="rotate(90 87.5 30.5)" fill="#C2C2C2"/>
<circle cx="82.5" cy="0.5" r="0.5" transform="rotate(90 82.5 0.5)" fill="#C2C2C2"/>
<circle cx="82.5" cy="5.5" r="0.5" transform="rotate(90 82.5 5.5)" fill="#C2C2C2"/>
<circle cx="82.5" cy="10.5" r="0.5" transform="rotate(90 82.5 10.5)" fill="#C2C2C2"/>
<circle cx="82.5" cy="15.5" r="0.5" transform="rotate(90 82.5 15.5)" fill="#C2C2C2"/>
<circle cx="82.5" cy="20.5" r="0.5" transform="rotate(90 82.5 20.5)" fill="#C2C2C2"/>
<circle cx="82.5" cy="30.5" r="0.5" transform="rotate(90 82.5 30.5)" fill="#C2C2C2"/>
<circle cx="77.5" cy="0.5" r="0.5" transform="rotate(90 77.5 0.5)" fill="#C2C2C2"/>
<circle cx="77.5" cy="5.5" r="0.5" transform="rotate(90 77.5 5.5)" fill="#C2C2C2"/>
<circle cx="77.5" cy="10.5" r="0.5" transform="rotate(90 77.5 10.5)" fill="#C2C2C2"/>
<circle cx="77.5" cy="20.5" r="0.5" transform="rotate(90 77.5 20.5)" fill="#C2C2C2"/>
<circle cx="77.5" cy="25.5" r="0.5" transform="rotate(90 77.5 25.5)" fill="#C2C2C2"/>
<circle cx="77.5" cy="30.5" r="0.5" transform="rotate(90 77.5 30.5)" fill="#C2C2C2"/>
<circle cx="72.5" cy="5.5" r="0.5" transform="rotate(90 72.5 5.5)" fill="#C2C2C2"/>
<circle cx="72.5" cy="10.5" r="0.5" transform="rotate(90 72.5 10.5)" fill="#C2C2C2"/>
<circle cx="72.5" cy="20.5" r="0.5" transform="rotate(90 72.5 20.5)" fill="#C2C2C2"/>
<circle cx="72.5" cy="25.5" r="0.5" transform="rotate(90 72.5 25.5)" fill="#C2C2C2"/>
<circle cx="72.5" cy="30.5" r="0.5" transform="rotate(90 72.5 30.5)" fill="#C2C2C2"/>
<circle cx="67.5" cy="0.5" r="0.5" transform="rotate(90 67.5 0.5)" fill="#C2C2C2"/>
<circle cx="67.5" cy="5.5" r="0.5" transform="rotate(90 67.5 5.5)" fill="#C2C2C2"/>
<circle cx="67.5" cy="10.5" r="0.5" transform="rotate(90 67.5 10.5)" fill="#C2C2C2"/>
<circle cx="67.5" cy="15.5" r="0.5" transform="rotate(90 67.5 15.5)" fill="#C2C2C2"/>
<circle cx="67.5" cy="20.5" r="0.5" transform="rotate(90 67.5 20.5)" fill="#C2C2C2"/>
<circle cx="67.5" cy="25.5" r="0.5" transform="rotate(90 67.5 25.5)" fill="#C2C2C2"/>
<circle cx="67.5" cy="30.5" r="0.5" transform="rotate(90 67.5 30.5)" fill="#C2C2C2"/>
<circle cx="62.5" cy="0.5" r="0.5" transform="rotate(90 62.5 0.5)" fill="#C2C2C2"/>
<circle cx="62.5" cy="5.5" r="0.5" transform="rotate(90 62.5 5.5)" fill="#C2C2C2"/>
<circle cx="62.5" cy="10.5" r="0.5" transform="rotate(90 62.5 10.5)" fill="#C2C2C2"/>
<circle cx="62.5" cy="15.5" r="0.5" transform="rotate(90 62.5 15.5)" fill="#C2C2C2"/>
<circle cx="62.5" cy="20.5" r="0.5" transform="rotate(90 62.5 20.5)" fill="#C2C2C2"/>
<circle cx="62.5" cy="25.5" r="0.5" transform="rotate(90 62.5 25.5)" fill="#C2C2C2"/>
<circle cx="62.5" cy="30.5" r="0.5" transform="rotate(90 62.5 30.5)" fill="#C2C2C2"/>
<circle cx="57.5" cy="0.5" r="0.5" transform="rotate(90 57.5 0.5)" fill="#C2C2C2"/>
<circle cx="57.5" cy="5.5" r="0.5" transform="rotate(90 57.5 5.5)" fill="#C2C2C2"/>
<circle cx="57.5" cy="10.5" r="0.5" transform="rotate(90 57.5 10.5)" fill="#C2C2C2"/>
<circle cx="57.5" cy="15.5" r="0.5" transform="rotate(90 57.5 15.5)" fill="#C2C2C2"/>
<circle cx="57.5" cy="20.5" r="0.5" transform="rotate(90 57.5 20.5)" fill="#C2C2C2"/>
<circle cx="57.5" cy="25.5" r="0.5" transform="rotate(90 57.5 25.5)" fill="#C2C2C2"/>
<circle cx="57.5" cy="30.5" r="0.5" transform="rotate(90 57.5 30.5)" fill="#C2C2C2"/>
<circle cx="52.5" cy="0.5" r="0.5" transform="rotate(90 52.5 0.5)" fill="#C2C2C2"/>
<circle cx="52.5" cy="5.5" r="0.5" transform="rotate(90 52.5 5.5)" fill="#C2C2C2"/>
<circle cx="52.5" cy="10.5" r="0.5" transform="rotate(90 52.5 10.5)" fill="#C2C2C2"/>
<circle cx="52.5" cy="20.5" r="0.5" transform="rotate(90 52.5 20.5)" fill="#C2C2C2"/>
<circle cx="52.5" cy="25.5" r="0.5" transform="rotate(90 52.5 25.5)" fill="#C2C2C2"/>
<circle cx="52.5" cy="30.5" r="0.5" transform="rotate(90 52.5 30.5)" fill="#C2C2C2"/>
<circle cx="47.5" cy="0.5" r="0.5" transform="rotate(90 47.5 0.5)" fill="#C2C2C2"/>
<circle cx="47.5" cy="5.5" r="0.5" transform="rotate(90 47.5 5.5)" fill="#C2C2C2"/>
<circle cx="47.5" cy="10.5" r="0.5" transform="rotate(90 47.5 10.5)" fill="#C2C2C2"/>
<circle cx="47.5" cy="15.5" r="0.5" transform="rotate(90 47.5 15.5)" fill="#C2C2C2"/>
<circle cx="47.5" cy="20.5" r="0.5" transform="rotate(90 47.5 20.5)" fill="#C2C2C2"/>
<circle cx="47.5" cy="25.5" r="0.5" transform="rotate(90 47.5 25.5)" fill="#C2C2C2"/>
<circle cx="47.5" cy="30.5" r="0.5" transform="rotate(90 47.5 30.5)" fill="#C2C2C2"/>
<circle cx="42.5" cy="0.5" r="0.5" transform="rotate(90 42.5 0.5)" fill="#C2C2C2"/>
<circle cx="42.5" cy="5.5" r="0.5" transform="rotate(90 42.5 5.5)" fill="#C2C2C2"/>
<circle cx="42.5" cy="10.5" r="0.5" transform="rotate(90 42.5 10.5)" fill="#C2C2C2"/>
<circle cx="42.5" cy="20.5" r="0.5" transform="rotate(90 42.5 20.5)" fill="#C2C2C2"/>
<circle cx="42.5" cy="25.5" r="0.5" transform="rotate(90 42.5 25.5)" fill="#C2C2C2"/>
<circle cx="42.5" cy="30.5" r="0.5" transform="rotate(90 42.5 30.5)" fill="#C2C2C2"/>
<circle cx="37.5" cy="0.5" r="0.5" transform="rotate(90 37.5 0.5)" fill="#C2C2C2"/>
<circle cx="37.5" cy="5.5" r="0.5" transform="rotate(90 37.5 5.5)" fill="#C2C2C2"/>
<circle cx="37.5" cy="15.5" r="0.5" transform="rotate(90 37.5 15.5)" fill="#C2C2C2"/>
<circle cx="37.5" cy="20.5" r="0.5" transform="rotate(90 37.5 20.5)" fill="#C2C2C2"/>
<circle cx="37.5" cy="25.5" r="0.5" transform="rotate(90 37.5 25.5)" fill="#C2C2C2"/>
<circle cx="37.5" cy="30.5" r="0.5" transform="rotate(90 37.5 30.5)" fill="#C2C2C2"/>
<circle cx="32.5" cy="0.5" r="0.5" transform="rotate(90 32.5 0.5)" fill="#C2C2C2"/>
<circle cx="32.5" cy="10.5" r="0.5" transform="rotate(90 32.5 10.5)" fill="#C2C2C2"/>
<circle cx="32.5" cy="15.5" r="0.5" transform="rotate(90 32.5 15.5)" fill="#C2C2C2"/>
<circle cx="32.5" cy="20.5" r="0.5" transform="rotate(90 32.5 20.5)" fill="#C2C2C2"/>
<circle cx="32.5" cy="25.5" r="0.5" transform="rotate(90 32.5 25.5)" fill="#C2C2C2"/>
<circle cx="27.5" cy="0.5" r="0.5" transform="rotate(90 27.5 0.5)" fill="#C2C2C2"/>
<circle cx="27.5" cy="5.5" r="0.5" transform="rotate(90 27.5 5.5)" fill="#C2C2C2"/>
<circle cx="27.5" cy="10.5" r="0.5" transform="rotate(90 27.5 10.5)" fill="#C2C2C2"/>
<circle cx="27.5" cy="15.5" r="0.5" transform="rotate(90 27.5 15.5)" fill="#C2C2C2"/>
<circle cx="27.5" cy="20.5" r="0.5" transform="rotate(90 27.5 20.5)" fill="#C2C2C2"/>
<circle cx="27.5" cy="25.5" r="0.5" transform="rotate(90 27.5 25.5)" fill="#C2C2C2"/>
<circle cx="22.5" cy="0.5" r="0.5" transform="rotate(90 22.5 0.5)" fill="#C2C2C2"/>
<circle cx="22.5" cy="5.5" r="0.5" transform="rotate(90 22.5 5.5)" fill="#C2C2C2"/>
<circle cx="22.5" cy="10.5" r="0.5" transform="rotate(90 22.5 10.5)" fill="#C2C2C2"/>
<circle cx="22.5" cy="15.5" r="0.5" transform="rotate(90 22.5 15.5)" fill="#C2C2C2"/>
<circle cx="22.5" cy="20.5" r="0.5" transform="rotate(90 22.5 20.5)" fill="#C2C2C2"/>
<circle cx="22.5" cy="25.5" r="0.5" transform="rotate(90 22.5 25.5)" fill="#C2C2C2"/>
<circle cx="17.5" cy="0.5" r="0.5" transform="rotate(90 17.5 0.5)" fill="#C2C2C2"/>
<circle cx="17.5" cy="5.5" r="0.5" transform="rotate(90 17.5 5.5)" fill="#C2C2C2"/>
<circle cx="17.5" cy="10.5" r="0.5" transform="rotate(90 17.5 10.5)" fill="#C2C2C2"/>
<circle cx="17.5" cy="15.5" r="0.5" transform="rotate(90 17.5 15.5)" fill="#C2C2C2"/>
<circle cx="17.5" cy="20.5" r="0.5" transform="rotate(90 17.5 20.5)" fill="#C2C2C2"/>
<circle cx="17.5" cy="25.5" r="0.5" transform="rotate(90 17.5 25.5)" fill="#C2C2C2"/>
<circle cx="17.5" cy="30.5" r="0.5" transform="rotate(90 17.5 30.5)" fill="#C2C2C2"/>
<circle cx="12.5" cy="0.5" r="0.5" transform="rotate(90 12.5 0.5)" fill="#C2C2C2"/>
<circle cx="12.5" cy="10.5" r="0.5" transform="rotate(90 12.5 10.5)" fill="#C2C2C2"/>
<circle cx="12.5" cy="15.5" r="0.5" transform="rotate(90 12.5 15.5)" fill="#C2C2C2"/>
<circle cx="12.5" cy="20.5" r="0.5" transform="rotate(90 12.5 20.5)" fill="#C2C2C2"/>
<circle cx="12.5" cy="25.5" r="0.5" transform="rotate(90 12.5 25.5)" fill="#C2C2C2"/>
<circle cx="12.5" cy="30.5" r="0.5" transform="rotate(90 12.5 30.5)" fill="#C2C2C2"/>
<circle cx="7.5" cy="0.5" r="0.5" transform="rotate(90 7.5 0.5)" fill="#C2C2C2"/>
<circle cx="7.5" cy="5.5" r="0.5" transform="rotate(90 7.5 5.5)" fill="#C2C2C2"/>
<circle cx="7.5" cy="10.5" r="0.5" transform="rotate(90 7.5 10.5)" fill="#C2C2C2"/>
<circle cx="7.5" cy="20.5" r="0.5" transform="rotate(90 7.5 20.5)" fill="#C2C2C2"/>
<circle cx="7.5" cy="25.5" r="0.5" transform="rotate(90 7.5 25.5)" fill="#C2C2C2"/>
<circle cx="7.5" cy="30.5" r="0.5" transform="rotate(90 7.5 30.5)" fill="#C2C2C2"/>
<circle cx="2.5" cy="0.5" r="0.5" transform="rotate(90 2.5 0.5)" fill="#C2C2C2"/>
<circle cx="2.5" cy="5.5" r="0.5" transform="rotate(90 2.5 5.5)" fill="#C2C2C2"/>
<circle cx="2.5" cy="10.5" r="0.5" transform="rotate(90 2.5 10.5)" fill="#C2C2C2"/>
<circle cx="2.5" cy="15.5" r="0.5" transform="rotate(90 2.5 15.5)" fill="#C2C2C2"/>
<circle cx="2.5" cy="20.5" r="0.5" transform="rotate(90 2.5 20.5)" fill="#C2C2C2"/>
<circle cx="2.5" cy="25.5" r="0.5" transform="rotate(90 2.5 25.5)" fill="#C2C2C2"/>
<circle cx="2.5" cy="30.5" r="0.5" transform="rotate(90 2.5 30.5)" fill="#C2C2C2"/>
</g>
<defs>
<clipPath id="clip0_1_55811">
<rect width="317" height="32" fill="white"/>
</clipPath>
</defs>
</svg>
