<svg width="238" height="101" viewBox="0 0 238 101" fill="none" xmlns="http://www.w3.org/2000/svg">
<g clip-path="url(#clip0_1_59900)">
<mask id="mask0_1_59900" style="mask-type:alpha" maskUnits="userSpaceOnUse" x="16" y="-125" width="627" height="361">
<path d="M329.5 -125L16 55.4999L329.5 236L643 55.4999L329.5 -125Z" fill="url(#paint0_linear_1_59900)"/>
</mask>
<g mask="url(#mask0_1_59900)">
<circle cx="237.5" cy="0.5" r="0.5" transform="rotate(90 237.5 0.5)" fill="#C2C2C2"/>
<circle cx="237.5" cy="5.5" r="0.5" transform="rotate(90 237.5 5.5)" fill="#C2C2C2"/>
<circle cx="237.5" cy="10.5" r="0.5" transform="rotate(90 237.5 10.5)" fill="#C2C2C2"/>
<circle cx="237.5" cy="15.5" r="0.5" transform="rotate(90 237.5 15.5)" fill="#C2C2C2"/>
<circle cx="237.5" cy="20.5" r="0.5" transform="rotate(90 237.5 20.5)" fill="#C2C2C2"/>
<circle cx="237.5" cy="25.5" r="0.5" transform="rotate(90 237.5 25.5)" fill="#C2C2C2"/>
<circle cx="237.5" cy="30.5" r="0.5" transform="rotate(90 237.5 30.5)" fill="#C2C2C2"/>
<circle cx="237.5" cy="35.5" r="0.5" transform="rotate(90 237.5 35.5)" fill="#C2C2C2"/>
<circle cx="237.5" cy="40.5" r="0.5" transform="rotate(90 237.5 40.5)" fill="#C2C2C2"/>
<circle cx="237.5" cy="45.5" r="0.5" transform="rotate(90 237.5 45.5)" fill="#C2C2C2"/>
<circle cx="237.5" cy="50.5" r="0.5" transform="rotate(90 237.5 50.5)" fill="#C2C2C2"/>
<circle cx="237.5" cy="55.5" r="0.5" transform="rotate(90 237.5 55.5)" fill="#C2C2C2"/>
<circle cx="237.5" cy="60.5" r="0.5" transform="rotate(90 237.5 60.5)" fill="#C2C2C2"/>
<circle cx="237.5" cy="65.5" r="0.5" transform="rotate(90 237.5 65.5)" fill="#C2C2C2"/>
<circle cx="237.5" cy="70.5" r="0.5" transform="rotate(90 237.5 70.5)" fill="#C2C2C2"/>
<circle cx="237.5" cy="80.5" r="0.5" transform="rotate(90 237.5 80.5)" fill="#C2C2C2"/>
<circle cx="237.5" cy="85.5" r="0.5" transform="rotate(90 237.5 85.5)" fill="#C2C2C2"/>
<circle cx="237.5" cy="90.5" r="0.5" transform="rotate(90 237.5 90.5)" fill="#C2C2C2"/>
<circle cx="237.5" cy="95.5" r="0.5" transform="rotate(90 237.5 95.5)" fill="#C2C2C2"/>
<circle cx="237.5" cy="100.5" r="0.5" transform="rotate(90 237.5 100.5)" fill="#C2C2C2"/>
<circle cx="232.5" cy="0.5" r="0.5" transform="rotate(90 232.5 0.5)" fill="#C2C2C2"/>
<circle cx="232.5" cy="5.5" r="0.5" transform="rotate(90 232.5 5.5)" fill="#C2C2C2"/>
<circle cx="232.5" cy="10.5" r="0.5" transform="rotate(90 232.5 10.5)" fill="#C2C2C2"/>
<circle cx="232.5" cy="15.5" r="0.5" transform="rotate(90 232.5 15.5)" fill="#C2C2C2"/>
<circle cx="232.5" cy="20.5" r="0.5" transform="rotate(90 232.5 20.5)" fill="#C2C2C2"/>
<circle cx="232.5" cy="25.5" r="0.5" transform="rotate(90 232.5 25.5)" fill="#C2C2C2"/>
<circle cx="232.5" cy="30.5" r="0.5" transform="rotate(90 232.5 30.5)" fill="#C2C2C2"/>
<circle cx="232.5" cy="35.5" r="0.5" transform="rotate(90 232.5 35.5)" fill="#C2C2C2"/>
<circle cx="232.5" cy="40.5" r="0.5" transform="rotate(90 232.5 40.5)" fill="#C2C2C2"/>
<circle cx="232.5" cy="45.5" r="0.5" transform="rotate(90 232.5 45.5)" fill="#C2C2C2"/>
<circle cx="232.5" cy="50.5" r="0.5" transform="rotate(90 232.5 50.5)" fill="#C2C2C2"/>
<circle cx="232.5" cy="60.5" r="0.5" transform="rotate(90 232.5 60.5)" fill="#C2C2C2"/>
<circle cx="232.5" cy="75.5" r="0.5" transform="rotate(90 232.5 75.5)" fill="#C2C2C2"/>
<circle cx="232.5" cy="80.5" r="0.5" transform="rotate(90 232.5 80.5)" fill="#C2C2C2"/>
<circle cx="232.5" cy="85.5" r="0.5" transform="rotate(90 232.5 85.5)" fill="#C2C2C2"/>
<circle cx="232.5" cy="90.5" r="0.5" transform="rotate(90 232.5 90.5)" fill="#C2C2C2"/>
<circle cx="232.5" cy="100.5" r="0.5" transform="rotate(90 232.5 100.5)" fill="#C2C2C2"/>
<circle cx="227.5" cy="0.5" r="0.5" transform="rotate(90 227.5 0.5)" fill="#C2C2C2"/>
<circle cx="227.5" cy="5.5" r="0.5" transform="rotate(90 227.5 5.5)" fill="#C2C2C2"/>
<circle cx="227.5" cy="10.5" r="0.5" transform="rotate(90 227.5 10.5)" fill="#C2C2C2"/>
<circle cx="227.5" cy="15.5" r="0.5" transform="rotate(90 227.5 15.5)" fill="#C2C2C2"/>
<circle cx="227.5" cy="20.5" r="0.5" transform="rotate(90 227.5 20.5)" fill="#C2C2C2"/>
<circle cx="227.5" cy="25.5" r="0.5" transform="rotate(90 227.5 25.5)" fill="#C2C2C2"/>
<circle cx="227.5" cy="30.5" r="0.5" transform="rotate(90 227.5 30.5)" fill="#C2C2C2"/>
<circle cx="227.5" cy="35.5" r="0.5" transform="rotate(90 227.5 35.5)" fill="#C2C2C2"/>
<circle cx="227.5" cy="40.5" r="0.5" transform="rotate(90 227.5 40.5)" fill="#C2C2C2"/>
<circle cx="227.5" cy="45.5" r="0.5" transform="rotate(90 227.5 45.5)" fill="#C2C2C2"/>
<circle cx="227.5" cy="50.5" r="0.5" transform="rotate(90 227.5 50.5)" fill="#C2C2C2"/>
<circle cx="227.5" cy="55.5" r="0.5" transform="rotate(90 227.5 55.5)" fill="#C2C2C2"/>
<circle cx="227.5" cy="60.5" r="0.5" transform="rotate(90 227.5 60.5)" fill="#C2C2C2"/>
<circle cx="227.5" cy="65.5" r="0.5" transform="rotate(90 227.5 65.5)" fill="#C2C2C2"/>
<circle cx="227.5" cy="70.5" r="0.5" transform="rotate(90 227.5 70.5)" fill="#C2C2C2"/>
<circle cx="227.5" cy="75.5" r="0.5" transform="rotate(90 227.5 75.5)" fill="#C2C2C2"/>
<circle cx="227.5" cy="80.5" r="0.5" transform="rotate(90 227.5 80.5)" fill="#C2C2C2"/>
<circle cx="227.5" cy="90.5" r="0.5" transform="rotate(90 227.5 90.5)" fill="#C2C2C2"/>
<circle cx="227.5" cy="95.5" r="0.5" transform="rotate(90 227.5 95.5)" fill="#C2C2C2"/>
<circle cx="227.5" cy="100.5" r="0.5" transform="rotate(90 227.5 100.5)" fill="#C2C2C2"/>
<circle cx="222.5" cy="0.5" r="0.5" transform="rotate(90 222.5 0.5)" fill="#C2C2C2"/>
<circle cx="222.5" cy="5.5" r="0.5" transform="rotate(90 222.5 5.5)" fill="#C2C2C2"/>
<circle cx="222.5" cy="10.5" r="0.5" transform="rotate(90 222.5 10.5)" fill="#C2C2C2"/>
<circle cx="222.5" cy="15.5" r="0.5" transform="rotate(90 222.5 15.5)" fill="#C2C2C2"/>
<circle cx="222.5" cy="20.5" r="0.5" transform="rotate(90 222.5 20.5)" fill="#C2C2C2"/>
<circle cx="222.5" cy="25.5" r="0.5" transform="rotate(90 222.5 25.5)" fill="#C2C2C2"/>
<circle cx="222.5" cy="30.5" r="0.5" transform="rotate(90 222.5 30.5)" fill="#C2C2C2"/>
<circle cx="222.5" cy="35.5" r="0.5" transform="rotate(90 222.5 35.5)" fill="#C2C2C2"/>
<circle cx="222.5" cy="40.5" r="0.5" transform="rotate(90 222.5 40.5)" fill="#C2C2C2"/>
<circle cx="222.5" cy="60.5" r="0.5" transform="rotate(90 222.5 60.5)" fill="#C2C2C2"/>
<circle cx="222.5" cy="65.5" r="0.5" transform="rotate(90 222.5 65.5)" fill="#C2C2C2"/>
<circle cx="222.5" cy="70.5" r="0.5" transform="rotate(90 222.5 70.5)" fill="#C2C2C2"/>
<circle cx="222.5" cy="75.5" r="0.5" transform="rotate(90 222.5 75.5)" fill="#C2C2C2"/>
<circle cx="222.5" cy="85.5" r="0.5" transform="rotate(90 222.5 85.5)" fill="#C2C2C2"/>
<circle cx="222.5" cy="95.5" r="0.5" transform="rotate(90 222.5 95.5)" fill="#C2C2C2"/>
<circle cx="222.5" cy="100.5" r="0.5" transform="rotate(90 222.5 100.5)" fill="#C2C2C2"/>
<circle cx="217.5" cy="0.5" r="0.5" transform="rotate(90 217.5 0.5)" fill="#C2C2C2"/>
<circle cx="217.5" cy="5.5" r="0.5" transform="rotate(90 217.5 5.5)" fill="#C2C2C2"/>
<circle cx="217.5" cy="10.5" r="0.5" transform="rotate(90 217.5 10.5)" fill="#C2C2C2"/>
<circle cx="217.5" cy="15.5" r="0.5" transform="rotate(90 217.5 15.5)" fill="#C2C2C2"/>
<circle cx="217.5" cy="20.5" r="0.5" transform="rotate(90 217.5 20.5)" fill="#C2C2C2"/>
<circle cx="217.5" cy="25.5" r="0.5" transform="rotate(90 217.5 25.5)" fill="#C2C2C2"/>
<circle cx="217.5" cy="30.5" r="0.5" transform="rotate(90 217.5 30.5)" fill="#C2C2C2"/>
<circle cx="217.5" cy="40.5" r="0.5" transform="rotate(90 217.5 40.5)" fill="#C2C2C2"/>
<circle cx="217.5" cy="45.5" r="0.5" transform="rotate(90 217.5 45.5)" fill="#C2C2C2"/>
<circle cx="217.5" cy="50.5" r="0.5" transform="rotate(90 217.5 50.5)" fill="#C2C2C2"/>
<circle cx="217.5" cy="55.5" r="0.5" transform="rotate(90 217.5 55.5)" fill="#C2C2C2"/>
<circle cx="217.5" cy="60.5" r="0.5" transform="rotate(90 217.5 60.5)" fill="#C2C2C2"/>
<circle cx="217.5" cy="65.5" r="0.5" transform="rotate(90 217.5 65.5)" fill="#C2C2C2"/>
<circle cx="217.5" cy="70.5" r="0.5" transform="rotate(90 217.5 70.5)" fill="#C2C2C2"/>
<circle cx="217.5" cy="75.5" r="0.5" transform="rotate(90 217.5 75.5)" fill="#C2C2C2"/>
<circle cx="217.5" cy="80.5" r="0.5" transform="rotate(90 217.5 80.5)" fill="#C2C2C2"/>
<circle cx="217.5" cy="85.5" r="0.5" transform="rotate(90 217.5 85.5)" fill="#C2C2C2"/>
<circle cx="217.5" cy="90.5" r="0.5" transform="rotate(90 217.5 90.5)" fill="#C2C2C2"/>
<circle cx="217.5" cy="95.5" r="0.5" transform="rotate(90 217.5 95.5)" fill="#C2C2C2"/>
<circle cx="217.5" cy="100.5" r="0.5" transform="rotate(90 217.5 100.5)" fill="#C2C2C2"/>
<circle cx="212.5" cy="0.5" r="0.5" transform="rotate(90 212.5 0.5)" fill="#C2C2C2"/>
<circle cx="212.5" cy="5.5" r="0.5" transform="rotate(90 212.5 5.5)" fill="#C2C2C2"/>
<circle cx="212.5" cy="10.5" r="0.5" transform="rotate(90 212.5 10.5)" fill="#C2C2C2"/>
<circle cx="212.5" cy="15.5" r="0.5" transform="rotate(90 212.5 15.5)" fill="#C2C2C2"/>
<circle cx="212.5" cy="20.5" r="0.5" transform="rotate(90 212.5 20.5)" fill="#C2C2C2"/>
<circle cx="212.5" cy="30.5" r="0.5" transform="rotate(90 212.5 30.5)" fill="#C2C2C2"/>
<circle cx="212.5" cy="35.5" r="0.5" transform="rotate(90 212.5 35.5)" fill="#C2C2C2"/>
<circle cx="212.5" cy="40.5" r="0.5" transform="rotate(90 212.5 40.5)" fill="#C2C2C2"/>
<circle cx="212.5" cy="45.5" r="0.5" transform="rotate(90 212.5 45.5)" fill="#C2C2C2"/>
<circle cx="212.5" cy="50.5" r="0.5" transform="rotate(90 212.5 50.5)" fill="#C2C2C2"/>
<circle cx="212.5" cy="55.5" r="0.5" transform="rotate(90 212.5 55.5)" fill="#C2C2C2"/>
<circle cx="212.5" cy="60.5" r="0.5" transform="rotate(90 212.5 60.5)" fill="#C2C2C2"/>
<circle cx="212.5" cy="65.5" r="0.5" transform="rotate(90 212.5 65.5)" fill="#C2C2C2"/>
<circle cx="212.5" cy="70.5" r="0.5" transform="rotate(90 212.5 70.5)" fill="#C2C2C2"/>
<circle cx="212.5" cy="75.5" r="0.5" transform="rotate(90 212.5 75.5)" fill="#C2C2C2"/>
<circle cx="212.5" cy="80.5" r="0.5" transform="rotate(90 212.5 80.5)" fill="#C2C2C2"/>
<circle cx="212.5" cy="85.5" r="0.5" transform="rotate(90 212.5 85.5)" fill="#C2C2C2"/>
<circle cx="212.5" cy="95.5" r="0.5" transform="rotate(90 212.5 95.5)" fill="#C2C2C2"/>
<circle cx="212.5" cy="100.5" r="0.5" transform="rotate(90 212.5 100.5)" fill="#C2C2C2"/>
<circle cx="207.5" cy="0.5" r="0.5" transform="rotate(90 207.5 0.5)" fill="#C2C2C2"/>
<circle cx="207.5" cy="5.5" r="0.5" transform="rotate(90 207.5 5.5)" fill="#C2C2C2"/>
<circle cx="207.5" cy="25.5" r="0.5" transform="rotate(90 207.5 25.5)" fill="#C2C2C2"/>
<circle cx="207.5" cy="30.5" r="0.5" transform="rotate(90 207.5 30.5)" fill="#C2C2C2"/>
<circle cx="207.5" cy="35.5" r="0.5" transform="rotate(90 207.5 35.5)" fill="#C2C2C2"/>
<circle cx="207.5" cy="40.5" r="0.5" transform="rotate(90 207.5 40.5)" fill="#C2C2C2"/>
<circle cx="207.5" cy="60.5" r="0.5" transform="rotate(90 207.5 60.5)" fill="#C2C2C2"/>
<circle cx="207.5" cy="65.5" r="0.5" transform="rotate(90 207.5 65.5)" fill="#C2C2C2"/>
<circle cx="207.5" cy="70.5" r="0.5" transform="rotate(90 207.5 70.5)" fill="#C2C2C2"/>
<circle cx="207.5" cy="75.5" r="0.5" transform="rotate(90 207.5 75.5)" fill="#C2C2C2"/>
<circle cx="207.5" cy="80.5" r="0.5" transform="rotate(90 207.5 80.5)" fill="#C2C2C2"/>
<circle cx="207.5" cy="85.5" r="0.5" transform="rotate(90 207.5 85.5)" fill="#C2C2C2"/>
<circle cx="207.5" cy="90.5" r="0.5" transform="rotate(90 207.5 90.5)" fill="#C2C2C2"/>
<circle cx="207.5" cy="95.5" r="0.5" transform="rotate(90 207.5 95.5)" fill="#C2C2C2"/>
<circle cx="207.5" cy="100.5" r="0.5" transform="rotate(90 207.5 100.5)" fill="#C2C2C2"/>
<circle cx="202.5" cy="0.5" r="0.5" transform="rotate(90 202.5 0.5)" fill="#C2C2C2"/>
<circle cx="202.5" cy="5.5" r="0.5" transform="rotate(90 202.5 5.5)" fill="#C2C2C2"/>
<circle cx="202.5" cy="10.5" r="0.5" transform="rotate(90 202.5 10.5)" fill="#C2C2C2"/>
<circle cx="202.5" cy="15.5" r="0.5" transform="rotate(90 202.5 15.5)" fill="#C2C2C2"/>
<circle cx="202.5" cy="20.5" r="0.5" transform="rotate(90 202.5 20.5)" fill="#C2C2C2"/>
<circle cx="202.5" cy="25.5" r="0.5" transform="rotate(90 202.5 25.5)" fill="#C2C2C2"/>
<circle cx="202.5" cy="30.5" r="0.5" transform="rotate(90 202.5 30.5)" fill="#C2C2C2"/>
<circle cx="202.5" cy="35.5" r="0.5" transform="rotate(90 202.5 35.5)" fill="#C2C2C2"/>
<circle cx="202.5" cy="40.5" r="0.5" transform="rotate(90 202.5 40.5)" fill="#C2C2C2"/>
<circle cx="202.5" cy="45.5" r="0.5" transform="rotate(90 202.5 45.5)" fill="#C2C2C2"/>
<circle cx="202.5" cy="50.5" r="0.5" transform="rotate(90 202.5 50.5)" fill="#C2C2C2"/>
<circle cx="202.5" cy="55.5" r="0.5" transform="rotate(90 202.5 55.5)" fill="#C2C2C2"/>
<circle cx="202.5" cy="65.5" r="0.5" transform="rotate(90 202.5 65.5)" fill="#C2C2C2"/>
<circle cx="202.5" cy="70.5" r="0.5" transform="rotate(90 202.5 70.5)" fill="#C2C2C2"/>
<circle cx="202.5" cy="75.5" r="0.5" transform="rotate(90 202.5 75.5)" fill="#C2C2C2"/>
<circle cx="202.5" cy="80.5" r="0.5" transform="rotate(90 202.5 80.5)" fill="#C2C2C2"/>
<circle cx="202.5" cy="85.5" r="0.5" transform="rotate(90 202.5 85.5)" fill="#C2C2C2"/>
<circle cx="202.5" cy="90.5" r="0.5" transform="rotate(90 202.5 90.5)" fill="#C2C2C2"/>
<circle cx="202.5" cy="95.5" r="0.5" transform="rotate(90 202.5 95.5)" fill="#C2C2C2"/>
<circle cx="202.5" cy="100.5" r="0.5" transform="rotate(90 202.5 100.5)" fill="#C2C2C2"/>
<circle cx="197.5" cy="0.5" r="0.5" transform="rotate(90 197.5 0.5)" fill="#C2C2C2"/>
<circle cx="197.5" cy="5.5" r="0.5" transform="rotate(90 197.5 5.5)" fill="#C2C2C2"/>
<circle cx="197.5" cy="10.5" r="0.5" transform="rotate(90 197.5 10.5)" fill="#C2C2C2"/>
<circle cx="197.5" cy="15.5" r="0.5" transform="rotate(90 197.5 15.5)" fill="#C2C2C2"/>
<circle cx="197.5" cy="20.5" r="0.5" transform="rotate(90 197.5 20.5)" fill="#C2C2C2"/>
<circle cx="197.5" cy="30.5" r="0.5" transform="rotate(90 197.5 30.5)" fill="#C2C2C2"/>
<circle cx="197.5" cy="35.5" r="0.5" transform="rotate(90 197.5 35.5)" fill="#C2C2C2"/>
<circle cx="197.5" cy="40.5" r="0.5" transform="rotate(90 197.5 40.5)" fill="#C2C2C2"/>
<circle cx="197.5" cy="50.5" r="0.5" transform="rotate(90 197.5 50.5)" fill="#C2C2C2"/>
<circle cx="197.5" cy="55.5" r="0.5" transform="rotate(90 197.5 55.5)" fill="#C2C2C2"/>
<circle cx="197.5" cy="60.5" r="0.5" transform="rotate(90 197.5 60.5)" fill="#C2C2C2"/>
<circle cx="197.5" cy="65.5" r="0.5" transform="rotate(90 197.5 65.5)" fill="#C2C2C2"/>
<circle cx="197.5" cy="75.5" r="0.5" transform="rotate(90 197.5 75.5)" fill="#C2C2C2"/>
<circle cx="197.5" cy="80.5" r="0.5" transform="rotate(90 197.5 80.5)" fill="#C2C2C2"/>
<circle cx="197.5" cy="85.5" r="0.5" transform="rotate(90 197.5 85.5)" fill="#C2C2C2"/>
<circle cx="197.5" cy="90.5" r="0.5" transform="rotate(90 197.5 90.5)" fill="#C2C2C2"/>
<circle cx="197.5" cy="95.5" r="0.5" transform="rotate(90 197.5 95.5)" fill="#C2C2C2"/>
<circle cx="197.5" cy="100.5" r="0.5" transform="rotate(90 197.5 100.5)" fill="#C2C2C2"/>
<circle cx="192.5" cy="0.5" r="0.5" transform="rotate(90 192.5 0.5)" fill="#C2C2C2"/>
<circle cx="192.5" cy="5.5" r="0.5" transform="rotate(90 192.5 5.5)" fill="#C2C2C2"/>
<circle cx="192.5" cy="10.5" r="0.5" transform="rotate(90 192.5 10.5)" fill="#C2C2C2"/>
<circle cx="192.5" cy="20.5" r="0.5" transform="rotate(90 192.5 20.5)" fill="#C2C2C2"/>
<circle cx="192.5" cy="25.5" r="0.5" transform="rotate(90 192.5 25.5)" fill="#C2C2C2"/>
<circle cx="192.5" cy="30.5" r="0.5" transform="rotate(90 192.5 30.5)" fill="#C2C2C2"/>
<circle cx="192.5" cy="35.5" r="0.5" transform="rotate(90 192.5 35.5)" fill="#C2C2C2"/>
<circle cx="192.5" cy="40.5" r="0.5" transform="rotate(90 192.5 40.5)" fill="#C2C2C2"/>
<circle cx="192.5" cy="45.5" r="0.5" transform="rotate(90 192.5 45.5)" fill="#C2C2C2"/>
<circle cx="192.5" cy="50.5" r="0.5" transform="rotate(90 192.5 50.5)" fill="#C2C2C2"/>
<circle cx="192.5" cy="55.5" r="0.5" transform="rotate(90 192.5 55.5)" fill="#C2C2C2"/>
<circle cx="192.5" cy="60.5" r="0.5" transform="rotate(90 192.5 60.5)" fill="#C2C2C2"/>
<circle cx="192.5" cy="65.5" r="0.5" transform="rotate(90 192.5 65.5)" fill="#C2C2C2"/>
<circle cx="192.5" cy="70.5" r="0.5" transform="rotate(90 192.5 70.5)" fill="#C2C2C2"/>
<circle cx="192.5" cy="75.5" r="0.5" transform="rotate(90 192.5 75.5)" fill="#C2C2C2"/>
<circle cx="192.5" cy="80.5" r="0.5" transform="rotate(90 192.5 80.5)" fill="#C2C2C2"/>
<circle cx="192.5" cy="85.5" r="0.5" transform="rotate(90 192.5 85.5)" fill="#C2C2C2"/>
<circle cx="192.5" cy="90.5" r="0.5" transform="rotate(90 192.5 90.5)" fill="#C2C2C2"/>
<circle cx="192.5" cy="100.5" r="0.5" transform="rotate(90 192.5 100.5)" fill="#C2C2C2"/>
<circle cx="187.5" cy="0.5" r="0.5" transform="rotate(90 187.5 0.5)" fill="#C2C2C2"/>
<circle cx="187.5" cy="5.5" r="0.5" transform="rotate(90 187.5 5.5)" fill="#C2C2C2"/>
<circle cx="187.5" cy="10.5" r="0.5" transform="rotate(90 187.5 10.5)" fill="#C2C2C2"/>
<circle cx="187.5" cy="15.5" r="0.5" transform="rotate(90 187.5 15.5)" fill="#C2C2C2"/>
<circle cx="187.5" cy="20.5" r="0.5" transform="rotate(90 187.5 20.5)" fill="#C2C2C2"/>
<circle cx="187.5" cy="25.5" r="0.5" transform="rotate(90 187.5 25.5)" fill="#C2C2C2"/>
<circle cx="187.5" cy="30.5" r="0.5" transform="rotate(90 187.5 30.5)" fill="#C2C2C2"/>
<circle cx="187.5" cy="35.5" r="0.5" transform="rotate(90 187.5 35.5)" fill="#C2C2C2"/>
<circle cx="187.5" cy="40.5" r="0.5" transform="rotate(90 187.5 40.5)" fill="#C2C2C2"/>
<circle cx="187.5" cy="45.5" r="0.5" transform="rotate(90 187.5 45.5)" fill="#C2C2C2"/>
<circle cx="187.5" cy="50.5" r="0.5" transform="rotate(90 187.5 50.5)" fill="#C2C2C2"/>
<circle cx="187.5" cy="55.5" r="0.5" transform="rotate(90 187.5 55.5)" fill="#C2C2C2"/>
<circle cx="187.5" cy="60.5" r="0.5" transform="rotate(90 187.5 60.5)" fill="#C2C2C2"/>
<circle cx="187.5" cy="70.5" r="0.5" transform="rotate(90 187.5 70.5)" fill="#C2C2C2"/>
<circle cx="187.5" cy="80.5" r="0.5" transform="rotate(90 187.5 80.5)" fill="#C2C2C2"/>
<circle cx="187.5" cy="85.5" r="0.5" transform="rotate(90 187.5 85.5)" fill="#C2C2C2"/>
<circle cx="187.5" cy="90.5" r="0.5" transform="rotate(90 187.5 90.5)" fill="#C2C2C2"/>
<circle cx="187.5" cy="95.5" r="0.5" transform="rotate(90 187.5 95.5)" fill="#C2C2C2"/>
<circle cx="187.5" cy="100.5" r="0.5" transform="rotate(90 187.5 100.5)" fill="#C2C2C2"/>
<circle cx="182.5" cy="0.5" r="0.5" transform="rotate(90 182.5 0.5)" fill="#C2C2C2"/>
<circle cx="182.5" cy="5.5" r="0.5" transform="rotate(90 182.5 5.5)" fill="#C2C2C2"/>
<circle cx="182.5" cy="10.5" r="0.5" transform="rotate(90 182.5 10.5)" fill="#C2C2C2"/>
<circle cx="182.5" cy="15.5" r="0.5" transform="rotate(90 182.5 15.5)" fill="#C2C2C2"/>
<circle cx="182.5" cy="20.5" r="0.5" transform="rotate(90 182.5 20.5)" fill="#C2C2C2"/>
<circle cx="182.5" cy="25.5" r="0.5" transform="rotate(90 182.5 25.5)" fill="#C2C2C2"/>
<circle cx="182.5" cy="30.5" r="0.5" transform="rotate(90 182.5 30.5)" fill="#C2C2C2"/>
<circle cx="182.5" cy="35.5" r="0.5" transform="rotate(90 182.5 35.5)" fill="#C2C2C2"/>
<circle cx="182.5" cy="50.5" r="0.5" transform="rotate(90 182.5 50.5)" fill="#C2C2C2"/>
<circle cx="182.5" cy="55.5" r="0.5" transform="rotate(90 182.5 55.5)" fill="#C2C2C2"/>
<circle cx="182.5" cy="60.5" r="0.5" transform="rotate(90 182.5 60.5)" fill="#C2C2C2"/>
<circle cx="182.5" cy="65.5" r="0.5" transform="rotate(90 182.5 65.5)" fill="#C2C2C2"/>
<circle cx="182.5" cy="70.5" r="0.5" transform="rotate(90 182.5 70.5)" fill="#C2C2C2"/>
<circle cx="182.5" cy="85.5" r="0.5" transform="rotate(90 182.5 85.5)" fill="#C2C2C2"/>
<circle cx="182.5" cy="90.5" r="0.5" transform="rotate(90 182.5 90.5)" fill="#C2C2C2"/>
<circle cx="182.5" cy="95.5" r="0.5" transform="rotate(90 182.5 95.5)" fill="#C2C2C2"/>
<circle cx="182.5" cy="100.5" r="0.5" transform="rotate(90 182.5 100.5)" fill="#C2C2C2"/>
<circle cx="177.5" cy="0.5" r="0.5" transform="rotate(90 177.5 0.5)" fill="#C2C2C2"/>
<circle cx="177.5" cy="5.5" r="0.5" transform="rotate(90 177.5 5.5)" fill="#C2C2C2"/>
<circle cx="177.5" cy="10.5" r="0.5" transform="rotate(90 177.5 10.5)" fill="#C2C2C2"/>
<circle cx="177.5" cy="15.5" r="0.5" transform="rotate(90 177.5 15.5)" fill="#C2C2C2"/>
<circle cx="177.5" cy="20.5" r="0.5" transform="rotate(90 177.5 20.5)" fill="#C2C2C2"/>
<circle cx="177.5" cy="25.5" r="0.5" transform="rotate(90 177.5 25.5)" fill="#C2C2C2"/>
<circle cx="177.5" cy="30.5" r="0.5" transform="rotate(90 177.5 30.5)" fill="#C2C2C2"/>
<circle cx="177.5" cy="35.5" r="0.5" transform="rotate(90 177.5 35.5)" fill="#C2C2C2"/>
<circle cx="177.5" cy="45.5" r="0.5" transform="rotate(90 177.5 45.5)" fill="#C2C2C2"/>
<circle cx="177.5" cy="50.5" r="0.5" transform="rotate(90 177.5 50.5)" fill="#C2C2C2"/>
<circle cx="177.5" cy="55.5" r="0.5" transform="rotate(90 177.5 55.5)" fill="#C2C2C2"/>
<circle cx="177.5" cy="60.5" r="0.5" transform="rotate(90 177.5 60.5)" fill="#C2C2C2"/>
<circle cx="177.5" cy="65.5" r="0.5" transform="rotate(90 177.5 65.5)" fill="#C2C2C2"/>
<circle cx="177.5" cy="70.5" r="0.5" transform="rotate(90 177.5 70.5)" fill="#C2C2C2"/>
<circle cx="177.5" cy="80.5" r="0.5" transform="rotate(90 177.5 80.5)" fill="#C2C2C2"/>
<circle cx="177.5" cy="85.5" r="0.5" transform="rotate(90 177.5 85.5)" fill="#C2C2C2"/>
<circle cx="177.5" cy="90.5" r="0.5" transform="rotate(90 177.5 90.5)" fill="#C2C2C2"/>
<circle cx="177.5" cy="95.5" r="0.5" transform="rotate(90 177.5 95.5)" fill="#C2C2C2"/>
<circle cx="177.5" cy="100.5" r="0.5" transform="rotate(90 177.5 100.5)" fill="#C2C2C2"/>
<circle cx="172.5" cy="0.5" r="0.5" transform="rotate(90 172.5 0.5)" fill="#C2C2C2"/>
<circle cx="172.5" cy="5.5" r="0.5" transform="rotate(90 172.5 5.5)" fill="#C2C2C2"/>
<circle cx="172.5" cy="10.5" r="0.5" transform="rotate(90 172.5 10.5)" fill="#C2C2C2"/>
<circle cx="172.5" cy="15.5" r="0.5" transform="rotate(90 172.5 15.5)" fill="#C2C2C2"/>
<circle cx="172.5" cy="25.5" r="0.5" transform="rotate(90 172.5 25.5)" fill="#C2C2C2"/>
<circle cx="172.5" cy="30.5" r="0.5" transform="rotate(90 172.5 30.5)" fill="#C2C2C2"/>
<circle cx="172.5" cy="35.5" r="0.5" transform="rotate(90 172.5 35.5)" fill="#C2C2C2"/>
<circle cx="172.5" cy="40.5" r="0.5" transform="rotate(90 172.5 40.5)" fill="#C2C2C2"/>
<circle cx="172.5" cy="45.5" r="0.5" transform="rotate(90 172.5 45.5)" fill="#C2C2C2"/>
<circle cx="172.5" cy="50.5" r="0.5" transform="rotate(90 172.5 50.5)" fill="#C2C2C2"/>
<circle cx="172.5" cy="55.5" r="0.5" transform="rotate(90 172.5 55.5)" fill="#C2C2C2"/>
<circle cx="172.5" cy="60.5" r="0.5" transform="rotate(90 172.5 60.5)" fill="#C2C2C2"/>
<circle cx="172.5" cy="65.5" r="0.5" transform="rotate(90 172.5 65.5)" fill="#C2C2C2"/>
<circle cx="172.5" cy="70.5" r="0.5" transform="rotate(90 172.5 70.5)" fill="#C2C2C2"/>
<circle cx="172.5" cy="75.5" r="0.5" transform="rotate(90 172.5 75.5)" fill="#C2C2C2"/>
<circle cx="172.5" cy="85.5" r="0.5" transform="rotate(90 172.5 85.5)" fill="#C2C2C2"/>
<circle cx="172.5" cy="90.5" r="0.5" transform="rotate(90 172.5 90.5)" fill="#C2C2C2"/>
<circle cx="172.5" cy="95.5" r="0.5" transform="rotate(90 172.5 95.5)" fill="#C2C2C2"/>
<circle cx="172.5" cy="100.5" r="0.5" transform="rotate(90 172.5 100.5)" fill="#C2C2C2"/>
<circle cx="167.5" cy="0.5" r="0.5" transform="rotate(90 167.5 0.5)" fill="#C2C2C2"/>
<circle cx="167.5" cy="5.5" r="0.5" transform="rotate(90 167.5 5.5)" fill="#C2C2C2"/>
<circle cx="167.5" cy="10.5" r="0.5" transform="rotate(90 167.5 10.5)" fill="#C2C2C2"/>
<circle cx="167.5" cy="15.5" r="0.5" transform="rotate(90 167.5 15.5)" fill="#C2C2C2"/>
<circle cx="167.5" cy="20.5" r="0.5" transform="rotate(90 167.5 20.5)" fill="#C2C2C2"/>
<circle cx="167.5" cy="30.5" r="0.5" transform="rotate(90 167.5 30.5)" fill="#C2C2C2"/>
<circle cx="167.5" cy="35.5" r="0.5" transform="rotate(90 167.5 35.5)" fill="#C2C2C2"/>
<circle cx="167.5" cy="40.5" r="0.5" transform="rotate(90 167.5 40.5)" fill="#C2C2C2"/>
<circle cx="167.5" cy="45.5" r="0.5" transform="rotate(90 167.5 45.5)" fill="#C2C2C2"/>
<circle cx="167.5" cy="50.5" r="0.5" transform="rotate(90 167.5 50.5)" fill="#C2C2C2"/>
<circle cx="167.5" cy="55.5" r="0.5" transform="rotate(90 167.5 55.5)" fill="#C2C2C2"/>
<circle cx="167.5" cy="60.5" r="0.5" transform="rotate(90 167.5 60.5)" fill="#C2C2C2"/>
<circle cx="167.5" cy="70.5" r="0.5" transform="rotate(90 167.5 70.5)" fill="#C2C2C2"/>
<circle cx="167.5" cy="75.5" r="0.5" transform="rotate(90 167.5 75.5)" fill="#C2C2C2"/>
<circle cx="167.5" cy="80.5" r="0.5" transform="rotate(90 167.5 80.5)" fill="#C2C2C2"/>
<circle cx="167.5" cy="85.5" r="0.5" transform="rotate(90 167.5 85.5)" fill="#C2C2C2"/>
<circle cx="167.5" cy="90.5" r="0.5" transform="rotate(90 167.5 90.5)" fill="#C2C2C2"/>
<circle cx="167.5" cy="95.5" r="0.5" transform="rotate(90 167.5 95.5)" fill="#C2C2C2"/>
<circle cx="167.5" cy="100.5" r="0.5" transform="rotate(90 167.5 100.5)" fill="#C2C2C2"/>
<circle cx="162.5" cy="0.5" r="0.5" transform="rotate(90 162.5 0.5)" fill="#C2C2C2"/>
<circle cx="162.5" cy="5.5" r="0.5" transform="rotate(90 162.5 5.5)" fill="#C2C2C2"/>
<circle cx="162.5" cy="10.5" r="0.5" transform="rotate(90 162.5 10.5)" fill="#C2C2C2"/>
<circle cx="162.5" cy="15.5" r="0.5" transform="rotate(90 162.5 15.5)" fill="#C2C2C2"/>
<circle cx="162.5" cy="20.5" r="0.5" transform="rotate(90 162.5 20.5)" fill="#C2C2C2"/>
<circle cx="162.5" cy="25.5" r="0.5" transform="rotate(90 162.5 25.5)" fill="#C2C2C2"/>
<circle cx="162.5" cy="40.5" r="0.5" transform="rotate(90 162.5 40.5)" fill="#C2C2C2"/>
<circle cx="162.5" cy="45.5" r="0.5" transform="rotate(90 162.5 45.5)" fill="#C2C2C2"/>
<circle cx="162.5" cy="50.5" r="0.5" transform="rotate(90 162.5 50.5)" fill="#C2C2C2"/>
<circle cx="162.5" cy="55.5" r="0.5" transform="rotate(90 162.5 55.5)" fill="#C2C2C2"/>
<circle cx="162.5" cy="60.5" r="0.5" transform="rotate(90 162.5 60.5)" fill="#C2C2C2"/>
<circle cx="162.5" cy="65.5" r="0.5" transform="rotate(90 162.5 65.5)" fill="#C2C2C2"/>
<circle cx="162.5" cy="70.5" r="0.5" transform="rotate(90 162.5 70.5)" fill="#C2C2C2"/>
<circle cx="162.5" cy="75.5" r="0.5" transform="rotate(90 162.5 75.5)" fill="#C2C2C2"/>
<circle cx="162.5" cy="80.5" r="0.5" transform="rotate(90 162.5 80.5)" fill="#C2C2C2"/>
<circle cx="162.5" cy="90.5" r="0.5" transform="rotate(90 162.5 90.5)" fill="#C2C2C2"/>
<circle cx="162.5" cy="100.5" r="0.5" transform="rotate(90 162.5 100.5)" fill="#C2C2C2"/>
<circle cx="157.5" cy="0.5" r="0.5" transform="rotate(90 157.5 0.5)" fill="#C2C2C2"/>
<circle cx="157.5" cy="5.5" r="0.5" transform="rotate(90 157.5 5.5)" fill="#C2C2C2"/>
<circle cx="157.5" cy="10.5" r="0.5" transform="rotate(90 157.5 10.5)" fill="#C2C2C2"/>
<circle cx="157.5" cy="20.5" r="0.5" transform="rotate(90 157.5 20.5)" fill="#C2C2C2"/>
<circle cx="157.5" cy="25.5" r="0.5" transform="rotate(90 157.5 25.5)" fill="#C2C2C2"/>
<circle cx="157.5" cy="30.5" r="0.5" transform="rotate(90 157.5 30.5)" fill="#C2C2C2"/>
<circle cx="157.5" cy="35.5" r="0.5" transform="rotate(90 157.5 35.5)" fill="#C2C2C2"/>
<circle cx="157.5" cy="40.5" r="0.5" transform="rotate(90 157.5 40.5)" fill="#C2C2C2"/>
<circle cx="157.5" cy="45.5" r="0.5" transform="rotate(90 157.5 45.5)" fill="#C2C2C2"/>
<circle cx="157.5" cy="50.5" r="0.5" transform="rotate(90 157.5 50.5)" fill="#C2C2C2"/>
<circle cx="157.5" cy="55.5" r="0.5" transform="rotate(90 157.5 55.5)" fill="#C2C2C2"/>
<circle cx="157.5" cy="60.5" r="0.5" transform="rotate(90 157.5 60.5)" fill="#C2C2C2"/>
<circle cx="157.5" cy="65.5" r="0.5" transform="rotate(90 157.5 65.5)" fill="#C2C2C2"/>
<circle cx="157.5" cy="75.5" r="0.5" transform="rotate(90 157.5 75.5)" fill="#C2C2C2"/>
<circle cx="157.5" cy="80.5" r="0.5" transform="rotate(90 157.5 80.5)" fill="#C2C2C2"/>
<circle cx="157.5" cy="85.5" r="0.5" transform="rotate(90 157.5 85.5)" fill="#C2C2C2"/>
<circle cx="157.5" cy="90.5" r="0.5" transform="rotate(90 157.5 90.5)" fill="#C2C2C2"/>
<circle cx="157.5" cy="95.5" r="0.5" transform="rotate(90 157.5 95.5)" fill="#C2C2C2"/>
<circle cx="157.5" cy="100.5" r="0.5" transform="rotate(90 157.5 100.5)" fill="#C2C2C2"/>
<circle cx="152.5" cy="0.5" r="0.5" transform="rotate(90 152.5 0.5)" fill="#C2C2C2"/>
<circle cx="152.5" cy="5.5" r="0.5" transform="rotate(90 152.5 5.5)" fill="#C2C2C2"/>
<circle cx="152.5" cy="10.5" r="0.5" transform="rotate(90 152.5 10.5)" fill="#C2C2C2"/>
<circle cx="152.5" cy="15.5" r="0.5" transform="rotate(90 152.5 15.5)" fill="#C2C2C2"/>
<circle cx="152.5" cy="20.5" r="0.5" transform="rotate(90 152.5 20.5)" fill="#C2C2C2"/>
<circle cx="152.5" cy="25.5" r="0.5" transform="rotate(90 152.5 25.5)" fill="#C2C2C2"/>
<circle cx="152.5" cy="30.5" r="0.5" transform="rotate(90 152.5 30.5)" fill="#C2C2C2"/>
<circle cx="152.5" cy="35.5" r="0.5" transform="rotate(90 152.5 35.5)" fill="#C2C2C2"/>
<circle cx="152.5" cy="40.5" r="0.5" transform="rotate(90 152.5 40.5)" fill="#C2C2C2"/>
<circle cx="152.5" cy="55.5" r="0.5" transform="rotate(90 152.5 55.5)" fill="#C2C2C2"/>
<circle cx="152.5" cy="60.5" r="0.5" transform="rotate(90 152.5 60.5)" fill="#C2C2C2"/>
<circle cx="152.5" cy="65.5" r="0.5" transform="rotate(90 152.5 65.5)" fill="#C2C2C2"/>
<circle cx="152.5" cy="70.5" r="0.5" transform="rotate(90 152.5 70.5)" fill="#C2C2C2"/>
<circle cx="152.5" cy="80.5" r="0.5" transform="rotate(90 152.5 80.5)" fill="#C2C2C2"/>
<circle cx="152.5" cy="85.5" r="0.5" transform="rotate(90 152.5 85.5)" fill="#C2C2C2"/>
<circle cx="152.5" cy="90.5" r="0.5" transform="rotate(90 152.5 90.5)" fill="#C2C2C2"/>
<circle cx="152.5" cy="95.5" r="0.5" transform="rotate(90 152.5 95.5)" fill="#C2C2C2"/>
<circle cx="152.5" cy="100.5" r="0.5" transform="rotate(90 152.5 100.5)" fill="#C2C2C2"/>
<circle cx="147.5" cy="0.5" r="0.5" transform="rotate(90 147.5 0.5)" fill="#C2C2C2"/>
<circle cx="147.5" cy="5.5" r="0.5" transform="rotate(90 147.5 5.5)" fill="#C2C2C2"/>
<circle cx="147.5" cy="10.5" r="0.5" transform="rotate(90 147.5 10.5)" fill="#C2C2C2"/>
<circle cx="147.5" cy="15.5" r="0.5" transform="rotate(90 147.5 15.5)" fill="#C2C2C2"/>
<circle cx="147.5" cy="30.5" r="0.5" transform="rotate(90 147.5 30.5)" fill="#C2C2C2"/>
<circle cx="147.5" cy="35.5" r="0.5" transform="rotate(90 147.5 35.5)" fill="#C2C2C2"/>
<circle cx="147.5" cy="40.5" r="0.5" transform="rotate(90 147.5 40.5)" fill="#C2C2C2"/>
<circle cx="147.5" cy="45.5" r="0.5" transform="rotate(90 147.5 45.5)" fill="#C2C2C2"/>
<circle cx="147.5" cy="50.5" r="0.5" transform="rotate(90 147.5 50.5)" fill="#C2C2C2"/>
<circle cx="147.5" cy="60.5" r="0.5" transform="rotate(90 147.5 60.5)" fill="#C2C2C2"/>
<circle cx="147.5" cy="65.5" r="0.5" transform="rotate(90 147.5 65.5)" fill="#C2C2C2"/>
<circle cx="147.5" cy="70.5" r="0.5" transform="rotate(90 147.5 70.5)" fill="#C2C2C2"/>
<circle cx="147.5" cy="75.5" r="0.5" transform="rotate(90 147.5 75.5)" fill="#C2C2C2"/>
<circle cx="147.5" cy="85.5" r="0.5" transform="rotate(90 147.5 85.5)" fill="#C2C2C2"/>
<circle cx="147.5" cy="90.5" r="0.5" transform="rotate(90 147.5 90.5)" fill="#C2C2C2"/>
<circle cx="147.5" cy="95.5" r="0.5" transform="rotate(90 147.5 95.5)" fill="#C2C2C2"/>
<circle cx="147.5" cy="100.5" r="0.5" transform="rotate(90 147.5 100.5)" fill="#C2C2C2"/>
<circle cx="142.5" cy="0.5" r="0.5" transform="rotate(90 142.5 0.5)" fill="#C2C2C2"/>
<circle cx="142.5" cy="5.5" r="0.5" transform="rotate(90 142.5 5.5)" fill="#C2C2C2"/>
<circle cx="142.5" cy="10.5" r="0.5" transform="rotate(90 142.5 10.5)" fill="#C2C2C2"/>
<circle cx="142.5" cy="15.5" r="0.5" transform="rotate(90 142.5 15.5)" fill="#C2C2C2"/>
<circle cx="142.5" cy="20.5" r="0.5" transform="rotate(90 142.5 20.5)" fill="#C2C2C2"/>
<circle cx="142.5" cy="25.5" r="0.5" transform="rotate(90 142.5 25.5)" fill="#C2C2C2"/>
<circle cx="142.5" cy="30.5" r="0.5" transform="rotate(90 142.5 30.5)" fill="#C2C2C2"/>
<circle cx="142.5" cy="40.5" r="0.5" transform="rotate(90 142.5 40.5)" fill="#C2C2C2"/>
<circle cx="142.5" cy="45.5" r="0.5" transform="rotate(90 142.5 45.5)" fill="#C2C2C2"/>
<circle cx="142.5" cy="50.5" r="0.5" transform="rotate(90 142.5 50.5)" fill="#C2C2C2"/>
<circle cx="142.5" cy="55.5" r="0.5" transform="rotate(90 142.5 55.5)" fill="#C2C2C2"/>
<circle cx="142.5" cy="60.5" r="0.5" transform="rotate(90 142.5 60.5)" fill="#C2C2C2"/>
<circle cx="142.5" cy="65.5" r="0.5" transform="rotate(90 142.5 65.5)" fill="#C2C2C2"/>
<circle cx="142.5" cy="70.5" r="0.5" transform="rotate(90 142.5 70.5)" fill="#C2C2C2"/>
<circle cx="142.5" cy="75.5" r="0.5" transform="rotate(90 142.5 75.5)" fill="#C2C2C2"/>
<circle cx="142.5" cy="80.5" r="0.5" transform="rotate(90 142.5 80.5)" fill="#C2C2C2"/>
<circle cx="142.5" cy="85.5" r="0.5" transform="rotate(90 142.5 85.5)" fill="#C2C2C2"/>
<circle cx="142.5" cy="95.5" r="0.5" transform="rotate(90 142.5 95.5)" fill="#C2C2C2"/>
<circle cx="142.5" cy="100.5" r="0.5" transform="rotate(90 142.5 100.5)" fill="#C2C2C2"/>
<circle cx="137.5" cy="0.5" r="0.5" transform="rotate(90 137.5 0.5)" fill="#C2C2C2"/>
<circle cx="137.5" cy="5.5" r="0.5" transform="rotate(90 137.5 5.5)" fill="#C2C2C2"/>
<circle cx="137.5" cy="15.5" r="0.5" transform="rotate(90 137.5 15.5)" fill="#C2C2C2"/>
<circle cx="137.5" cy="20.5" r="0.5" transform="rotate(90 137.5 20.5)" fill="#C2C2C2"/>
<circle cx="137.5" cy="25.5" r="0.5" transform="rotate(90 137.5 25.5)" fill="#C2C2C2"/>
<circle cx="137.5" cy="30.5" r="0.5" transform="rotate(90 137.5 30.5)" fill="#C2C2C2"/>
<circle cx="137.5" cy="35.5" r="0.5" transform="rotate(90 137.5 35.5)" fill="#C2C2C2"/>
<circle cx="137.5" cy="40.5" r="0.5" transform="rotate(90 137.5 40.5)" fill="#C2C2C2"/>
<circle cx="137.5" cy="45.5" r="0.5" transform="rotate(90 137.5 45.5)" fill="#C2C2C2"/>
<circle cx="137.5" cy="50.5" r="0.5" transform="rotate(90 137.5 50.5)" fill="#C2C2C2"/>
<circle cx="137.5" cy="55.5" r="0.5" transform="rotate(90 137.5 55.5)" fill="#C2C2C2"/>
<circle cx="137.5" cy="60.5" r="0.5" transform="rotate(90 137.5 60.5)" fill="#C2C2C2"/>
<circle cx="137.5" cy="65.5" r="0.5" transform="rotate(90 137.5 65.5)" fill="#C2C2C2"/>
<circle cx="137.5" cy="70.5" r="0.5" transform="rotate(90 137.5 70.5)" fill="#C2C2C2"/>
<circle cx="137.5" cy="75.5" r="0.5" transform="rotate(90 137.5 75.5)" fill="#C2C2C2"/>
<circle cx="137.5" cy="80.5" r="0.5" transform="rotate(90 137.5 80.5)" fill="#C2C2C2"/>
<circle cx="137.5" cy="85.5" r="0.5" transform="rotate(90 137.5 85.5)" fill="#C2C2C2"/>
<circle cx="137.5" cy="90.5" r="0.5" transform="rotate(90 137.5 90.5)" fill="#C2C2C2"/>
<circle cx="137.5" cy="95.5" r="0.5" transform="rotate(90 137.5 95.5)" fill="#C2C2C2"/>
<circle cx="137.5" cy="100.5" r="0.5" transform="rotate(90 137.5 100.5)" fill="#C2C2C2"/>
<circle cx="132.5" cy="0.5" r="0.5" transform="rotate(90 132.5 0.5)" fill="#C2C2C2"/>
<circle cx="132.5" cy="5.5" r="0.5" transform="rotate(90 132.5 5.5)" fill="#C2C2C2"/>
<circle cx="132.5" cy="10.5" r="0.5" transform="rotate(90 132.5 10.5)" fill="#C2C2C2"/>
<circle cx="132.5" cy="15.5" r="0.5" transform="rotate(90 132.5 15.5)" fill="#C2C2C2"/>
<circle cx="132.5" cy="20.5" r="0.5" transform="rotate(90 132.5 20.5)" fill="#C2C2C2"/>
<circle cx="132.5" cy="25.5" r="0.5" transform="rotate(90 132.5 25.5)" fill="#C2C2C2"/>
<circle cx="132.5" cy="30.5" r="0.5" transform="rotate(90 132.5 30.5)" fill="#C2C2C2"/>
<circle cx="132.5" cy="40.5" r="0.5" transform="rotate(90 132.5 40.5)" fill="#C2C2C2"/>
<circle cx="132.5" cy="50.5" r="0.5" transform="rotate(90 132.5 50.5)" fill="#C2C2C2"/>
<circle cx="132.5" cy="55.5" r="0.5" transform="rotate(90 132.5 55.5)" fill="#C2C2C2"/>
<circle cx="132.5" cy="60.5" r="0.5" transform="rotate(90 132.5 60.5)" fill="#C2C2C2"/>
<circle cx="132.5" cy="65.5" r="0.5" transform="rotate(90 132.5 65.5)" fill="#C2C2C2"/>
<circle cx="132.5" cy="70.5" r="0.5" transform="rotate(90 132.5 70.5)" fill="#C2C2C2"/>
<circle cx="132.5" cy="80.5" r="0.5" transform="rotate(90 132.5 80.5)" fill="#C2C2C2"/>
<circle cx="132.5" cy="85.5" r="0.5" transform="rotate(90 132.5 85.5)" fill="#C2C2C2"/>
<circle cx="132.5" cy="100.5" r="0.5" transform="rotate(90 132.5 100.5)" fill="#C2C2C2"/>
<circle cx="127.5" cy="0.5" r="0.5" transform="rotate(90 127.5 0.5)" fill="#C2C2C2"/>
<circle cx="127.5" cy="5.5" r="0.5" transform="rotate(90 127.5 5.5)" fill="#C2C2C2"/>
<circle cx="127.5" cy="10.5" r="0.5" transform="rotate(90 127.5 10.5)" fill="#C2C2C2"/>
<circle cx="127.5" cy="20.5" r="0.5" transform="rotate(90 127.5 20.5)" fill="#C2C2C2"/>
<circle cx="127.5" cy="25.5" r="0.5" transform="rotate(90 127.5 25.5)" fill="#C2C2C2"/>
<circle cx="127.5" cy="30.5" r="0.5" transform="rotate(90 127.5 30.5)" fill="#C2C2C2"/>
<circle cx="127.5" cy="35.5" r="0.5" transform="rotate(90 127.5 35.5)" fill="#C2C2C2"/>
<circle cx="127.5" cy="40.5" r="0.5" transform="rotate(90 127.5 40.5)" fill="#C2C2C2"/>
<circle cx="127.5" cy="45.5" r="0.5" transform="rotate(90 127.5 45.5)" fill="#C2C2C2"/>
<circle cx="127.5" cy="50.5" r="0.5" transform="rotate(90 127.5 50.5)" fill="#C2C2C2"/>
<circle cx="127.5" cy="55.5" r="0.5" transform="rotate(90 127.5 55.5)" fill="#C2C2C2"/>
<circle cx="127.5" cy="60.5" r="0.5" transform="rotate(90 127.5 60.5)" fill="#C2C2C2"/>
<circle cx="127.5" cy="65.5" r="0.5" transform="rotate(90 127.5 65.5)" fill="#C2C2C2"/>
<circle cx="127.5" cy="70.5" r="0.5" transform="rotate(90 127.5 70.5)" fill="#C2C2C2"/>
<circle cx="127.5" cy="75.5" r="0.5" transform="rotate(90 127.5 75.5)" fill="#C2C2C2"/>
<circle cx="127.5" cy="80.5" r="0.5" transform="rotate(90 127.5 80.5)" fill="#C2C2C2"/>
<circle cx="127.5" cy="85.5" r="0.5" transform="rotate(90 127.5 85.5)" fill="#C2C2C2"/>
<circle cx="127.5" cy="90.5" r="0.5" transform="rotate(90 127.5 90.5)" fill="#C2C2C2"/>
<circle cx="127.5" cy="95.5" r="0.5" transform="rotate(90 127.5 95.5)" fill="#C2C2C2"/>
<circle cx="127.5" cy="100.5" r="0.5" transform="rotate(90 127.5 100.5)" fill="#C2C2C2"/>
<circle cx="122.5" cy="0.5" r="0.5" transform="rotate(90 122.5 0.5)" fill="#C2C2C2"/>
<circle cx="122.5" cy="5.5" r="0.5" transform="rotate(90 122.5 5.5)" fill="#C2C2C2"/>
<circle cx="122.5" cy="10.5" r="0.5" transform="rotate(90 122.5 10.5)" fill="#C2C2C2"/>
<circle cx="122.5" cy="15.5" r="0.5" transform="rotate(90 122.5 15.5)" fill="#C2C2C2"/>
<circle cx="122.5" cy="20.5" r="0.5" transform="rotate(90 122.5 20.5)" fill="#C2C2C2"/>
<circle cx="122.5" cy="25.5" r="0.5" transform="rotate(90 122.5 25.5)" fill="#C2C2C2"/>
<circle cx="122.5" cy="30.5" r="0.5" transform="rotate(90 122.5 30.5)" fill="#C2C2C2"/>
<circle cx="122.5" cy="35.5" r="0.5" transform="rotate(90 122.5 35.5)" fill="#C2C2C2"/>
<circle cx="122.5" cy="40.5" r="0.5" transform="rotate(90 122.5 40.5)" fill="#C2C2C2"/>
<circle cx="122.5" cy="45.5" r="0.5" transform="rotate(90 122.5 45.5)" fill="#C2C2C2"/>
<circle cx="122.5" cy="50.5" r="0.5" transform="rotate(90 122.5 50.5)" fill="#C2C2C2"/>
<circle cx="122.5" cy="55.5" r="0.5" transform="rotate(90 122.5 55.5)" fill="#C2C2C2"/>
<circle cx="122.5" cy="60.5" r="0.5" transform="rotate(90 122.5 60.5)" fill="#C2C2C2"/>
<circle cx="122.5" cy="70.5" r="0.5" transform="rotate(90 122.5 70.5)" fill="#C2C2C2"/>
<circle cx="122.5" cy="75.5" r="0.5" transform="rotate(90 122.5 75.5)" fill="#C2C2C2"/>
<circle cx="122.5" cy="80.5" r="0.5" transform="rotate(90 122.5 80.5)" fill="#C2C2C2"/>
<circle cx="122.5" cy="85.5" r="0.5" transform="rotate(90 122.5 85.5)" fill="#C2C2C2"/>
<circle cx="122.5" cy="95.5" r="0.5" transform="rotate(90 122.5 95.5)" fill="#C2C2C2"/>
<circle cx="122.5" cy="100.5" r="0.5" transform="rotate(90 122.5 100.5)" fill="#C2C2C2"/>
<circle cx="117.5" cy="0.5" r="0.5" transform="rotate(90 117.5 0.5)" fill="#C2C2C2"/>
<circle cx="117.5" cy="5.5" r="0.5" transform="rotate(90 117.5 5.5)" fill="#C2C2C2"/>
<circle cx="117.5" cy="10.5" r="0.5" transform="rotate(90 117.5 10.5)" fill="#C2C2C2"/>
<circle cx="117.5" cy="15.5" r="0.5" transform="rotate(90 117.5 15.5)" fill="#C2C2C2"/>
<circle cx="117.5" cy="20.5" r="0.5" transform="rotate(90 117.5 20.5)" fill="#C2C2C2"/>
<circle cx="117.5" cy="30.5" r="0.5" transform="rotate(90 117.5 30.5)" fill="#C2C2C2"/>
<circle cx="117.5" cy="35.5" r="0.5" transform="rotate(90 117.5 35.5)" fill="#C2C2C2"/>
<circle cx="117.5" cy="40.5" r="0.5" transform="rotate(90 117.5 40.5)" fill="#C2C2C2"/>
<circle cx="117.5" cy="45.5" r="0.5" transform="rotate(90 117.5 45.5)" fill="#C2C2C2"/>
<circle cx="117.5" cy="50.5" r="0.5" transform="rotate(90 117.5 50.5)" fill="#C2C2C2"/>
<circle cx="117.5" cy="55.5" r="0.5" transform="rotate(90 117.5 55.5)" fill="#C2C2C2"/>
<circle cx="117.5" cy="60.5" r="0.5" transform="rotate(90 117.5 60.5)" fill="#C2C2C2"/>
<circle cx="117.5" cy="65.5" r="0.5" transform="rotate(90 117.5 65.5)" fill="#C2C2C2"/>
<circle cx="117.5" cy="70.5" r="0.5" transform="rotate(90 117.5 70.5)" fill="#C2C2C2"/>
<circle cx="117.5" cy="75.5" r="0.5" transform="rotate(90 117.5 75.5)" fill="#C2C2C2"/>
<circle cx="117.5" cy="80.5" r="0.5" transform="rotate(90 117.5 80.5)" fill="#C2C2C2"/>
<circle cx="117.5" cy="85.5" r="0.5" transform="rotate(90 117.5 85.5)" fill="#C2C2C2"/>
<circle cx="117.5" cy="95.5" r="0.5" transform="rotate(90 117.5 95.5)" fill="#C2C2C2"/>
<circle cx="117.5" cy="100.5" r="0.5" transform="rotate(90 117.5 100.5)" fill="#C2C2C2"/>
<circle cx="112.5" cy="0.5" r="0.5" transform="rotate(90 112.5 0.5)" fill="#C2C2C2"/>
<circle cx="112.5" cy="5.5" r="0.5" transform="rotate(90 112.5 5.5)" fill="#C2C2C2"/>
<circle cx="112.5" cy="10.5" r="0.5" transform="rotate(90 112.5 10.5)" fill="#C2C2C2"/>
<circle cx="112.5" cy="15.5" r="0.5" transform="rotate(90 112.5 15.5)" fill="#C2C2C2"/>
<circle cx="112.5" cy="20.5" r="0.5" transform="rotate(90 112.5 20.5)" fill="#C2C2C2"/>
<circle cx="112.5" cy="25.5" r="0.5" transform="rotate(90 112.5 25.5)" fill="#C2C2C2"/>
<circle cx="112.5" cy="30.5" r="0.5" transform="rotate(90 112.5 30.5)" fill="#C2C2C2"/>
<circle cx="112.5" cy="35.5" r="0.5" transform="rotate(90 112.5 35.5)" fill="#C2C2C2"/>
<circle cx="112.5" cy="40.5" r="0.5" transform="rotate(90 112.5 40.5)" fill="#C2C2C2"/>
<circle cx="112.5" cy="45.5" r="0.5" transform="rotate(90 112.5 45.5)" fill="#C2C2C2"/>
<circle cx="112.5" cy="50.5" r="0.5" transform="rotate(90 112.5 50.5)" fill="#C2C2C2"/>
<circle cx="112.5" cy="55.5" r="0.5" transform="rotate(90 112.5 55.5)" fill="#C2C2C2"/>
<circle cx="112.5" cy="60.5" r="0.5" transform="rotate(90 112.5 60.5)" fill="#C2C2C2"/>
<circle cx="112.5" cy="65.5" r="0.5" transform="rotate(90 112.5 65.5)" fill="#C2C2C2"/>
<circle cx="112.5" cy="70.5" r="0.5" transform="rotate(90 112.5 70.5)" fill="#C2C2C2"/>
<circle cx="112.5" cy="75.5" r="0.5" transform="rotate(90 112.5 75.5)" fill="#C2C2C2"/>
<circle cx="112.5" cy="80.5" r="0.5" transform="rotate(90 112.5 80.5)" fill="#C2C2C2"/>
<circle cx="112.5" cy="85.5" r="0.5" transform="rotate(90 112.5 85.5)" fill="#C2C2C2"/>
<circle cx="112.5" cy="90.5" r="0.5" transform="rotate(90 112.5 90.5)" fill="#C2C2C2"/>
<circle cx="112.5" cy="95.5" r="0.5" transform="rotate(90 112.5 95.5)" fill="#C2C2C2"/>
<circle cx="112.5" cy="100.5" r="0.5" transform="rotate(90 112.5 100.5)" fill="#C2C2C2"/>
<circle cx="107.5" cy="0.5" r="0.5" transform="rotate(90 107.5 0.5)" fill="#C2C2C2"/>
<circle cx="107.5" cy="5.5" r="0.5" transform="rotate(90 107.5 5.5)" fill="#C2C2C2"/>
<circle cx="107.5" cy="10.5" r="0.5" transform="rotate(90 107.5 10.5)" fill="#C2C2C2"/>
<circle cx="107.5" cy="15.5" r="0.5" transform="rotate(90 107.5 15.5)" fill="#C2C2C2"/>
<circle cx="107.5" cy="20.5" r="0.5" transform="rotate(90 107.5 20.5)" fill="#C2C2C2"/>
<circle cx="107.5" cy="25.5" r="0.5" transform="rotate(90 107.5 25.5)" fill="#C2C2C2"/>
<circle cx="107.5" cy="30.5" r="0.5" transform="rotate(90 107.5 30.5)" fill="#C2C2C2"/>
<circle cx="107.5" cy="35.5" r="0.5" transform="rotate(90 107.5 35.5)" fill="#C2C2C2"/>
<circle cx="107.5" cy="40.5" r="0.5" transform="rotate(90 107.5 40.5)" fill="#C2C2C2"/>
<circle cx="107.5" cy="45.5" r="0.5" transform="rotate(90 107.5 45.5)" fill="#C2C2C2"/>
<circle cx="107.5" cy="60.5" r="0.5" transform="rotate(90 107.5 60.5)" fill="#C2C2C2"/>
<circle cx="107.5" cy="70.5" r="0.5" transform="rotate(90 107.5 70.5)" fill="#C2C2C2"/>
<circle cx="107.5" cy="75.5" r="0.5" transform="rotate(90 107.5 75.5)" fill="#C2C2C2"/>
<circle cx="107.5" cy="80.5" r="0.5" transform="rotate(90 107.5 80.5)" fill="#C2C2C2"/>
<circle cx="107.5" cy="85.5" r="0.5" transform="rotate(90 107.5 85.5)" fill="#C2C2C2"/>
<circle cx="107.5" cy="90.5" r="0.5" transform="rotate(90 107.5 90.5)" fill="#C2C2C2"/>
<circle cx="107.5" cy="95.5" r="0.5" transform="rotate(90 107.5 95.5)" fill="#C2C2C2"/>
<circle cx="107.5" cy="100.5" r="0.5" transform="rotate(90 107.5 100.5)" fill="#C2C2C2"/>
<circle cx="102.5" cy="0.5" r="0.5" transform="rotate(90 102.5 0.5)" fill="#C2C2C2"/>
<circle cx="102.5" cy="5.5" r="0.5" transform="rotate(90 102.5 5.5)" fill="#C2C2C2"/>
<circle cx="102.5" cy="10.5" r="0.5" transform="rotate(90 102.5 10.5)" fill="#C2C2C2"/>
<circle cx="102.5" cy="15.5" r="0.5" transform="rotate(90 102.5 15.5)" fill="#C2C2C2"/>
<circle cx="102.5" cy="20.5" r="0.5" transform="rotate(90 102.5 20.5)" fill="#C2C2C2"/>
<circle cx="102.5" cy="25.5" r="0.5" transform="rotate(90 102.5 25.5)" fill="#C2C2C2"/>
<circle cx="102.5" cy="35.5" r="0.5" transform="rotate(90 102.5 35.5)" fill="#C2C2C2"/>
<circle cx="102.5" cy="40.5" r="0.5" transform="rotate(90 102.5 40.5)" fill="#C2C2C2"/>
<circle cx="102.5" cy="45.5" r="0.5" transform="rotate(90 102.5 45.5)" fill="#C2C2C2"/>
<circle cx="102.5" cy="55.5" r="0.5" transform="rotate(90 102.5 55.5)" fill="#C2C2C2"/>
<circle cx="102.5" cy="60.5" r="0.5" transform="rotate(90 102.5 60.5)" fill="#C2C2C2"/>
<circle cx="102.5" cy="65.5" r="0.5" transform="rotate(90 102.5 65.5)" fill="#C2C2C2"/>
<circle cx="102.5" cy="70.5" r="0.5" transform="rotate(90 102.5 70.5)" fill="#C2C2C2"/>
<circle cx="102.5" cy="75.5" r="0.5" transform="rotate(90 102.5 75.5)" fill="#C2C2C2"/>
<circle cx="102.5" cy="80.5" r="0.5" transform="rotate(90 102.5 80.5)" fill="#C2C2C2"/>
<circle cx="102.5" cy="85.5" r="0.5" transform="rotate(90 102.5 85.5)" fill="#C2C2C2"/>
<circle cx="102.5" cy="90.5" r="0.5" transform="rotate(90 102.5 90.5)" fill="#C2C2C2"/>
<circle cx="102.5" cy="95.5" r="0.5" transform="rotate(90 102.5 95.5)" fill="#C2C2C2"/>
<circle cx="102.5" cy="100.5" r="0.5" transform="rotate(90 102.5 100.5)" fill="#C2C2C2"/>
<circle cx="97.5" cy="0.5" r="0.5" transform="rotate(90 97.5 0.5)" fill="#C2C2C2"/>
<circle cx="97.5" cy="5.5" r="0.5" transform="rotate(90 97.5 5.5)" fill="#C2C2C2"/>
<circle cx="97.5" cy="10.5" r="0.5" transform="rotate(90 97.5 10.5)" fill="#C2C2C2"/>
<circle cx="97.5" cy="15.5" r="0.5" transform="rotate(90 97.5 15.5)" fill="#C2C2C2"/>
<circle cx="97.5" cy="20.5" r="0.5" transform="rotate(90 97.5 20.5)" fill="#C2C2C2"/>
<circle cx="97.5" cy="25.5" r="0.5" transform="rotate(90 97.5 25.5)" fill="#C2C2C2"/>
<circle cx="97.5" cy="30.5" r="0.5" transform="rotate(90 97.5 30.5)" fill="#C2C2C2"/>
<circle cx="97.5" cy="35.5" r="0.5" transform="rotate(90 97.5 35.5)" fill="#C2C2C2"/>
<circle cx="97.5" cy="40.5" r="0.5" transform="rotate(90 97.5 40.5)" fill="#C2C2C2"/>
<circle cx="97.5" cy="50.5" r="0.5" transform="rotate(90 97.5 50.5)" fill="#C2C2C2"/>
<circle cx="97.5" cy="55.5" r="0.5" transform="rotate(90 97.5 55.5)" fill="#C2C2C2"/>
<circle cx="97.5" cy="60.5" r="0.5" transform="rotate(90 97.5 60.5)" fill="#C2C2C2"/>
<circle cx="97.5" cy="65.5" r="0.5" transform="rotate(90 97.5 65.5)" fill="#C2C2C2"/>
<circle cx="97.5" cy="70.5" r="0.5" transform="rotate(90 97.5 70.5)" fill="#C2C2C2"/>
<circle cx="97.5" cy="75.5" r="0.5" transform="rotate(90 97.5 75.5)" fill="#C2C2C2"/>
<circle cx="97.5" cy="80.5" r="0.5" transform="rotate(90 97.5 80.5)" fill="#C2C2C2"/>
<circle cx="97.5" cy="85.5" r="0.5" transform="rotate(90 97.5 85.5)" fill="#C2C2C2"/>
<circle cx="97.5" cy="90.5" r="0.5" transform="rotate(90 97.5 90.5)" fill="#C2C2C2"/>
<circle cx="97.5" cy="95.5" r="0.5" transform="rotate(90 97.5 95.5)" fill="#C2C2C2"/>
<circle cx="97.5" cy="100.5" r="0.5" transform="rotate(90 97.5 100.5)" fill="#C2C2C2"/>
<circle cx="92.5" cy="0.5" r="0.5" transform="rotate(90 92.5 0.5)" fill="#C2C2C2"/>
<circle cx="92.5" cy="5.5" r="0.5" transform="rotate(90 92.5 5.5)" fill="#C2C2C2"/>
<circle cx="92.5" cy="10.5" r="0.5" transform="rotate(90 92.5 10.5)" fill="#C2C2C2"/>
<circle cx="92.5" cy="15.5" r="0.5" transform="rotate(90 92.5 15.5)" fill="#C2C2C2"/>
<circle cx="92.5" cy="20.5" r="0.5" transform="rotate(90 92.5 20.5)" fill="#C2C2C2"/>
<circle cx="92.5" cy="25.5" r="0.5" transform="rotate(90 92.5 25.5)" fill="#C2C2C2"/>
<circle cx="92.5" cy="35.5" r="0.5" transform="rotate(90 92.5 35.5)" fill="#C2C2C2"/>
<circle cx="92.5" cy="40.5" r="0.5" transform="rotate(90 92.5 40.5)" fill="#C2C2C2"/>
<circle cx="92.5" cy="45.5" r="0.5" transform="rotate(90 92.5 45.5)" fill="#C2C2C2"/>
<circle cx="92.5" cy="50.5" r="0.5" transform="rotate(90 92.5 50.5)" fill="#C2C2C2"/>
<circle cx="92.5" cy="55.5" r="0.5" transform="rotate(90 92.5 55.5)" fill="#C2C2C2"/>
<circle cx="92.5" cy="60.5" r="0.5" transform="rotate(90 92.5 60.5)" fill="#C2C2C2"/>
<circle cx="92.5" cy="65.5" r="0.5" transform="rotate(90 92.5 65.5)" fill="#C2C2C2"/>
<circle cx="92.5" cy="70.5" r="0.5" transform="rotate(90 92.5 70.5)" fill="#C2C2C2"/>
<circle cx="92.5" cy="75.5" r="0.5" transform="rotate(90 92.5 75.5)" fill="#C2C2C2"/>
<circle cx="92.5" cy="80.5" r="0.5" transform="rotate(90 92.5 80.5)" fill="#C2C2C2"/>
<circle cx="92.5" cy="85.5" r="0.5" transform="rotate(90 92.5 85.5)" fill="#C2C2C2"/>
<circle cx="92.5" cy="90.5" r="0.5" transform="rotate(90 92.5 90.5)" fill="#C2C2C2"/>
<circle cx="92.5" cy="95.5" r="0.5" transform="rotate(90 92.5 95.5)" fill="#C2C2C2"/>
<circle cx="92.5" cy="100.5" r="0.5" transform="rotate(90 92.5 100.5)" fill="#C2C2C2"/>
<circle cx="87.5" cy="0.5" r="0.5" transform="rotate(90 87.5 0.5)" fill="#C2C2C2"/>
<circle cx="87.5" cy="5.5" r="0.5" transform="rotate(90 87.5 5.5)" fill="#C2C2C2"/>
<circle cx="87.5" cy="10.5" r="0.5" transform="rotate(90 87.5 10.5)" fill="#C2C2C2"/>
<circle cx="87.5" cy="15.5" r="0.5" transform="rotate(90 87.5 15.5)" fill="#C2C2C2"/>
<circle cx="87.5" cy="20.5" r="0.5" transform="rotate(90 87.5 20.5)" fill="#C2C2C2"/>
<circle cx="87.5" cy="25.5" r="0.5" transform="rotate(90 87.5 25.5)" fill="#C2C2C2"/>
<circle cx="87.5" cy="30.5" r="0.5" transform="rotate(90 87.5 30.5)" fill="#C2C2C2"/>
<circle cx="87.5" cy="35.5" r="0.5" transform="rotate(90 87.5 35.5)" fill="#C2C2C2"/>
<circle cx="87.5" cy="40.5" r="0.5" transform="rotate(90 87.5 40.5)" fill="#C2C2C2"/>
<circle cx="87.5" cy="45.5" r="0.5" transform="rotate(90 87.5 45.5)" fill="#C2C2C2"/>
<circle cx="87.5" cy="50.5" r="0.5" transform="rotate(90 87.5 50.5)" fill="#C2C2C2"/>
<circle cx="87.5" cy="55.5" r="0.5" transform="rotate(90 87.5 55.5)" fill="#C2C2C2"/>
<circle cx="87.5" cy="60.5" r="0.5" transform="rotate(90 87.5 60.5)" fill="#C2C2C2"/>
<circle cx="87.5" cy="70.5" r="0.5" transform="rotate(90 87.5 70.5)" fill="#C2C2C2"/>
<circle cx="87.5" cy="75.5" r="0.5" transform="rotate(90 87.5 75.5)" fill="#C2C2C2"/>
<circle cx="87.5" cy="80.5" r="0.5" transform="rotate(90 87.5 80.5)" fill="#C2C2C2"/>
<circle cx="87.5" cy="85.5" r="0.5" transform="rotate(90 87.5 85.5)" fill="#C2C2C2"/>
<circle cx="87.5" cy="90.5" r="0.5" transform="rotate(90 87.5 90.5)" fill="#C2C2C2"/>
<circle cx="87.5" cy="95.5" r="0.5" transform="rotate(90 87.5 95.5)" fill="#C2C2C2"/>
<circle cx="87.5" cy="100.5" r="0.5" transform="rotate(90 87.5 100.5)" fill="#C2C2C2"/>
<circle cx="82.5" cy="0.5" r="0.5" transform="rotate(90 82.5 0.5)" fill="#C2C2C2"/>
<circle cx="82.5" cy="5.5" r="0.5" transform="rotate(90 82.5 5.5)" fill="#C2C2C2"/>
<circle cx="82.5" cy="10.5" r="0.5" transform="rotate(90 82.5 10.5)" fill="#C2C2C2"/>
<circle cx="82.5" cy="15.5" r="0.5" transform="rotate(90 82.5 15.5)" fill="#C2C2C2"/>
<circle cx="82.5" cy="20.5" r="0.5" transform="rotate(90 82.5 20.5)" fill="#C2C2C2"/>
<circle cx="82.5" cy="25.5" r="0.5" transform="rotate(90 82.5 25.5)" fill="#C2C2C2"/>
<circle cx="82.5" cy="30.5" r="0.5" transform="rotate(90 82.5 30.5)" fill="#C2C2C2"/>
<circle cx="82.5" cy="35.5" r="0.5" transform="rotate(90 82.5 35.5)" fill="#C2C2C2"/>
<circle cx="82.5" cy="40.5" r="0.5" transform="rotate(90 82.5 40.5)" fill="#C2C2C2"/>
<circle cx="82.5" cy="45.5" r="0.5" transform="rotate(90 82.5 45.5)" fill="#C2C2C2"/>
<circle cx="82.5" cy="50.5" r="0.5" transform="rotate(90 82.5 50.5)" fill="#C2C2C2"/>
<circle cx="82.5" cy="55.5" r="0.5" transform="rotate(90 82.5 55.5)" fill="#C2C2C2"/>
<circle cx="82.5" cy="60.5" r="0.5" transform="rotate(90 82.5 60.5)" fill="#C2C2C2"/>
<circle cx="82.5" cy="70.5" r="0.5" transform="rotate(90 82.5 70.5)" fill="#C2C2C2"/>
<circle cx="82.5" cy="75.5" r="0.5" transform="rotate(90 82.5 75.5)" fill="#C2C2C2"/>
<circle cx="82.5" cy="85.5" r="0.5" transform="rotate(90 82.5 85.5)" fill="#C2C2C2"/>
<circle cx="82.5" cy="90.5" r="0.5" transform="rotate(90 82.5 90.5)" fill="#C2C2C2"/>
<circle cx="82.5" cy="95.5" r="0.5" transform="rotate(90 82.5 95.5)" fill="#C2C2C2"/>
<circle cx="82.5" cy="100.5" r="0.5" transform="rotate(90 82.5 100.5)" fill="#C2C2C2"/>
<circle cx="77.5" cy="0.5" r="0.5" transform="rotate(90 77.5 0.5)" fill="#C2C2C2"/>
<circle cx="77.5" cy="5.5" r="0.5" transform="rotate(90 77.5 5.5)" fill="#C2C2C2"/>
<circle cx="77.5" cy="10.5" r="0.5" transform="rotate(90 77.5 10.5)" fill="#C2C2C2"/>
<circle cx="77.5" cy="15.5" r="0.5" transform="rotate(90 77.5 15.5)" fill="#C2C2C2"/>
<circle cx="77.5" cy="20.5" r="0.5" transform="rotate(90 77.5 20.5)" fill="#C2C2C2"/>
<circle cx="77.5" cy="30.5" r="0.5" transform="rotate(90 77.5 30.5)" fill="#C2C2C2"/>
<circle cx="77.5" cy="40.5" r="0.5" transform="rotate(90 77.5 40.5)" fill="#C2C2C2"/>
<circle cx="77.5" cy="55.5" r="0.5" transform="rotate(90 77.5 55.5)" fill="#C2C2C2"/>
<circle cx="77.5" cy="65.5" r="0.5" transform="rotate(90 77.5 65.5)" fill="#C2C2C2"/>
<circle cx="77.5" cy="70.5" r="0.5" transform="rotate(90 77.5 70.5)" fill="#C2C2C2"/>
<circle cx="77.5" cy="75.5" r="0.5" transform="rotate(90 77.5 75.5)" fill="#C2C2C2"/>
<circle cx="77.5" cy="80.5" r="0.5" transform="rotate(90 77.5 80.5)" fill="#C2C2C2"/>
<circle cx="77.5" cy="85.5" r="0.5" transform="rotate(90 77.5 85.5)" fill="#C2C2C2"/>
<circle cx="77.5" cy="90.5" r="0.5" transform="rotate(90 77.5 90.5)" fill="#C2C2C2"/>
<circle cx="77.5" cy="95.5" r="0.5" transform="rotate(90 77.5 95.5)" fill="#C2C2C2"/>
<circle cx="77.5" cy="100.5" r="0.5" transform="rotate(90 77.5 100.5)" fill="#C2C2C2"/>
<circle cx="72.5" cy="0.5" r="0.5" transform="rotate(90 72.5 0.5)" fill="#C2C2C2"/>
<circle cx="72.5" cy="5.5" r="0.5" transform="rotate(90 72.5 5.5)" fill="#C2C2C2"/>
<circle cx="72.5" cy="10.5" r="0.5" transform="rotate(90 72.5 10.5)" fill="#C2C2C2"/>
<circle cx="72.5" cy="15.5" r="0.5" transform="rotate(90 72.5 15.5)" fill="#C2C2C2"/>
<circle cx="72.5" cy="20.5" r="0.5" transform="rotate(90 72.5 20.5)" fill="#C2C2C2"/>
<circle cx="72.5" cy="25.5" r="0.5" transform="rotate(90 72.5 25.5)" fill="#C2C2C2"/>
<circle cx="72.5" cy="30.5" r="0.5" transform="rotate(90 72.5 30.5)" fill="#C2C2C2"/>
<circle cx="72.5" cy="35.5" r="0.5" transform="rotate(90 72.5 35.5)" fill="#C2C2C2"/>
<circle cx="72.5" cy="40.5" r="0.5" transform="rotate(90 72.5 40.5)" fill="#C2C2C2"/>
<circle cx="72.5" cy="45.5" r="0.5" transform="rotate(90 72.5 45.5)" fill="#C2C2C2"/>
<circle cx="72.5" cy="50.5" r="0.5" transform="rotate(90 72.5 50.5)" fill="#C2C2C2"/>
<circle cx="72.5" cy="55.5" r="0.5" transform="rotate(90 72.5 55.5)" fill="#C2C2C2"/>
<circle cx="72.5" cy="60.5" r="0.5" transform="rotate(90 72.5 60.5)" fill="#C2C2C2"/>
<circle cx="72.5" cy="65.5" r="0.5" transform="rotate(90 72.5 65.5)" fill="#C2C2C2"/>
<circle cx="72.5" cy="70.5" r="0.5" transform="rotate(90 72.5 70.5)" fill="#C2C2C2"/>
<circle cx="72.5" cy="75.5" r="0.5" transform="rotate(90 72.5 75.5)" fill="#C2C2C2"/>
<circle cx="72.5" cy="80.5" r="0.5" transform="rotate(90 72.5 80.5)" fill="#C2C2C2"/>
<circle cx="72.5" cy="85.5" r="0.5" transform="rotate(90 72.5 85.5)" fill="#C2C2C2"/>
<circle cx="72.5" cy="90.5" r="0.5" transform="rotate(90 72.5 90.5)" fill="#C2C2C2"/>
<circle cx="72.5" cy="95.5" r="0.5" transform="rotate(90 72.5 95.5)" fill="#C2C2C2"/>
<circle cx="72.5" cy="100.5" r="0.5" transform="rotate(90 72.5 100.5)" fill="#C2C2C2"/>
<circle cx="67.5" cy="0.5" r="0.5" transform="rotate(90 67.5 0.5)" fill="#C2C2C2"/>
<circle cx="67.5" cy="5.5" r="0.5" transform="rotate(90 67.5 5.5)" fill="#C2C2C2"/>
<circle cx="67.5" cy="10.5" r="0.5" transform="rotate(90 67.5 10.5)" fill="#C2C2C2"/>
<circle cx="67.5" cy="15.5" r="0.5" transform="rotate(90 67.5 15.5)" fill="#C2C2C2"/>
<circle cx="67.5" cy="20.5" r="0.5" transform="rotate(90 67.5 20.5)" fill="#C2C2C2"/>
<circle cx="67.5" cy="25.5" r="0.5" transform="rotate(90 67.5 25.5)" fill="#C2C2C2"/>
<circle cx="67.5" cy="30.5" r="0.5" transform="rotate(90 67.5 30.5)" fill="#C2C2C2"/>
<circle cx="67.5" cy="35.5" r="0.5" transform="rotate(90 67.5 35.5)" fill="#C2C2C2"/>
<circle cx="67.5" cy="40.5" r="0.5" transform="rotate(90 67.5 40.5)" fill="#C2C2C2"/>
<circle cx="67.5" cy="45.5" r="0.5" transform="rotate(90 67.5 45.5)" fill="#C2C2C2"/>
<circle cx="67.5" cy="55.5" r="0.5" transform="rotate(90 67.5 55.5)" fill="#C2C2C2"/>
<circle cx="67.5" cy="60.5" r="0.5" transform="rotate(90 67.5 60.5)" fill="#C2C2C2"/>
<circle cx="67.5" cy="65.5" r="0.5" transform="rotate(90 67.5 65.5)" fill="#C2C2C2"/>
<circle cx="67.5" cy="70.5" r="0.5" transform="rotate(90 67.5 70.5)" fill="#C2C2C2"/>
<circle cx="67.5" cy="75.5" r="0.5" transform="rotate(90 67.5 75.5)" fill="#C2C2C2"/>
<circle cx="67.5" cy="80.5" r="0.5" transform="rotate(90 67.5 80.5)" fill="#C2C2C2"/>
<circle cx="67.5" cy="85.5" r="0.5" transform="rotate(90 67.5 85.5)" fill="#C2C2C2"/>
<circle cx="67.5" cy="90.5" r="0.5" transform="rotate(90 67.5 90.5)" fill="#C2C2C2"/>
<circle cx="67.5" cy="95.5" r="0.5" transform="rotate(90 67.5 95.5)" fill="#C2C2C2"/>
<circle cx="67.5" cy="100.5" r="0.5" transform="rotate(90 67.5 100.5)" fill="#C2C2C2"/>
<circle cx="62.5" cy="0.5" r="0.5" transform="rotate(90 62.5 0.5)" fill="#C2C2C2"/>
<circle cx="62.5" cy="5.5" r="0.5" transform="rotate(90 62.5 5.5)" fill="#C2C2C2"/>
<circle cx="62.5" cy="10.5" r="0.5" transform="rotate(90 62.5 10.5)" fill="#C2C2C2"/>
<circle cx="62.5" cy="15.5" r="0.5" transform="rotate(90 62.5 15.5)" fill="#C2C2C2"/>
<circle cx="62.5" cy="20.5" r="0.5" transform="rotate(90 62.5 20.5)" fill="#C2C2C2"/>
<circle cx="62.5" cy="25.5" r="0.5" transform="rotate(90 62.5 25.5)" fill="#C2C2C2"/>
<circle cx="62.5" cy="30.5" r="0.5" transform="rotate(90 62.5 30.5)" fill="#C2C2C2"/>
<circle cx="62.5" cy="40.5" r="0.5" transform="rotate(90 62.5 40.5)" fill="#C2C2C2"/>
<circle cx="62.5" cy="45.5" r="0.5" transform="rotate(90 62.5 45.5)" fill="#C2C2C2"/>
<circle cx="62.5" cy="50.5" r="0.5" transform="rotate(90 62.5 50.5)" fill="#C2C2C2"/>
<circle cx="62.5" cy="55.5" r="0.5" transform="rotate(90 62.5 55.5)" fill="#C2C2C2"/>
<circle cx="62.5" cy="60.5" r="0.5" transform="rotate(90 62.5 60.5)" fill="#C2C2C2"/>
<circle cx="62.5" cy="75.5" r="0.5" transform="rotate(90 62.5 75.5)" fill="#C2C2C2"/>
<circle cx="62.5" cy="80.5" r="0.5" transform="rotate(90 62.5 80.5)" fill="#C2C2C2"/>
<circle cx="62.5" cy="85.5" r="0.5" transform="rotate(90 62.5 85.5)" fill="#C2C2C2"/>
<circle cx="62.5" cy="90.5" r="0.5" transform="rotate(90 62.5 90.5)" fill="#C2C2C2"/>
<circle cx="62.5" cy="95.5" r="0.5" transform="rotate(90 62.5 95.5)" fill="#C2C2C2"/>
<circle cx="62.5" cy="100.5" r="0.5" transform="rotate(90 62.5 100.5)" fill="#C2C2C2"/>
<circle cx="57.5" cy="0.5" r="0.5" transform="rotate(90 57.5 0.5)" fill="#C2C2C2"/>
<circle cx="57.5" cy="5.5" r="0.5" transform="rotate(90 57.5 5.5)" fill="#C2C2C2"/>
<circle cx="57.5" cy="10.5" r="0.5" transform="rotate(90 57.5 10.5)" fill="#C2C2C2"/>
<circle cx="57.5" cy="15.5" r="0.5" transform="rotate(90 57.5 15.5)" fill="#C2C2C2"/>
<circle cx="57.5" cy="20.5" r="0.5" transform="rotate(90 57.5 20.5)" fill="#C2C2C2"/>
<circle cx="57.5" cy="25.5" r="0.5" transform="rotate(90 57.5 25.5)" fill="#C2C2C2"/>
<circle cx="57.5" cy="30.5" r="0.5" transform="rotate(90 57.5 30.5)" fill="#C2C2C2"/>
<circle cx="57.5" cy="35.5" r="0.5" transform="rotate(90 57.5 35.5)" fill="#C2C2C2"/>
<circle cx="57.5" cy="40.5" r="0.5" transform="rotate(90 57.5 40.5)" fill="#C2C2C2"/>
<circle cx="57.5" cy="45.5" r="0.5" transform="rotate(90 57.5 45.5)" fill="#C2C2C2"/>
<circle cx="57.5" cy="50.5" r="0.5" transform="rotate(90 57.5 50.5)" fill="#C2C2C2"/>
<circle cx="57.5" cy="55.5" r="0.5" transform="rotate(90 57.5 55.5)" fill="#C2C2C2"/>
<circle cx="57.5" cy="60.5" r="0.5" transform="rotate(90 57.5 60.5)" fill="#C2C2C2"/>
<circle cx="57.5" cy="65.5" r="0.5" transform="rotate(90 57.5 65.5)" fill="#C2C2C2"/>
<circle cx="57.5" cy="70.5" r="0.5" transform="rotate(90 57.5 70.5)" fill="#C2C2C2"/>
<circle cx="57.5" cy="75.5" r="0.5" transform="rotate(90 57.5 75.5)" fill="#C2C2C2"/>
<circle cx="57.5" cy="80.5" r="0.5" transform="rotate(90 57.5 80.5)" fill="#C2C2C2"/>
<circle cx="57.5" cy="85.5" r="0.5" transform="rotate(90 57.5 85.5)" fill="#C2C2C2"/>
<circle cx="57.5" cy="90.5" r="0.5" transform="rotate(90 57.5 90.5)" fill="#C2C2C2"/>
<circle cx="57.5" cy="95.5" r="0.5" transform="rotate(90 57.5 95.5)" fill="#C2C2C2"/>
<circle cx="57.5" cy="100.5" r="0.5" transform="rotate(90 57.5 100.5)" fill="#C2C2C2"/>
<circle cx="52.5" cy="0.5" r="0.5" transform="rotate(90 52.5 0.5)" fill="#C2C2C2"/>
<circle cx="52.5" cy="5.5" r="0.5" transform="rotate(90 52.5 5.5)" fill="#C2C2C2"/>
<circle cx="52.5" cy="10.5" r="0.5" transform="rotate(90 52.5 10.5)" fill="#C2C2C2"/>
<circle cx="52.5" cy="15.5" r="0.5" transform="rotate(90 52.5 15.5)" fill="#C2C2C2"/>
<circle cx="52.5" cy="20.5" r="0.5" transform="rotate(90 52.5 20.5)" fill="#C2C2C2"/>
<circle cx="52.5" cy="25.5" r="0.5" transform="rotate(90 52.5 25.5)" fill="#C2C2C2"/>
<circle cx="52.5" cy="35.5" r="0.5" transform="rotate(90 52.5 35.5)" fill="#C2C2C2"/>
<circle cx="52.5" cy="40.5" r="0.5" transform="rotate(90 52.5 40.5)" fill="#C2C2C2"/>
<circle cx="52.5" cy="45.5" r="0.5" transform="rotate(90 52.5 45.5)" fill="#C2C2C2"/>
<circle cx="52.5" cy="50.5" r="0.5" transform="rotate(90 52.5 50.5)" fill="#C2C2C2"/>
<circle cx="52.5" cy="55.5" r="0.5" transform="rotate(90 52.5 55.5)" fill="#C2C2C2"/>
<circle cx="52.5" cy="60.5" r="0.5" transform="rotate(90 52.5 60.5)" fill="#C2C2C2"/>
<circle cx="52.5" cy="65.5" r="0.5" transform="rotate(90 52.5 65.5)" fill="#C2C2C2"/>
<circle cx="52.5" cy="70.5" r="0.5" transform="rotate(90 52.5 70.5)" fill="#C2C2C2"/>
<circle cx="52.5" cy="75.5" r="0.5" transform="rotate(90 52.5 75.5)" fill="#C2C2C2"/>
<circle cx="52.5" cy="80.5" r="0.5" transform="rotate(90 52.5 80.5)" fill="#C2C2C2"/>
<circle cx="52.5" cy="85.5" r="0.5" transform="rotate(90 52.5 85.5)" fill="#C2C2C2"/>
<circle cx="52.5" cy="90.5" r="0.5" transform="rotate(90 52.5 90.5)" fill="#C2C2C2"/>
<circle cx="52.5" cy="95.5" r="0.5" transform="rotate(90 52.5 95.5)" fill="#C2C2C2"/>
<circle cx="52.5" cy="100.5" r="0.5" transform="rotate(90 52.5 100.5)" fill="#C2C2C2"/>
<circle cx="47.5" cy="0.5" r="0.5" transform="rotate(90 47.5 0.5)" fill="#C2C2C2"/>
<circle cx="47.5" cy="5.5" r="0.5" transform="rotate(90 47.5 5.5)" fill="#C2C2C2"/>
<circle cx="47.5" cy="10.5" r="0.5" transform="rotate(90 47.5 10.5)" fill="#C2C2C2"/>
<circle cx="47.5" cy="15.5" r="0.5" transform="rotate(90 47.5 15.5)" fill="#C2C2C2"/>
<circle cx="47.5" cy="20.5" r="0.5" transform="rotate(90 47.5 20.5)" fill="#C2C2C2"/>
<circle cx="47.5" cy="25.5" r="0.5" transform="rotate(90 47.5 25.5)" fill="#C2C2C2"/>
<circle cx="47.5" cy="30.5" r="0.5" transform="rotate(90 47.5 30.5)" fill="#C2C2C2"/>
<circle cx="47.5" cy="35.5" r="0.5" transform="rotate(90 47.5 35.5)" fill="#C2C2C2"/>
<circle cx="47.5" cy="40.5" r="0.5" transform="rotate(90 47.5 40.5)" fill="#C2C2C2"/>
<circle cx="47.5" cy="45.5" r="0.5" transform="rotate(90 47.5 45.5)" fill="#C2C2C2"/>
<circle cx="47.5" cy="50.5" r="0.5" transform="rotate(90 47.5 50.5)" fill="#C2C2C2"/>
<circle cx="47.5" cy="55.5" r="0.5" transform="rotate(90 47.5 55.5)" fill="#C2C2C2"/>
<circle cx="47.5" cy="60.5" r="0.5" transform="rotate(90 47.5 60.5)" fill="#C2C2C2"/>
<circle cx="47.5" cy="65.5" r="0.5" transform="rotate(90 47.5 65.5)" fill="#C2C2C2"/>
<circle cx="47.5" cy="70.5" r="0.5" transform="rotate(90 47.5 70.5)" fill="#C2C2C2"/>
<circle cx="47.5" cy="75.5" r="0.5" transform="rotate(90 47.5 75.5)" fill="#C2C2C2"/>
<circle cx="47.5" cy="80.5" r="0.5" transform="rotate(90 47.5 80.5)" fill="#C2C2C2"/>
<circle cx="47.5" cy="85.5" r="0.5" transform="rotate(90 47.5 85.5)" fill="#C2C2C2"/>
<circle cx="47.5" cy="95.5" r="0.5" transform="rotate(90 47.5 95.5)" fill="#C2C2C2"/>
<circle cx="47.5" cy="100.5" r="0.5" transform="rotate(90 47.5 100.5)" fill="#C2C2C2"/>
<circle cx="42.5" cy="0.5" r="0.5" transform="rotate(90 42.5 0.5)" fill="#C2C2C2"/>
<circle cx="42.5" cy="5.5" r="0.5" transform="rotate(90 42.5 5.5)" fill="#C2C2C2"/>
<circle cx="42.5" cy="10.5" r="0.5" transform="rotate(90 42.5 10.5)" fill="#C2C2C2"/>
<circle cx="42.5" cy="15.5" r="0.5" transform="rotate(90 42.5 15.5)" fill="#C2C2C2"/>
<circle cx="42.5" cy="20.5" r="0.5" transform="rotate(90 42.5 20.5)" fill="#C2C2C2"/>
<circle cx="42.5" cy="25.5" r="0.5" transform="rotate(90 42.5 25.5)" fill="#C2C2C2"/>
<circle cx="42.5" cy="30.5" r="0.5" transform="rotate(90 42.5 30.5)" fill="#C2C2C2"/>
<circle cx="42.5" cy="35.5" r="0.5" transform="rotate(90 42.5 35.5)" fill="#C2C2C2"/>
<circle cx="42.5" cy="40.5" r="0.5" transform="rotate(90 42.5 40.5)" fill="#C2C2C2"/>
<circle cx="42.5" cy="45.5" r="0.5" transform="rotate(90 42.5 45.5)" fill="#C2C2C2"/>
<circle cx="42.5" cy="50.5" r="0.5" transform="rotate(90 42.5 50.5)" fill="#C2C2C2"/>
<circle cx="42.5" cy="55.5" r="0.5" transform="rotate(90 42.5 55.5)" fill="#C2C2C2"/>
<circle cx="42.5" cy="60.5" r="0.5" transform="rotate(90 42.5 60.5)" fill="#C2C2C2"/>
<circle cx="42.5" cy="65.5" r="0.5" transform="rotate(90 42.5 65.5)" fill="#C2C2C2"/>
<circle cx="42.5" cy="70.5" r="0.5" transform="rotate(90 42.5 70.5)" fill="#C2C2C2"/>
<circle cx="42.5" cy="75.5" r="0.5" transform="rotate(90 42.5 75.5)" fill="#C2C2C2"/>
<circle cx="42.5" cy="80.5" r="0.5" transform="rotate(90 42.5 80.5)" fill="#C2C2C2"/>
<circle cx="42.5" cy="90.5" r="0.5" transform="rotate(90 42.5 90.5)" fill="#C2C2C2"/>
<circle cx="42.5" cy="95.5" r="0.5" transform="rotate(90 42.5 95.5)" fill="#C2C2C2"/>
<circle cx="42.5" cy="100.5" r="0.5" transform="rotate(90 42.5 100.5)" fill="#C2C2C2"/>
<circle cx="37.5" cy="0.5" r="0.5" transform="rotate(90 37.5 0.5)" fill="#C2C2C2"/>
<circle cx="37.5" cy="5.5" r="0.5" transform="rotate(90 37.5 5.5)" fill="#C2C2C2"/>
<circle cx="37.5" cy="10.5" r="0.5" transform="rotate(90 37.5 10.5)" fill="#C2C2C2"/>
<circle cx="37.5" cy="15.5" r="0.5" transform="rotate(90 37.5 15.5)" fill="#C2C2C2"/>
<circle cx="37.5" cy="20.5" r="0.5" transform="rotate(90 37.5 20.5)" fill="#C2C2C2"/>
<circle cx="37.5" cy="25.5" r="0.5" transform="rotate(90 37.5 25.5)" fill="#C2C2C2"/>
<circle cx="37.5" cy="30.5" r="0.5" transform="rotate(90 37.5 30.5)" fill="#C2C2C2"/>
<circle cx="37.5" cy="35.5" r="0.5" transform="rotate(90 37.5 35.5)" fill="#C2C2C2"/>
<circle cx="37.5" cy="40.5" r="0.5" transform="rotate(90 37.5 40.5)" fill="#C2C2C2"/>
<circle cx="37.5" cy="45.5" r="0.5" transform="rotate(90 37.5 45.5)" fill="#C2C2C2"/>
<circle cx="37.5" cy="50.5" r="0.5" transform="rotate(90 37.5 50.5)" fill="#C2C2C2"/>
<circle cx="37.5" cy="55.5" r="0.5" transform="rotate(90 37.5 55.5)" fill="#C2C2C2"/>
<circle cx="37.5" cy="60.5" r="0.5" transform="rotate(90 37.5 60.5)" fill="#C2C2C2"/>
<circle cx="37.5" cy="65.5" r="0.5" transform="rotate(90 37.5 65.5)" fill="#C2C2C2"/>
<circle cx="37.5" cy="70.5" r="0.5" transform="rotate(90 37.5 70.5)" fill="#C2C2C2"/>
<circle cx="37.5" cy="75.5" r="0.5" transform="rotate(90 37.5 75.5)" fill="#C2C2C2"/>
<circle cx="37.5" cy="85.5" r="0.5" transform="rotate(90 37.5 85.5)" fill="#C2C2C2"/>
<circle cx="37.5" cy="90.5" r="0.5" transform="rotate(90 37.5 90.5)" fill="#C2C2C2"/>
<circle cx="37.5" cy="95.5" r="0.5" transform="rotate(90 37.5 95.5)" fill="#C2C2C2"/>
<circle cx="37.5" cy="100.5" r="0.5" transform="rotate(90 37.5 100.5)" fill="#C2C2C2"/>
<circle cx="32.5" cy="0.5" r="0.5" transform="rotate(90 32.5 0.5)" fill="#C2C2C2"/>
<circle cx="32.5" cy="5.5" r="0.5" transform="rotate(90 32.5 5.5)" fill="#C2C2C2"/>
<circle cx="32.5" cy="10.5" r="0.5" transform="rotate(90 32.5 10.5)" fill="#C2C2C2"/>
<circle cx="32.5" cy="15.5" r="0.5" transform="rotate(90 32.5 15.5)" fill="#C2C2C2"/>
<circle cx="32.5" cy="20.5" r="0.5" transform="rotate(90 32.5 20.5)" fill="#C2C2C2"/>
<circle cx="32.5" cy="25.5" r="0.5" transform="rotate(90 32.5 25.5)" fill="#C2C2C2"/>
<circle cx="32.5" cy="30.5" r="0.5" transform="rotate(90 32.5 30.5)" fill="#C2C2C2"/>
<circle cx="32.5" cy="35.5" r="0.5" transform="rotate(90 32.5 35.5)" fill="#C2C2C2"/>
<circle cx="32.5" cy="40.5" r="0.5" transform="rotate(90 32.5 40.5)" fill="#C2C2C2"/>
<circle cx="32.5" cy="45.5" r="0.5" transform="rotate(90 32.5 45.5)" fill="#C2C2C2"/>
<circle cx="32.5" cy="55.5" r="0.5" transform="rotate(90 32.5 55.5)" fill="#C2C2C2"/>
<circle cx="32.5" cy="60.5" r="0.5" transform="rotate(90 32.5 60.5)" fill="#C2C2C2"/>
<circle cx="32.5" cy="65.5" r="0.5" transform="rotate(90 32.5 65.5)" fill="#C2C2C2"/>
<circle cx="32.5" cy="70.5" r="0.5" transform="rotate(90 32.5 70.5)" fill="#C2C2C2"/>
<circle cx="32.5" cy="75.5" r="0.5" transform="rotate(90 32.5 75.5)" fill="#C2C2C2"/>
<circle cx="32.5" cy="80.5" r="0.5" transform="rotate(90 32.5 80.5)" fill="#C2C2C2"/>
<circle cx="32.5" cy="85.5" r="0.5" transform="rotate(90 32.5 85.5)" fill="#C2C2C2"/>
<circle cx="32.5" cy="90.5" r="0.5" transform="rotate(90 32.5 90.5)" fill="#C2C2C2"/>
<circle cx="32.5" cy="95.5" r="0.5" transform="rotate(90 32.5 95.5)" fill="#C2C2C2"/>
<circle cx="32.5" cy="100.5" r="0.5" transform="rotate(90 32.5 100.5)" fill="#C2C2C2"/>
<circle cx="27.5" cy="0.5" r="0.5" transform="rotate(90 27.5 0.5)" fill="#C2C2C2"/>
<circle cx="27.5" cy="5.5" r="0.5" transform="rotate(90 27.5 5.5)" fill="#C2C2C2"/>
<circle cx="27.5" cy="10.5" r="0.5" transform="rotate(90 27.5 10.5)" fill="#C2C2C2"/>
<circle cx="27.5" cy="15.5" r="0.5" transform="rotate(90 27.5 15.5)" fill="#C2C2C2"/>
<circle cx="27.5" cy="20.5" r="0.5" transform="rotate(90 27.5 20.5)" fill="#C2C2C2"/>
<circle cx="27.5" cy="25.5" r="0.5" transform="rotate(90 27.5 25.5)" fill="#C2C2C2"/>
<circle cx="27.5" cy="30.5" r="0.5" transform="rotate(90 27.5 30.5)" fill="#C2C2C2"/>
<circle cx="27.5" cy="35.5" r="0.5" transform="rotate(90 27.5 35.5)" fill="#C2C2C2"/>
<circle cx="27.5" cy="40.5" r="0.5" transform="rotate(90 27.5 40.5)" fill="#C2C2C2"/>
<circle cx="27.5" cy="50.5" r="0.5" transform="rotate(90 27.5 50.5)" fill="#C2C2C2"/>
<circle cx="27.5" cy="55.5" r="0.5" transform="rotate(90 27.5 55.5)" fill="#C2C2C2"/>
<circle cx="27.5" cy="60.5" r="0.5" transform="rotate(90 27.5 60.5)" fill="#C2C2C2"/>
<circle cx="27.5" cy="65.5" r="0.5" transform="rotate(90 27.5 65.5)" fill="#C2C2C2"/>
<circle cx="27.5" cy="70.5" r="0.5" transform="rotate(90 27.5 70.5)" fill="#C2C2C2"/>
<circle cx="27.5" cy="75.5" r="0.5" transform="rotate(90 27.5 75.5)" fill="#C2C2C2"/>
<circle cx="27.5" cy="80.5" r="0.5" transform="rotate(90 27.5 80.5)" fill="#C2C2C2"/>
<circle cx="27.5" cy="85.5" r="0.5" transform="rotate(90 27.5 85.5)" fill="#C2C2C2"/>
<circle cx="27.5" cy="95.5" r="0.5" transform="rotate(90 27.5 95.5)" fill="#C2C2C2"/>
<circle cx="27.5" cy="100.5" r="0.5" transform="rotate(90 27.5 100.5)" fill="#C2C2C2"/>
<circle cx="22.5" cy="0.5" r="0.5" transform="rotate(90 22.5 0.5)" fill="#C2C2C2"/>
<circle cx="22.5" cy="5.5" r="0.5" transform="rotate(90 22.5 5.5)" fill="#C2C2C2"/>
<circle cx="22.5" cy="10.5" r="0.5" transform="rotate(90 22.5 10.5)" fill="#C2C2C2"/>
<circle cx="22.5" cy="15.5" r="0.5" transform="rotate(90 22.5 15.5)" fill="#C2C2C2"/>
<circle cx="22.5" cy="20.5" r="0.5" transform="rotate(90 22.5 20.5)" fill="#C2C2C2"/>
<circle cx="22.5" cy="25.5" r="0.5" transform="rotate(90 22.5 25.5)" fill="#C2C2C2"/>
<circle cx="22.5" cy="30.5" r="0.5" transform="rotate(90 22.5 30.5)" fill="#C2C2C2"/>
<circle cx="22.5" cy="40.5" r="0.5" transform="rotate(90 22.5 40.5)" fill="#C2C2C2"/>
<circle cx="22.5" cy="45.5" r="0.5" transform="rotate(90 22.5 45.5)" fill="#C2C2C2"/>
<circle cx="22.5" cy="50.5" r="0.5" transform="rotate(90 22.5 50.5)" fill="#C2C2C2"/>
<circle cx="22.5" cy="55.5" r="0.5" transform="rotate(90 22.5 55.5)" fill="#C2C2C2"/>
<circle cx="22.5" cy="60.5" r="0.5" transform="rotate(90 22.5 60.5)" fill="#C2C2C2"/>
<circle cx="22.5" cy="65.5" r="0.5" transform="rotate(90 22.5 65.5)" fill="#C2C2C2"/>
<circle cx="22.5" cy="70.5" r="0.5" transform="rotate(90 22.5 70.5)" fill="#C2C2C2"/>
<circle cx="22.5" cy="75.5" r="0.5" transform="rotate(90 22.5 75.5)" fill="#C2C2C2"/>
<circle cx="22.5" cy="80.5" r="0.5" transform="rotate(90 22.5 80.5)" fill="#C2C2C2"/>
<circle cx="22.5" cy="85.5" r="0.5" transform="rotate(90 22.5 85.5)" fill="#C2C2C2"/>
<circle cx="22.5" cy="90.5" r="0.5" transform="rotate(90 22.5 90.5)" fill="#C2C2C2"/>
<circle cx="22.5" cy="95.5" r="0.5" transform="rotate(90 22.5 95.5)" fill="#C2C2C2"/>
<circle cx="22.5" cy="100.5" r="0.5" transform="rotate(90 22.5 100.5)" fill="#C2C2C2"/>
<circle cx="17.5" cy="0.5" r="0.5" transform="rotate(90 17.5 0.5)" fill="#C2C2C2"/>
<circle cx="17.5" cy="5.5" r="0.5" transform="rotate(90 17.5 5.5)" fill="#C2C2C2"/>
<circle cx="17.5" cy="10.5" r="0.5" transform="rotate(90 17.5 10.5)" fill="#C2C2C2"/>
<circle cx="17.5" cy="15.5" r="0.5" transform="rotate(90 17.5 15.5)" fill="#C2C2C2"/>
<circle cx="17.5" cy="20.5" r="0.5" transform="rotate(90 17.5 20.5)" fill="#C2C2C2"/>
<circle cx="17.5" cy="25.5" r="0.5" transform="rotate(90 17.5 25.5)" fill="#C2C2C2"/>
<circle cx="17.5" cy="30.5" r="0.5" transform="rotate(90 17.5 30.5)" fill="#C2C2C2"/>
<circle cx="17.5" cy="35.5" r="0.5" transform="rotate(90 17.5 35.5)" fill="#C2C2C2"/>
<circle cx="17.5" cy="40.5" r="0.5" transform="rotate(90 17.5 40.5)" fill="#C2C2C2"/>
<circle cx="17.5" cy="45.5" r="0.5" transform="rotate(90 17.5 45.5)" fill="#C2C2C2"/>
<circle cx="17.5" cy="50.5" r="0.5" transform="rotate(90 17.5 50.5)" fill="#C2C2C2"/>
<circle cx="17.5" cy="55.5" r="0.5" transform="rotate(90 17.5 55.5)" fill="#C2C2C2"/>
<circle cx="17.5" cy="60.5" r="0.5" transform="rotate(90 17.5 60.5)" fill="#C2C2C2"/>
<circle cx="17.5" cy="65.5" r="0.5" transform="rotate(90 17.5 65.5)" fill="#C2C2C2"/>
<circle cx="17.5" cy="70.5" r="0.5" transform="rotate(90 17.5 70.5)" fill="#C2C2C2"/>
<circle cx="17.5" cy="75.5" r="0.5" transform="rotate(90 17.5 75.5)" fill="#C2C2C2"/>
<circle cx="17.5" cy="80.5" r="0.5" transform="rotate(90 17.5 80.5)" fill="#C2C2C2"/>
<circle cx="17.5" cy="85.5" r="0.5" transform="rotate(90 17.5 85.5)" fill="#C2C2C2"/>
<circle cx="17.5" cy="90.5" r="0.5" transform="rotate(90 17.5 90.5)" fill="#C2C2C2"/>
<circle cx="17.5" cy="95.5" r="0.5" transform="rotate(90 17.5 95.5)" fill="#C2C2C2"/>
<circle cx="17.5" cy="100.5" r="0.5" transform="rotate(90 17.5 100.5)" fill="#C2C2C2"/>
</g>
</g>
<defs>
<linearGradient id="paint0_linear_1_59900" x1="16" y1="51.3121" x2="288.122" y2="50.9985" gradientUnits="userSpaceOnUse">
<stop stop-color="#D9D9D9" stop-opacity="0"/>
<stop offset="0.669048" stop-color="white"/>
</linearGradient>
<clipPath id="clip0_1_59900">
<rect width="238" height="101" fill="white"/>
</clipPath>
</defs>
</svg>
