<svg width="335" height="33" viewBox="0 0 335 33" fill="none" xmlns="http://www.w3.org/2000/svg">
<g clip-path="url(#clip0_1_88841)">
<mask id="path-1-outside-1_1_88841" maskUnits="userSpaceOnUse" x="0" y="0" width="335" height="33" fill="black">
<rect fill="white" width="335" height="33"/>
<path d="M0 0H335V32H0V0Z"/>
</mask>
<circle cx="331.5" cy="0.5" r="0.5" transform="rotate(90 331.5 0.5)" fill="#C2C2C2"/>
<circle cx="331.5" cy="5.5" r="0.5" transform="rotate(90 331.5 5.5)" fill="#C2C2C2"/>
<circle cx="331.5" cy="10.5" r="0.5" transform="rotate(90 331.5 10.5)" fill="#C2C2C2"/>
<circle cx="331.5" cy="15.5" r="0.5" transform="rotate(90 331.5 15.5)" fill="#C2C2C2"/>
<circle cx="331.5" cy="20.5" r="0.5" transform="rotate(90 331.5 20.5)" fill="#C2C2C2"/>
<circle cx="331.5" cy="25.5" r="0.5" transform="rotate(90 331.5 25.5)" fill="#C2C2C2"/>
<circle cx="331.5" cy="30.5" r="0.5" transform="rotate(90 331.5 30.5)" fill="#C2C2C2"/>
<circle cx="326.5" cy="0.5" r="0.5" transform="rotate(90 326.5 0.5)" fill="#C2C2C2"/>
<circle cx="326.5" cy="5.5" r="0.5" transform="rotate(90 326.5 5.5)" fill="#C2C2C2"/>
<circle cx="326.5" cy="10.5" r="0.5" transform="rotate(90 326.5 10.5)" fill="#C2C2C2"/>
<circle cx="326.5" cy="15.5" r="0.5" transform="rotate(90 326.5 15.5)" fill="#C2C2C2"/>
<circle cx="326.5" cy="20.5" r="0.5" transform="rotate(90 326.5 20.5)" fill="#C2C2C2"/>
<circle cx="326.5" cy="25.5" r="0.5" transform="rotate(90 326.5 25.5)" fill="#C2C2C2"/>
<circle cx="321.5" cy="5.5" r="0.5" transform="rotate(90 321.5 5.5)" fill="#C2C2C2"/>
<circle cx="321.5" cy="10.5" r="0.5" transform="rotate(90 321.5 10.5)" fill="#C2C2C2"/>
<circle cx="321.5" cy="15.5" r="0.5" transform="rotate(90 321.5 15.5)" fill="#C2C2C2"/>
<circle cx="321.5" cy="20.5" r="0.5" transform="rotate(90 321.5 20.5)" fill="#C2C2C2"/>
<circle cx="321.5" cy="25.5" r="0.5" transform="rotate(90 321.5 25.5)" fill="#C2C2C2"/>
<circle cx="321.5" cy="30.5" r="0.5" transform="rotate(90 321.5 30.5)" fill="#C2C2C2"/>
<circle cx="316.5" cy="0.5" r="0.5" transform="rotate(90 316.5 0.5)" fill="#C2C2C2"/>
<circle cx="316.5" cy="5.5" r="0.5" transform="rotate(90 316.5 5.5)" fill="#C2C2C2"/>
<circle cx="316.5" cy="10.5" r="0.5" transform="rotate(90 316.5 10.5)" fill="#C2C2C2"/>
<circle cx="316.5" cy="15.5" r="0.5" transform="rotate(90 316.5 15.5)" fill="#C2C2C2"/>
<circle cx="316.5" cy="20.5" r="0.5" transform="rotate(90 316.5 20.5)" fill="#C2C2C2"/>
<circle cx="316.5" cy="25.5" r="0.5" transform="rotate(90 316.5 25.5)" fill="#C2C2C2"/>
<circle cx="316.5" cy="30.5" r="0.5" transform="rotate(90 316.5 30.5)" fill="#C2C2C2"/>
<circle cx="311.5" cy="0.5" r="0.5" transform="rotate(90 311.5 0.5)" fill="#C2C2C2"/>
<circle cx="311.5" cy="5.5" r="0.5" transform="rotate(90 311.5 5.5)" fill="#C2C2C2"/>
<circle cx="311.5" cy="20.5" r="0.5" transform="rotate(90 311.5 20.5)" fill="#C2C2C2"/>
<circle cx="311.5" cy="25.5" r="0.5" transform="rotate(90 311.5 25.5)" fill="#C2C2C2"/>
<circle cx="311.5" cy="30.5" r="0.5" transform="rotate(90 311.5 30.5)" fill="#C2C2C2"/>
<circle cx="306.5" cy="0.5" r="0.5" transform="rotate(90 306.5 0.5)" fill="#C2C2C2"/>
<circle cx="306.5" cy="5.5" r="0.5" transform="rotate(90 306.5 5.5)" fill="#C2C2C2"/>
<circle cx="306.5" cy="10.5" r="0.5" transform="rotate(90 306.5 10.5)" fill="#C2C2C2"/>
<circle cx="306.5" cy="15.5" r="0.5" transform="rotate(90 306.5 15.5)" fill="#C2C2C2"/>
<circle cx="306.5" cy="25.5" r="0.5" transform="rotate(90 306.5 25.5)" fill="#C2C2C2"/>
<circle cx="306.5" cy="30.5" r="0.5" transform="rotate(90 306.5 30.5)" fill="#C2C2C2"/>
<circle cx="301.5" cy="5.5" r="0.5" transform="rotate(90 301.5 5.5)" fill="#C2C2C2"/>
<circle cx="301.5" cy="10.5" r="0.5" transform="rotate(90 301.5 10.5)" fill="#C2C2C2"/>
<circle cx="301.5" cy="15.5" r="0.5" transform="rotate(90 301.5 15.5)" fill="#C2C2C2"/>
<circle cx="301.5" cy="20.5" r="0.5" transform="rotate(90 301.5 20.5)" fill="#C2C2C2"/>
<circle cx="301.5" cy="25.5" r="0.5" transform="rotate(90 301.5 25.5)" fill="#C2C2C2"/>
<circle cx="301.5" cy="30.5" r="0.5" transform="rotate(90 301.5 30.5)" fill="#C2C2C2"/>
<circle cx="296.5" cy="0.5" r="0.5" transform="rotate(90 296.5 0.5)" fill="#C2C2C2"/>
<circle cx="296.5" cy="5.5" r="0.5" transform="rotate(90 296.5 5.5)" fill="#C2C2C2"/>
<circle cx="296.5" cy="10.5" r="0.5" transform="rotate(90 296.5 10.5)" fill="#C2C2C2"/>
<circle cx="296.5" cy="15.5" r="0.5" transform="rotate(90 296.5 15.5)" fill="#C2C2C2"/>
<circle cx="296.5" cy="20.5" r="0.5" transform="rotate(90 296.5 20.5)" fill="#C2C2C2"/>
<circle cx="296.5" cy="25.5" r="0.5" transform="rotate(90 296.5 25.5)" fill="#C2C2C2"/>
<circle cx="296.5" cy="30.5" r="0.5" transform="rotate(90 296.5 30.5)" fill="#C2C2C2"/>
<circle cx="291.5" cy="5.5" r="0.5" transform="rotate(90 291.5 5.5)" fill="#C2C2C2"/>
<circle cx="291.5" cy="15.5" r="0.5" transform="rotate(90 291.5 15.5)" fill="#C2C2C2"/>
<circle cx="291.5" cy="20.5" r="0.5" transform="rotate(90 291.5 20.5)" fill="#C2C2C2"/>
<circle cx="291.5" cy="25.5" r="0.5" transform="rotate(90 291.5 25.5)" fill="#C2C2C2"/>
<circle cx="291.5" cy="30.5" r="0.5" transform="rotate(90 291.5 30.5)" fill="#C2C2C2"/>
<circle cx="286.5" cy="0.5" r="0.5" transform="rotate(90 286.5 0.5)" fill="#C2C2C2"/>
<circle cx="286.5" cy="5.5" r="0.5" transform="rotate(90 286.5 5.5)" fill="#C2C2C2"/>
<circle cx="286.5" cy="10.5" r="0.5" transform="rotate(90 286.5 10.5)" fill="#C2C2C2"/>
<circle cx="286.5" cy="15.5" r="0.5" transform="rotate(90 286.5 15.5)" fill="#C2C2C2"/>
<circle cx="286.5" cy="20.5" r="0.5" transform="rotate(90 286.5 20.5)" fill="#C2C2C2"/>
<circle cx="286.5" cy="25.5" r="0.5" transform="rotate(90 286.5 25.5)" fill="#C2C2C2"/>
<circle cx="286.5" cy="30.5" r="0.5" transform="rotate(90 286.5 30.5)" fill="#C2C2C2"/>
<circle cx="281.5" cy="0.5" r="0.5" transform="rotate(90 281.5 0.5)" fill="#C2C2C2"/>
<circle cx="281.5" cy="5.5" r="0.5" transform="rotate(90 281.5 5.5)" fill="#C2C2C2"/>
<circle cx="281.5" cy="10.5" r="0.5" transform="rotate(90 281.5 10.5)" fill="#C2C2C2"/>
<circle cx="281.5" cy="15.5" r="0.5" transform="rotate(90 281.5 15.5)" fill="#C2C2C2"/>
<circle cx="281.5" cy="20.5" r="0.5" transform="rotate(90 281.5 20.5)" fill="#C2C2C2"/>
<circle cx="281.5" cy="25.5" r="0.5" transform="rotate(90 281.5 25.5)" fill="#C2C2C2"/>
<circle cx="276.5" cy="0.5" r="0.5" transform="rotate(90 276.5 0.5)" fill="#C2C2C2"/>
<circle cx="276.5" cy="5.5" r="0.5" transform="rotate(90 276.5 5.5)" fill="#C2C2C2"/>
<circle cx="276.5" cy="10.5" r="0.5" transform="rotate(90 276.5 10.5)" fill="#C2C2C2"/>
<circle cx="276.5" cy="15.5" r="0.5" transform="rotate(90 276.5 15.5)" fill="#C2C2C2"/>
<circle cx="276.5" cy="20.5" r="0.5" transform="rotate(90 276.5 20.5)" fill="#C2C2C2"/>
<circle cx="276.5" cy="25.5" r="0.5" transform="rotate(90 276.5 25.5)" fill="#C2C2C2"/>
<circle cx="276.5" cy="30.5" r="0.5" transform="rotate(90 276.5 30.5)" fill="#C2C2C2"/>
<circle cx="271.5" cy="0.5" r="0.5" transform="rotate(90 271.5 0.5)" fill="#C2C2C2"/>
<circle cx="271.5" cy="5.5" r="0.5" transform="rotate(90 271.5 5.5)" fill="#C2C2C2"/>
<circle cx="271.5" cy="10.5" r="0.5" transform="rotate(90 271.5 10.5)" fill="#C2C2C2"/>
<circle cx="271.5" cy="15.5" r="0.5" transform="rotate(90 271.5 15.5)" fill="#C2C2C2"/>
<circle cx="271.5" cy="20.5" r="0.5" transform="rotate(90 271.5 20.5)" fill="#C2C2C2"/>
<circle cx="271.5" cy="25.5" r="0.5" transform="rotate(90 271.5 25.5)" fill="#C2C2C2"/>
<circle cx="271.5" cy="30.5" r="0.5" transform="rotate(90 271.5 30.5)" fill="#C2C2C2"/>
<circle cx="266.5" cy="0.5" r="0.5" transform="rotate(90 266.5 0.5)" fill="#C2C2C2"/>
<circle cx="266.5" cy="5.5" r="0.5" transform="rotate(90 266.5 5.5)" fill="#C2C2C2"/>
<circle cx="266.5" cy="10.5" r="0.5" transform="rotate(90 266.5 10.5)" fill="#C2C2C2"/>
<circle cx="266.5" cy="25.5" r="0.5" transform="rotate(90 266.5 25.5)" fill="#C2C2C2"/>
<circle cx="261.5" cy="0.5" r="0.5" transform="rotate(90 261.5 0.5)" fill="#C2C2C2"/>
<circle cx="261.5" cy="5.5" r="0.5" transform="rotate(90 261.5 5.5)" fill="#C2C2C2"/>
<circle cx="261.5" cy="10.5" r="0.5" transform="rotate(90 261.5 10.5)" fill="#C2C2C2"/>
<circle cx="261.5" cy="20.5" r="0.5" transform="rotate(90 261.5 20.5)" fill="#C2C2C2"/>
<circle cx="261.5" cy="25.5" r="0.5" transform="rotate(90 261.5 25.5)" fill="#C2C2C2"/>
<circle cx="261.5" cy="30.5" r="0.5" transform="rotate(90 261.5 30.5)" fill="#C2C2C2"/>
<circle cx="256.5" cy="0.5" r="0.5" transform="rotate(90 256.5 0.5)" fill="#C2C2C2"/>
<circle cx="256.5" cy="5.5" r="0.5" transform="rotate(90 256.5 5.5)" fill="#C2C2C2"/>
<circle cx="256.5" cy="15.5" r="0.5" transform="rotate(90 256.5 15.5)" fill="#C2C2C2"/>
<circle cx="256.5" cy="20.5" r="0.5" transform="rotate(90 256.5 20.5)" fill="#C2C2C2"/>
<circle cx="256.5" cy="25.5" r="0.5" transform="rotate(90 256.5 25.5)" fill="#C2C2C2"/>
<circle cx="256.5" cy="30.5" r="0.5" transform="rotate(90 256.5 30.5)" fill="#C2C2C2"/>
<circle cx="251.5" cy="0.5" r="0.5" transform="rotate(90 251.5 0.5)" fill="#C2C2C2"/>
<circle cx="251.5" cy="5.5" r="0.5" transform="rotate(90 251.5 5.5)" fill="#C2C2C2"/>
<circle cx="251.5" cy="10.5" r="0.5" transform="rotate(90 251.5 10.5)" fill="#C2C2C2"/>
<circle cx="251.5" cy="15.5" r="0.5" transform="rotate(90 251.5 15.5)" fill="#C2C2C2"/>
<circle cx="251.5" cy="20.5" r="0.5" transform="rotate(90 251.5 20.5)" fill="#C2C2C2"/>
<circle cx="251.5" cy="25.5" r="0.5" transform="rotate(90 251.5 25.5)" fill="#C2C2C2"/>
<circle cx="251.5" cy="30.5" r="0.5" transform="rotate(90 251.5 30.5)" fill="#C2C2C2"/>
<circle cx="246.5" cy="0.5" r="0.5" transform="rotate(90 246.5 0.5)" fill="#C2C2C2"/>
<circle cx="246.5" cy="5.5" r="0.5" transform="rotate(90 246.5 5.5)" fill="#C2C2C2"/>
<circle cx="246.5" cy="10.5" r="0.5" transform="rotate(90 246.5 10.5)" fill="#C2C2C2"/>
<circle cx="246.5" cy="15.5" r="0.5" transform="rotate(90 246.5 15.5)" fill="#C2C2C2"/>
<circle cx="246.5" cy="20.5" r="0.5" transform="rotate(90 246.5 20.5)" fill="#C2C2C2"/>
<circle cx="246.5" cy="25.5" r="0.5" transform="rotate(90 246.5 25.5)" fill="#C2C2C2"/>
<circle cx="241.5" cy="0.5" r="0.5" transform="rotate(90 241.5 0.5)" fill="#C2C2C2"/>
<circle cx="241.5" cy="5.5" r="0.5" transform="rotate(90 241.5 5.5)" fill="#C2C2C2"/>
<circle cx="241.5" cy="10.5" r="0.5" transform="rotate(90 241.5 10.5)" fill="#C2C2C2"/>
<circle cx="241.5" cy="15.5" r="0.5" transform="rotate(90 241.5 15.5)" fill="#C2C2C2"/>
<circle cx="241.5" cy="20.5" r="0.5" transform="rotate(90 241.5 20.5)" fill="#C2C2C2"/>
<circle cx="241.5" cy="25.5" r="0.5" transform="rotate(90 241.5 25.5)" fill="#C2C2C2"/>
<circle cx="236.5" cy="5.5" r="0.5" transform="rotate(90 236.5 5.5)" fill="#C2C2C2"/>
<circle cx="236.5" cy="20.5" r="0.5" transform="rotate(90 236.5 20.5)" fill="#C2C2C2"/>
<circle cx="236.5" cy="30.5" r="0.5" transform="rotate(90 236.5 30.5)" fill="#C2C2C2"/>
<circle cx="231.5" cy="0.5" r="0.5" transform="rotate(90 231.5 0.5)" fill="#C2C2C2"/>
<circle cx="231.5" cy="5.5" r="0.5" transform="rotate(90 231.5 5.5)" fill="#C2C2C2"/>
<circle cx="231.5" cy="10.5" r="0.5" transform="rotate(90 231.5 10.5)" fill="#C2C2C2"/>
<circle cx="231.5" cy="15.5" r="0.5" transform="rotate(90 231.5 15.5)" fill="#C2C2C2"/>
<circle cx="231.5" cy="20.5" r="0.5" transform="rotate(90 231.5 20.5)" fill="#C2C2C2"/>
<circle cx="231.5" cy="25.5" r="0.5" transform="rotate(90 231.5 25.5)" fill="#C2C2C2"/>
<circle cx="231.5" cy="30.5" r="0.5" transform="rotate(90 231.5 30.5)" fill="#C2C2C2"/>
<circle cx="226.5" cy="0.5" r="0.5" transform="rotate(90 226.5 0.5)" fill="#C2C2C2"/>
<circle cx="226.5" cy="5.5" r="0.5" transform="rotate(90 226.5 5.5)" fill="#C2C2C2"/>
<circle cx="226.5" cy="10.5" r="0.5" transform="rotate(90 226.5 10.5)" fill="#C2C2C2"/>
<circle cx="226.5" cy="20.5" r="0.5" transform="rotate(90 226.5 20.5)" fill="#C2C2C2"/>
<circle cx="226.5" cy="25.5" r="0.5" transform="rotate(90 226.5 25.5)" fill="#C2C2C2"/>
<circle cx="226.5" cy="30.5" r="0.5" transform="rotate(90 226.5 30.5)" fill="#C2C2C2"/>
<circle cx="221.5" cy="5.5" r="0.5" transform="rotate(90 221.5 5.5)" fill="#C2C2C2"/>
<circle cx="221.5" cy="10.5" r="0.5" transform="rotate(90 221.5 10.5)" fill="#C2C2C2"/>
<circle cx="221.5" cy="15.5" r="0.5" transform="rotate(90 221.5 15.5)" fill="#C2C2C2"/>
<circle cx="221.5" cy="20.5" r="0.5" transform="rotate(90 221.5 20.5)" fill="#C2C2C2"/>
<circle cx="221.5" cy="25.5" r="0.5" transform="rotate(90 221.5 25.5)" fill="#C2C2C2"/>
<circle cx="216.5" cy="0.5" r="0.5" transform="rotate(90 216.5 0.5)" fill="#C2C2C2"/>
<circle cx="216.5" cy="5.5" r="0.5" transform="rotate(90 216.5 5.5)" fill="#C2C2C2"/>
<circle cx="216.5" cy="10.5" r="0.5" transform="rotate(90 216.5 10.5)" fill="#C2C2C2"/>
<circle cx="216.5" cy="15.5" r="0.5" transform="rotate(90 216.5 15.5)" fill="#C2C2C2"/>
<circle cx="216.5" cy="20.5" r="0.5" transform="rotate(90 216.5 20.5)" fill="#C2C2C2"/>
<circle cx="216.5" cy="25.5" r="0.5" transform="rotate(90 216.5 25.5)" fill="#C2C2C2"/>
<circle cx="216.5" cy="30.5" r="0.5" transform="rotate(90 216.5 30.5)" fill="#C2C2C2"/>
<circle cx="211.5" cy="0.5" r="0.5" transform="rotate(90 211.5 0.5)" fill="#C2C2C2"/>
<circle cx="211.5" cy="5.5" r="0.5" transform="rotate(90 211.5 5.5)" fill="#C2C2C2"/>
<circle cx="211.5" cy="10.5" r="0.5" transform="rotate(90 211.5 10.5)" fill="#C2C2C2"/>
<circle cx="211.5" cy="15.5" r="0.5" transform="rotate(90 211.5 15.5)" fill="#C2C2C2"/>
<circle cx="211.5" cy="20.5" r="0.5" transform="rotate(90 211.5 20.5)" fill="#C2C2C2"/>
<circle cx="211.5" cy="25.5" r="0.5" transform="rotate(90 211.5 25.5)" fill="#C2C2C2"/>
<circle cx="211.5" cy="30.5" r="0.5" transform="rotate(90 211.5 30.5)" fill="#C2C2C2"/>
<circle cx="206.5" cy="0.5" r="0.5" transform="rotate(90 206.5 0.5)" fill="#C2C2C2"/>
<circle cx="206.5" cy="5.5" r="0.5" transform="rotate(90 206.5 5.5)" fill="#C2C2C2"/>
<circle cx="206.5" cy="10.5" r="0.5" transform="rotate(90 206.5 10.5)" fill="#C2C2C2"/>
<circle cx="206.5" cy="15.5" r="0.5" transform="rotate(90 206.5 15.5)" fill="#C2C2C2"/>
<circle cx="206.5" cy="20.5" r="0.5" transform="rotate(90 206.5 20.5)" fill="#C2C2C2"/>
<circle cx="206.5" cy="25.5" r="0.5" transform="rotate(90 206.5 25.5)" fill="#C2C2C2"/>
<circle cx="206.5" cy="30.5" r="0.5" transform="rotate(90 206.5 30.5)" fill="#C2C2C2"/>
<circle cx="201.5" cy="0.5" r="0.5" transform="rotate(90 201.5 0.5)" fill="#C2C2C2"/>
<circle cx="201.5" cy="5.5" r="0.5" transform="rotate(90 201.5 5.5)" fill="#C2C2C2"/>
<circle cx="201.5" cy="10.5" r="0.5" transform="rotate(90 201.5 10.5)" fill="#C2C2C2"/>
<circle cx="201.5" cy="15.5" r="0.5" transform="rotate(90 201.5 15.5)" fill="#C2C2C2"/>
<circle cx="201.5" cy="20.5" r="0.5" transform="rotate(90 201.5 20.5)" fill="#C2C2C2"/>
<circle cx="201.5" cy="25.5" r="0.5" transform="rotate(90 201.5 25.5)" fill="#C2C2C2"/>
<circle cx="201.5" cy="30.5" r="0.5" transform="rotate(90 201.5 30.5)" fill="#C2C2C2"/>
<circle cx="196.5" cy="0.5" r="0.5" transform="rotate(90 196.5 0.5)" fill="#C2C2C2"/>
<circle cx="196.5" cy="5.5" r="0.5" transform="rotate(90 196.5 5.5)" fill="#C2C2C2"/>
<circle cx="196.5" cy="10.5" r="0.5" transform="rotate(90 196.5 10.5)" fill="#C2C2C2"/>
<circle cx="196.5" cy="15.5" r="0.5" transform="rotate(90 196.5 15.5)" fill="#C2C2C2"/>
<circle cx="196.5" cy="20.5" r="0.5" transform="rotate(90 196.5 20.5)" fill="#C2C2C2"/>
<circle cx="196.5" cy="25.5" r="0.5" transform="rotate(90 196.5 25.5)" fill="#C2C2C2"/>
<circle cx="196.5" cy="30.5" r="0.5" transform="rotate(90 196.5 30.5)" fill="#C2C2C2"/>
<circle cx="191.5" cy="0.5" r="0.5" transform="rotate(90 191.5 0.5)" fill="#C2C2C2"/>
<circle cx="191.5" cy="5.5" r="0.5" transform="rotate(90 191.5 5.5)" fill="#C2C2C2"/>
<circle cx="191.5" cy="10.5" r="0.5" transform="rotate(90 191.5 10.5)" fill="#C2C2C2"/>
<circle cx="191.5" cy="20.5" r="0.5" transform="rotate(90 191.5 20.5)" fill="#C2C2C2"/>
<circle cx="191.5" cy="25.5" r="0.5" transform="rotate(90 191.5 25.5)" fill="#C2C2C2"/>
<circle cx="191.5" cy="30.5" r="0.5" transform="rotate(90 191.5 30.5)" fill="#C2C2C2"/>
<circle cx="186.5" cy="0.5" r="0.5" transform="rotate(90 186.5 0.5)" fill="#C2C2C2"/>
<circle cx="186.5" cy="5.5" r="0.5" transform="rotate(90 186.5 5.5)" fill="#C2C2C2"/>
<circle cx="186.5" cy="15.5" r="0.5" transform="rotate(90 186.5 15.5)" fill="#C2C2C2"/>
<circle cx="186.5" cy="20.5" r="0.5" transform="rotate(90 186.5 20.5)" fill="#C2C2C2"/>
<circle cx="186.5" cy="25.5" r="0.5" transform="rotate(90 186.5 25.5)" fill="#C2C2C2"/>
<circle cx="186.5" cy="30.5" r="0.5" transform="rotate(90 186.5 30.5)" fill="#C2C2C2"/>
<circle cx="181.5" cy="5.5" r="0.5" transform="rotate(90 181.5 5.5)" fill="#C2C2C2"/>
<circle cx="181.5" cy="10.5" r="0.5" transform="rotate(90 181.5 10.5)" fill="#C2C2C2"/>
<circle cx="181.5" cy="15.5" r="0.5" transform="rotate(90 181.5 15.5)" fill="#C2C2C2"/>
<circle cx="181.5" cy="20.5" r="0.5" transform="rotate(90 181.5 20.5)" fill="#C2C2C2"/>
<circle cx="181.5" cy="25.5" r="0.5" transform="rotate(90 181.5 25.5)" fill="#C2C2C2"/>
<circle cx="181.5" cy="30.5" r="0.5" transform="rotate(90 181.5 30.5)" fill="#C2C2C2"/>
<circle cx="176.5" cy="0.5" r="0.5" transform="rotate(90 176.5 0.5)" fill="#C2C2C2"/>
<circle cx="176.5" cy="5.5" r="0.5" transform="rotate(90 176.5 5.5)" fill="#C2C2C2"/>
<circle cx="176.5" cy="10.5" r="0.5" transform="rotate(90 176.5 10.5)" fill="#C2C2C2"/>
<circle cx="176.5" cy="15.5" r="0.5" transform="rotate(90 176.5 15.5)" fill="#C2C2C2"/>
<circle cx="176.5" cy="20.5" r="0.5" transform="rotate(90 176.5 20.5)" fill="#C2C2C2"/>
<circle cx="176.5" cy="25.5" r="0.5" transform="rotate(90 176.5 25.5)" fill="#C2C2C2"/>
<circle cx="176.5" cy="30.5" r="0.5" transform="rotate(90 176.5 30.5)" fill="#C2C2C2"/>
<circle cx="171.5" cy="0.5" r="0.5" transform="rotate(90 171.5 0.5)" fill="#C2C2C2"/>
<circle cx="171.5" cy="5.5" r="0.5" transform="rotate(90 171.5 5.5)" fill="#C2C2C2"/>
<circle cx="171.5" cy="10.5" r="0.5" transform="rotate(90 171.5 10.5)" fill="#C2C2C2"/>
<circle cx="171.5" cy="15.5" r="0.5" transform="rotate(90 171.5 15.5)" fill="#C2C2C2"/>
<circle cx="171.5" cy="20.5" r="0.5" transform="rotate(90 171.5 20.5)" fill="#C2C2C2"/>
<circle cx="171.5" cy="25.5" r="0.5" transform="rotate(90 171.5 25.5)" fill="#C2C2C2"/>
<circle cx="171.5" cy="30.5" r="0.5" transform="rotate(90 171.5 30.5)" fill="#C2C2C2"/>
<circle cx="166.5" cy="0.5" r="0.5" transform="rotate(90 166.5 0.5)" fill="#C2C2C2"/>
<circle cx="166.5" cy="5.5" r="0.5" transform="rotate(90 166.5 5.5)" fill="#C2C2C2"/>
<circle cx="166.5" cy="10.5" r="0.5" transform="rotate(90 166.5 10.5)" fill="#C2C2C2"/>
<circle cx="166.5" cy="15.5" r="0.5" transform="rotate(90 166.5 15.5)" fill="#C2C2C2"/>
<circle cx="166.5" cy="20.5" r="0.5" transform="rotate(90 166.5 20.5)" fill="#C2C2C2"/>
<circle cx="166.5" cy="25.5" r="0.5" transform="rotate(90 166.5 25.5)" fill="#C2C2C2"/>
<circle cx="166.5" cy="30.5" r="0.5" transform="rotate(90 166.5 30.5)" fill="#C2C2C2"/>
<circle cx="161.5" cy="0.5" r="0.5" transform="rotate(90 161.5 0.5)" fill="#C2C2C2"/>
<circle cx="161.5" cy="5.5" r="0.5" transform="rotate(90 161.5 5.5)" fill="#C2C2C2"/>
<circle cx="161.5" cy="10.5" r="0.5" transform="rotate(90 161.5 10.5)" fill="#C2C2C2"/>
<circle cx="161.5" cy="15.5" r="0.5" transform="rotate(90 161.5 15.5)" fill="#C2C2C2"/>
<circle cx="161.5" cy="20.5" r="0.5" transform="rotate(90 161.5 20.5)" fill="#C2C2C2"/>
<circle cx="161.5" cy="25.5" r="0.5" transform="rotate(90 161.5 25.5)" fill="#C2C2C2"/>
<circle cx="161.5" cy="30.5" r="0.5" transform="rotate(90 161.5 30.5)" fill="#C2C2C2"/>
<circle cx="156.5" cy="0.5" r="0.5" transform="rotate(90 156.5 0.5)" fill="#C2C2C2"/>
<circle cx="156.5" cy="10.5" r="0.5" transform="rotate(90 156.5 10.5)" fill="#C2C2C2"/>
<circle cx="156.5" cy="15.5" r="0.5" transform="rotate(90 156.5 15.5)" fill="#C2C2C2"/>
<circle cx="156.5" cy="20.5" r="0.5" transform="rotate(90 156.5 20.5)" fill="#C2C2C2"/>
<circle cx="156.5" cy="30.5" r="0.5" transform="rotate(90 156.5 30.5)" fill="#C2C2C2"/>
<circle cx="151.5" cy="0.5" r="0.5" transform="rotate(90 151.5 0.5)" fill="#C2C2C2"/>
<circle cx="151.5" cy="5.5" r="0.5" transform="rotate(90 151.5 5.5)" fill="#C2C2C2"/>
<circle cx="151.5" cy="10.5" r="0.5" transform="rotate(90 151.5 10.5)" fill="#C2C2C2"/>
<circle cx="151.5" cy="15.5" r="0.5" transform="rotate(90 151.5 15.5)" fill="#C2C2C2"/>
<circle cx="151.5" cy="20.5" r="0.5" transform="rotate(90 151.5 20.5)" fill="#C2C2C2"/>
<circle cx="151.5" cy="25.5" r="0.5" transform="rotate(90 151.5 25.5)" fill="#C2C2C2"/>
<circle cx="151.5" cy="30.5" r="0.5" transform="rotate(90 151.5 30.5)" fill="#C2C2C2"/>
<circle cx="146.5" cy="0.5" r="0.5" transform="rotate(90 146.5 0.5)" fill="#C2C2C2"/>
<circle cx="146.5" cy="5.5" r="0.5" transform="rotate(90 146.5 5.5)" fill="#C2C2C2"/>
<circle cx="146.5" cy="15.5" r="0.5" transform="rotate(90 146.5 15.5)" fill="#C2C2C2"/>
<circle cx="146.5" cy="20.5" r="0.5" transform="rotate(90 146.5 20.5)" fill="#C2C2C2"/>
<circle cx="146.5" cy="25.5" r="0.5" transform="rotate(90 146.5 25.5)" fill="#C2C2C2"/>
<circle cx="146.5" cy="30.5" r="0.5" transform="rotate(90 146.5 30.5)" fill="#C2C2C2"/>
<circle cx="141.5" cy="0.5" r="0.5" transform="rotate(90 141.5 0.5)" fill="#C2C2C2"/>
<circle cx="141.5" cy="5.5" r="0.5" transform="rotate(90 141.5 5.5)" fill="#C2C2C2"/>
<circle cx="141.5" cy="10.5" r="0.5" transform="rotate(90 141.5 10.5)" fill="#C2C2C2"/>
<circle cx="141.5" cy="15.5" r="0.5" transform="rotate(90 141.5 15.5)" fill="#C2C2C2"/>
<circle cx="141.5" cy="20.5" r="0.5" transform="rotate(90 141.5 20.5)" fill="#C2C2C2"/>
<circle cx="141.5" cy="25.5" r="0.5" transform="rotate(90 141.5 25.5)" fill="#C2C2C2"/>
<circle cx="141.5" cy="30.5" r="0.5" transform="rotate(90 141.5 30.5)" fill="#C2C2C2"/>
<circle cx="136.5" cy="0.5" r="0.5" transform="rotate(90 136.5 0.5)" fill="#C2C2C2"/>
<circle cx="136.5" cy="5.5" r="0.5" transform="rotate(90 136.5 5.5)" fill="#C2C2C2"/>
<circle cx="136.5" cy="10.5" r="0.5" transform="rotate(90 136.5 10.5)" fill="#C2C2C2"/>
<circle cx="136.5" cy="15.5" r="0.5" transform="rotate(90 136.5 15.5)" fill="#C2C2C2"/>
<circle cx="136.5" cy="20.5" r="0.5" transform="rotate(90 136.5 20.5)" fill="#C2C2C2"/>
<circle cx="136.5" cy="25.5" r="0.5" transform="rotate(90 136.5 25.5)" fill="#C2C2C2"/>
<circle cx="136.5" cy="30.5" r="0.5" transform="rotate(90 136.5 30.5)" fill="#C2C2C2"/>
<circle cx="131.5" cy="0.5" r="0.5" transform="rotate(90 131.5 0.5)" fill="#C2C2C2"/>
<circle cx="131.5" cy="5.5" r="0.5" transform="rotate(90 131.5 5.5)" fill="#C2C2C2"/>
<circle cx="131.5" cy="10.5" r="0.5" transform="rotate(90 131.5 10.5)" fill="#C2C2C2"/>
<circle cx="131.5" cy="15.5" r="0.5" transform="rotate(90 131.5 15.5)" fill="#C2C2C2"/>
<circle cx="131.5" cy="20.5" r="0.5" transform="rotate(90 131.5 20.5)" fill="#C2C2C2"/>
<circle cx="131.5" cy="25.5" r="0.5" transform="rotate(90 131.5 25.5)" fill="#C2C2C2"/>
<circle cx="131.5" cy="30.5" r="0.5" transform="rotate(90 131.5 30.5)" fill="#C2C2C2"/>
<circle cx="126.5" cy="0.5" r="0.5" transform="rotate(90 126.5 0.5)" fill="#C2C2C2"/>
<circle cx="126.5" cy="5.5" r="0.5" transform="rotate(90 126.5 5.5)" fill="#C2C2C2"/>
<circle cx="126.5" cy="10.5" r="0.5" transform="rotate(90 126.5 10.5)" fill="#C2C2C2"/>
<circle cx="126.5" cy="15.5" r="0.5" transform="rotate(90 126.5 15.5)" fill="#C2C2C2"/>
<circle cx="126.5" cy="20.5" r="0.5" transform="rotate(90 126.5 20.5)" fill="#C2C2C2"/>
<circle cx="126.5" cy="25.5" r="0.5" transform="rotate(90 126.5 25.5)" fill="#C2C2C2"/>
<circle cx="126.5" cy="30.5" r="0.5" transform="rotate(90 126.5 30.5)" fill="#C2C2C2"/>
<circle cx="121.5" cy="0.5" r="0.5" transform="rotate(90 121.5 0.5)" fill="#C2C2C2"/>
<circle cx="121.5" cy="5.5" r="0.5" transform="rotate(90 121.5 5.5)" fill="#C2C2C2"/>
<circle cx="121.5" cy="10.5" r="0.5" transform="rotate(90 121.5 10.5)" fill="#C2C2C2"/>
<circle cx="121.5" cy="15.5" r="0.5" transform="rotate(90 121.5 15.5)" fill="#C2C2C2"/>
<circle cx="121.5" cy="20.5" r="0.5" transform="rotate(90 121.5 20.5)" fill="#C2C2C2"/>
<circle cx="121.5" cy="25.5" r="0.5" transform="rotate(90 121.5 25.5)" fill="#C2C2C2"/>
<circle cx="121.5" cy="30.5" r="0.5" transform="rotate(90 121.5 30.5)" fill="#C2C2C2"/>
<circle cx="116.5" cy="0.5" r="0.5" transform="rotate(90 116.5 0.5)" fill="#C2C2C2"/>
<circle cx="116.5" cy="5.5" r="0.5" transform="rotate(90 116.5 5.5)" fill="#C2C2C2"/>
<circle cx="116.5" cy="10.5" r="0.5" transform="rotate(90 116.5 10.5)" fill="#C2C2C2"/>
<circle cx="116.5" cy="15.5" r="0.5" transform="rotate(90 116.5 15.5)" fill="#C2C2C2"/>
<circle cx="116.5" cy="20.5" r="0.5" transform="rotate(90 116.5 20.5)" fill="#C2C2C2"/>
<circle cx="116.5" cy="25.5" r="0.5" transform="rotate(90 116.5 25.5)" fill="#C2C2C2"/>
<circle cx="116.5" cy="30.5" r="0.5" transform="rotate(90 116.5 30.5)" fill="#C2C2C2"/>
<circle cx="111.5" cy="0.5" r="0.5" transform="rotate(90 111.5 0.5)" fill="#C2C2C2"/>
<circle cx="111.5" cy="5.5" r="0.5" transform="rotate(90 111.5 5.5)" fill="#C2C2C2"/>
<circle cx="111.5" cy="10.5" r="0.5" transform="rotate(90 111.5 10.5)" fill="#C2C2C2"/>
<circle cx="111.5" cy="15.5" r="0.5" transform="rotate(90 111.5 15.5)" fill="#C2C2C2"/>
<circle cx="106.5" cy="0.5" r="0.5" transform="rotate(90 106.5 0.5)" fill="#C2C2C2"/>
<circle cx="106.5" cy="5.5" r="0.5" transform="rotate(90 106.5 5.5)" fill="#C2C2C2"/>
<circle cx="106.5" cy="10.5" r="0.5" transform="rotate(90 106.5 10.5)" fill="#C2C2C2"/>
<circle cx="106.5" cy="15.5" r="0.5" transform="rotate(90 106.5 15.5)" fill="#C2C2C2"/>
<circle cx="106.5" cy="20.5" r="0.5" transform="rotate(90 106.5 20.5)" fill="#C2C2C2"/>
<circle cx="106.5" cy="25.5" r="0.5" transform="rotate(90 106.5 25.5)" fill="#C2C2C2"/>
<circle cx="106.5" cy="30.5" r="0.5" transform="rotate(90 106.5 30.5)" fill="#C2C2C2"/>
<circle cx="101.5" cy="0.5" r="0.5" transform="rotate(90 101.5 0.5)" fill="#C2C2C2"/>
<circle cx="101.5" cy="5.5" r="0.5" transform="rotate(90 101.5 5.5)" fill="#C2C2C2"/>
<circle cx="101.5" cy="10.5" r="0.5" transform="rotate(90 101.5 10.5)" fill="#C2C2C2"/>
<circle cx="101.5" cy="15.5" r="0.5" transform="rotate(90 101.5 15.5)" fill="#C2C2C2"/>
<circle cx="101.5" cy="20.5" r="0.5" transform="rotate(90 101.5 20.5)" fill="#C2C2C2"/>
<circle cx="101.5" cy="25.5" r="0.5" transform="rotate(90 101.5 25.5)" fill="#C2C2C2"/>
<circle cx="101.5" cy="30.5" r="0.5" transform="rotate(90 101.5 30.5)" fill="#C2C2C2"/>
<circle cx="96.5" cy="0.5" r="0.5" transform="rotate(90 96.5 0.5)" fill="#C2C2C2"/>
<circle cx="96.5" cy="5.5" r="0.5" transform="rotate(90 96.5 5.5)" fill="#C2C2C2"/>
<circle cx="96.5" cy="10.5" r="0.5" transform="rotate(90 96.5 10.5)" fill="#C2C2C2"/>
<circle cx="96.5" cy="15.5" r="0.5" transform="rotate(90 96.5 15.5)" fill="#C2C2C2"/>
<circle cx="96.5" cy="20.5" r="0.5" transform="rotate(90 96.5 20.5)" fill="#C2C2C2"/>
<circle cx="96.5" cy="25.5" r="0.5" transform="rotate(90 96.5 25.5)" fill="#C2C2C2"/>
<circle cx="96.5" cy="30.5" r="0.5" transform="rotate(90 96.5 30.5)" fill="#C2C2C2"/>
<circle cx="91.5" cy="0.5" r="0.5" transform="rotate(90 91.5 0.5)" fill="#C2C2C2"/>
<circle cx="91.5" cy="5.5" r="0.5" transform="rotate(90 91.5 5.5)" fill="#C2C2C2"/>
<circle cx="91.5" cy="10.5" r="0.5" transform="rotate(90 91.5 10.5)" fill="#C2C2C2"/>
<circle cx="91.5" cy="15.5" r="0.5" transform="rotate(90 91.5 15.5)" fill="#C2C2C2"/>
<circle cx="91.5" cy="20.5" r="0.5" transform="rotate(90 91.5 20.5)" fill="#C2C2C2"/>
<circle cx="91.5" cy="30.5" r="0.5" transform="rotate(90 91.5 30.5)" fill="#C2C2C2"/>
<circle cx="86.5" cy="0.5" r="0.5" transform="rotate(90 86.5 0.5)" fill="#C2C2C2"/>
<circle cx="86.5" cy="5.5" r="0.5" transform="rotate(90 86.5 5.5)" fill="#C2C2C2"/>
<circle cx="86.5" cy="10.5" r="0.5" transform="rotate(90 86.5 10.5)" fill="#C2C2C2"/>
<circle cx="86.5" cy="20.5" r="0.5" transform="rotate(90 86.5 20.5)" fill="#C2C2C2"/>
<circle cx="86.5" cy="25.5" r="0.5" transform="rotate(90 86.5 25.5)" fill="#C2C2C2"/>
<circle cx="86.5" cy="30.5" r="0.5" transform="rotate(90 86.5 30.5)" fill="#C2C2C2"/>
<circle cx="81.5" cy="5.5" r="0.5" transform="rotate(90 81.5 5.5)" fill="#C2C2C2"/>
<circle cx="81.5" cy="10.5" r="0.5" transform="rotate(90 81.5 10.5)" fill="#C2C2C2"/>
<circle cx="81.5" cy="20.5" r="0.5" transform="rotate(90 81.5 20.5)" fill="#C2C2C2"/>
<circle cx="81.5" cy="25.5" r="0.5" transform="rotate(90 81.5 25.5)" fill="#C2C2C2"/>
<circle cx="81.5" cy="30.5" r="0.5" transform="rotate(90 81.5 30.5)" fill="#C2C2C2"/>
<circle cx="76.5" cy="0.5" r="0.5" transform="rotate(90 76.5 0.5)" fill="#C2C2C2"/>
<circle cx="76.5" cy="5.5" r="0.5" transform="rotate(90 76.5 5.5)" fill="#C2C2C2"/>
<circle cx="76.5" cy="10.5" r="0.5" transform="rotate(90 76.5 10.5)" fill="#C2C2C2"/>
<circle cx="76.5" cy="15.5" r="0.5" transform="rotate(90 76.5 15.5)" fill="#C2C2C2"/>
<circle cx="76.5" cy="20.5" r="0.5" transform="rotate(90 76.5 20.5)" fill="#C2C2C2"/>
<circle cx="76.5" cy="25.5" r="0.5" transform="rotate(90 76.5 25.5)" fill="#C2C2C2"/>
<circle cx="76.5" cy="30.5" r="0.5" transform="rotate(90 76.5 30.5)" fill="#C2C2C2"/>
<circle cx="71.5" cy="0.5" r="0.5" transform="rotate(90 71.5 0.5)" fill="#C2C2C2"/>
<circle cx="71.5" cy="5.5" r="0.5" transform="rotate(90 71.5 5.5)" fill="#C2C2C2"/>
<circle cx="71.5" cy="10.5" r="0.5" transform="rotate(90 71.5 10.5)" fill="#C2C2C2"/>
<circle cx="71.5" cy="15.5" r="0.5" transform="rotate(90 71.5 15.5)" fill="#C2C2C2"/>
<circle cx="71.5" cy="20.5" r="0.5" transform="rotate(90 71.5 20.5)" fill="#C2C2C2"/>
<circle cx="71.5" cy="25.5" r="0.5" transform="rotate(90 71.5 25.5)" fill="#C2C2C2"/>
<circle cx="71.5" cy="30.5" r="0.5" transform="rotate(90 71.5 30.5)" fill="#C2C2C2"/>
<circle cx="66.5" cy="0.5" r="0.5" transform="rotate(90 66.5 0.5)" fill="#C2C2C2"/>
<circle cx="66.5" cy="5.5" r="0.5" transform="rotate(90 66.5 5.5)" fill="#C2C2C2"/>
<circle cx="66.5" cy="10.5" r="0.5" transform="rotate(90 66.5 10.5)" fill="#C2C2C2"/>
<circle cx="66.5" cy="15.5" r="0.5" transform="rotate(90 66.5 15.5)" fill="#C2C2C2"/>
<circle cx="66.5" cy="20.5" r="0.5" transform="rotate(90 66.5 20.5)" fill="#C2C2C2"/>
<circle cx="66.5" cy="25.5" r="0.5" transform="rotate(90 66.5 25.5)" fill="#C2C2C2"/>
<circle cx="66.5" cy="30.5" r="0.5" transform="rotate(90 66.5 30.5)" fill="#C2C2C2"/>
<circle cx="61.5" cy="0.5" r="0.5" transform="rotate(90 61.5 0.5)" fill="#C2C2C2"/>
<circle cx="61.5" cy="5.5" r="0.5" transform="rotate(90 61.5 5.5)" fill="#C2C2C2"/>
<circle cx="61.5" cy="10.5" r="0.5" transform="rotate(90 61.5 10.5)" fill="#C2C2C2"/>
<circle cx="61.5" cy="20.5" r="0.5" transform="rotate(90 61.5 20.5)" fill="#C2C2C2"/>
<circle cx="61.5" cy="25.5" r="0.5" transform="rotate(90 61.5 25.5)" fill="#C2C2C2"/>
<circle cx="61.5" cy="30.5" r="0.5" transform="rotate(90 61.5 30.5)" fill="#C2C2C2"/>
<circle cx="56.5" cy="0.5" r="0.5" transform="rotate(90 56.5 0.5)" fill="#C2C2C2"/>
<circle cx="56.5" cy="5.5" r="0.5" transform="rotate(90 56.5 5.5)" fill="#C2C2C2"/>
<circle cx="56.5" cy="10.5" r="0.5" transform="rotate(90 56.5 10.5)" fill="#C2C2C2"/>
<circle cx="56.5" cy="15.5" r="0.5" transform="rotate(90 56.5 15.5)" fill="#C2C2C2"/>
<circle cx="56.5" cy="20.5" r="0.5" transform="rotate(90 56.5 20.5)" fill="#C2C2C2"/>
<circle cx="56.5" cy="25.5" r="0.5" transform="rotate(90 56.5 25.5)" fill="#C2C2C2"/>
<circle cx="56.5" cy="30.5" r="0.5" transform="rotate(90 56.5 30.5)" fill="#C2C2C2"/>
<circle cx="51.5" cy="0.5" r="0.5" transform="rotate(90 51.5 0.5)" fill="#C2C2C2"/>
<circle cx="51.5" cy="5.5" r="0.5" transform="rotate(90 51.5 5.5)" fill="#C2C2C2"/>
<circle cx="51.5" cy="10.5" r="0.5" transform="rotate(90 51.5 10.5)" fill="#C2C2C2"/>
<circle cx="51.5" cy="20.5" r="0.5" transform="rotate(90 51.5 20.5)" fill="#C2C2C2"/>
<circle cx="51.5" cy="25.5" r="0.5" transform="rotate(90 51.5 25.5)" fill="#C2C2C2"/>
<circle cx="51.5" cy="30.5" r="0.5" transform="rotate(90 51.5 30.5)" fill="#C2C2C2"/>
<circle cx="46.5" cy="0.5" r="0.5" transform="rotate(90 46.5 0.5)" fill="#C2C2C2"/>
<circle cx="46.5" cy="5.5" r="0.5" transform="rotate(90 46.5 5.5)" fill="#C2C2C2"/>
<circle cx="46.5" cy="15.5" r="0.5" transform="rotate(90 46.5 15.5)" fill="#C2C2C2"/>
<circle cx="46.5" cy="20.5" r="0.5" transform="rotate(90 46.5 20.5)" fill="#C2C2C2"/>
<circle cx="46.5" cy="25.5" r="0.5" transform="rotate(90 46.5 25.5)" fill="#C2C2C2"/>
<circle cx="46.5" cy="30.5" r="0.5" transform="rotate(90 46.5 30.5)" fill="#C2C2C2"/>
<circle cx="41.5" cy="0.5" r="0.5" transform="rotate(90 41.5 0.5)" fill="#C2C2C2"/>
<circle cx="41.5" cy="10.5" r="0.5" transform="rotate(90 41.5 10.5)" fill="#C2C2C2"/>
<circle cx="41.5" cy="15.5" r="0.5" transform="rotate(90 41.5 15.5)" fill="#C2C2C2"/>
<circle cx="41.5" cy="20.5" r="0.5" transform="rotate(90 41.5 20.5)" fill="#C2C2C2"/>
<circle cx="41.5" cy="25.5" r="0.5" transform="rotate(90 41.5 25.5)" fill="#C2C2C2"/>
<circle cx="36.5" cy="0.5" r="0.5" transform="rotate(90 36.5 0.5)" fill="#C2C2C2"/>
<circle cx="36.5" cy="5.5" r="0.5" transform="rotate(90 36.5 5.5)" fill="#C2C2C2"/>
<circle cx="36.5" cy="10.5" r="0.5" transform="rotate(90 36.5 10.5)" fill="#C2C2C2"/>
<circle cx="36.5" cy="15.5" r="0.5" transform="rotate(90 36.5 15.5)" fill="#C2C2C2"/>
<circle cx="36.5" cy="20.5" r="0.5" transform="rotate(90 36.5 20.5)" fill="#C2C2C2"/>
<circle cx="36.5" cy="25.5" r="0.5" transform="rotate(90 36.5 25.5)" fill="#C2C2C2"/>
<circle cx="31.5" cy="0.5" r="0.5" transform="rotate(90 31.5 0.5)" fill="#C2C2C2"/>
<circle cx="31.5" cy="5.5" r="0.5" transform="rotate(90 31.5 5.5)" fill="#C2C2C2"/>
<circle cx="31.5" cy="10.5" r="0.5" transform="rotate(90 31.5 10.5)" fill="#C2C2C2"/>
<circle cx="31.5" cy="15.5" r="0.5" transform="rotate(90 31.5 15.5)" fill="#C2C2C2"/>
<circle cx="31.5" cy="20.5" r="0.5" transform="rotate(90 31.5 20.5)" fill="#C2C2C2"/>
<circle cx="31.5" cy="25.5" r="0.5" transform="rotate(90 31.5 25.5)" fill="#C2C2C2"/>
<circle cx="26.5" cy="0.5" r="0.5" transform="rotate(90 26.5 0.5)" fill="#C2C2C2"/>
<circle cx="26.5" cy="5.5" r="0.5" transform="rotate(90 26.5 5.5)" fill="#C2C2C2"/>
<circle cx="26.5" cy="10.5" r="0.5" transform="rotate(90 26.5 10.5)" fill="#C2C2C2"/>
<circle cx="26.5" cy="15.5" r="0.5" transform="rotate(90 26.5 15.5)" fill="#C2C2C2"/>
<circle cx="26.5" cy="20.5" r="0.5" transform="rotate(90 26.5 20.5)" fill="#C2C2C2"/>
<circle cx="26.5" cy="25.5" r="0.5" transform="rotate(90 26.5 25.5)" fill="#C2C2C2"/>
<circle cx="26.5" cy="30.5" r="0.5" transform="rotate(90 26.5 30.5)" fill="#C2C2C2"/>
<circle cx="21.5" cy="0.5" r="0.5" transform="rotate(90 21.5 0.5)" fill="#C2C2C2"/>
<circle cx="21.5" cy="10.5" r="0.5" transform="rotate(90 21.5 10.5)" fill="#C2C2C2"/>
<circle cx="21.5" cy="15.5" r="0.5" transform="rotate(90 21.5 15.5)" fill="#C2C2C2"/>
<circle cx="21.5" cy="20.5" r="0.5" transform="rotate(90 21.5 20.5)" fill="#C2C2C2"/>
<circle cx="21.5" cy="25.5" r="0.5" transform="rotate(90 21.5 25.5)" fill="#C2C2C2"/>
<circle cx="21.5" cy="30.5" r="0.5" transform="rotate(90 21.5 30.5)" fill="#C2C2C2"/>
<circle cx="16.5" cy="0.5" r="0.5" transform="rotate(90 16.5 0.5)" fill="#C2C2C2"/>
<circle cx="16.5" cy="5.5" r="0.5" transform="rotate(90 16.5 5.5)" fill="#C2C2C2"/>
<circle cx="16.5" cy="10.5" r="0.5" transform="rotate(90 16.5 10.5)" fill="#C2C2C2"/>
<circle cx="16.5" cy="20.5" r="0.5" transform="rotate(90 16.5 20.5)" fill="#C2C2C2"/>
<circle cx="16.5" cy="25.5" r="0.5" transform="rotate(90 16.5 25.5)" fill="#C2C2C2"/>
<circle cx="16.5" cy="30.5" r="0.5" transform="rotate(90 16.5 30.5)" fill="#C2C2C2"/>
<circle cx="11.5" cy="0.5" r="0.5" transform="rotate(90 11.5 0.5)" fill="#C2C2C2"/>
<circle cx="11.5" cy="5.5" r="0.5" transform="rotate(90 11.5 5.5)" fill="#C2C2C2"/>
<circle cx="11.5" cy="10.5" r="0.5" transform="rotate(90 11.5 10.5)" fill="#C2C2C2"/>
<circle cx="11.5" cy="15.5" r="0.5" transform="rotate(90 11.5 15.5)" fill="#C2C2C2"/>
<circle cx="11.5" cy="20.5" r="0.5" transform="rotate(90 11.5 20.5)" fill="#C2C2C2"/>
<circle cx="11.5" cy="25.5" r="0.5" transform="rotate(90 11.5 25.5)" fill="#C2C2C2"/>
<circle cx="11.5" cy="30.5" r="0.5" transform="rotate(90 11.5 30.5)" fill="#C2C2C2"/>
<circle cx="6.5" cy="0.5" r="0.5" transform="rotate(90 6.5 0.5)" fill="#C2C2C2"/>
<circle cx="6.5" cy="5.5" r="0.5" transform="rotate(90 6.5 5.5)" fill="#C2C2C2"/>
<circle cx="6.5" cy="15.5" r="0.5" transform="rotate(90 6.5 15.5)" fill="#C2C2C2"/>
<circle cx="6.5" cy="20.5" r="0.5" transform="rotate(90 6.5 20.5)" fill="#C2C2C2"/>
<circle cx="6.5" cy="25.5" r="0.5" transform="rotate(90 6.5 25.5)" fill="#C2C2C2"/>
<circle cx="6.5" cy="30.5" r="0.5" transform="rotate(90 6.5 30.5)" fill="#C2C2C2"/>
<circle cx="1.5" cy="0.5" r="0.5" transform="rotate(90 1.5 0.5)" fill="#C2C2C2"/>
<circle cx="1.5" cy="5.5" r="0.5" transform="rotate(90 1.5 5.5)" fill="#C2C2C2"/>
<circle cx="1.5" cy="10.5" r="0.5" transform="rotate(90 1.5 10.5)" fill="#C2C2C2"/>
<circle cx="1.5" cy="15.5" r="0.5" transform="rotate(90 1.5 15.5)" fill="#C2C2C2"/>
<circle cx="1.5" cy="20.5" r="0.5" transform="rotate(90 1.5 20.5)" fill="#C2C2C2"/>
<circle cx="1.5" cy="25.5" r="0.5" transform="rotate(90 1.5 25.5)" fill="#C2C2C2"/>
<circle cx="1.5" cy="30.5" r="0.5" transform="rotate(90 1.5 30.5)" fill="#C2C2C2"/>
</g>
<path d="M0 32V32.5H1.99405V32V31.5H0V32ZM5.98214 32V32.5H9.97024V32V31.5H5.98214V32ZM13.9583 32V32.5H17.9464V32V31.5H13.9583V32ZM21.9345 32V32.5H25.9226V32V31.5H21.9345V32ZM29.9107 32V32.5H33.8988V32V31.5H29.9107V32ZM37.8869 32V32.5H41.875V32V31.5H37.8869V32ZM45.8631 32V32.5H49.8512V32V31.5H45.8631V32ZM53.8393 32V32.5H57.8274V32V31.5H53.8393V32ZM61.8155 32V32.5H65.8036V32V31.5H61.8155V32ZM69.7917 32V32.5H73.7798V32V31.5H69.7917V32ZM77.7679 32V32.5H81.756V32V31.5H77.7679V32ZM85.7441 32V32.5H89.7321V32V31.5H85.7441V32ZM93.7203 32V32.5H97.7084V32V31.5H93.7203V32ZM101.696 32V32.5H105.685V32V31.5H101.696V32ZM109.673 32V32.5H113.661V32V31.5H109.673V32ZM117.649 32V32.5H121.637V32V31.5H117.649V32ZM125.625 32V32.5H129.613V32V31.5H125.625V32ZM133.601 32V32.5H137.589V32V31.5H133.601V32ZM141.577 32V32.5H145.566V32V31.5H141.577V32ZM149.554 32V32.5H153.542V32V31.5H149.554V32ZM157.53 32V32.5H161.518V32V31.5H157.53V32ZM165.506 32V32.5H169.494V32V31.5H165.506V32ZM173.482 32V32.5H177.47V32V31.5H173.482V32ZM181.458 32V32.5H185.447V32V31.5H181.458V32ZM189.435 32V32.5H193.423V32V31.5H189.435V32ZM197.411 32V32.5H201.399V32V31.5H197.411V32ZM205.387 32V32.5H209.375V32V31.5H205.387V32ZM213.363 32V32.5H217.351V32V31.5H213.363V32ZM221.339 32V32.5H225.327V32V31.5H221.339V32ZM229.316 32V32.5H233.304V32V31.5H229.316V32ZM237.292 32V32.5H241.28V32V31.5H237.292V32ZM245.268 32V32.5H249.256V32V31.5H245.268V32ZM253.244 32V32.5H257.232V32V31.5H253.244V32ZM261.22 32V32.5H265.208V32V31.5H261.22V32ZM269.197 32V32.5H273.185V32V31.5H269.197V32ZM277.173 32V32.5H281.161V32V31.5H277.173V32ZM285.149 32V32.5H289.137V32V31.5H285.149V32ZM293.125 32V32.5H297.113V32V31.5H293.125V32ZM301.101 32V32.5H305.089V32V31.5H301.101V32ZM309.078 32V32.5H313.066V32V31.5H309.078V32ZM317.054 32V32.5H321.042V32V31.5H317.054V32ZM325.03 32V32.5H329.018V32V31.5H325.03V32ZM333.006 32V32.5H335V32V31.5H333.006V32ZM0 32V33H1.99405V32V31H0V32ZM5.98214 32V33H9.97024V32V31H5.98214V32ZM13.9583 32V33H17.9464V32V31H13.9583V32ZM21.9345 32V33H25.9226V32V31H21.9345V32ZM29.9107 32V33H33.8988V32V31H29.9107V32ZM37.8869 32V33H41.875V32V31H37.8869V32ZM45.8631 32V33H49.8512V32V31H45.8631V32ZM53.8393 32V33H57.8274V32V31H53.8393V32ZM61.8155 32V33H65.8036V32V31H61.8155V32ZM69.7917 32V33H73.7798V32V31H69.7917V32ZM77.7679 32V33H81.756V32V31H77.7679V32ZM85.7441 32V33H89.7321V32V31H85.7441V32ZM93.7203 32V33H97.7084V32V31H93.7203V32ZM101.696 32V33H105.685V32V31H101.696V32ZM109.673 32V33H113.661V32V31H109.673V32ZM117.649 32V33H121.637V32V31H117.649V32ZM125.625 32V33H129.613V32V31H125.625V32ZM133.601 32V33H137.589V32V31H133.601V32ZM141.577 32V33H145.566V32V31H141.577V32ZM149.554 32V33H153.542V32V31H149.554V32ZM157.53 32V33H161.518V32V31H157.53V32ZM165.506 32V33H169.494V32V31H165.506V32ZM173.482 32V33H177.47V32V31H173.482V32ZM181.458 32V33H185.447V32V31H181.458V32ZM189.435 32V33H193.423V32V31H189.435V32ZM197.411 32V33H201.399V32V31H197.411V32ZM205.387 32V33H209.375V32V31H205.387V32ZM213.363 32V33H217.351V32V31H213.363V32ZM221.339 32V33H225.327V32V31H221.339V32ZM229.316 32V33H233.304V32V31H229.316V32ZM237.292 32V33H241.28V32V31H237.292V32ZM245.268 32V33H249.256V32V31H245.268V32ZM253.244 32V33H257.232V32V31H253.244V32ZM261.22 32V33H265.208V32V31H261.22V32ZM269.197 32V33H273.185V32V31H269.197V32ZM277.173 32V33H281.161V32V31H277.173V32ZM285.149 32V33H289.137V32V31H285.149V32ZM293.125 32V33H297.113V32V31H293.125V32ZM301.101 32V33H305.089V32V31H301.101V32ZM309.078 32V33H313.066V32V31H309.078V32ZM317.054 32V33H321.042V32V31H317.054V32ZM325.03 32V33H329.018V32V31H325.03V32ZM333.006 32V33H335V32V31H333.006V32Z" fill="#DBDBDB" mask="url(#path-1-outside-1_1_88841)"/>
<defs>
<clipPath id="clip0_1_88841">
<path d="M0 0H335V32H0V0Z" fill="white"/>
</clipPath>
</defs>
</svg>
