<svg width="16" height="16" viewBox="0 0 16 16" fill="none" xmlns="http://www.w3.org/2000/svg">
<g clip-path="url(#clip0_295_4718)">
<rect x="0.0834961" y="8.11084" width="16" height="1" fill="#B88CC0"/>
<path d="M10.8897 10.4864C11.2606 9.93136 11.4585 9.27884 11.4585 8.61133C11.4585 7.71622 11.1029 6.85778 10.47 6.22484C9.83705 5.59191 8.9786 5.23633 8.0835 5.23633C7.41598 5.23633 6.76346 5.43427 6.20845 5.80512C5.65343 6.17597 5.22085 6.70307 4.9654 7.31977C4.70996 7.93647 4.64312 8.61507 4.77335 9.26976C4.90357 9.92444 5.22501 10.5258 5.69701 10.9978C6.16901 11.4698 6.77038 11.7913 7.42507 11.9215C8.07975 12.0517 8.75835 11.9849 9.37505 11.7294C9.99175 11.474 10.5189 11.0414 10.8897 10.4864Z" fill="#B88CC0" stroke="#B88CC0" stroke-width="2.25"/>
</g>
<defs>
<clipPath id="clip0_295_4718">
<rect width="16" height="16" fill="white"/>
</clipPath>
</defs>
</svg>
