<svg width="18" height="18" viewBox="0 0 18 18" fill="none" xmlns="http://www.w3.org/2000/svg">
<g clip-path="url(#clip0_1_101023)">
<rect x="0.09375" y="9.12476" width="18" height="1.125" fill="#BFA6F2"/>
<path d="M9.09375 6.60083C9.91242 6.60083 10.6975 6.92624 11.2764 7.50513C11.8553 8.08402 12.1807 8.86907 12.1807 9.68774C12.1807 10.2983 11.9993 10.895 11.6602 11.4026C11.3211 11.9101 10.8392 12.3057 10.2754 12.5393C9.71135 12.7729 9.08999 12.8342 8.49121 12.7151C7.89256 12.5959 7.34275 12.302 6.91113 11.8704C6.47952 11.4387 6.18556 10.8889 6.06641 10.2903C5.9473 9.6915 6.00855 9.07014 6.24219 8.5061C6.47584 7.94225 6.87142 7.46044 7.37891 7.12134C7.88653 6.78216 8.48324 6.60083 9.09375 6.60083Z" fill="#BFA6F2" stroke="#BFA6F2" stroke-width="1.11111"/>
</g>
<defs>
<clipPath id="clip0_1_101023">
<rect width="18" height="18" fill="white"/>
</clipPath>
</defs>
</svg>
