<svg width="540" height="507" viewBox="0 0 540 507" fill="none" xmlns="http://www.w3.org/2000/svg">
<path d="M186.617 0L260.83 96.8819L289.685 51.9918L318.801 104.81L409.757 32.9224L374.465 143.2L539.49 108.859L400.214 197.58L465.753 230.915L393.453 259.672L484.455 372.436L356.051 315.219L344.882 356.805L302.739 340.339L266.935 409.757L234.291 334.836L122.981 421.546L184.741 299.947L117.154 294.201L156.765 240.773L0 178.564L161.29 176.248L122.954 115.727L198.774 126.043L186.617 0Z" fill="#F38429"/>
<path d="M209.386 44.5849L266.369 119.345L289.461 85.7222L310.514 124.436L381.773 70.0645L354.632 153.336L481.016 129.616L371.816 199.348L424.32 223.221L370.371 245.971L437.598 329.512L340.564 287.692L331.469 317.697L299.238 307.964L271.145 358.556L246.573 302.057L162.924 366.564L212.654 272.824L157.457 271.334L188.539 229.811L70.1812 183.565L192.767 182.568L160.94 135.829L218.624 142.787L209.386 44.5849Z" fill="#F7D82D"/>
<path d="M452.668 361.453V361.489C452.632 382.731 424.28 405.499 385.656 414.1C346.449 422.836 310.6 413.867 302.241 394.016L300.984 390.066C295.966 367.495 325.71 341.647 367.44 332.346C409.179 323.054 447.075 333.81 452.112 356.38L452.668 361.453Z" fill="#15804B"/>
<path d="M454.975 382.803H454.949C455.11 390.03 452.327 397.392 447.165 404.314C443.87 408.749 439.596 413.014 434.523 416.955C432.252 418.724 429.81 420.43 427.215 422.037C425.905 422.863 424.567 423.662 423.184 424.434C415.643 428.671 407.024 432.272 397.633 434.938C395.281 435.602 392.892 436.204 390.459 436.752C376.184 439.93 362.34 440.522 350.157 438.924C342.31 437.91 335.146 435.979 329.014 433.241C326.617 432.173 324.372 430.979 322.307 429.668C315.672 425.475 310.86 420.061 308.535 413.669H308.508L308.319 413.103C308.221 412.807 308.131 412.52 308.05 412.215L302.232 394.007C305.581 401.944 313.311 408.148 323.896 412.161C329.13 414.154 335.065 415.599 341.511 416.47C342.597 416.614 343.684 416.74 344.797 416.856C357.142 418.122 371.166 417.314 385.647 414.091C388.52 413.454 391.339 412.735 394.095 411.945C403.468 409.252 412.087 405.724 419.674 401.621C420.913 400.956 422.125 400.274 423.301 399.574C423.445 399.484 423.588 399.412 423.723 399.322C426.318 397.769 428.769 396.162 431.058 394.474C444.525 384.643 452.641 372.846 452.668 361.489L454.553 378.834C454.769 380.064 454.913 381.303 454.957 382.551L454.984 382.803H454.975Z" fill="#0CD17B"/>
<path d="M423.193 424.434C415.652 428.671 407.033 432.272 397.642 434.938L394.095 411.954C403.469 409.261 412.087 405.733 419.674 401.63L423.193 424.434Z" fill="#058969"/>
<path d="M434.524 416.955C432.252 418.724 429.81 420.43 427.215 422.037L423.714 399.322C426.309 397.769 428.76 396.162 431.049 394.474L434.524 416.955Z" fill="#058969"/>
<path d="M350.166 438.924C342.319 437.91 335.155 435.98 329.023 433.241L323.905 412.17C329.139 414.163 335.074 415.608 341.52 416.479C342.607 416.623 343.693 416.749 344.806 416.865L350.166 438.924Z" fill="#A1F4CA"/>
<path d="M434.784 364.586C432.207 380.1 410.795 396.072 382.325 402.42C381.571 402.581 380.826 402.752 380.081 402.895C364.279 406.083 349.331 405.688 337.803 402.393C330.073 400.175 323.869 396.665 320 392.068C317.989 389.689 316.606 387.022 315.951 384.095C312.072 366.66 335.496 346.612 368.257 339.304C401.027 332.014 430.744 340.22 434.622 357.646C435.125 359.927 435.17 362.261 434.784 364.586Z" fill="#0B4B39"/>
<path d="M450.181 473.005C450.181 473.005 450.172 473.014 450.172 473.023C449.957 473.445 449.741 473.849 449.517 474.262C447.883 477.225 445.818 480.098 443.376 482.827H443.367C443.277 482.935 443.178 483.042 443.098 483.141C442.227 484.093 441.302 485.053 440.332 485.978C440.314 485.996 440.287 486.014 440.261 486.041C440 486.283 439.74 486.535 439.47 486.786C439.444 486.813 439.408 486.849 439.381 486.876C433.15 492.559 425.15 497.434 415.939 500.927C415.849 500.962 415.759 500.998 415.679 501.025C415.391 501.142 415.113 501.241 414.835 501.349C414.61 501.429 414.377 501.51 414.152 501.591C410.884 502.74 407.482 503.737 403.953 504.518C392.39 507.094 381.104 507.211 371.184 505.29C362.592 503.62 355.014 500.424 349.169 495.971C343.091 491.356 338.881 485.395 337.318 478.374L322.343 429.695C325.889 431.939 329.956 433.852 334.445 435.378C340.649 437.488 347.652 438.879 355.194 439.472C366.102 440.343 378.141 439.517 390.495 436.77C394.383 435.899 398.163 434.875 401.808 433.708C402.777 433.394 403.738 433.071 404.681 432.756C404.716 432.747 404.752 432.729 404.788 432.72C412.949 429.883 420.41 426.328 426.937 422.261C428.095 421.552 429.235 420.807 430.34 420.035C430.358 420.026 430.367 420.017 430.385 420.008C430.546 419.9 430.708 419.792 430.869 419.675C432.046 418.858 433.204 418.023 434.299 417.171C434.335 417.144 434.38 417.108 434.416 417.081C435.637 416.138 436.804 415.168 437.935 414.181C439.21 413.068 440.431 411.936 441.58 410.778C441.607 410.76 441.652 410.715 441.679 410.688C443.726 408.632 445.566 406.505 447.183 404.341L453.189 452.562C454.706 459.394 453.53 466.424 450.199 473.032L450.181 473.005Z" fill="#139155"/>
<path d="M440.252 486.032C439.991 486.274 439.731 486.526 439.462 486.777C439.435 486.804 439.399 486.84 439.372 486.867C433.141 492.55 425.142 497.425 415.93 500.918C415.84 500.953 415.751 500.989 415.67 501.016L404.663 432.738C404.663 432.738 404.735 432.711 404.77 432.703C412.932 429.865 420.392 426.31 426.919 422.243C428.077 421.534 429.218 420.789 430.322 420.017L440.261 486.041L440.252 486.032Z" fill="#0B604A"/>
<path d="M450.181 473.005C450.181 473.005 450.172 473.014 450.172 473.023C449.957 473.445 449.741 473.849 449.517 474.262C447.883 477.225 445.818 480.098 443.376 482.827L434.29 417.144C434.29 417.144 434.371 417.081 434.407 417.054C435.628 416.111 436.795 415.142 437.926 414.154C439.201 413.041 440.422 411.909 441.571 410.751L450.181 473.005Z" fill="#0B604A"/>
<path d="M371.166 505.272C362.574 503.602 354.996 500.406 349.151 495.953L334.427 435.36C340.631 437.47 347.634 438.861 355.176 439.454L371.166 505.272Z" fill="#8ED7B3"/>
<path d="M434.784 364.586C432.207 380.1 410.795 396.072 382.325 402.42C381.571 402.581 380.826 402.752 380.081 402.895C364.279 406.083 349.331 405.688 337.803 402.393C330.073 400.175 323.869 396.665 320 392.068C322.567 376.545 343.989 360.564 372.458 354.217C399.734 348.147 424.881 352.816 434.784 364.595V364.586Z" fill="#0C140C"/>
<path d="M392.021 379.58C391.896 379.696 391.761 379.786 391.59 379.84L386.392 380.944C383.896 381.483 369.585 384.329 369.585 394.007C369.585 398.155 371.776 402.77 380.081 402.904C372.449 404.449 365.016 405.149 358.067 405.086C350.642 405.023 343.773 404.099 337.803 402.393C338.8 392.122 343.244 382.273 351.091 375.324C354.906 371.93 359.503 369.228 364.917 367.486C385.988 360.69 390.854 370.494 392.084 376.114V376.141C392.102 376.32 392.201 377.631 392.021 379.571V379.58Z" fill="#1E5926"/>
<path d="M392.021 379.58C391.896 379.696 391.761 379.786 391.59 379.84L386.392 380.944C383.896 381.483 369.585 384.329 369.585 394.007C369.585 398.155 371.776 402.77 380.081 402.904C372.449 404.449 365.015 405.149 358.066 405.086C349.448 400.633 349.51 393.235 350.193 386.205C350.794 379.912 354.179 371.984 360.957 368.985C362.223 368.429 363.543 367.926 364.917 367.486C385.988 360.69 390.854 370.494 392.084 376.114V376.141C392.102 376.32 392.201 377.631 392.021 379.571V379.58Z" fill="#153C1A"/>
<path d="M455.155 288.022C455.155 288.022 463.684 286.872 468.604 293.947C468.604 293.947 457.355 295.922 448.377 304.209C448.368 304.218 448.359 304.227 448.359 304.236C444.48 307.827 441.024 312.603 439.093 318.915C439.093 318.915 452.174 320.01 456.995 328.925C456.995 328.925 445.97 327.318 438.285 333.262C433.365 337.077 426.605 340.525 420.85 342.617C417.636 343.784 414.727 344.529 412.626 344.664C412.626 344.664 418.327 346.657 420.194 350.491C420.194 350.491 406.189 348.309 382.406 356.497C379.551 357.485 376.849 358.849 374.245 360.367C369.603 363.078 362.295 364.398 372.934 356.039C376.337 353.364 379.371 350.248 381.768 346.648C385.207 341.504 388.897 333.783 389.615 323.7C389.939 319.139 389.66 314.085 388.484 308.572C388.484 308.572 390.953 309.695 392.802 314.085C391.635 310.96 385.88 293.399 395.658 273.109C395.658 273.109 394.598 279.807 397.534 284.583C397.534 284.583 400.156 278.451 405.668 271.484C410.777 265.029 418.381 257.864 428.67 254.255C428.67 254.255 423.328 260.414 423.121 268.333C423.121 268.333 435.116 257.64 446.805 258.08C446.805 258.08 442.819 261.159 442.541 264.966C442.541 264.966 482.619 267.83 492.459 283.488C492.459 283.488 472.779 278.307 455.137 288.004L455.155 288.022Z" fill="#329F48"/>
<path d="M420.194 350.5C420.194 350.5 406.189 348.318 382.406 356.506C379.551 357.494 376.849 358.858 374.245 360.376C369.603 363.087 362.295 364.407 372.934 356.048C376.337 353.373 379.371 350.257 381.768 346.657C385.207 341.513 388.897 333.792 389.615 323.709C393.817 329.455 402.589 336.988 420.841 342.617C417.627 343.784 414.718 344.529 412.617 344.664C412.617 344.664 418.318 346.657 420.185 350.491L420.194 350.5Z" fill="#1E5926"/>
<path d="M450.423 295.096C450.423 295.096 442.828 296.685 438.33 302.44C433.823 308.195 431.327 319.193 426.578 324.32C426.578 324.32 434.137 323.233 439.183 329.365C439.183 329.365 420.868 330.748 407.302 337.374C405.282 338.361 403.361 339.457 401.628 340.687C401.628 340.687 405.812 340.202 408.191 343.829C408.191 343.829 390.72 346.02 379.542 353.857C379.282 354.046 378.967 353.723 379.174 353.48C382.361 349.593 389.319 340.157 393.135 327.767C395.038 321.635 396.16 314.776 395.675 307.504C395.675 307.504 398.647 310.072 399.742 313.582C399.581 312.594 395.765 289.799 411.701 275.497C411.701 275.497 406.539 288.165 409.663 296.03C409.663 296.03 414.96 271.466 434.101 269.293C434.101 269.293 427.179 274.312 426.766 280.022C426.766 280.022 445.836 266.465 467.616 275.497C467.616 275.497 447.272 276.027 439.838 293.238C439.838 293.238 446.653 292.699 450.414 295.123L450.423 295.096Z" fill="#8AC652"/>
<path d="M408.2 343.82C408.2 343.82 390.729 346.011 379.551 353.848C379.291 354.037 378.976 353.714 379.183 353.471C382.37 349.584 389.328 340.148 393.144 327.758C396.313 330.883 400.838 334.223 407.311 337.374C405.291 338.361 403.37 339.457 401.637 340.687C401.637 340.687 405.821 340.202 408.2 343.829V343.82Z" fill="#628B3A"/>
<path d="M455.155 288.022C455.155 288.022 463.684 286.872 468.604 293.947C468.604 293.947 457.354 295.922 448.376 304.209C454.948 295.913 464.896 293.103 464.896 293.103C460.093 289.216 451.285 288.955 451.285 288.955C466.234 276.646 488.257 281.073 488.257 281.073C474.431 268.458 441.32 266.474 441.32 266.474C440.593 263.565 442.774 260.253 442.774 260.253C434.362 260.926 422.214 270.532 422.214 270.532C420.805 265.567 423.238 258.78 423.355 258.448C417.079 260.827 405.668 271.502 405.668 271.502C410.776 265.047 418.381 257.882 428.67 254.273C428.67 254.273 423.328 260.432 423.121 268.351C423.121 268.351 435.116 257.658 446.805 258.098C446.805 258.098 442.819 261.177 442.541 264.984C442.541 264.984 482.619 267.848 492.459 283.506C492.459 283.506 472.779 278.325 455.137 288.022H455.155Z" fill="#B3D792"/>
<path d="M452.246 275.425C452.246 275.964 445.773 276.655 436.894 284.448C438.824 284.152 441.185 285.113 441.068 285.642C440.952 286.163 436.355 285.678 433.096 288.057C429.594 291.631 425.662 296.308 421.415 302.413C427.862 298.086 434.434 298.867 434.407 299.397C434.371 299.935 425.366 299.962 417.465 308.348C415.867 310.871 414.224 313.582 412.554 316.518C411.737 317.963 410.866 319.364 409.977 320.755C409.959 320.782 409.941 320.827 409.941 320.836C409.924 320.863 409.906 320.881 409.879 320.917C408.541 322.991 407.14 325.02 405.704 326.959C415.571 324.014 425.788 326.358 425.68 326.878C425.581 327.408 413.973 325.711 403.594 329.733C402.562 331.062 401.529 332.337 400.515 333.567C399.527 334.743 398.557 335.866 397.597 336.952C397.588 336.961 397.57 336.979 397.552 336.997C393.619 341.423 386.132 347.69 385.934 347.492C385.566 347.106 392.147 340.139 395.999 335.812C396.645 334.249 397.13 332.804 397.507 331.484C399.626 323.988 398.073 319.041 398.557 318.825C399.051 318.61 401.691 323.718 399.428 331.816C402.454 328.171 405.506 324.113 408.272 319.786C408.747 318.87 411.935 312.514 412.222 306.229C412.895 290.948 418.264 288.515 418.489 289C418.704 289.476 414.772 292.636 414.17 306.319C414.089 307.917 413.847 309.506 413.515 311.023C435.304 274.896 452.237 274.896 452.237 275.434L452.246 275.425Z" fill="#1E5926"/>
<path d="M400.515 333.567C399.527 334.743 398.557 335.865 397.597 336.952C397.588 336.961 397.57 336.979 397.552 336.997C393.619 341.423 386.132 347.69 385.934 347.492C385.566 347.106 392.147 340.139 395.999 335.812C396.645 334.249 397.13 332.804 397.507 331.484C398.432 332.176 399.428 332.867 400.515 333.567Z" fill="#102C13"/>
<path d="M363.337 371.957C355.382 374.354 341.969 378.529 336.528 381.016C329.947 384.024 317.764 378.951 311.614 376.329C310.321 375.782 309.298 375.333 308.642 375.1C304.89 373.735 291.521 363.545 286.197 391.036C286.197 391.036 279.509 386.995 281.098 378.682C281.098 378.682 268.879 404.251 290.695 419.46C290.695 419.46 261.912 415.976 255.681 395.255C255.681 395.255 249.45 403.874 248.903 409.189C248.903 409.189 240.104 393.065 243.588 372.711C243.588 372.711 234.61 371.248 229.465 373.457C229.465 373.457 232.931 367.307 239.072 360.349C246.703 351.703 258.482 341.818 272.91 341.001C272.91 341.001 264.659 334.043 254.765 331.287C254.765 331.287 277.372 322.793 300.706 330.506C306.856 332.544 313.069 335.704 318.922 340.453C318.922 340.453 319.919 335.174 315.942 329.572C316.058 329.572 324.13 329.635 329.265 346.19C335.137 365.134 346.359 368.581 363.121 369.919C364.279 370.009 364.468 371.634 363.355 371.966L363.337 371.957Z" fill="#329F48"/>
<path d="M290.686 419.46C290.686 419.46 261.903 415.976 255.672 395.255C255.672 395.255 249.441 403.874 248.894 409.189C248.894 409.189 240.095 393.065 243.579 372.711C243.579 372.711 234.601 371.248 229.456 373.457C229.456 373.457 232.922 367.307 239.063 360.349L233.047 370.646C233.047 370.646 240.14 369.919 245.904 371.688C245.904 371.688 243.103 391.924 248.436 403.793C248.436 403.793 252.215 394.627 256.354 392.041C256.354 392.041 260.834 410.428 290.686 419.46Z" fill="#B3D792"/>
<path d="M363.336 371.957C355.382 374.354 341.969 378.529 336.528 381.016C329.947 384.024 317.764 378.951 311.614 376.329C321.768 357.52 311.147 340.956 300.697 330.506C306.847 332.544 313.06 335.704 318.913 340.453C318.913 340.453 319.91 335.174 315.932 329.572C316.049 329.572 324.12 329.635 329.256 346.19C335.128 365.134 346.35 368.581 363.112 369.919C364.27 370.009 364.459 371.634 363.345 371.966L363.336 371.957Z" fill="#1E5926"/>
<path d="M349.438 372.235C349.438 372.235 344.581 375.836 331.123 376.383C323.528 376.698 318.635 374.247 313.715 371.706C310.348 369.973 306.99 368.195 302.735 367.217C292.275 364.829 287.364 375.53 287.364 375.53C284.994 371.472 287.041 367.782 287.041 367.782C264.838 376.994 271.734 405.715 271.734 405.715C256.318 393.801 263.222 375.234 263.222 375.234C255.941 375.019 250.366 386.367 250.366 386.367C247.789 369.452 259.039 360.977 259.039 360.977C253.93 359.307 245.608 364.191 245.608 364.191C260.251 343.667 290.668 347.546 290.668 347.546C289.887 342.437 282.013 337.67 282.013 337.67C295.166 335.039 305.473 340.534 312.18 346.163C317.926 350.993 321.023 355.904 321.023 355.904C320.592 352.583 321.023 349.611 321.023 349.611C330.315 370.655 349.429 372.235 349.429 372.235H349.438Z" fill="#8AC652"/>
<path d="M322.334 368.554C311.883 364.353 306.111 352.789 305.626 353.014C305.132 353.238 308.175 360.968 314.325 366.005C310.977 364.82 307.412 363.428 303.588 361.749C298.614 359.568 293.918 358.571 289.555 358.759C289.537 358.759 289.519 358.75 289.51 358.75C281.026 358.535 275.89 353.04 275.469 353.373C275.047 353.714 278.162 358.176 283.648 359.792C282.238 360.241 280.873 360.833 279.545 361.57C277.04 362.961 274.93 364.757 273.17 366.705C267.487 370.054 260.053 368.115 259.883 368.626C259.712 369.138 262.783 370.61 265.736 370.61C267.227 370.61 268.924 370.431 270.674 369.901C268.205 373.555 266.778 380.81 267.307 380.881C267.352 380.881 267.397 380.89 267.442 380.89C267.918 380.89 273.233 367.307 280.487 363.275C284.985 360.771 290.058 360.088 295.624 361.21C292.168 362.324 290.148 365.861 290.579 366.175C290.749 366.301 294.771 362.081 300.58 362.638C301.316 362.907 302.052 363.204 302.807 363.527C322.029 371.966 344.106 373.313 344.106 372.774C344.106 372.235 331.473 371.104 322.343 368.554H322.334Z" fill="#1E5926"/>
<path d="M349.439 372.236C349.439 372.236 344.581 375.836 331.123 376.383C323.528 376.698 318.635 374.247 313.715 371.706C317.198 362.36 315.771 353.687 312.18 346.163C317.926 350.993 321.023 355.904 321.023 355.904C320.592 352.583 321.023 349.611 321.023 349.611C330.315 370.655 349.43 372.236 349.43 372.236H349.439Z" fill="#628B3A"/>
<path d="M344.097 372.774C344.097 372.235 331.465 371.104 322.334 368.554C319.766 367.522 317.495 366.05 315.502 364.416C315.367 365.565 315.16 366.732 314.882 367.899C330.217 372.442 344.115 373.205 344.115 372.774H344.097Z" fill="#102C13"/>
<path d="M389.229 389.087C376.768 410.437 359.701 389.734 358.506 387.615C333.512 343.991 369.801 312.361 368.661 297.592C368.589 296.748 368.499 295.931 368.364 295.141C368.293 294.719 368.212 294.306 368.122 293.902C365.931 283.99 358.471 278.72 353.263 276.189C353.236 276.171 353.191 276.153 353.165 276.144C350.148 274.68 347.921 274.142 347.921 274.142C348.119 274.124 348.307 274.097 348.496 274.07C361.11 272.687 366.389 273.603 368.373 274.231C369.163 274.474 369.424 274.68 369.424 274.68C374.658 280.507 377.719 285.66 379.336 290.428C385.746 309.434 369.11 322.578 374.389 350.167C374.496 350.724 374.604 351.29 374.73 351.855C377.046 362.494 383.941 369.542 392.093 376.114C392.093 376.114 392.704 382.722 389.238 389.087H389.229Z" fill="#369F44"/>
<path d="M389.229 389.087C388.071 388.118 387.191 387.283 387.191 387.283C370.438 372.532 361.137 345.176 370.097 319.777C379.811 292.25 372.405 286.397 372.405 286.397C371.74 289.898 370.223 292.313 368.113 293.902C365.922 283.99 358.462 278.72 353.254 276.189C353.227 276.171 353.183 276.153 353.156 276.144C351.306 275.147 349.654 274.483 348.487 274.079C361.101 272.696 366.38 273.612 368.364 274.24C369.154 274.483 369.415 274.689 369.415 274.689C374.649 280.516 377.711 285.669 379.327 290.437C385.737 309.443 369.101 322.587 374.38 350.176C374.487 350.733 374.595 351.299 374.721 351.864C377.037 362.503 383.932 369.551 392.084 376.123C392.084 376.123 392.695 382.731 389.229 389.096V389.087Z" fill="#1E5926"/>
<path d="M379.865 242.252C373.051 259.759 360.679 275.003 344.582 285.993C337.651 290.733 330.01 294.683 321.84 297.673C316.965 299.46 311.893 300.914 306.658 301.982C302.493 302.844 298.228 303.464 293.865 303.823C285.479 304.523 277.246 304.245 269.319 303.078C236.746 298.319 209.157 278.738 195.591 251.427C196.794 246.319 198.572 241.022 200.978 235.599C200.978 235.599 187.233 224.143 186.918 220.363C186.164 211.43 186.829 202.685 188.723 194.309C190.635 185.834 193.813 177.744 198.078 170.221C202.863 161.772 209.022 154.042 216.294 147.327C226.107 138.241 237.949 130.987 251.201 126.237C255.493 124.684 259.928 123.409 264.489 122.413H264.498C269.058 121.416 273.745 120.707 278.53 120.303C282.265 119.989 285.973 119.872 289.636 119.944C293.595 120.025 297.492 120.312 301.325 120.806C309.621 121.874 317.621 123.903 325.144 126.794C341.628 133.088 355.921 143.421 366.479 156.574C377.118 169.844 383.986 185.986 385.468 203.763C386.59 217.221 384.534 230.257 379.856 242.243L379.865 242.252Z" fill="#F51405"/>
<path d="M188.714 194.327C190.626 185.852 193.805 177.762 198.069 170.239C202.854 161.79 209.013 154.06 216.286 147.345C226.099 138.259 237.941 131.005 251.192 126.255C255.484 124.702 259.919 123.427 264.48 122.431C248.319 128.581 212.488 147.794 214.095 196.868C214.185 199.732 214.068 202.587 213.736 205.406C212.551 215.605 187.556 199.417 188.705 194.327H188.714Z" fill="#E67F80"/>
<path d="M379.865 242.252C373.051 259.759 360.679 275.003 344.582 285.992C337.651 290.733 330.01 294.683 321.84 297.673C316.965 299.46 311.893 300.914 306.658 301.982C302.493 302.844 298.228 303.464 293.865 303.823C285.479 304.523 277.246 304.245 269.319 303.078C326.419 274.976 365.411 242.7 368.203 205.397C369.702 185.358 366.533 170.104 360.383 158.442C352.312 143.089 339.096 133.967 324.632 128.302C313.096 123.777 300.769 121.461 289.627 119.944C293.586 120.025 297.483 120.312 301.316 120.806C309.612 121.874 317.612 123.903 325.135 126.794C341.619 133.088 355.912 143.421 366.47 156.574C377.109 169.844 383.977 185.986 385.459 203.763C386.581 217.221 384.525 230.257 379.847 242.243L379.865 242.252Z" fill="#960517"/>
<path d="M220.029 204.75C207.64 207.165 195.654 202.757 188.714 194.327C190.626 185.852 193.805 177.762 198.069 170.239C202.854 161.79 209.013 154.06 216.286 147.345C230.74 147.569 243.256 156.817 245.877 170.248C248.939 185.923 237.366 201.375 220.029 204.75Z" fill="#C4DFF4"/>
<path d="M214.104 196.859C214.203 199.723 214.077 202.587 213.745 205.397C203.689 205.54 194.478 201.312 188.723 194.318C190.635 185.843 193.814 177.753 198.078 170.23C202.863 161.781 209.022 154.051 216.295 147.336C220.308 147.408 224.177 148.153 227.724 149.508C219.383 160.83 213.44 176.2 214.113 196.85L214.104 196.859Z" fill="#FAFCFC"/>
<path d="M306.973 131.22C306.973 140.845 294.224 148.638 278.485 148.638C262.747 148.638 249.998 140.845 249.998 131.22C249.998 129.496 250.411 127.827 251.192 126.246C259.775 123.158 268.942 121.129 278.521 120.321C286.296 119.665 293.928 119.863 301.316 120.815C304.863 123.724 306.964 127.315 306.964 131.22H306.973Z" fill="#FDFDFD"/>
<path d="M366.479 156.583C359.736 159.905 349.914 159.501 340.757 154.797C328.116 148.305 321.382 136.015 325.144 126.803C341.628 133.097 355.921 143.43 366.479 156.583Z" fill="#FDFFFF"/>
<path d="M315.843 227.725C332.221 227.725 345.497 215.63 345.497 200.71C345.497 185.79 332.221 173.695 315.843 173.695C299.465 173.695 286.188 185.79 286.188 200.71C286.188 215.63 299.465 227.725 315.843 227.725Z" fill="#E6F8F8"/>
<path d="M344.582 285.992C337.651 290.733 330.01 294.683 321.84 297.673C322.603 293.561 325.449 289.512 329.849 286.962C334.822 284.107 340.452 283.901 344.582 285.984V285.992Z" fill="#C4DFF4"/>
<path d="M379.865 242.252C372.746 237.969 368.75 229.242 370.51 220.219C372.135 211.96 378.159 205.738 385.468 203.772C386.59 217.23 384.534 230.266 379.856 242.252H379.865Z" fill="#B8EBEC"/>
<path d="M366.479 156.583C364.647 157.49 362.591 158.118 360.383 158.46C352.312 143.107 339.096 133.985 324.632 128.32C324.767 127.8 324.938 127.306 325.135 126.812C341.619 133.106 355.912 143.439 366.47 156.592L366.479 156.583Z" fill="#9CC4E4"/>
<path d="M264.471 122.431C259.91 123.427 255.484 124.702 251.192 126.246C250.689 127.261 250.366 128.311 250.178 129.389C255.546 126.166 260.583 123.912 264.471 122.431Z" fill="#FAFCFC"/>
<path d="M367.538 213.495C365.482 220.085 358.677 240.034 345.47 260.782C336.025 275.659 323.277 290.948 306.658 301.991C299.153 306.983 290.839 311.113 281.681 313.941C232.186 329.24 195.968 307.719 193.751 270.999C193.392 264.876 193.966 258.322 195.582 251.445C196.785 246.337 198.563 241.04 200.969 235.617C200.969 235.617 196.956 235.123 191.901 233.022C190.833 232.582 189.719 232.079 188.579 231.478C182.815 228.47 177.375 223.057 173.649 214.797C173.065 213.513 172.562 212.265 172.149 211.035C160.873 178.319 203.546 165.561 206.535 164.592C238.605 154.078 268.645 169.045 290.543 179.45C294.646 181.398 298.803 183.508 303.049 185.681C304.324 186.336 305.626 187.001 306.919 187.674C310.429 189.461 314.011 191.283 317.701 193.097C318.447 193.465 319.183 193.824 319.937 194.192C321.427 194.91 322.945 195.629 324.471 196.338C325.243 196.697 326.015 197.047 326.778 197.397C327.55 197.747 328.322 198.089 329.094 198.439C329.112 198.448 329.121 198.448 329.13 198.457C329.911 198.798 330.693 199.139 331.483 199.48C332.174 199.785 332.874 200.073 333.583 200.378C334.49 200.755 335.406 201.132 336.331 201.5C337.148 201.832 337.983 202.165 338.809 202.488C339.554 202.784 340.29 203.062 341.044 203.35C341.251 203.431 341.466 203.502 341.673 203.583C342.4 203.853 343.145 204.122 343.89 204.382C344.653 204.652 345.426 204.93 346.189 205.19C347.239 205.549 348.307 205.908 349.376 206.25C350.175 206.51 350.983 206.77 351.8 207.022C352.599 207.264 353.398 207.507 354.215 207.749C356.352 208.377 358.533 208.97 360.76 209.527C361.415 209.688 362.08 209.859 362.735 210.011C363.04 210.092 363.337 210.155 363.651 210.227C364.333 210.38 365.007 210.541 365.698 210.694C365.761 210.703 365.824 210.721 365.886 210.73C366.174 210.793 366.434 210.909 366.659 211.053C367.431 211.583 367.817 212.552 367.529 213.504L367.538 213.495Z" fill="#C4DFF4"/>
<path d="M345.47 260.773C336.025 275.65 323.277 290.939 306.658 301.982C299.153 306.974 290.839 311.104 281.681 313.932C232.186 329.231 195.968 307.71 193.751 270.99H193.76C193.76 270.99 196.659 306.04 245.823 312.056C272.434 315.315 312.503 298.58 345.461 260.782L345.47 260.773Z" fill="#FFFFFD"/>
<path d="M358.767 209.976C358.767 209.976 316.705 315.333 237.025 295.814C198.518 286.388 214.355 249.479 214.355 249.479L200.978 235.599C200.978 235.599 196.965 235.105 191.91 233.004C186.46 223.927 177.491 203.134 204.578 196.895C228.514 191.382 246.99 195.979 268.636 203.763C268.636 203.763 296.693 214.052 312.09 214.797C327.487 215.551 358.776 209.967 358.776 209.967L358.767 209.976Z" fill="#9CC4E4"/>
<path d="M366.667 211.044C335.343 207.767 312.162 202.192 284.806 188.716C257.001 175.015 235.13 168.479 202.414 175.428C169.707 182.377 172.437 210.568 172.437 210.568L172.14 211.026C160.864 178.31 203.537 165.552 206.526 164.583C238.596 154.069 268.636 169.036 290.534 179.441C294.637 181.389 298.794 183.499 303.04 185.672C304.315 186.327 305.608 186.992 306.91 187.665C310.42 189.452 314.002 191.274 317.692 193.088C318.437 193.456 319.174 193.815 319.928 194.183C321.418 194.901 322.935 195.629 324.462 196.329C325.234 196.688 326.006 197.038 326.769 197.388C327.541 197.747 328.313 198.089 329.085 198.43C329.103 198.439 329.112 198.439 329.121 198.448C329.902 198.798 330.684 199.139 331.474 199.471C332.165 199.776 332.865 200.073 333.574 200.369C334.481 200.746 335.397 201.123 336.322 201.491C337.139 201.832 337.956 202.156 338.8 202.479C339.545 202.775 340.281 203.053 341.035 203.341C341.242 203.422 341.457 203.493 341.664 203.574C342.391 203.844 343.136 204.113 343.881 204.373C344.644 204.652 345.416 204.921 346.18 205.181C347.23 205.54 348.298 205.9 349.367 206.241C350.166 206.501 350.974 206.77 351.791 207.013C352.59 207.264 353.389 207.498 354.206 207.74C356.343 208.368 358.524 208.961 360.751 209.518C361.406 209.679 362.071 209.85 362.726 210.002C363.031 210.083 363.328 210.146 363.642 210.218C364.315 210.371 365.007 210.532 365.689 210.685C365.752 210.694 365.815 210.712 365.877 210.721C366.165 210.784 366.425 210.9 366.65 211.044H366.667Z" fill="#FDFDFD"/>
<path d="M220.155 246.57C220.155 246.57 207.074 294.252 255.062 288.578C255.062 288.578 295.139 286.271 320.404 238.732L332.3 212.265C332.3 212.265 318.105 230.472 264.991 216.862C238.596 210.101 161.519 201.231 220.155 246.579V246.57Z" fill="#803C57"/>
<path d="M214.813 248.626C215.325 263.556 205.7 276.054 193.329 276.53C192.17 276.575 191.03 276.512 189.908 276.35H189.872C179.063 274.77 170.462 263.88 170.004 250.359C169.555 237.287 176.872 226.091 186.999 223.182C188.445 222.76 189.944 222.518 191.488 222.455C203.86 221.979 214.31 233.695 214.813 248.626Z" fill="#15804B"/>
<path d="M189.881 276.341L176.782 274.734C176.701 274.725 176.621 274.716 176.54 274.707L176.378 274.689H176.36C170.022 273.926 164.446 270.353 160.801 265.083C160.083 264.077 159.464 263.009 158.916 261.878C158.485 261.016 158.108 260.136 157.794 259.211C156.923 256.751 156.402 254.094 156.303 251.301C156.276 250.583 156.285 249.865 156.312 249.156C156.555 243.58 158.458 238.274 161.528 234.001C163.881 230.715 166.924 228.03 170.426 226.316C172.679 225.193 175.13 224.484 177.698 224.251L186.99 223.164C185.195 223.694 183.498 224.457 181.909 225.454C178.928 227.33 176.36 229.979 174.376 233.193C171.71 237.493 170.102 242.799 169.977 248.527C169.968 249.12 169.968 249.73 169.986 250.341C170.085 253.348 170.587 256.221 171.431 258.879C171.719 259.795 172.051 260.683 172.41 261.545C172.886 262.703 173.442 263.817 174.071 264.867C177.671 271.08 183.372 275.38 189.854 276.323L189.881 276.341Z" fill="#0CD17B"/>
<path d="M171.458 258.897L157.803 259.211C156.932 256.751 156.411 254.094 156.312 251.301C156.285 250.583 156.294 249.865 156.321 249.156L169.995 248.545C169.986 249.138 169.986 249.748 170.004 250.359C170.102 253.366 170.605 256.239 171.449 258.897H171.458Z" fill="#058969"/>
<path d="M174.098 264.885L160.81 265.083C160.092 264.077 159.472 263.009 158.925 261.878L172.437 261.563C172.913 262.721 173.469 263.835 174.098 264.885Z" fill="#058969"/>
<path d="M181.927 225.463C178.946 227.339 176.378 229.988 174.394 233.202L161.546 234.001C163.899 230.715 166.942 228.03 170.444 226.316L181.927 225.454V225.463Z" fill="#A1F4CA"/>
<path d="M324.947 275.282C324.947 275.282 193.697 271.026 193.284 270.99C192.404 270.909 191.56 270.748 190.734 270.505C188.642 269.877 186.739 268.728 185.096 267.148C184.27 266.376 183.516 265.487 182.833 264.517C180.822 261.662 179.413 258.044 178.811 254.031C178.533 252.181 178.425 250.233 178.506 248.249C178.667 244.532 179.395 241.372 180.571 238.732C182.061 235.294 184.279 232.744 186.829 231.02C189.504 229.215 192.574 228.327 195.582 228.3L318.393 218.532C317.54 219.438 316.723 220.39 315.96 221.378C313.76 224.197 311.937 227.33 310.582 230.661C308.75 235.141 307.745 239.98 307.745 244.963C307.745 246.058 307.799 247.136 307.897 248.204C308.328 253.025 309.711 257.55 311.875 261.581C312.35 262.488 312.871 263.377 313.437 264.221C314.442 265.774 315.565 267.228 316.803 268.593C319.156 271.206 321.903 273.468 324.947 275.282Z" fill="#139155"/>
<path d="M311.875 261.581L182.824 264.517C180.813 261.662 179.404 258.044 178.802 254.031L307.888 248.204C308.319 253.025 309.702 257.55 311.866 261.581H311.875Z" fill="#0B604A"/>
<path d="M316.795 268.584L190.725 270.496C188.633 269.868 186.73 268.719 185.087 267.139L313.428 264.212C314.433 265.765 315.556 267.219 316.795 268.584Z" fill="#0B604A"/>
<path d="M315.96 221.369C313.76 224.188 311.937 227.321 310.582 230.652L180.562 238.723C182.052 235.285 184.27 232.735 186.82 231.011L315.951 221.369H315.96Z" fill="#8ED7B3"/>
<path d="M216.259 250.682C216.259 250.682 216.196 250.718 216.169 250.745C216.061 250.817 215.935 250.87 215.81 250.906C215.451 251.014 215.038 250.978 214.669 250.709C214.669 250.7 214.661 250.7 214.661 250.7C199.371 239.37 196.722 227.707 196.354 222.5C196.345 222.428 196.336 222.365 196.336 222.293C196.336 222.222 196.327 222.159 196.327 222.087C196.309 221.71 196.3 221.387 196.3 221.09C196.3 220.031 196.686 219.007 197.414 218.217C199.434 216.036 203.456 213.657 206.553 212.014C206.823 211.87 207.092 211.735 207.343 211.601C209.283 210.604 210.692 209.967 210.692 209.967C210.504 211.116 210.423 212.427 210.414 213.863C210.351 224.493 214.732 241.901 216.734 249.308C216.887 249.874 216.663 250.368 216.277 250.673L216.259 250.682Z" fill="#FDFDFD"/>
<path d="M243.327 211.987C243.238 212.866 243.139 213.719 243.04 214.572C240.984 232.645 237.869 243.634 235.472 250.808C235.023 252.145 234.008 253.061 232.626 251.849C231.862 251.185 231.135 250.52 230.426 249.856C214.93 235.321 211.554 220.48 210.845 213.728C210.594 211.349 210.683 209.976 210.683 209.976C220.065 207.094 230.812 208.719 237.321 210.272C240.993 211.143 243.327 211.987 243.327 211.987Z" fill="#FDFDFD"/>
<path d="M279.85 219.995C279.652 221.054 279.41 222.159 279.141 223.29C276.744 233.282 271.644 245.6 268.969 250.511C268.403 251.544 267.065 251.822 266.266 250.96C265.674 250.323 265.099 249.703 264.533 249.075C249.019 232.017 244.854 219.896 243.74 214.743C243.336 212.929 243.318 211.978 243.318 211.978C246.577 212.947 265.072 216.88 274.427 218.855C277.695 219.546 279.85 219.995 279.85 219.995Z" fill="#FDFDFD"/>
<path d="M318.106 217.58C317.639 218.63 317.163 220.641 316.669 221.665C309.406 236.972 300.688 249.192 298.049 253.384C297.366 254.471 295.849 254.578 295.005 253.6C293.685 252.082 292.5 250.565 291.396 249.075C283.396 238.184 280.936 228.363 280.182 223.407C279.85 221.243 279.85 219.995 279.85 219.995C288.209 221.045 300.975 219.268 309.424 218.496C314.559 218.029 318.106 217.58 318.106 217.58Z" fill="#FDFDFD"/>
<path d="M240.706 288.578C240.706 288.578 239.162 288.453 236.827 287.977C230.507 286.693 218.377 282.787 215.199 271.655C215.199 271.655 217.56 259.831 220.164 254.507C220.882 253.043 221.628 252.065 222.337 251.975C225.65 251.517 230.264 272.894 240.706 288.587V288.578Z" fill="#FDFDFD"/>
<path d="M268.708 285.822C267.784 286.145 266.634 286.513 265.261 286.881C259.991 288.318 251.569 289.799 240.787 289C240.787 289 239.251 271.637 241.343 256.401C241.496 255.234 241.684 254.067 241.891 252.935C242.115 251.741 243.148 250.888 244.171 251.535C262.307 262.937 270.504 285.202 268.717 285.822H268.708Z" fill="#FDFDFD"/>
<path d="M290.552 274.492C290.552 274.492 288.963 275.47 286.593 276.853C281.457 279.87 272.65 284.789 268.636 285.723C268.636 285.723 268.78 268.01 269.974 258.798C270.333 256.006 270.701 253.896 271.366 253.501C272.901 252.612 283.127 256.141 289.95 272.974C290.157 273.468 290.354 273.971 290.543 274.483L290.552 274.492Z" fill="#FDFDFD"/>
<path d="M216.259 250.682C216.259 250.682 216.196 250.718 216.169 250.745C216.061 250.817 215.935 250.87 215.81 250.906C215.451 251.014 215.038 250.978 214.669 250.709C214.373 247.073 212.057 241.444 210.019 234.243C206.535 221.916 206.921 216.341 207.334 211.61C209.274 210.613 210.683 209.976 210.683 209.976C210.495 211.125 210.414 212.436 210.405 213.872C210.342 224.502 214.723 241.91 216.725 249.317C216.878 249.883 216.654 250.377 216.268 250.682H216.259Z" fill="#C4DFF4"/>
<path d="M243.327 211.987C243.238 212.866 243.139 213.719 243.04 214.572C240.984 232.645 237.869 243.634 235.472 250.808C235.023 252.145 234.008 253.061 232.626 251.849C231.862 251.185 231.135 250.52 230.426 249.856C230.902 249.712 231.315 249.38 231.629 248.806C237.626 237.709 237.976 221.405 237.321 210.272C240.993 211.143 243.327 211.987 243.327 211.987Z" fill="#C4DFF4"/>
<path d="M279.85 219.995C279.652 221.054 279.41 222.159 279.141 223.29C276.744 233.282 271.644 245.6 268.969 250.511C268.403 251.544 267.065 251.822 266.266 250.96C265.674 250.323 265.099 249.703 264.533 249.075C269.274 246.893 272.488 235.168 274.49 227.159C275.361 223.712 275.119 220.956 274.427 218.846C277.695 219.537 279.85 219.986 279.85 219.986V219.995Z" fill="#C4DFF4"/>
<path d="M318.105 217.58C317.639 218.63 317.163 220.641 316.669 221.665C309.406 236.972 300.688 249.192 298.048 253.384C297.366 254.471 295.849 254.578 295.005 253.6C293.685 252.082 292.5 250.565 291.396 249.075C293.155 249.793 294.709 250.215 295.678 249.991C298.192 249.416 305.895 230.589 309.424 218.496C314.559 218.029 318.105 217.58 318.105 217.58Z" fill="#C4DFF4"/>
<path d="M240.706 288.578C240.706 288.578 239.162 288.452 236.827 287.977C230.282 277.984 224.411 260.513 222.723 255.27C222.462 254.435 221.547 253.995 220.712 254.291L220.155 254.498C220.873 253.034 221.619 252.056 222.328 251.966C225.641 251.508 230.255 272.885 240.697 288.578H240.706Z" fill="#C4DFF4"/>
<path d="M268.708 285.822C267.784 286.145 266.634 286.513 265.261 286.881C263.375 272.508 251.713 259.651 246.12 256.042C242.771 253.878 241.343 256.401 241.343 256.401C241.496 255.234 241.684 254.067 241.891 252.935C242.115 251.741 243.148 250.888 244.171 251.535C262.307 262.937 270.504 285.202 268.717 285.822H268.708Z" fill="#C4DFF4"/>
<path d="M290.552 274.492C290.552 274.492 288.963 275.47 286.593 276.853C282.526 266.483 277.175 260.217 274.643 257.846C270.89 254.318 269.974 258.798 269.974 258.798C270.333 256.006 270.701 253.896 271.366 253.501C272.901 252.612 283.127 256.141 289.95 272.974C290.157 273.468 290.354 273.971 290.543 274.483L290.552 274.492Z" fill="#C4DFF4"/>
<path d="M401.278 243.087C401.278 265.954 384.902 284.484 364.71 284.484C362.825 284.484 360.967 284.323 359.153 284.008H359.099C341.565 280.947 328.152 263.799 328.152 243.087C328.152 222.374 340.694 206.384 357.357 202.533C359.728 201.976 362.197 201.689 364.71 201.689C384.902 201.689 401.278 220.219 401.278 243.087Z" fill="#15804B"/>
<path d="M390.576 246.462C388.466 264.418 374.82 277.571 360.114 275.847C357.411 275.524 354.853 274.734 352.5 273.513C342.05 268.18 335.568 254.857 337.291 240.205C338.863 226.872 346.79 216.179 356.801 212.265C360.257 210.918 363.965 210.38 367.754 210.819C382.46 212.552 392.677 228.506 390.576 246.462Z" fill="#0B4B39"/>
<path d="M380 245.843C378.07 262.237 365.905 274.393 352.509 273.513C342.059 268.18 335.577 254.857 337.301 240.205C338.872 226.872 346.799 216.179 356.81 212.265C357.393 212.274 357.986 212.319 358.587 212.391C372.396 214.007 381.984 228.991 380.009 245.843H380Z" fill="#0C140C"/>
<path d="M359.09 283.999L337.839 280.758C337.704 280.74 337.579 280.713 337.453 280.704L337.193 280.66C337.193 280.66 337.166 280.66 337.148 280.651C332.264 279.914 327.676 278.227 323.627 275.776C318.312 272.561 313.877 268.019 310.743 262.587C309.899 261.114 309.145 259.561 308.499 257.963C308.131 257.047 307.799 256.105 307.502 255.162C306.371 251.562 305.761 247.719 305.761 243.715C305.761 242.79 305.788 241.865 305.859 240.95C306.326 234.198 308.49 227.761 311.946 222.195C313.356 219.887 314.999 217.733 316.822 215.757C318.043 214.447 319.335 213.217 320.718 212.094C326.697 207.147 334.095 204.005 342.14 203.628L357.339 202.524C351.71 203.835 346.539 206.6 342.176 210.46C338.916 213.351 336.097 216.853 333.871 220.803C330.702 226.405 328.699 232.914 328.242 239.917C328.161 240.959 328.125 242.018 328.125 243.087C328.125 247.1 328.628 250.978 329.57 254.65C329.822 255.602 330.082 256.536 330.396 257.469C330.935 259.121 331.563 260.719 332.282 262.264C337.552 273.693 347.401 281.97 359.072 283.999H359.09Z" fill="#0CD17B"/>
<path d="M329.588 254.65L307.511 255.162C306.38 251.562 305.77 247.719 305.77 243.715C305.77 242.79 305.797 241.865 305.868 240.95L328.26 239.917C328.179 240.959 328.143 242.018 328.143 243.087C328.143 247.1 328.646 250.978 329.588 254.65Z" fill="#058969"/>
<path d="M332.3 262.255L310.752 262.587C309.908 261.114 309.154 259.561 308.508 257.963L330.414 257.46C330.953 259.112 331.581 260.71 332.3 262.255Z" fill="#058969"/>
<path d="M342.194 210.469C338.935 213.36 336.115 216.862 333.889 220.812L311.956 222.195C313.365 219.887 315.008 217.733 316.831 215.757C318.052 214.447 319.344 213.217 320.727 212.094L342.185 210.469H342.194Z" fill="#A1F4CA"/>
</svg>
