<?xml version="1.0" encoding="UTF-8"?>
<svg id="Layer_1" xmlns="http://www.w3.org/2000/svg" version="1.1" viewBox="0 0 10.32 7.91">
  <!-- Generator: Adobe Illustrator 29.7.1, SVG Export Plug-In . SVG Version: 2.1.1 Build 8)  -->
  <defs>
    <style>
      .st0 {
        fill: #151134;
      }
    </style>
  </defs>
  <path class="st0" d="M0,7.91v-2.16c0-.64.12-1.31.35-2.01.23-.71.57-1.39,1-2.05.44-.65.95-1.22,1.53-1.69l1.64,1.2c-.46.68-.86,1.39-1.19,2.12-.33.73-.49,1.53-.49,2.39v2.19H0Z"/>
  <path class="st0" d="M5.8,7.91v-2.16c0-.64.12-1.31.35-2.01.23-.71.57-1.39,1-2.05.44-.65.95-1.22,1.53-1.69l1.64,1.2c-.46.68-.86,1.39-1.19,2.12-.33.73-.49,1.53-.49,2.39v2.19h-2.84Z"/>
</svg>