<svg width="210" height="210" viewBox="0 0 210 210" fill="none" xmlns="http://www.w3.org/2000/svg">
<path d="M104.824 0L129.241 13.697L157.236 14.0437L171.533 38.1143L195.604 52.4119L195.95 80.4064L209.647 104.824L195.95 129.241L195.604 157.236L171.533 171.533L157.236 195.604L129.241 195.95L104.824 209.647L80.4064 195.95L52.4119 195.604L38.1143 171.533L14.0437 157.236L13.697 129.241L0 104.824L13.697 80.4064L14.0437 52.4119L38.1143 38.1143L52.4119 14.0437L80.4064 13.697L104.824 0Z" fill="#87E0E1"/>
<path fill-rule="evenodd" clip-rule="evenodd" d="M105.144 10.0469L187.317 57.358V151.98L105.144 199.291L22.9705 151.98V57.358L105.144 10.0469ZM178.446 62.4654L105.144 20.2616L31.8413 62.4654V146.873L105.144 189.076L178.446 146.873V62.4654Z" fill="#160C56"/>
<path fill-rule="evenodd" clip-rule="evenodd" d="M105.144 189.077V146.873V104.669L68.4926 83.5675L31.8413 62.4657V104.669V146.873L105.144 189.077Z" fill="white"/>
<path d="M141.795 167.975L178.446 146.873L141.795 125.771L105.144 146.873V189.077L141.795 167.975Z" fill="#160C56"/>
<path d="M105.144 104.669V146.873L141.795 125.771L105.144 104.669Z" fill="#1B46DD"/>
<path d="M141.795 83.5675L105.144 104.669L141.795 125.771L178.446 104.669L141.795 83.5675Z" fill="#B068E9"/>
<path d="M141.795 41.3638L105.144 20.262L68.4926 41.3638L31.8413 62.4657L68.4926 83.5675L105.144 62.4657L141.795 83.5675L178.446 62.4657L141.795 41.3638Z" fill="#F9DB4E"/>
<path d="M105.144 104.669L141.795 83.5675L105.144 62.4657L68.4926 83.5675L105.144 104.669Z" fill="#E94A5D"/>
</svg>
