<?xml version="1.0" encoding="UTF-8"?>
<svg width="166px" height="101px" viewBox="0 0 166 101" version="1.1" xmlns="http://www.w3.org/2000/svg" xmlns:xlink="http://www.w3.org/1999/xlink">
    <title>support-mobile-bottom</title>
    <defs>
        <linearGradient x1="31.5688776%" y1="0%" x2="68.4311224%" y2="100%" id="linearGradient-1">
            <stop stop-color="#4EB9FB" offset="0%"></stop>
            <stop stop-color="#2683F5" offset="100%"></stop>
        </linearGradient>
        <linearGradient x1="79.8583349%" y1="52.4235768%" x2="23.5716011%" y2="62.2595436%" id="linearGradient-2">
            <stop stop-color="#1888CF" offset="0%"></stop>
            <stop stop-color="#0352C2" offset="100%"></stop>
        </linearGradient>
        <linearGradient x1="29.3367347%" y1="0%" x2="70.6632653%" y2="100%" id="linearGradient-3">
            <stop stop-color="#4EB9FB" offset="0%"></stop>
            <stop stop-color="#2683F5" offset="100%"></stop>
        </linearGradient>
        <linearGradient x1="79.8583349%" y1="52.6127965%" x2="23.5716011%" y2="63.2167021%" id="linearGradient-4">
            <stop stop-color="#1888CF" offset="0%"></stop>
            <stop stop-color="#0352C2" offset="100%"></stop>
        </linearGradient>
    </defs>
    <g id="Page-1" stroke="none" stroke-width="1" fill="none" fill-rule="evenodd">
        <g id="mobile" transform="translate(-170.000000, -3603.000000)">
            <g id="support-mobile-bottom" transform="translate(170.000000, 3603.000000)">
                <polygon id="Rectangle" fill="url(#linearGradient-1)" points="113 66.6774194 147 45 147 79.3225806 113 101"></polygon>
                <polygon id="Rectangle-Copy-15" fill="#0237AE" transform="translate(95.000000, 73.000000) scale(-1, 1) translate(-95.000000, -73.000000) " points="78 66.6774194 112 45 112 79.3225806 78 101"></polygon>
                <polygon id="Rectangle-Copy-3" fill="url(#linearGradient-2)" transform="translate(112.500000, 44.500000) scale(-1, 1) translate(-112.500000, -44.500000) " points="78 44.5 112.5 23 147 44.5 112.5 66"></polygon>
                <polygon id="Rectangle" fill="url(#linearGradient-3)" points="148 24.8387097 166 14 166 31.1612903 148 42"></polygon>
                <polygon id="Rectangle-Copy-15" fill="#0237AE" transform="translate(139.000000, 28.000000) scale(-1, 1) translate(-139.000000, -28.000000) " points="130 24.8387097 148 14 148 31.1612903 130 42"></polygon>
                <polygon id="Rectangle-Copy-3" fill="url(#linearGradient-4)" transform="translate(147.000000, 13.000000) scale(-1, 1) translate(-147.000000, -13.000000) " points="130 13 147 2 164 13 147 24"></polygon>
                <polygon id="Rectangle" fill="url(#linearGradient-3)" points="18 22.8387097 36 12 36 29.1612903 18 40"></polygon>
                <polygon id="Rectangle-Copy-15" fill="#0237AE" transform="translate(9.000000, 26.000000) scale(-1, 1) translate(-9.000000, -26.000000) " points="0 22.8387097 18 12 18 29.1612903 0 40"></polygon>
                <polygon id="Rectangle-Copy-3" fill="#0237AE" transform="translate(18.000000, 11.000000) scale(-1, 1) translate(-18.000000, -11.000000) " points="1 11 18 0 35 11 18 22"></polygon>
            </g>
        </g>
    </g>
</svg>