<?xml version="1.0" encoding="UTF-8"?>
<svg width="303px" height="106px" viewBox="0 0 303 106" version="1.1" xmlns="http://www.w3.org/2000/svg" xmlns:xlink="http://www.w3.org/1999/xlink">
    <title>support-mobile-pricing@1x</title>
    <defs>
        <linearGradient x1="30.46875%" y1="0%" x2="69.53125%" y2="100%" id="linearGradient-1">
            <stop stop-color="#4EB9FB" offset="0%"></stop>
            <stop stop-color="#2683F5" offset="100%"></stop>
        </linearGradient>
        <linearGradient x1="30.46875%" y1="0%" x2="69.53125%" y2="100%" id="linearGradient-2">
            <stop stop-color="#4EB9FB" offset="0%"></stop>
            <stop stop-color="#2683F5" offset="100%"></stop>
        </linearGradient>
    </defs>
    <g id="Page-1" stroke="none" stroke-width="1" fill="none" fill-rule="evenodd">
        <g id="mobile" transform="translate(-30.000000, -1369.000000)">
            <g id="support-mobile-pricing" transform="translate(30.000000, 1369.000000)">
                <g id="Group-10" transform="translate(42.000000, 0.000000)">
                    <polygon id="Rectangle" fill="url(#linearGradient-1)" points="31 37.5806452 61 19 61 48.4193548 31 67"></polygon>
                    <polygon id="Rectangle-Copy-15" fill="#0237AE" transform="translate(15.000000, 43.000000) scale(-1, 1) translate(-15.000000, -43.000000) " points="0 37.5806452 30 19 30 48.4193548 0 67"></polygon>
                    <polygon id="Rectangle-Copy-3" fill="#0692EA" transform="translate(30.500000, 18.500000) scale(-1, 1) translate(-30.500000, -18.500000) " points="1 18.5 30.5 0 60 18.5 30.5 37"></polygon>
                </g>
                <polygon id="Rectangle" fill="url(#linearGradient-2)" points="15 87.2903226 30 78 30 92.7096774 15 102"></polygon>
                <polygon id="Rectangle-Copy-15" fill="#0237AE" transform="translate(7.500000, 90.000000) scale(-1, 1) translate(-7.500000, -90.000000) " points="0 87.2903226 15 78 15 92.7096774 0 102"></polygon>
                <polygon id="Rectangle-Copy-3" fill="#06A0FC" transform="translate(15.500000, 76.500000) scale(-1, 1) translate(-15.500000, -76.500000) " points="1 76.5 15.5 67 30 76.5 15.5 86"></polygon>
                <g id="Group-11" transform="translate(272.000000, 72.000000)">
                    <polygon id="Rectangle" fill="url(#linearGradient-2)" points="16 19.2903226 31 10 31 24.7096774 16 34"></polygon>
                    <polygon id="Rectangle-Copy-15" fill="#0237AE" transform="translate(7.500000, 22.000000) scale(-1, 1) translate(-7.500000, -22.000000) " points="0 19.2903226 15 10 15 24.7096774 0 34"></polygon>
                    <polygon id="Rectangle-Copy-3" fill="#0679C9" transform="translate(15.500000, 9.500000) scale(-1, 1) translate(-15.500000, -9.500000) " points="1 9.5 15.5 0 30 9.5 15.5 19"></polygon>
                </g>
            </g>
        </g>
    </g>
</svg>