<?xml version="1.0" encoding="UTF-8"?>
<svg width="333px" height="402px" viewBox="0 0 333 402" version="1.1" xmlns="http://www.w3.org/2000/svg" xmlns:xlink="http://www.w3.org/1999/xlink">
    <title>CDE576D8-79DF-4491-8EC3-6707B1CFB814</title>
    <g id="Page-1" stroke="none" stroke-width="1" fill="none" fill-rule="evenodd">
        <g id="terragrunt-support" transform="translate(-101.000000, 14.000000)">
            <g id="tło_2" transform="translate(101.000000, -14.000000)">
                <polygon id="Rectangle" fill="#5852E6" points="85 127.483871 167 76 167 157.516129 85 209"></polygon>
                <polygon id="Rectangle-Copy-5" fill="#4B5FEA" points="251 213.483871 333 162 333 243.516129 251 295"></polygon>
                <polygon id="Rectangle-Copy" fill="#5458E8" transform="translate(126.000000, 281.500000) scale(-1, 1) translate(-126.000000, -281.500000) " points="85 266.483871 167 215 167 296.516129 85 348"></polygon>
                <polygon id="Rectangle-Copy-15" fill="#5B4DE5" transform="translate(41.000000, 228.500000) scale(-1, 1) translate(-41.000000, -228.500000) " points="0 213.483871 82 162 82 243.516129 0 295"></polygon>
                <polygon id="Rectangle-Copy-2" fill="#3A70F0" transform="translate(166.500000, 211.500000) scale(-1, 1) translate(-166.500000, -211.500000) " points="85 211.5 166.5 160 248 211.5 166.5 263"></polygon>
                <polygon id="Rectangle-Copy-4" fill="#3278F2" transform="translate(250.500000, 157.500000) scale(-1, 1) translate(-250.500000, -157.500000) " points="169 157.5 250.5 106 332 157.5 250.5 209"></polygon>
                <polygon id="Rectangle-Copy-14" fill="#5457E8" transform="translate(250.500000, 51.500000) scale(-1, 1) translate(-250.500000, -51.500000) " points="169 51.5 250.5 0 332 51.5 250.5 103"></polygon>
                <polygon id="Rectangle-Copy-3" fill="#3A70F0" transform="translate(84.500000, 350.500000) scale(-1, 1) translate(-84.500000, -350.500000) " points="3 350.5 84.5 299 166 350.5 84.5 402"></polygon>
            </g>
        </g>
    </g>
</svg>