<?xml version="1.0" encoding="UTF-8"?>
<svg width="344px" height="124px" viewBox="0 0 344 124" version="1.1" xmlns="http://www.w3.org/2000/svg" xmlns:xlink="http://www.w3.org/1999/xlink">
    <title>support-mobile-links</title>
    <g id="Page-1" stroke="none" stroke-width="1" fill="none" fill-rule="evenodd">
        <g id="mobile-copy" transform="translate(-20.000000, -3622.000000)">
            <g id="support-mobile-links" transform="translate(20.000000, 3622.000000)">
                <g id="tło_dół_3-copy" transform="translate(0.000000, 6.000000)">
                    <polygon id="Rectangle-Copy-54" fill="#5458E8" transform="translate(49.999997, 69.599996) scale(-1, 1) translate(-49.999997, -69.599996) " points="33.599998 63.6387059 66.399996 43.1999974 66.399996 75.5612858 33.599998 95.9999943"></polygon>
                    <polygon id="Rectangle-Copy-55" fill="#5B4DE5" transform="translate(16.399999, 48.799997) scale(-1, 1) translate(-16.399999, -48.799997) " points="0 42.8387071 32.799998 22.3999987 32.799998 54.7612871 0 75.1999955"></polygon>
                    <polygon id="Rectangle-Copy-56" fill="#3A70F0" transform="translate(65.999996, 41.999997) scale(-1, 1) translate(-65.999996, -41.999997) " points="33.599998 41.9999975 65.9999961 21.5999987 98.3999941 41.9999975 65.9999961 62.3999963"></polygon>
                    <polygon id="Rectangle-Copy-57" fill="#3278F2" transform="translate(33.199998, 20.399999) scale(-1, 1) translate(-33.199998, -20.399999) " points="0.799999952 20.3999988 33.199998 0 65.5999961 20.3999988 33.199998 40.7999976"></polygon>
                    <polygon id="Rectangle-Copy-58" fill="#3A70F0" transform="translate(33.199998, 97.199994) scale(-1, 1) translate(-33.199998, -97.199994) " points="0.799999952 97.1999942 33.199998 76.7999954 65.5999961 97.1999942 33.199998 117.599993"></polygon>
                </g>
                <polygon id="Rectangle-Copy-53" fill="#0BB9F2" transform="translate(305.000000, 24.500000) scale(-1, 1) translate(-305.000000, -24.500000) " points="266 24.5 305 0 344 24.5 305 49"></polygon>
            </g>
        </g>
    </g>
</svg>