<?xml version="1.0" encoding="UTF-8"?>
<svg width="81px" height="61px" viewBox="0 0 81 61" version="1.1" xmlns="http://www.w3.org/2000/svg" xmlns:xlink="http://www.w3.org/1999/xlink">
    <title>support-mobile-pricing-2</title>
    <g id="Page-1" stroke="none" stroke-width="1" fill="none" fill-rule="evenodd">
        <g id="mobile-copy" transform="translate(-265.000000, -1457.000000)">
            <g id="support-mobile-pricing-2" transform="translate(265.199993, 1457.712908)">
                <polygon id="Rectangle-Copy-28" fill="#4B5FEA" transform="translate(72.405568, 28.776882) scale(-1, 1) translate(-72.405568, -28.776882) " points="64.8222347 26.3888889 79.9889013 17 79.9889013 31.1648746 64.8222347 40.5537634"></polygon>
                <g id="Group-29" transform="translate(0.000000, 0.287092)">
                    <polygon id="Rectangle-Copy-23" fill="#1D8CF8" transform="translate(25.800007, 38.000000) scale(-1, 1) translate(-25.800007, -38.000000) " points="12.8000072 33.2580645 38.8000072 17 38.8000072 42.7419355 12.8000072 59"></polygon>
                    <polygon id="Rectangle-Copy-25" fill="#3A70F0" transform="translate(39.300007, 16.500000) scale(-1, 1) translate(-39.300007, -16.500000) " points="13.8000072 16.5 39.3000072 -2.27373675e-13 64.8000072 16.5 39.3000072 33"></polygon>
                    <polygon id="Rectangle-Copy-36" fill="#07A7FD" transform="translate(6.800007, 45.500000) scale(-1, 1) translate(-6.800007, -45.500000) " points="0.800007224 43.3548387 12.8000072 36 12.8000072 47.6451613 0.800007224 55"></polygon>
                </g>
            </g>
        </g>
    </g>
</svg>